<mxfile host="app.diagrams.net" modified="2023-10-07T04:26:16.270Z" agent="Mozilla/5.0 (Windows NT 10.0; Win64; x64) AppleWebKit/537.36 (KHTML, like Gecko) Chrome/117.0.0.0 Safari/537.36" etag="I-qgQ8ZBVbbYruKazE8f" version="22.0.4" type="github">
  <diagram name="Page-1" id="eCOmAtOuytr4M5HSixTw">
    <mxGraphModel dx="794" dy="464" grid="1" gridSize="10" guides="1" tooltips="1" connect="1" arrows="1" fold="1" page="1" pageScale="1" pageWidth="850" pageHeight="1100" math="0" shadow="0">
      <root>
        <mxCell id="0" />
        <mxCell id="1" parent="0" />
        <mxCell id="jydLiOGZCY1Jxmdr5eNa-1" value="" style="shape=image;verticalLabelPosition=bottom;labelBackgroundColor=default;verticalAlign=top;aspect=fixed;imageAspect=0;image=data:image/png,iVBORw0KGgoAAAANSUhEUgAAAkgAAACACAYAAADwOpZfAAAgAElEQVR4Aey9d1QWWbb3P+F2t6HNEQwgQRQQJSOiIFHFnBVzQAQUE5izKJhzzrG1tdVO2mG6e2Z6Okzom2bee39rvb/fzH3vhPfmSeuGdf/Yv/XZeJ4uiqqH5wHU7rmw1l6nnuLUqapTZ5/zPTt+49/+7d/Eif7jP/5DGvrHtU5tcu4Pf/iD/Pa3v3X9v7nOfu/f/OY3cu/ePVm5cqVkZmZK165dpVWrVtK3b4SMnzBRli1fKfsPHJaLl6/J5as3lC5duS5ORB1/6MKlq2Kl8xeviBudu3BZrHT2/CXxlc6cuyhudPrsBbHSqTPnxVc6efqcuNGJU2fFTsdPnhEnOnbitPhKR4+fEjsdOXZSnOjw0RPiDx06clysdPDwMXGlQ0floIUOHDoqbrT/4BGx0r4Dh8WV9h+SfRbau/+QuFH1voNSi/YekGoXqqreL3baU71fnGh31T6pQ3v2ym4HqtxdLXbatbta3GhnZZXUol17ZKcL7di5W6y0feducaUdlbLdQtu27xI32rptp1hpy7ad4kpbd8gWG23esl2caNPmbVKbtsqmzc60cdNWsdKGjVvEjdZv2Cx2Wrd+k7jTRlm3/ktau26jOFHF2g1ip/KK9eJEa8rXSV1aK2vKnWn1mrVipVWrK8SNVq4ql9q0RlaucqYVK1eLncpWrBInWl62SqzEXO5OK2TZ8tpUuqxMnKikdLnYqbhkubjR0uJlUptKZWmxMxUtLRErLSkqFjcqXLJUfKXFhUVip0WLl4gTLVxUKHZasHCxONH8BYukDs1fKPMdaN78hWKnufMWiBvNmTtfDM2YOUtGjsqXlMGpEh4eLu3atZM/+7M/k9DQUMnPz5cNGzbIG2+8Ib///e/tS7zPvw1GsJfgCvCF/bz9tz/Y5hv2i81vfxqxv5k3gET7voAk2qSdR48eyezZs6Vnz57a2d/+9relZ89eMmXqNJ3cWcgBO1eu3fQAo/oAEqDpWQEkwJKvAIl6bgCJ81aAxLGvAIl6bgCJ874CJPraV4BEPV8BEqCpMQAJsOQrQAIs+QqQAEuuAAnwZAFIHLsBJM7XAkgAJheAxHlfARKgqQ5AAjQ5ACTONQogAZh8BEiAJVeAxP8sAIljXwESYMkVIG3zHSABmmoDJACTM0DivBUgcewGkDhvB0j8bixAAjT5CpAATXUBEqDJN4AEWHIDSJyvDZAATI0HSIAmK0Di2B0gAZ58A0iApsYBJACTM0Di/PMGSIAmXwESoMlXgARosgMkfvsCkABKs+fMUwIsTZ4yVfLyRkhYWLi0aNFSXnjhBenYsaP0799f1qxZI1988YUdPtT722AUp9IXkOQPtnkuAMkNJP3yl7+Un/3sZ3L//n1Zvny59OjRQ9EnKLRXr94yZuw4naQBQ05kgJG1dJIgmXNPAyRZpUfm2B+A5A0kNQYgeQNJdoDEbycJkjnnK0iyAyR+O0mQzLnGgCRXgIR0ySJB8gaQAE5WCZI5dgVJNoDkDSTVAUheQJIdIPHbSYJkztUBSS4AqdEgyQUgAZysEqSmAkgAJ6sEyRy7giSbBAmJkpMEqbEAyRtI8g8gIV36UoLEsZMEyZxrHEhyBkgAJ6sEqakAEsDJLkHit5MEyQkgeQdJtQESgMlJguQEkABMbhIkzteWIPkOkABLbhIkzvsqQaKeXYLEbycJUqMBElIlBwmSvwAJ4GQkSKY0IMlaApgyhmdJSEiotGnTRl586SX55je/KREREbJlyxb5/PPP5Ve/+pX8+7//u1eQ5ASMrOfqA0l+ASQ3kZQ/jdjfhmutD+x2zL3/8R//UT766CM5duyYzJkzR6Kjo+XFF1+Ubt26S1JyikydNl02bNqiUpir128J5ASOzDkrOOLYgCGnsjEACZWbr2q2ppIi2QHS/2QpEmDKqmbzKkXyAyQZUGQtXQHSM5QieQNJdQDSc5AiPUuQ5AqQkDDZQJIbQGosSHpaUiRvIMkOkPjtpGbzV4r0LEGSG0ByAklPS4rkDSTVBUjuIMkqQTLHbiDJH4DkBJLcAFKjQZILQHICSW4SJCeAZJUkWUESx7Nmz1XJUkZGpkRHD5DAwEBp2bKVtGzZUpKTk1U4cvXqVfnrv/5r+a//+i87vPAJW3gDSf5gm2/87ne/c9Tb+dOI/Q3qA0j/8i//Ij/60Y+ksrJS0tPTJTg4WO2JAEapQ9KkuHS5qhmQegByDDCylgYQOZVfRZDkjxTJHzVbU4Ekf6RIvkqQTD27JMlIjJzKZyVF8iZJsoIjjv0BSE0lRWq0qs0PKRKqt+dti+RN1eYkSXIFSY0CSE9P1earms0bQHJStfkHknyXInmTJNVVs7mr2pwkSW4gya5m8y5FepaqNt/UbE0JkhojRULt5mSHZM41RtXmD0iyAyPrb0ASVDBrjkyaPFVG5Y+R5JTB0qNHT9UaIWHChikvL0+FJ7/4xS88MMNN4GI/3xTYRlVsTg01JUACEP3617+Wv/3bv5VDhw5JWlqa6iIx3mrdurVERUdL6fIytQuygqD6jp3AEee+CgAJ6ZJRsZnyaYGkr5stkjdVW2MAUlNJkZxUbf6AJL9skfxQtRmVmlPZGCmSN4AEcKplrP0cbJH8AkiNliK5gyS7LZI/qjZ3gFRXzeYNJPkjRXKWJDmDJLuazRtAcrZFcgdJdlWbG0BqrBTJm6rNrm7zT83WNFKkxqra/JEieQNJzwogeZMiGUmSAUoGLAGYpkydrmCpc+fOihO+9a1vCYQw5eLFi/I3f/M3iif++Z//uV5pUmOxjccGyd5QYwESoIgXwWJ9z549MmrUKDXOQowW3KePDBuWriiXRe3qtZty7cYrSvWBIuv/3QDSVwUkGWBkLZsCJDWr2r70erOr2byCJJstkj9SJK+SJD9skZ6pwbYfUiQ3CZI/AMlJzebVHslmrO1dilTbo82rwbZNiuSfLZI7QGqswbY/IMnYHTmVdpDkpmbzByA5qdm8gSR/pEh2gNR0tkjNUiQDmuzG2t4AUmMNtptaimRAEuCoFhXMlrFjx0tiYpL06RMiHTp0VPObDh06KJ7YuXOnPHjwQO2W7dIj6+/GYBsPQKJBa0MNBUjo/u7evSslJSWSmpqq+kXQHy84fvxEWVOxTr1/sAm6fvO2Bxg9bYDUVPZIVnd/c/ysbZEa69HWVAbbx0747tVmV7N5kyKhemuMJKnZYNvi/v8VAElN4dHmJEV6eiDJd482f6RI3j3a6kqSnMCROfesQFJTeLQ5qdmaDiT9zzLYNoDIqbSDJKNScyrrSJGescG2kwTJKkWqBZRmzZHpMwokf/RYwW4pMipaOnfuIni0d+vWTVJSUmT+/Ply7do1+fnPf+4oVWootvkGQMhK//mf/yl//OMf1S7Jer6+488++0wWL14s3bt3Vx0i1ukgvfz8MRqfCKkOIAhQZCcDjkxplRLVd+yPFMkbSGqMwbYbQHJSsyFNagopUmNBkj9u/9682oydkS+lHSQ52SCZc/4AJOpaJUn+AKQmkyL5YbDtj0ebky2SXwbbTwsgeVG1OUmSXEGSH1Ik48VmLV1tkRqtanMGSf6o2Z6l279/tkjubv9OkiQ3kOSPFMkJJD0tVZubR5tdzWZCALip25oNtr+Mk9QUbv9WGyRzbKRH1tIOjszvmQWzBcIbDsA0Zux4iYqKlpeeeMNhsoPt0rRp0+Tdd9/VWEtW3NIQbPMNj+WT5eC///u/FSRZxVTWY+yJfvKTn6h4q6ysTPr166fueh07dZKw8HAZlT9aY4UgJbpx646H7MDI/DbAyFrWB4ys/3cDSXZbJG8AiWd9ViDpqwCQmk6K9HSCR/4pSJGeli2SN4CEfVIde6SnBZKa3f49MZLcvNqeltu/XYLkDSA1VtXmBpCcbZGc4yI5ASRvUiT/7JH+Z0mRnofbf2O92gwgspdWYGSODSByKg1I8pQzZ8mMGQWSnZ0r/ftHSteu3dSuGekSzl/FxcUaYPqnP/2pasjqwzZWnMOxI0ACK4G2rCEAMIj69NNP5fDhwzJr1iwZNGiQuuW1bdtO3fFnFMySjZu3avBCgI8VGJljA4icSis44tgKgOo7dgNInLeDpEtX3F3/GwOQnofb/7OUIpkYSE6lL9IjU8cuRfKmavNHimSVIJljfyRJbsEjn6nB9lcgeKQ3g+06xtpepEj2uEhebZH8CB7ppGp7elIkd3skuyTJDSA5SZH8sUXyZrCNus0OlNzskb4KwSOdQJI/UiTvXm21QdLzkCLZg0d6i43U7PZfE0zSACYDjkzpBI445wFGT6RJ+nvmLJn5hKZMmaZgqcZuqY+CJbzjCUyJZAl76A8//FD+6Z/+yVEV5zNAQjRl9HanTp1SC3LSe2BkjfoMcVZ2Tp4Uly7TWBybtmyvE4PEHpNEjSW3bpfNTkR0Wxtt3LxNfKYnKQEq9+yVKqIRG3ILsle1T/Y4UM3ue6/srrKQyw68ck+12GnX7ipxpcoq2WUhVBG+027ZuasuOS9ElbJ9p2/EguNGW7fvFCu5L0R1oxjX962t8WnqRjVmYaohQHcdsqV/+HKx2iIbN9UmbwvXho2bxdD6jXXTRJjd/7oNm8ROawnq50QO6SIq1m0QV7KlkXBb4Mor1omdnBe9mlQTqwkAaCVNKVEhq9fUpboSgnJZtdqZ6qpV1sjKlc7kbJxLsEA3sqSi0PQTK2V5WV1yio9TunylONIyggjWppJSIiw7U111yzIpLnEmJxVM0VIiLDuRPTWF98CCteLpLPESaLBwqRTaaPHiInEjq+0Kkgg3IOHUP3X7xgRdXCbFxXYqleLiuuQUmdq4x9vLJUV1+6hQ+4L+cKLaKT2cXOXNOWs/cLxwkTstWIjbvJWc03k4Gj97s+2Zt0Dm2cjNANoEYPSlNKDDWhrg4VTWASMFs6XAgZzACeouN0INVoumz5TpLjRt2gyx0tSp08WNAEH10eTJU2XChIlq4jNkSJpKlsAtgCUieRNvsaKiQjAN+td//VdXsOQqQQIggaZ+8IMfqKvdN77xDWmm5j5oHgPNY6B5DDSPgeYx0DwG/hTGAGq49957r+EA6R/+4R9Ul/en0BnN79DM1M1joHkMNI+B5jHQPAaaxwBjAICEys2uWjO/65UgUTEqKkqlR1lZ2VJVvbeZmvugeQw0j4HmMdA8BprHQPMY+FqOgYkTJymmCQ0N1VRnVntrA44o/QJImzZtkoVzZ0tyfJykJCY0ISXK7spKOXnypNy89YrcekI3bt7S35zjuJma+6B5DNQeA8eOHZejR4/5TadPn2nmp+Y5pXkMuIwB6zp0/cZNz5pk1iZ7adYq+3lffh84cFC2bdvmlTZv3iyXr1yt9zl8ud9XrY6178z8fvXadVlWWiopSYmSkgg1Dm+kJiVKanKiJCfESVnJUqms3O0BSEiQ3HK3+Q2QcjIzpG/fvpKbN0KGZ2ZJenpGg4hrhw4dpjEMMJoilkG/iH4yb/4Cmf+E4uLiJCsrS/oE95GA7t2bqbkPmseAbQz06tVbw/JPnDhZpk6b4RONGz9RBsXGSWBAQHN/2vqzeZ5pnmfhi7DQMJk0cZKuRQQjZJ1jzYKSEpMkOiq6FnXv1l0i+kbUOmev4/Ybl/SCmTNkVsFMmVVQUIcKCmbK8IwM6dGjR4Pad7vvV+V8r169NFQQz4ObPiUpyFq89JIaVAcH12TeaCjW4Lqs7BzFLGjDJowbK9u3b68FkJAWOYEkvwHSyJxsWbRosfzwR18IVvKTJk/xm7BsL1lWJjdu3VZgFNm/v6SmpsncufNl1eo18uDh60qZmZkSFRkp6WlDpKR4qYeKlxbJ8OHDPb+t/2s+/rKfmvviT68v0lLTZEnhYs/YX7lihUyeNFnGjRuvAVhv3b4r3oj4VwsXLpaFC+ZLaUmxp53kpCSZOWO653fz2PnTGzvN37TuN4WXJk2cKIWLFnnG/qIF86VPUG8ZnDJYioqKpLyiQtIzhsv6DZuU4uITpEdgoHRo314XchZzvKNatWrl+c05Xwnvqr5hIdKpYwdp3aplHeretYuEBgepB7m3Nl9u3VratWvn8329tfUs/9eyZQsJ6t1boqMipVPnTpIQHy8jR46SESNGaqTsnJxcOXP2vKYhwXvNX8wxYcIk2bGzUj759IdSUV4uY/JHOQIkJ5DUIIBUWLhE/vKvfir9+vWX/PzR6rqHK92SoqWuNHfefMnKzpbFhYUys2CWuje+cvuuRA8YIAMHDpJLl6/Km289krCwvpKWNkzyRoyUPn36yLLSEtm0bq0MG5Jai/pH9JXk+Nhmau6D/1FjIGbAABmaOtjDC8OHDZXN69ZKxrBhkpKcIkzesbFxEhsXX4fIlp2dlS3Hjx6R9WsrdONh+Cqody8ZFB31P6ovm+eP5vkzMXagDBowQNIGf8lTmenD5OSJ45KcmCAvvfiiDE5JkbFjx8n73/lQCVvc+NhYDW+BdIMcfY0htCev3H5VCDdAGI4f/+TPPYTUaN36DXLo8FFdE93uQ6Le8PC+Mjh1iERE9JOYmIF6PCw9Q74qlDZ0mISGhqnEe9iwDLly9Ya+MyEbRo7Ml6IlRdKxfTu1eT595pxcvnJN2rRtK3l5I+TYsRNC5PO0oUMVYwwfnilTp05zxRtjx42XiZMm6/8BWLNnz5Uf/fgLWb9unYwe5Q6Q7CCpQQBp0uTJcvTYCRU3zpo9W0VXPXr01A+YkztCnChjeKb06x8p5IDhYcdPmKjiy1Gj8iUhPlGuXL0ujx6/KwCp73zwkSLHxIQEWbWiTMOHZ2QMl9ycXKWc7BwZGBMjuTnZkp2VKUOHpNahIYNTJDkxvskpPm6QxA6KaVIaFBMtA6Iim5zYlYSFBNdL0ZH9JCcrU/uTPm2mr24fsJnIyszy8MKQ1CHSunUrOX7ksO5i27dvLxs2bpL7D1+X+w/f8BCxjlq1ai1zZhXI8tISTQmUPizd005oSKgMGZwqw9OH1eEl+CslKaHJeSkpIa5J+cjwZUx0VJPzErtbX3iJOthNeHgoO1uGDR3SBH2XINmZzIFf3bH5dXy2rMzhkpiQKJnDmf9q1hdUai+3biXr15ZLyxYtJDIySiW0rEsQ6hpVtw3PlL59I+TGjVt+04kTp+T48ZNKAKRX776mgGvtug0qfEAAAfXuHSRbt23X9XbSpCmea7j24sXLnvteuXJNRo8eq9GkWWMxgWGNdYtR9DzOT5k6XeITElSgMmbsOEkdMkTOnD0nlburVEgSHh4urVq2lJTkZDl77rxcvXZDc65hPlBQMEuIbTRl6jRZXLhEgoKCJW/EKEeswbsnJSdrklviic2YQfylGXL8xCkpW768XoBkBUn+A6TcHElOTpHzFy7JJ59+roQUiQ8J0gO1rVlTIevXb/TQ2rXrdVCBhg8fPlprAHznOx/KyLwRdQASOVWYmKdMmqhquGMMiEtXlM6dv6jSqNVryjWqd15OjtiJycTsjpuyTElKksT4uCal+NhBEhMd3eQUFtJH+vTuVS8NHBAty5eXqXoTFefTIsTV6NgXzJ//VKh4abGGlie8fFNRSXGxrFyxUtasKW9yqqhYKxVr1/lF2O2dOn3Wwwv79h2QkD595J13Hku3rl01/+GuXZW60zUTOiWBMFu3flkePnwowb16SkrKYDl85JinHbJms4MdO3p0HV6Ct9LT0pqcn9JSB0tifHyT8hK8OShmQJPzEvzpCy9RZ9TIkUJOM/iI6NHTpk5rdN/R/8UlpV/y5qrVUjBzpsyfN+8p8dLSJuMhKy+Wla1ocj6CN8vLK/ziI/hu3dr1smx5mY57Fk+zvpBk/YUXXpBJE8ZL+3btJDp6QB2AlJ2TLRVr10tCQmKt9cwAG28lqp6CWbM9YKchAGn//oOyefNWz73ffvSOIERYsWKVrFu3UXbt2i3Ve/fJwUOHvzK0/8BBVVHu3FUpZWUr1aQGkHTt2k1BAzVoUKy8+MILtQBSXHyc5x1Nn4I9CFRN0EkrzuCYdrNzcmXAgAESFhYu7773gfzFX/61fO/7P5BDh45IQkKCTwDJgKQGAaQFCxfJn//FX+mD33rljiBmRAdLpO2goCBFbkzAhpKSUtT46lvf+pZm4zUvSukNIKUNTpGJ48bK6PwxatCNsVVcXLzsqdorixYXSnRkpLzcsoXkZGXpJMREZGjmjJlSuHhxk1PZsmWyrry8SWnzxo2yt7pa9u/b26R07tx5ufXK7XopsFtXGRQTI+xeunXrrpGr7732QBpKRJQdMCBGxc5bthJhfbuKQzu1bychQb0loFuXJqduXTpJm1Ytnwq1bd1K2r3c+inQy9KujX+EtGjHjl3KA/DBli3bFGQAkHr26OETQOIbhIWGqiSX742OHtF937AwFXFPnTzFw0eGn1iIm5qfipYskfLVq5uUl+DNPZWVTcpHNXy5r14+gtfwKmROmjRpko57ookH9eql6swVZWXSEJo5Y4a0b9tGZs+eo22uWrlawvr0ka6dOzY5Hylvdu0ijPmnwU9Pj5da+81L7dq0kTmz58i6dRtUPbVkyVIZkjZU5syZq+vZ+LFjpGOHDpKcnFwHII3Iy5N9+w/pWsc6xnqISmjbth3ywYffrbWooxlBTcZ8St0PP/q+ZAwfLj/84Y+VDEBiASePaXnFWqWNmzarROjAgcMqQaqoWOe55q233xFc1c1aeu78BZ1jAeTf/d7Hqk76/Ic/lvfe/1BBAkDheRPPglDlB598ptIv5hykcUSqV0PqzGw1nLZKkOwAiX5GIEMMo8DAHh6MYbAG+KBLly7SokULwfgdtZzpI4AS9kv1qdgAR4b8Bkj5ebmyrHSZ56boCg8cOCTbt+9U5iWU++7dVVJdvc9DDLiyFSvlwMHDMnhwqhp4m4f2BSANGjhIJk6aotQ3op+WmVlZ0rF9exmaNkTee/87Kvq07pjrO373/Q/kvfc/8Ps60y7Xvvue//c115uSNt559/0GPwft0AY7CHTkpl1vJfWtz37s6DEJ6NpFNm3cpIOOVClu17/77vuqCvXWd4g109KGeu7x2v0HkpWRIQOjo+TxO++6tu12z+d5nn66c+eOXL92rcnp5PETcuTQYZ9py+bNumiVlpR4vvXdu69JakqySpB8BUh9gnppFmzDU/HxCTJy5Ejp3KG94E7ckP6mn3wdf07tcz0TqNP/fD3H/R+/816j+Jo24CV/ePLxO+/XevcJ48dLRFiovPbaA7l9+1WJjoySlcu+nKjN3PfxDz6Rt99+LA8e1DilPHr0jnzyyWeeudXUwy27e5fOQp48nguwyu+7r95tVH/52q9NWe/Bg4dNzkfw5uVLl33mI3hu/759EhIUJMkJCfLg4RtqHmL4YcyYsbUAEosvThCmH7ClBeAYgPSTL/5C06pgX4MaDDU4Y4jvhwAhMTFRtu/YqeqhLVu3yZ1XX5MhaWk6PzLuES5gY4PUsX//KLUfIpdY6pA0lYSUlCzX/yHlpz6E/S6GzOY36y9erDdv3VawVr13v6qwACCo2p434Tk7ePAQtT/avGWrfPrZD1X6w3OiwgQg8c4AG28ACXCFpBs14tbtO9SW2Yo1OOb77amqln37D0jK4NRa/ER6kWcKkE6dPiOrVpXXgKG9+6Wqep8cOUJcFuKz1BAPzW4XsSCiLwaUYX5fANLSoqWewckgeOvtx2pshaE2cRPMwPW1xCIe1IpB3O07/k8yDHqQOuJZAGJDF4a79+7rcxQuKRLUhr4+v7UeOwlyGOGZhAjT+j+nY3Y55F9atqxM1aTUYYczMi9XRfUBAYGaS85+7ZWr12TN6tWqIps6eZLMnzdftm7ZIq86TNJ2gLS2okL6hoUKsXfs7d5/8LqOHfTQD19/q87/7fX9+f3Gm49k3/6DcvDQkQZ/I6f78cx79+5XnTYToVOdp3VuzOjRqkJ67bX7et+GACQkSHNmzfE8N5m601JTZdKECQ3qp02btug4hseZsP19d3bO8CMqC3bZ/l5v6u8/cEjYoK1YuarBIOns2SdefosK630W+L5y9x5hvJMD8OHrb+qznzh+Qnp07yav3L6jahs7QGIne/jQYRk9aqQCqd6BARLUM1D69w2X8WPHytEjR+WLP/9LzxxpBUhXr16XHgHdNUaMeW9TAg5RFVVW7pGz5y40uB9Ne9YSYEbb8BPzhfV/jTmmXdrk22GH05i2/L22as8e6dqpo1TuqpTZs+d57n3v3mvy0kstxEiQBg4caANIOZKbm+sBSB9+9D1ZuKjG+Yg1Afsk1hW+M/aAqOgIZYMJCrY0y8tWyJQpUz35DvHWYlFHIoREFycmjJHzR4/Remw2c3LzZMGChZ5ryFE4fcZM/c18jlNGSEioXLh4Wb9PjQFzsWRl5SjwQIrPWE1ITBSkmm65Fu3nJ0+ZqjlAUUkSgsf+f2+/sQXaum2HXk9YEcAKueAwKAcLHDl6TNdgVGEGILVt27YegPS5zJhZIHv2VAvmBczDBmeYEhUeY4o6zx0gYUh17PgpHQwG9LiVWOfz0a3/bwhAunb9liwtWqK6fn+Z9Y0331bkjUEbg4cP7A/AQXKCLQAGYqNGjVYjuNfuP/Qwlz9MSl+wC8h/okL051pTd9GiQn0PbEgio6Ll9TfcQQZ9Bfo2LpQLFixSsPnue+/L7FkFujO1AyQmMABORHiYdOnUQQZE9tfda6/AAJ1c4gcNlLNnztZ6fztAmjJxgkwYN07vZZ6b8v3vfCS7KvfIhImTNPngjBkFDV7YrO2a4zlz53mSGh4+crzWM5o6/paMlaKlxZpYkT5nB+TP+PH3fvb6Dx++IX1DQ+TixRpA3RQAiXgv2CWdOHHS7z46cfKMZGZmqYFofHyi34vca/dfFzxOWCDwbKE/7e/s62+8eMaMGSc4fqxbv9HvdviOkVFRwneFt5OSkr22wWKEepJ7YkOBhJxnvXD+gvQNCdo0DCsAACAASURBVFaARDJSK0Bi0VyzarV069xJwkNDpLi4RNVv/cPDBFU3hHRo1cqV8udPQJIVIKE2D+zeTc7YeI77ombBGwhjVoxwH73zntfn97VfqYfdx4QnsbZyc0c0Sbvvf/CRrKlYqzw6eco0VfH7O5/78w72uoB51IglxSUyICbG8052gIS5QG0JUm2AhFRj4+YtKt1DMrJt+07lA741YBVwgn3Nxx9/4ko8C57cjP/TZ87KkaPHFZCeOnVGj1m33K5nzkc1mJmVowAJG0WAQc+ePYX5fE15hQJuAPToMWNVevPZ5z8SX4jND+s24P/kydM+XWPaJbk6dl30A4ITYrb17t1bn4G5GaFAVfV+tRXyFSCxcUAgQJtWHOF0jFc8wgfr//yWIBldm70kWa35i4mJUZ0fkbTtKrbvffyJiv9wobM+iNMxH46Osv6vIQAJ90AA0uj8fL93MyD7ESNG6QKHdTzZkf1Z4GDghYsLhWvJPgxj37j5ioe57Ezo7TcGfiD9adOmS58+IQ0CB+kZGeqCyrOEhIZ5XaAQJc+ZM7/GG2DKNPUYBNx5A0hbNm+Sdq1bSe9ePTXsAhHPszPSJTF2kACSmMw7tGujk7N5VztAmjpxgkyZPLnOt6LfsVciazMGd7jSNuUEOXRYurZL29zDPF9jygcP35RFi5Zou8TkQPLlTd3YmHu5XRse0kcXYf7fFABpwviJ0iuwu5w6edrvPsIuApBAHw8bli6377zqVxsXL12VGTNn6/Xjxk2QHTt3+8WP1j5iBw0f8F3qAzfW68wx4zEwMFDHCm2Qp8n8z6lEYgYY4d1zc/PUAYV6VoBE3xiAxKS+f/9+6dyhnfTtGy4hISHqiNKvb5hE9esrg5MSBPVn/sg86dapoxw/dlznSjtA6hkYoF4+9mdCMm6+BQDp9qv3vD6//Xpvv8tWrNK+5V3z8kY2SbvwzcyZBU/mwJps7o2RIHp7frf/AZBw7sAbzdSxA6S6KrbaAIn1DEEB46VTp066KAMSOA+wSUxK1thE2ODiqIQ3F5IUQ8RYQnLSrn17v4hYRRiTv/jiS/Lyyy9LYI8eCpDwcEM7snRpic6nPAfADakVAMkfio2NlR/+6Cdy7959GTkq369rsacqLi6V73/8qfYF/Qvg2nfgsL47oPv8xSt+ASTehY3IiZOnvYIkbJVwFnv0+L1aeMMOkAh6/eMf/9hAnTrlN+zAyPz2FSDxwKBddKt0JL+dCFUEou+Pf/CZDhqQJa58iMky0omJUNvNHy82Y6RtV7E1BiBhe4SBNx8PESCTnGEMX0vEhkh9GDClpcvrSEZ8bWfb9h0K1jA6Q2Xn63XWegTbZAcLuACVewN7TEgEO0NypcaA5Wt11+MGkM5fuKh2KXhJsYuaMW2qjB09SiL7hsn0adMkO2u4TBg/TvpHREh4SIjcebI42gFSaXGxYJeBvYX12TnGkwoXTAAMOnhvz2+/tr7fxOUCyGIXwBitr74v/6cPV65aXavdpnxmX57hqwSQkADhNZI/eqzacRg1ky/vQR0klNgoMiZZePFW9fVae72p06arJIsN0I1bdxrUDmMQfuJ99u474LUNNhyzZs3R+kikjVrLDSCxaGZmpEtQr54SFRUpUydNlE0bNmj4gJiYaA1eN33qFKmqrpbu3bpKZkaG/PgnX2h6CWODhATJDSCxSMNHEK7QDVF32vvU/Ga3Dx/BT4Avc76xJS7sgFHaZW5qyg2SL8/WUIBELCRjg2TWOyQtqNv4jTEymwXiG127fkNWry5XaU737gG6iWUdNFS+dr0cOHhEpXQKGgAOPhCSoYGDYoX4QtjbMN8h1QQgoa7G5AJzFiRMmzZv0WCL5ll9LbFtMhIkxoCv11EPkMIaj7cdwBchyrVrN+TgoaOuAAnQ580GiXZphyDVYAarKto8G/flWTGY59icp3wuAImPgJ0Hbq0sFtYH4phdN3pS7HWwfUGKxAA4fuK0Go+B0J8VQIJpEL2dOHlKAAANYUhElUyGoFgmSV8Y0akOfYVYFdF4Q57DtIlUzOiezTm3EqDKd2C3iS0X9dwAEqESOnfsIENSU2XunDmyY/t2GZGbI717BMqY0fmybcsWWbhwgRoldunYQe0ieCc7QCpbVuoKkB49fke/PQOaxdLtue3nDx48KLMLZnqlyRMnyOCkJDVinjVjhte69bVl/f/4MaM1P1D60DSZPmWyT+1u2bTJr/ezv6/191cJIPFcSFABNiwGDQGLGCkTVw1e8GcMWPuEY8YzUurrN/y3SzRtwds8h69tMPEfP3FS65t3dwNI77//geDJiZNL/4hwOXQIL6gE5bE+wb0lJTlJTpw4ISF9gjR0Q5dOHVWl4asECfDON4CX/AGqV69clcKFC72O45nTpmkwRWI8EXrFyg+NOabdISkpkpqcJPCVr23dvdc09koNAUiZWdlqI2QHSGbdQ1AAeGFMY7cFrcTzMCxcjZSv33il1hq5cfNW3aibur6W2O5hLA6oQCqEHZ8BSEiQUDVjnI2B+J279xzBhHlmt7IxAIk2ATDY2qJ2nDdvvixevMSrBAkpmxUgYZOF1BLwR2iE5ctX6BgHiGL3B8D+3vc/8fQn59euW69euR9+VNubkOcpLV1Wy0j7mUiQuDHiYyYL4iBhPLarcrdaqfOR2M3AsLNmz9EJ0OgP0UFjkJaaOsQvgHTt+s16VWx4S1Tt3t1gOn7smOBVcmD/gQa3sbeqSrAZOXfmbIPb4B0Q+WKUW71nT4PbOXzQ3YDbCSDhrUZ4+2lTiGu1Ru2M+kX0VVuksOAgYUIn3UtxUZGEh4XprnZM/mgFev4AJLMw2UtsW4wBIOEHzOJj6pFig917SWmZejTg1dAUtLR4mar9mqIt00bpshVStmy5StBYxI4eOykEbuT92Fj4673V1ABp4oSJgqGwNxXbmVOnGjz2GMO3bt6St9561OgxjFRk/969DX4WeAiv1wvnzje4Dd7n5s2brmDeDSAxn/DtypavkPwRubJj21aJ7BsuHdu1VakS9n1bN22SETnZGs8Gqexnn/2wlgTp4sVL6s5OOAHDC/WVbIoML7Fwvm0zsj508KAsXLBQGKdmzDZFicE8UZKboi3TRnHJcsnOzBKM1XnvCxevqDqJ92MR9gcYcr2xQYoZONDTn3YVG95VVhskANKQIUPqSJAMyPj+x5+oYTLrnKGLly5LeN8IwWYUj25Tl3Lz1u1qj2nq+lMCwjp06KBkBUi4t2NozkbeLkWx3ru+Y6R6eMJh44R3en313f7PMxw6fETatmsnuyqrXCVIuO9bAVJwnz4yZ848lbphjkH2DlSRSHcBXwhWCDqJahmNDoEk7z94w/GdqR8VFV0rF9szA0imY/i4DDykGq+99lBFjTWdc1SlRqYe5fsffFet77Fw90eCxGJZnw1S/sgR0vqlF6VtqxbSrVMHCeoRKD26dXGlnt27Sq+A7tK2VUt5ucWL0urFP5O8rEwt27RqIR3atJY+vXoK9by107tHgHRs+7K20fqlF2TapIl63KblS/oseKtwH29tYA/CM/MctNG5fVuJieqvv3mfgK6da96nnmfhXtzXvM95F085J4B07eo19cQZPSpfFs2fLyVFRdK7Z6BO8ATi69qls3o9kdtm7JgxgrH2iNxcefOtt/2SIDFW7IRIGKZg52AIaZ0VJAGQiMi+YeMW+f9+/gv5zf/9B/nzL76QqqoqpdMnT8n1a9eFEAavP3xdjh05IufPnZdzZ8+qB9G5s+c8df/3//5/9XraACCxA+cYwg6ENgG5R48ckSu4Ex8+ImdPn1HXYjyWHj9+rP87sH+/1uWev/zVr/V6RN9WgITb97x5Cz3vhRHvpSvX6vSBvU+sv5saIE2fNl3Vpt4AUgBxpp6MYcZnr4Bufo3h9i+3Ut5hPOsY7tJJgnv1kB7dvPMTxuOMXx3DL70g27dsUZ6gDSi4Z/1t9OndU+saPkiJj63ha32flhoAknfyxpM9utcYUOuztHxJ07JYv4n12A0gvf3osW4wCGw4YewYWV9RIQOjIiWqfz9JiI+VyIhwKSkqlAVz58jKlSuV1+wA6dLFywqQjvoIkADkeC0ZPqJkw4GkzDyzAqSFi2R52SqNlcO4/7u/+z8e/rh546YcPHBQrl69JhcuXNSYbQ8fvK588MqtV+Ti+Queuq/evuPhnblzF6h3muGlH//4J1pv3759cunCRYEHz5w+reEKjh49Krdu3dLfhw4eknPnavhz/779nvZ+9r/+RqUk2VkApGvqSo8qybzbzJmzFLTwzubd6isBSMuXLdc+MnXtAMkeSdsAJEwtMD3Azkjpjbfk+vWbao+0atUauX//oWDjies9ARsBSEuLSzTUzclTp9UYmyjchUXFuhZa10Zfj3lmIlBjh8SzIJyYNGmyRqweN36CEAvJ17aox/r90Xe/L3devSvHjp1Uqc+qNeWCmz7eZ2zusHsk1hN1/WkbbQvedhiQJyQmybTpMxTUDBoU5/FiswMkbHPJ0UqomEWFS2RmwWwFfXgKYqbj7f5otrgnEm4il2dn52hcKySVJlntMwdITg+MyJFgXESztP4fgITbPvljmhogsQtr3eIlCezSSfNU5Y8apSBj0IAocSIASF52lgyKjtZ4PYCitJRknYy7d+4oQT0CVEeOMaXT9ZyLiYrUSMRIWNgNdunYXsYoUKsBOV07tleDwGSi/UY7PwftDElJluHDhkli3CABcAHW8IoBeDFRZ6QNkQljx+r93J4Fr5glhGTvGSihwb21jTNnzjlOHE4ACYkVqjQA0rQpU1Sd1q9fX4nsFyHR/fupgTZJ/wjdXrK0RGIGRMuoESNUzdFYCVLlnmrPpGcmv7KyVfL6G297nt8JIL3/7ruSmZmpRBiCzRs3yYzp04X35h1KSkpl6ZIlMmHCBFm6pMhT96c//ZlnErYDpKlTp2q9osWFMnnyZFmzcpVMnjRJFi9cqGEPZhcUyM1brwj18vPzte7kKVPk//z9Lx0BEl4q5p1MuW7DJs97mUnaW/l0AFK4VwlS986d1BifMUwuRhZzt7HH+aS4WBkUHSmZ6UMlKqKvjr/2GmyzlQKRrGFDZdbMmV7HMPdYsWKldGzXRvkAcLW+fI2CHfi6fZvWUri40OuzxET2l3lz5kiPgG6SnBCnPNQvLESfp/uTjdOyZcuV57y9T9/QPjJ71izhWu4Lr7t9IzeABJ+hYouKjJJevXrImdNnZEBkP7XzCw7qpfMT8XxCQoI1SSp2R599XluC5C9AunP3fp3xNnfeAjl/4bLn+Z0AEpsGw0vbtmyVsWPHyvp164VI2Dk5OYJ3FXywa8dOWVZS6qkLzxlAZAdIjx4/1nojRoyQstJlyoOLFiyU/Xv3ybSpU2Xnzp2aCH38+PFSvHTpk7ojPe3ZARKxgPB8NXxEibu9P6E3DEBauarc0x92gGQ30jYAacKEiRrDB8kNhB0osZCwhWPjg3cu0icAFjZWABakHBhqAwQwrMZ1HqNtvhMaFTsZY2/rumk9BgAhFUHNRvusp4QFIBYTNmnWuvUdYzeFATRqq01btqldIE4IeKNhK4qtLL937KhUaR1z2ec/dLc7tt8PsLJqTYX07NlL88WNHjNONUg4ZhgvNm8AaWlJqWzdut2jtly8uNBVbYhROhIvvFm7du2m8ZVom8CfXzmAxEcGfdoRJwApICBADc2eBkACWLR7uZXkZmdL5nACFQ6QhPgER4rq31+DGQ7oHyEsAkyCACTa6Ni2jQR27SKHjhxXKZJbG0SjHj9unACQ2GF36dBOxo4aqSALCRSSoPXrNyjAiI+Lc3wO2o4fOFDysnMU3NCGAUjs4EN69ZD0IUNk0sQJMnCA+/vgYYZhYKd2bfQ5aMMXgITxYcUTldaAyEh1/w4J6SPV1dUya+YMiY7qr+9HzJa15eWyYP48mTxxosZmmTplinp0EQQtJyfPYyTqzQYJmxPUabj74xEGUxNnCkNQ68THQH/HEmPn6wqQrl69ITOfeG2Z9zty9IS8/ubbKg3bsHGzQN5scZ4XQAKgvNzyJZVAdGrfVhLi4l3HMGMH9VH/vmHKC4w/AFKrli8pQMrLzJS5s2ZpBHc3fkLFu33HLuUfNiy0AUBCGtWhzcv6G8cPMq+7tQGPLF64QKUubBrYZBiAhDQobuAANQVITUlxbYO2kVYBpNgs0Q9+AaSoKFk0b666aQcH9ZSIvn01ovbM6dNVooJrf0REuBw5ckSIMTY0NUXnGdKWsABev35DI5wTKLI+gMSuGl5CjXH23EVVp2HQasYa5dLi0lqqqK8rQEKdVrhkaa13Q6KELZrhI0rCwriBWV8AEik8rCo2VE5ZWVmCBydeWnhLESyZtYwUGAAinA7mL1gsuXkjhTykeFVOnjxNHREyM7M1owTl+PETNawEBvAYq0OAKMJGECiS1EI4mNjXTgM+kJJE9OsnXbp0VUnVydNn1WQFQ30nA2Zznb1E6kaUaZymGCMAN2zxkNrTDvf5zgcfyuUr1zVmFO+NeQDODPS3vT2n3wCkM+cuqLoXUEeqMGJfYTfnC0AqWbZcMK8xbaNBAAiZ39YSO9vNW7ZpTCrA/IYNmzQO1FcYIJXVeREAEnYko0aMrCNBQlzo5sXmi4oNCRITKjvZsD5BGrOHiQ3iPJOj+V1TvqhggvNtW5OyokaChMoN1RF5zcL7BEtr23X2dgAk7Vq31HQDtANAog6TMwsGajrc5q33trfB9bSDihDieZEghYcEy8jcHFW/BTyZqE07tEE985tS1SKtWtSoJ7wApMeP35VRebmyeNFi3SFgDAfDLClcrOk1cNEnWvORw4dlyeJFKj3aunmTlK9epWoAEnQScA0VE9f1J7nj+PE+ASSAMTtaM4EjmkbFhvgaBoD4P3pl6yRXH0CaM2u2VKwpF0DboUOHZcqkSSpRQ/Izbtw4WbxgoWfX64sEaeH8BTJx4kRZXlIqEydMkPlz58ryZctUQnX23DndTY8aNUrb9CZBwv5j85btnnfDdgIxfFFRsacP6Ist23a4hg9oDEB68OCBpnuxBoqsUbHVL0EC4If07iUhT9ReZqw58RP8w+bE/I8SgNSrZw+ZOH6cBKuquZtnvLZ68QVV4Zk2Tdmja2d5ucVLyo+0AUBCFUZ+RUALqnNT163EZV55CR556QUPQCKpbWpSoqCCA3SZ6+ElO0/yuztSq7Yvaz1vAOnUqdMqfSVQJJKDmAEDNEwGi9zOHTs1ntipU6cE9/6s7EzJyRwuI3OyZeyY0SpFasempmMHqa6q1oWRwJGk6Ni9Z69XgATfrF5d4RlHqCbgr1uvvKqLmuEnu0dnfQBp/dp1QoDS1atWaX42JEgHDhxUPti0caMUFS7x8JIvEqS8vDwpXlKkUth5c+aqFArpLJH8MeRFWrV40aJ6JUisA0SgJlQL74Z9D4Fwjx8/5ekDeIkUIm++VdeDlvnEF4A0afx4G0CqiaTNInzp8hXB6BoQgepoyJChQjww4g/FxsarZzGqPzZ8PCOx5wiZgNoTWrlyzZe0qlyQZCmtLheCQXIthH2vFQCYY/K6oWIjvhBg48q1G0Kme6Ttpo63kudmjBBuBokQEjiSXHu7hnEMqAFEAZKYn9nYuoE40xYA6fSZ84KpR2xsnLr8Y5LRUIAEdvjEASDxTgQeHTFylHzwxKsQ4AdQ+toBJGxNnJLVYrjdFAAJlVRIcB/JSE8XVbNFRwu73+HDhqonSZ+gIElNGSwYGMcOHChdOnWS2JgBCnKQICG1CesTLD0DAwWpz9jRYyQpIUEnwAH9+0nsgGgJ7t1bk2OSpHJwSoqEh9YEfevZvZtHxdalQ3vNyUT+OAAhO9bw0FAJ7NpZ4gfGSK8egdKvb18ZkZsnw9MzJCwkRKU3X6rY+gjtYbMRER6uhoo5WdmaPyuoZw/JTE/X94oI7ysZw9KFXEG434cEB0nPgG66ULlJkPCgY4JeUogaaarqyUHqnB+WNkQi+0doNnJskFKTE2VISpLMmDJZDbVDgnsr4JsxbZraNbCTwhCUdoybsZsEiQkOkakBR5SIzBHnAiROnjqjxK7YCo44rg8g8f5M6kS8xQiZctTIUZpSgwl+5IgRnkndF4BE/dycHB1D5npUanm5eap643/sKlFLeANIPDsT2clTZ/Xd0I9fvXazjqoAg0RCONjfm9/PCyABIEhJ0z+in/JsxrBhOhY5D4DGfT0sJFRys3OEsdmvb4R0aPuyDBoQreMPgNS1UwcJBmT1CZas4Zn6TSL79ZdO7drKyNxc6d2jh479IYNTNRAs94JPAELwIgAJoAaxaRmcnOKpFxIcrKptpL3hIaGSEBenHiuxgwZJ7549FdwheTISJAzTcTBAyjQmP18GpwyW4F69tI3BiQnKmzHR/G+08iR8jtoPYOYNIB09ekzIDWgA0rixY6V71y6CPc0HH3wkM6ZPk3ZtWmtQyIjwUImJ7CcZQ9Nk2tQpavcHOJo6ebJ88OFHunNPHzZU0lKHaEBebxIkDJbtKid4ET5jMYef8PKzj6n6ANKYMWMkOztbRuePFjYBjHPU1PABYIZ5j3EP+QKQuJ52SG+Dug2pO/xJW/zOyc7W/9EeUaaNys6uYuM98EjGZpB3AxwRPZ+sAtY5BYBx8OCROu/N9Q0DSDkKQqwACRDA/ZE2vf3oXfUq27Z9l0Z0BhihWqpYu0Ejve+p3i8HDh1Vd3dc3g8ePqaEhsLQ4aMnBAJE8U3x2DJAw1ry/kHBwdKtWzc5dPioAiQkUAAEaz23Y2yFAWJIw3bsrHSVyDhdj3STIJjlFevUywy7Jad65hzPuqZinUq4SAhMTCQ7QCIvndVI22qDZJcguQEkpF2791Sr1soYqDcYIP32t7/1JGYzMZAo/YmDZDrAraxRsTlLkJ42QGIBB7Vje0LiW8R6Ib17qx0PO8jx4ydI1Z4qDSu/atVqCQ/DtiK6FkBiQUpOSlbjXuxsNmzYKENSBks09kjRURI7KFbOnbsgE8eNk21bt6oYlV0uBt3GBgmAhIqPaKQ8B7slYqdQLy5mgERFRuqAmTF1qqquCCKGxAgbInbOfUP6SM9uXXVxZEdUVFgoixbM18FJZOXhw9JUsoSodsXy5UL0ahgmduAgfQ7a8BUgEYIB1QWi0+s3bgoTNNIAjGpxQWZxwHAb8MnOdvrUqfLmm2/rLoIdCDsFnwDSBx9pyAf7pM7Ew66GrNQQnhQGbJnJvT6AZCZsX0pfAJIv7Zg63gASi9WZM+c97wYYpL9gduukzjd288h5ngAJ4M5ihMRx1RNDeaSqAGcCIpJId96c2ULsq4KC2arSGhgd6QFIAV06S2R4uMybv1DVTAUzZmjoD6Qz2AAiYcpIHy6kgRibP0qDL8J7wT0CagOkdm0kJSVVqquqZMyokXL4yFFJTEgSNi1sOtJpo6paPcJIIjswZqBEhIaoZPZLgNRd0tKGacJf7OmQgKYPy1CAlJIQL9EREbJ0abF6vZQuWyYL5i9Qo2p/AdK2bdslJzNTAdHJk6fke9//WKWvgM2a5K2t1A4JVVvPgO6ybu1a+e53v6/qNdKRsAHCdfnMuYteJUjEh8OI1TqOjEG2h5fWb6ozruoDSGZc+1L6ApB8acfUqQ8gsZFDjcb7oY5l80EsK2sfAFBwfzdzh7VsKEAC0NkBEkliR48erXGDxk+YIFu37VRJMCBn1+5q2bJ1h6oEd1ZWybETpz10/OQZgU6cOuuhk6fPCbR3/yGVPM2aNdfRKHnHzl3SuvXLGgGeORO1En2CPZS3uISs1cQ3IrNCSckyDfsCsHBbw93Ocw1zGHEQWc+8GYVzP5wDwsLCVN2F2Q2gySpBsqcaaShAIoI5ds+NBki///3v5Xe/+10dkPSnApAGJyVKRflalaJgBzRrZoHEREXJ9u07JH/kKA1i1T8sVMXmixYskKjoaM3wjO0PEiSuQcVG1uec4Rk60bMAcC1xdmbPmq3W8eWrVmkbACJE29hgIF3it9oO9e6pNhs7tm7VeiOys2TB/IU6GZMLi4S8gBEmX4y7T5w6IylJSRojhB06RqIYkcbGRKtFPsAKsf+Vy1ckOTFJdlbu0d1vcfEyNfzkmtOnz0pWZpbEDhyg9/QVIDGBYJiHay0xLDDYXrxooU7wHdq2kfZtXlbX5Ii+4QoI33jjLbl0+Zou8jApTGAFSAA2dokALuvkxDHMgR0BIAmqqFivKjb7LpB0NoALc/3XFSAhKsf92UzgTN5Ekz515rwubkakfu78Jc+7mnc25fMCSIy3vmFhUlK0RPkAI2yM+Bnf2LvFx8apdwv1kBxhmwEgmlUwywOQ8IAcm5+v4S9Qa1EX13XsbY4cOynJKSlqi8XmAFD/5ptvydC0oZIcF6u8iAQJh4negd1VUjAoqgZ83bh+Q5KTUtQYH94jbUnp0qXaBpHfx4weI6RU4T4GICUMilEgRUwt+KVb54666yTi8PLSUhmcmCRFS5boM/KspNTB+wwJtD8SJGzrAPgYqwOCVq9cqQDo8eN3ZNu2bYItEhKjrVu3yLvvvqe2Sjdv3pKkhHjp0K6thtm4cu1mvQCJqMEskIaXMBRGQokkw4w3SgCE1dPr6wqQsNMDFJl3470JuIg9H4DC8BIg0fCOvXzaAGnr9p2yfsNmQWq0Y9celdaQKgOwa6Wz5y8JdO7C5Vp0+uwFVckxHxbMmqNBEg1YIcXJ6NFjNJo2Xl3MLbFxcSpF2r6zUn7wyeeugAd1GHUwLiegIuDFtOtvSeBGvPOI30QuOm+qNgBLUnKKStsiIvrVkSB95QAS0iInkPSnBJAKC4s00OHY0flqaEl8EQOQSPOxvHSZJmstK1upBm+AIStAysvJkczhmbJjx061Aaoor5D0tKEKkJj82bnu339A8keMkLUVa2X06HGuAOnwoSMyeuQI7C4bNgAAIABJREFUWbVipYwbN7EWQGL3TcJQpEOoWNwAEsGyMJjGrmbLlu21ABKpFgoXL1aVAWJFVBUNAUhMJKi22F1s2rxVdu3eowHHiJcyY8ZMKSwsVBC1s3K3lJevU0YD7HCdHSCRniRj2FDNWm6foAA9SKyIaF5VtU93P8T2MJOeKdltWCUqX1eAdOrMOV3AzHtRllesV/CHbQg6fXZk71nAoL3PnjdAYneGBAmpLOPNCpBIEkl0dTzU5s6dVxcgoc4aNUrgNbzLJo0fJyTCNAApZfBgNWzF3oVQHbjnpg1xBkjkUsQ+huClSGbtAGnnzl0C7x46cFDi4+IdAVLa0HRdIEjWDE+Sg80ApLiYgTrxI8nCW7F4aUmDARLfkEjyvDNeoEiFkFQ7ERLh4N49JSN9mOw/UBPN2xeAxD0IcEkg3j179qqRNu7n1rHGMRs41FJmXH1dAdLd1x7UkbwimcTeiE0HvIQU3ZtX29MGSNgSLllSLFV7D0jlnr2yafM2wbsPFfvlqzc8xPe10tXrt8QQXl4AGTbSu3btUbUrIAbg3bZtO/2eBiChxsPOh/sg4WJuJXm8h44eU2kR/YIhOQCT5Nv+giJ7ffoYmyQknXiPee735N6sJRD3xcWfcUppV7F9JQGSE0h6VgAJ1I8OG8kDNi9z581Xxm0qG6TkhHjBTZPdBJMDaQh6BwYKYm+82/Au4DzPQfoQ9LlOAGnggBg1uCQbM8ks4wfFKkDid1xcvE6sqEkmTZqqhnpuEiSSSdbUm/KkXn8d+EiQsrNzVS3B82DsVwsghQR7JEioDwApqDDYKVslSPzGEwLPFTzJUpKSGwyQmEDZad65c1cZjejbGBXnjRipzEkY+QsXL6mRsVW6YwdIx4+fECR5955koDcTs2n/8tXr6qkBQCBmCMxjvhd9ASGhsEqgvq4ACc8QuzoN6d/jd2p2wwS7g+AFaz9Zj583QGJcIfnCsJOxCEDCuD5uUKz+Nl5TGRmZdQBSv7BQycvOruHJgtmaiwtvHgOQhqWlyeDBQ2rG8Oy5yq9pQ9IcJUio2Bjr9Cd8bQVI8A+53fgfnkKo2JwkSKmpaTIqf4xmWSeGDMajBiAN6N9f1eWMP94JVV9DJUjm++EQceXKNdm3b7/s2lUpu3buktycXElMTBRU/JyrrNwtJ0+eVNWruc5XgITECD6CGGvwDJJgw0eURDPGU9S0/XUFSBilAxys70aARAASXnyGl+gH8672sqEACW9fX1Rs2PVgRrJ+45YaKdLO3SoxX7d+k6bDufnKq2KlW7fvCvTKnXsewhsRz0McVwBJxATCOJ28gayTbBytAIkxj+E0ayp2UYcOHf2SDh/VDBB4ySGlJl+bUUPZQY8/v5EasenBroi8dnipGeI3mz7mdoB5eN++el8ngETog6awQWoyFZvV7sgqSXpWAKl37yCJjo55agAJNRd2E0y6TIbEIAkN6q0TETtPDEA5DzEB4o21aMEijwQJd/+c7Cw1yjZtYMxJYLnFCxdJ4eIlmrDVtEHZI6C7AgKjYkONgFg/oFtXGZyS6rkfLsMYV5N+hYB4xK4w7WCwnZyYIEOHDFHxP15siXGxauA6IDraUw8DU8DHnqp9kjBooAQGdPf8jwWjX3iYpCQm+K1is08k/GayxWYDl3vEo1a3e2t9fwDSzVt3PMlfmejw8GDi22YRnXMeY0LrPZwA0t/93d/LDz//XOnooUMew1Fjz2At33n82FP373/5K48hqD0O0hc/+YmnHsa21jasx3PmzJEffPyx1uWaX//m/2qb9kCR9A0TnZnUEbffeRW7iXWec/zPKXq4ef/nBZDat26l/AGIMOM0oHs3HdsYeWIvl5CQ5Plfv/BwDQlhVbFFRvSVtCFD1DbOtDFowAC17UHFhhQWI2XzP0rUUsT+Qt2Niq13QDeJCAkWvD2t9bBjQnpKvjO86Kz/g68LZhbUUrFlD89QGyBrveAegTJ3zlzZsGGDRIT0kej+kZ52oqMHyLixY3Ru8FfFZr6dvSRdRU7uCA01AEBzC+/gAUiXr+gzYwhub4uxhdGsGVuAWDYbSFrMOUrAg/VaJ4D0q1//xjPuv//d77mOe3iguLjYU/dnlphi9jhIP//5Lzz19ldXu7ZJ3sZHb76pdX/0ox95eNNupM2mjIWXzS3vxYaRyNF4lVnfFxW+24ajIQCpJg5Smk8ACc9DvMOQbFXvO6hSJILbYvtD7KO7rz1Uunf/dXntgaE35LUHNYRHGf/DjokQBsuWrVDA36JFC+keEKASd1zdrQCJtCNEviYJLs/K/6xE2AF4mJxtgCh/gJC3uqwPxEoaOWq0DEvP0PAG3Avi/uRsnDxlqvTs2VMDWjoBpG9+85tfXYBklSQ9K4BEkKzBqalPDSARk0jBRnKKpCQPFiRBxAgaMjhZA0ICkBISEpXiYuM0ZUZ0vwh19ccGCXBDtN6QoCBJftIGQIrYK7juJ8XHqWGlaYMSzzi8brC/MEbaGDSTZJJreQ4otE+wLiAYuAKq8Jgx7bC4hPYJshhpB2uwvMDu3fQdTBtxAwdqSpChqYM1hEBQr16eNngfgj2GBPVSWwx/bJCsE6g5fuvtR8LOCU8YQr67ia79AUgHDhz2THBmUkMMSxvsgjlGt22VUPE8TgDJeLtQEj17MarG0aNldH5+LVpaVCR/87f/j2fitV5nB0jW/5FyZfr06bXaou1Zs2ZpkDsTHNJ6jR0g8ewEuGNi593Y4eHmb5eYsVPEddb0vbV8XgCJsBWAFcaVGX9sPggnkZ42RMHHoEGxnvEXERau4w9nCNzs8WIL7NZF+oaFKkAybeA9igQJoI96iTFr+IAysFtN1G4kVQAkAkfimQlPmTYolYeiIjX2UvcuXWq1weYEUIP9UI0N0gtqtA0Ys7YR1qePerEao2rio5lnYXMVERYi/hppowqxfj/rMTm6kHQwFpB+uC3kBiCR7JNF/ciRo3XaBAwBEgwfUZIEG97BppF7HD5yvJb9Ec/iBJCsY/jnv/g7DVw5aeLEOmMfVTs55az1zbEdIJnzlPdevStsKuy8ySZk7dq18tOf/rROm3aAxLOzKDMf8W5IuN9465GqtKx9AG+h+rX2uzluOEAaUi9AwiibkB6YHmCPh/Td2CJhU8S3eP3NR/rMPDeSL6W335G3oEfQu0rED0IqRHtIRNFaMD8AWOwACQ8uJJ4kJB87bnwdAkDl5ubJ/AULNWGuN9Djz/+wYyLtR00y+DF17mueBckS7+4EkLwFivTHi63JJEji8Ac4skqWoqKiNPLnpk2bJD8vV5Mt+tNx3rzYAEdxcQl+AySCv7H4uU0oJg5SYuygJ6k9mGS7Sc+AAAns2lVjeBCtGk+Srh07eAhgkz18uEeCxC41KW6Qgqoe6mZf0w4TKXGN8GojNoy1DdzhiXeEUSYACZAV0runhgvgGQzhgk+MpnFjxijIIV6Lp51OHdVNOTkx0SNBIp2HBqEMDPC0wTPheszCHRQYqIuJaaNb504K7EgwiRFqYwEShqYYgSLW3rGrsg5oMZOOPwCpunpfHYDEjot7nThxWndf/LZ7oRiARE4z0pAwOVoJ25U9e6o0NsqChYvESvv3H9Qw/9b65phcT3jFmN/W8sDBQ1JeXlGrLdrduGGTelGdIXWC7Tlws162fKUnFxvjFdE8AMmoFBGRE8vFOqkzgRK/xvSptXxeAIlxzHjD08ozhoOCVMVWMHOm2tMx5sz469qxo45X4mrh6QZAwkgbpwcrL9FWRFiouuRHRkRIj4AASxsdJDw0RL09v5Qg1aQ6QepqnoOSzU5iQoICsIiwsFpt8Cx2FVtqYoKEBgXVaoN3y8oYrmClW8f2KjEz78M90pKTNWZSU0mQkBBg2IpEAZsZ63e2HvsKkOzqW5KE0w4qNfgIgq+s+f8MQGKc7q7aW2cMM16xZyTJrpWPOK6u3itHnti12Mc+dpTYxNjP85tNz+bNW+q0t2RJkZCEFQcT+3WkVyH3okk1AvBDpQgvseDiKMK8QWR6Ky8BGnHysPanOX6aAGnz1h0qGb7z6j3t/zFjx0v52vXq0VZaulwgpMmGMJbetm3nl/RE3Q6Axg6Ud1pSVKLqbZxozBpsB0jYIOG6j9SKPKh2woyFuGvYD5o2mqokqWzR0mI1KLff1/wm3YibDdKzBkihoaHy4Ycf1sI7VuzzDQd8pKf+67/+y3NRUwCkhYsW14mxQKBIkssNHuynBOn9D2T6lCnCjobF2Ax2a5k/Ik+lJiXFxZKZPkwKpk/X4H7sdHG/nzN7tpCNnUB0ixYuVIkEwGjGlKlSUlyi4ny81ti14kacm5WlQIYAgQArYqhkZ2aqwemAfhHq8caijfv7wMj+GpSQSX/G1CkafXhwcpIsmDdX04fQxtRJkyQ0qJd6qmBsTQoP4i3RBoSr8upVq/X/5GXDmDNuYIwsKy3VgJWzZxbo+xAbqV/fcJldMEtjHhEbBtUfbbAjX7hwodpasYPHW8jaR+aYRdsaB8mcdyqxSaK+XaJjresPQEJ1RmoSM6GVlCxXo0HEzejuZ8yYpQTD4w5v7lO1e4/k5+Wp0TxguKmIQJxN1ZZpZ1RurqYoeeed93Q3CRhi0oY2bNiskjjsJIyqgL5gR+zWx00NkDRZbc9AOX36jKd/TT+bEmkoARUXzJsnI7IzdexNmzxZEgcNFNLvMP5iB8ZIm5YtPGMYyStjGKkAEayJgdQvLEyNofEYmzd3rrZDrC9UYDNnALIipVePAFmxvEzbyUhLVduc/JEjVXKzc9s25c3JkybK4IR4vR5+wtaQjcKEceM0bQh8PnpEnraxoqxMwRMeaajh0pLZMLwoswoK9D7wKW0QtBB+H5qaqt6uBGtFrQ0v0QYbng3rN6qXKfxo+sZe2uMgeZMgcS1qNSQhbt+bOr4AJPiODYzhJbyeLl26qqABGxbDS0giUEWZ57506ZJMnTRRGKdmzDZFyZwyMqdp+Qn+ZNOJXSQG6MwXhpcKC5cqYCJIolUiy9wBcDLvay2fBUBCekV6EWIV9ejRU6U7zG3YJ5HyhfhVvhAebnv3HRScjgDCZK4H2NgBEmvq5CnTNKHr0aPHxU57qqpl48bNOk6aChiZdgB9uNdjqG2/r/kdEhqq0quvggSpwQAJKdIf/vAHBUlNAZCIMooBF1EuTWcCkGYWzFJDM7uRdmRktGugSBZpJmcmSTeAdOfOq+rJhXqJiR23YWIJQeQ6G01ws/R0nVTNeUrqIaXBrf3119+U9evW6m8kS+Q0M3WZLGmD4HbYVXAPKyFVIoYJ6pMD+/ap6z0LAWStl5WRrnYX8TExnrZr7hEiYcG9JSUxXkhwSo6m7OHpNZGMe/eq9T6oAvV9hg2ztdFHQRcLauXOHY4TBJOFPwDJOrm4HfsDkGiDHS3u/RC7VRYKeywTwMPBg4frLCLUJZaGJ2Hkk8SRThMiz4XHhp2c6rJg2esB0Kzu0eb9uTdSICu5LXioPMwCRsl7nT1bs1gR3M3s8p3uY+6HDd3pU6f1e5I4kiCN77zzWHr26KFZvTH0tS+26zdu1ngpTpG0SaOAJPXMmbpBBM09T508qd5XSELhKcMHlPkj83T8oW62nueYMUxsIrLPY6Q/bsxoVVnDT9a65EnDuzNz2FAd41Ye4RhJ65ZNNfGwli4pVF4k6TOxuUxd4hzhjQYvWNvmmCj49BtxxgAkFWvW1ES2791Tz5v6qNeJx0QbhNQw503JHDAgKkruOzgcmL7yFyCZ67yVvgAkrkftsn79Jo2PxnhizBMfyTrmODYpOez3dOIlJ1U64xNbQTuPwAv2NulveMde16ld5iIrH3HMfZx4FA8t+3sBOqhLSgzDSw8evlnnmcwzNgVAIpUJLvfc1xoHCXUYEm5s17797W+rqhbHgpCQMDl/8bJ6quKt6i8BALFJwusZA2s7QEK6BFDGzR/jaaSHhUuKVPVFKICPf/CpOr0gQWqMe79Zx03JvYhmDhDiHua8vURlTTiGrz1AQtT0xz/+UZoCICFCRm0AY5kO8waQ0LG6RdKmjfoAEgzAgCWj+5UrV+XO7Velctdu2bljVy06f/6C3Lh+U04cP6mEx9WF8xfV7ZydH4Nt5YpV6uJ76dJluXv3nty6dVtu3XpFXnnltoqCV69eo0kcSeQIkWATaQ31ECUSuItrt2/fKYiQTT1Kgk7SFlmgeU7o9u076rZMOAHEruxAUAsRpfrihYsakZcs8zwzdXftrJRNGzfXIha71+7dlzu37+gzmwnBqXzeAMnpmTS+iSURJbtEROlMfIQBgLA94NkRP+NFZWjt2vU6ISN+N+6lqKuI6YTKCy8eQ6gL791/KKdOndU2yWBNXTw8kGyZepQEowPw0i7fFekXY2zv/oMaDoGQCBC7KNQl7Ar5bhDqNBYKjK+tkzrvdeq0cxJhp37hXM/A7prgk+NnBZC4lwYDvXJVeerSpSu1+Ai+gr8Yj4w9w08ERoTgJQgj4tKSUs2gTlJQJAGMf0jH8q7KWvwBjxBUlbhAxsPx8uWryl8EcUTtY/hpRdlKObD/oI57w0t4jN27+5ps37ZDyteskaqqvZ5vwjNeunhJDuw/UPO8J05qlng7L23etFnb5Hl5jkeP3nFdcOmn5wmQuL+dSD9hlU4y/tau3aBj2fAS456xjOTS8JGWq8t1HGMTY3gJVRYxlwAjVv5AsnH2/EXlDdMu1yANJkyHtS65vAwPUcJTgCucNgwfaVm6XMcMvMYGycyDgCbsqqzvxTERp+Ezex+4/W4KgLR33wGZMGGSGiBjpAzoIFAkAAknjP79IzUxbVBQsHpK9+rVS9386UMrEYH74etv1Tpn/b/1GONuoz61AyRUbFXV+xUgYf+EamvT5i1KOMEgPSTRK7ZK9L1ZjxtbfvDBd9XDG685b0EqSU7PfX0BSN26d9eUIXjuPQ0bJIJWftgQFZvVDqkpABIiXqJYX7VYzXsDSLgvhoaESmxsrCwtWuoZ8GQr9hUgWZmCHTW2JUYcS8kzYTCLVxbgzRDMqt4glgV6dflaZTz04jAuCyuGdzdu3lbPK+uih86YHROiRtMmIs1b5K+x5B3jGkSmr91/XRE9emEIIMAEYHXPhflJQkl8D6JVm3YPHj4qBw4dqTVRAEbtXl/WvrAfv/3osaQmJ2n0Y9ym7f/393d9EiRADcbJ2Amx6L37/gd17vng9TdrBVTEhZQ+ZVIw3xAvHXbH7JStEyXgiskE7xX6GyoqKtH8RCzS1rpHj5/UZJa0ZdolcvfDN95SOxTrd8U7honf9D/tX7x4WSd2YsuYuuj+2bVZpWBEOAZ08b6oOExdYkixa/enj+0AKTEuTubNny/t2rWrV4JEhN1OHTuKNRebLxIk+/MhDWAMmj6jZMHEsJSF0IxPYnax6NFX5p0pWdyQssFn8BLEjh8JiFU9Qt1rN26pezDRxU27TPIsvtY2iZh/+9V7Gunb8BIlCy92ata6fC82Lth/mDYpAcerVpXXqktMGfv7e/t98OAh6dS+napTycXGmPNW35f/uUmQmNewcUHyihTeSSrDfMmcZN5/wYLFGkyQc9bvh9QBvrSOZfgNgMPmwPAS4xsJCMDLaju3es1aDdIIUDLt8s3gm0NHjnnuz3OgguH7UVf7f1Gh8jFzB/cyz8pYgOesfAv/wqOMH9JcmLqLFi3xmpjWqZ/dABJJZ0kL1bp1a6mTiy0rW9IzMjxG2gTnbdWqlXTp0kVd3PkeACTGDXP4wEGxMn1GgbRp01YIaYGjS1raUHn4xttKeKnBBxgx5+WN1GvwdIMfiJfEmDZ1rSWer8zz3gASa9z3P/7EA4I++PC7mlaEOXLW7DlSXFzi+V9jARIAlnWbDb23trwBpJYtW9byYkM1SbgOxiVAD541baNmdMrFRnRvX420AUgfffSRx5zIan/EsasNUlMDJCzbYQbUReYF6wNIvkiQWFwYkAwwXAhJCojUh3PsiKxMgQQB8ADz0rkwHZnkrQsmzLZ23Ua5ev2mShDQFc+fv0iZmckHw0PDkOodse+gghYmFYjFAcYlYaK1XeqSjoSJ3dSlP2izunp/rUWB5+O9jp88rXY4pB1hx8VCw4Jj7m9KJqoVK1ap8R4LPUEX33vvS9DBjurqtesyddp06dcvUtq1a69u+vQX3hEAD6L2kny1PoDE8yL29rZLcwJIhBpASoYIlsSKxLtgwmBiIdmiXeT//gcfKTPwLaHrT+K70DfmvSlZFFnUUF3h+UXIBHZNRIm11uNb0A7fZuOmrQqK+c37AJ6sdflWSKcAScQrAUDvP3BY35v7WeuSbJL3pR9xwYWOHjupBqZ8N2td2uV+gAPaBLAD8KxjlLbYXfG8eIRhs5CYlKyTAykzWOzsAKmpVGynz5zV/kF1gRRs7LgJOp4BFwB2q9qOY4LBwUd8k5pEodc1For1nfk/cVwAT/ASVFZGGpt31PDeWhfeAVjS54ZH1q7fWGch5Bq+A2MQI2BTlwUevmFRt7bLIgFIYozxTeCRXbt2a647az2OGUcsyHhgUZcFju9h/Ubco3J3tbou9+rVW9q3by8YniIlgZdwDni5ZQud63wBSDxbfTxlB0jEUWIBJUQKLt+GlwICAzWKvf17kYKDDRZjnvHJ/eyglfcHZO3YUam8BHDBmNoeJoB6SJfgJb6rGcuAZnKJ2fuU+7Ip0pQg6zcqcGAcq5T4SZwzrmFsMEffe+2hh5eQdNGufd6DPy5cuiKXrlzz8OiRoydqfSfucf/BQ/2muL0TjycmZqD2DxtdeM0NIL30UgtNP0Vy0zoAKTtbMocP9wCkOXPnqQrtxRdfVHVafHyCJCUn63vynCReJ9VISEio/p9NPnNg6bIVMmbMOAEUvPDCC3qO+F3E2WNDRcT9shWrZXnZKgF8EhLi9quvyav3HmhogJWryzW1ih0gEeNo6tTpKkGCL816S/npp58reEACXL33gMYys/6/McfwDpHDkdJ6i6YNQMzNHeEoQbIHikTqNmHiJA2FgWquqQESNkjf+973xC3l2jMDSCzODCQ+pvkIjQVIwzMyNJ4CL8lCEhoaJmFh4RpngcHI5Hzz5isepmFCRQSMxAHJC6oVIpPaGRp3W9wub75yRwhiSNJQmIn4Ifa6SAlIkIgUiPYIc89kiirHXpcItyws7Mioyz1gfu5nr0u+KyZiFqvTZ88rgka9BAiw1wV0Xb58TQ4dPqaTOxOMmdBRCS1cuEg6d+kioWHhGqCPWEbowollRL/h9ok7c30AiT7AA4J4LXiwMAGZ+1hL6llTjZw4cVKNZBngTFLsktB/8x4wMgEyyblD9mWAHG3RNgvTuXMXlZDqAVrsoAMRNn1IXQyd2WmwOBivD2tfsYCig6cuxO6L+zDZW+vhIkufslibunwL7sPiaq3Lrpr7EcvI1KXetWs3dWdsrcuzsqjA5Oa9rJI+no1dXR9czWPjJDMzSwMgkp2bSTZ6wABdKLwDpI6yq3J3LTBDf/pig1RaukwXfcYEExO8BE917dpN74/6guc335rnRSUDPwEQURGwqFrfmQUCwM7/AIPw0/0HNcb29J21LsdIQvgm8Aekxw4Rk2fOnCOnL7wux8+9Kecu3dMFg7rEdgGI2tuF99mJw0tnzl7QhUWlxJYFmmvgRXjm+InT+m4Y0ZrNALx77vwFjTHTuXNn7RMWI/iJsc2iFxwcLGPHjJU2rVv5BJAYC4Q6mTZ9hqqHeAfTv9bSCpBat3hJ4uPjBXA2fHiWbmp4dniKSOC4UfM8+w4c9IwDxqQZc4AgxqsdINFvSHXYXMJLEH2B5NPen4xlNiZG7Ql/wveolq11+f70s5XvXrlzV/vUDmSpi3qIMWZ4CR6Ev1h8re0yD/AeACrzXjyDiUAPIGO8wkeEJCGAbl7eCMnJyZX4+EQJD4/QOQqAhOPLylXlnn5HleodIOVoDCfGalX1Xp3PsDFC6kRkazY2GCIj4Zk4aYrExsardyDHAQEBOg/DX3hsGXIDSCtWrtHUOwBy8rLtrtqnedsILmmyC1gBEnMXY9ao2OwAiXxx8B0qQbz9mH8ZZ94AjVmv3UquxWAc04Zx4ydoBH02VdhluV2DpHhAzMB6I2kHBgRoTKX5CxfL0KHDngpA+vDDD9Xe2gkkPTOARMAqdiPWD9EYgESCVFQKGLwx6NmpTXsy2ZGwlUWXQTh0WLrqtxkETBIEtEMPi5HbkWMndKKcM+dL9QhMCDhhxwWDEcEZsHPx8lUFStYFEq8QdkcsnuyOGCAQLulEDLXWRXLFZHL7zj1VvZm6LJDs6pgczASACBsV07HjJ/XePAOTDJMVuzVTj3Lp0lIdNKgFmNxLS8tURcdEy4QFMzBp5+Tm6URsvRbmAKww0bZp3VrKlpd5lSDxnvQ1z4Ee3bpYWidzO0A6eeq0tG/XTqODc0/zDEirzDGACkkJKiB2t+yqmcABuRCeKPSdHXjCaIAipHG8KwASmwCe0fpdFSzfuq16dyYN1GTYGNGmqr0sKrLy8rW6gCC1U3XaokK12WDSxSbMfCtK0qOwgNL3pu7q1RUqIbEuwEhZrl67KffuPVCpTM17zdXvSewT+o/JhWChiJRNv5iSxQ/7BjYDgd27y/59+/Qauw1Sp06dZPfuPZ6F0XyXegFSt646ubP7JaK8+Tbclx0tkxOB6UqXLdf3BSywQCC5hJ+wrUJdbZfI8k1wZbeOZaQCjB1sIMz7USIVAjDQjuEPSsbd1q1fBtek7pgZW2TkvJuSXXBTJi25IxXr96jRKpsDogNb20UNg2QHgGz4medh0bbW4xhJIfZiSND4pitWrFagQz8CGPg+gFUSc9qvZQ5iIWaR9BUgIfFkDmGxZzwiYTTfzFoagES+xtatWuozMM+ZZzAbDn5zjCoHcHDx0mUdC8wbhpeQgjM/0QfmesrKyirlG8AI3w2DM764AAAgAElEQVTCjIB5k3Q41roAIWOnx7iHp+g3eIR4P6YuaTYAORiOG/4AXLE5ZD2wSoS5l35r1J6GR5cs1eu5l6kL31XvO6D3UqngkzmCduFl+o05FeNoJBXmWawlsYQSE5OlVYsWahPnL0DKycnR8T902FAJDQkRAhwCkJAihYf3lYCAQA2YyHyZnp6hgIV36h0UrDyDtJY6VoDEbzatADgkXqyZAN7xEybp2sbcR+BJpElIWRnnzJUGINH3fHPArx0gse7euHFLN7bEZqPv2XDBg/Qb86UbmKnvPGslcyaBMCdOmix4yRHyBLU5a+EXf/FXddpmXPbr10+/IRJ/+igxMUnsEqSBMTEqSQMQMzexATLPw3hurIrN6sWGU5odJD0zgESsD/NipmwMQBo5YqSEhITUmchBxgYoMVEEBQUJ+dZYtO1SBSZ3PBwARIZ5CNyGag5pj1kI+R/MC+iwTupMCkwe1nPUBRix62FC5jftwLAspPZdG7r0u08WTfMMiIpZNBE5m3NMDkxAAAcGhjnPwEZlZH5TohNnl469UpcuXVUKwXkmVAYhTEgJKDHnO3ToKCUlJV4BEgzIxIuYevyEiXUWYTOh2wESUrbIyCjdrXA/Fheuh6lQ87Egc57nQcJEvCEyYXPOSvv2HdR+AXjQt0zw9Cl9aK3HThimZSfFZA8dPHRUJ1pcga11YeLH776vOzwipfNsqFetNg+mPrsiVH01BqdFqt5h/Ngli9z/wMHDOuYAaxA7c8aPGROmTcqzKiG8rqkDDICkzM7O0TQYpMox56nfrVt3TbJMfzsCpD1Vdb6NN4DEO7PZQFJlnguANJKEzE/GCOf5jXoWYPTGG2+pasvUp2R8ApyskgEWtvv3X1fAYa3LhgPeAdia81u21Nj6WMc3/wNQsfCxyeD37DklMqLgnKRMui5bD3wseXPuSObUy8ovSIiJiWPapAR0WHmcc6jdkD5cuHDZUxe+RXoyb15tKS0SMvoaCTi8g8SHNhi3SGv69Y/Ub2XuCZhEbYI5QX0qNt4LaQMLIoH7DA/ZSwOQWFjIPkC73G/8+AkyZcp0zYNF2iMWfgOWkCIBhhij5tlMyYYKbyj4jDGJPRL3RPVk6lAyd2GnZ6Q48BJqTXicDaS1LnMUtn+0kZ2dp4s17bKJQWVprcuGh/kEQ+bFi4t0owe/AmSt9Thm8wmfw1PwEiUAm76z1928dbtuLrt3D9DNn/k/qWhGjBipNjLY3JnzzGULFiz0W4KUm5urJgsRERHSpk0bBUfYKwGU+I3dLgAA3h06LEPVWYsWFynAfu/978gnn36mQMoAJEqutf62HvM/KCw8XKXoqODIRYjmwACkn3zxF2rfRLBGK0D69PMfSenyMrVvpQ7rL+YDpCrJzRuhEhrsguhTszb7Wn703e/rBioxKUk34dggsekHkH3+wx/r3EtsJKv3Om3jnITU9P9n7z7AvirOvPFvNrubxN4bgoBYQcUKCFiwICI2OgqKioINe0EUKYINCx2siBRBLDF2jV2jMXXz7u7732TTe69vbJn/9ZmH+2Gew++ho2R3ua7DnOf87jNnzpyZe753HTQrAkjWZONCfiWm1mjb2gZIfI6qIOljA0iYCx+K8pg2Y1ajYf46ujEfJIsftG1PKAPdQsJMRBrD+I49tnv9oktDsuOOTbM/zymnLAUW7oNKLVwmKqDh8CEwbuAnJlGUix5+NA8i0hcmQNpd+PAjiSNi0ESJAfC7wvQGDjotkbxN9Pg9SlIjSRZjpmGgWtYeEkLQRDnyuuvT088+n59JTc1kgLYEUmgt0MxxBx3UPgMTDLPbsd2zNIWp6b/rR4/JwIl2wD22W5CKAeOtMufyb5NIGxszBaCtAiQSd3wrDPzKq22oeFdeQCyq2kT9rB2ylZ/Us1dm2CVA9U5MNdoe6n9St8WP1iz6SMkPzUJZttv5Cy9+Mf3nf347/e1vf0vf+a/v5s135YoBnDFeZiDfn18Faa+s07nFgYSrDb4XbQUwTRtZpeX8+9BDD+eF2eLMZIfJc8ouab0jJ/ttttkmm0v85psIBCB9+b6AGQfFACudOx+aBg8+Iz97bQAk+xEyp6nfAQRjXlePuCab/Ghj49n77LNv3raHH0v5Hs4BI+3VhzGffB9AtvyWaIERYGrRosV5Lukf8853qNLyMRLgwbxrPp0x5IrU7dTZGSB98MFH6bFn/zMdNmBB6tZ/cho3/rbEf81cctAQeo4Fpdpe48g4NpccTHp4UpUOyPBeQCSzp9/tQderV+9sinMv7Rftkd+AS2ZSwGNFAMm4BNQCQFfHbPwdAMkCYT55DtAMYBoftDTGGTM7h2C/828hIAISAwY0fH+8Un/HXKKFNW/1v3vLg8Yi2hGl71sCYfS+GwGEts/v9heUoNFcCtAW9dJOAW7aYC6ZU3gL+qCJkqaEozee4R2Z2oE7PNhcDzqlxdTzmIb97VvgjxyHzV39TKA6icUBX+x2bM7Dx9k83m1FJra6rUY65n0E+X8BQTSLLZeYo2lBuAwwuyltsUG7wjJgXdMO36QEQM7Rq2+DDTbMzuGAFm0koYSf22c+85l8D7pmO+2U5yxegQfZygNwMBa22GKLvH7oI0LxeedfkLXswBGN06hRo7N2lJAs2gyIxfPML/376mtv1IOQACPVkuO3ABXr+uVXXJl9+oAggOmakddmpcEjjzyWvvzu17IFx0a2U6bV7YgA0LVr3yFrmtRbAiT9UO7FRoPkm2q3dfKAAw9MN998awbs3HbWpgYpHLRLkPSxASSOVvwVfIA4aGkay4O0PIAk6STvdptKUkFi3hzahp17XlahU43bFNbkcDRv3iJnM5Znp5xMNAE6nVOiye6gVTJZSzWxe4Ag2hvAQ7i+QxZoDozVqBcSuckgGs1iIXTTORNKlfnHohuTM0rSVKiUPd859T9Qpm0RiutvZp/yvSzYgJtJRcXrt7b77pduuvmWDIosfpinforfAUlRGKTiaMPqllWAxKclJF7M2wC3kzTGxRGYhBlAzffcYYcmmXGWztNMiQsXLm4QtaJPaMmmTp/ZwJwJhGC2ZfvZyH/285+n7/3gd+nO+95NP/zxH9Jrr7+RAQCQZmxiwCa7ftI3JVP3LBMZU8awjQc0Fhi+GKXWA7N1/ZprlkrYAJ5wfgtZ6ehtDNJYYXrGqm9FqwaEGitMhtmZfpbQ3DoNCskRQyTVrw2AhKEyN3g2n5pzzzs/9evXPztzyp9irNFG+N33ISlrs0XONYe2ms+i2MyhmE+AImfakhY9pgw80c7EfJI9Wb36KupVHnLIodn8Yw4BO/PmL05Dr1iYOvR8MC184t/T++9/lGbN/Xo6uNcD6cJrCBjL+vFUtce+n4VZm2MumceEDpFv5fNpLAAn45KDrbFsfhOCaCX45PlGpw0+s15bS2PKD3JlAFI5Ths7D4C05557ZnOE9ln8OMBbKIw/cxgv8E7Ak4OW4AtLogXjnYxPY11/xjXfb/TocblPShMlcGjMVtsFWPp2JfDEg4EPwJ5WndZcv5tf5Tf1rDsmTcn14lW+hT6/ZeLtua2lwIMWaOM4v7SOunB+c/yyy66sfwdjDNDGb2yl4d169Dg++3HqH8/p2atPnuPWAvNbHwKcJ5x4cv07rixAIvQKQ5fdeszY8VmTzPEaaAOi+CJttZUtbw5KN3KI7ts/m8/5qdr1PgASzRA6QgqNFp8lwi3Aba7TfllT+JvZ6JV/lHvdZ+7SIgVAevOtt7MvXBZ2evfJPmF8gcwbc1G4v/n52utvZWEUQPnyu1/N3xKQ8j0IsL6btbEM13/7y1/JayAwJSrbvMEf7rhzUvLcAFGAkjGDjiDu2e+8+9XcFuY8FgVRgL7fqgAkAA+fpgFkgbB2rQuAFJqk3//+9x9fFNvBHTvlAUszY6BTQ9NYkAiBIdoAUhoUazIuDyC5j2rbBDCoJOrinGaDPNIubRLp97DDDs80Ij10KNVfODlb8Ei2TABLJ14ds6eetBCSXD3DJDVBMQVMIJgKKZg0M3/+wgbAB2MkYZMy2ZPZwmU3veTSyxpEwamHY2GV+fjbs0qmjmmRygzKeL6SU6z3p6b2tzYBoBZtEgd/FkzawLToWuCAEX0oCsZGmcH0t9tuu6zpqdWeVblWBUjMfKGB4DPA/Kf/MXBts1CRaLWDhokERtsC/DF1OTirY37er3x/ob36BYOyYAGPpOFqezknvvfe+2nqnK+lg3vPTc+//L30ve//IEcpLXp4cQ6xtas7GzqfGiYgzE79jqnT6pzmAZry+bZnMG7l/ghaDpUk1RhrQa/tpDqhuxYSGkXvpL2YXQAyY02f0Kph4NT4+tQYQuMbYqAY2NoASJgz/ybt9CxtOuLIo9Jhh3XJ0jVmTsvke6HZfPPNs6lRWK+54RpARBtQhl27LqUB0FH6zplXBAfAuFxgRQQSJsaMG9+gj1u3aZPHB58J81sk5sjrxqfD+z+Yjh38cHrtnR+m99//MF1/y2upU5+5ado9DcGxsQDcWuy1SZtFsfF1qs59i7p5Ee9lTGkrZ1maaPcL0eZDc9HFl2StLKGCr4tFgfkLjd0BAMm1DZD0PQ25ZwBE5gnBy3MctKyAswXfWDGnH/v8k1lL5TdzCWAh7PGxU08c3tk8AwjNAQceaYGrzid/A7iiNo37s885N41dEq3mW9sHjLsDQGIh5FoQ84MvDa2H/GGh7dIG44JWVlBM0JpvxhW/vminUls50s+e/WAWRMwnZnTvRdMX/Ga//Q/I89PzfSdjWv133XNf5iWEEtqfHsefVP+OKwuQBgw4Je262+71AMnzRavR/psPgChBvWmzndLosePTiSf2zOsUMz3NEJAD7Fgf2rXrkJ39jW/3BN8OoQm/JFDqI9eYdQMk4VsBkAAOQFP/q9f6ZD6zltDW0vBIsfClt9+tB0jukXDSt9+nbdusFcJ7rxt1fQb+lBju79mrd7rs8ityXizruLXb2KiazwIoyQdF2dB/wCkZHOFrNtDFx1h6wh95ZTVI0U5gjJkSb1xXAClA0seiQYJCOUszG3zt699I9+QMqP2z5ubC4RetMkCiGvTxTRTOwhiC6B9oG6o0OO07hkmhISF073F8Bh0mG5W4BciiU7Wjo+eXIjLNJOLMZoCZ5KRev5cHJG2BNLjQZue3NntlJ13M16R0GFC0QtDz9OkzMx0prhbjiWtUsZKy0ZIYaCKFquY0bUGDWZFMMG7gimPsZz/7uSx5YJzUziQxCTiFWVrwvBfGjpECTTRImG48f3XLKkDiLB+Ox0oLEA0WJkfFzamv6zF1kW1MGG3b7lezDYBfqanx7rQxANKK2vrGm2+lDz/8KF1/xxvZNPOr3/wl/eAHP8wh/pj1FVdelRcekXQWEdFWTB9lvY8//kRmcOX3x7gAlZLOOcBfaorcg7lh4FVapp1//Md/rAcgfMoA565ZcuyRnTSZTqipfSvmStKl9qwdgLRVBl3aCKDSABzcsWNm1MaKvz23BEj3za4zbwI/5pN5BfhWNUW+MW2C32N+ACYYqwWk7Evndy8xjcqRhR6Dx4iBSPPbwm+MWLjPGXphOnrg/HTGZU+lH/34D8k3PfPyp1On3nPTQ4sbJgv0PCZyc0k0nTQDAjaqz8c7nnrmuTz/zSdz2/e6fvS4ul3Il2i0aGjtMRdSvhw23p9JRZ0EI0B/bQOkw7scmRc2z+C8C5QRLmiy9M+YseMyUPC9LKS0KdXx5m9tZd4v39+3olWqRb8y1/DLZ597MQMw4whP4RdlzBOMyjoAu6qw4fkTbqoLPihp3c8HtNpWQK+kc65egJ/GBT3XAd/Q2oO3WVS5PNBEmLuAFK0NTXbUtbIAyRyxxhiTx/U4IQ0+Y0g6/8KL8vrBXw6v9v0liuRgbD4D6YAdgWjDDTfK4IzJHChCb/wRrJTAuZQY+kkpYICg63eCIDMVzfO//MtnsnIggAngYTwQ5oF64NF+qH4X5l8LIPnNGsMP0FpGk6z/aMkmT56a1w4+o9JeANaEygA48dzGSpofPP/Y7t1zpLIEkV965916jdPyABKBTRQ2E5v6vQcXF2413EZqgTPPW9k8SKWTdpjYyvJjAUjQ6ZVXXpWjYOxHBSDxKeAfsDoAiRM2SQ3Dpr6kxgOQDHgLLVMbxzCSNkZBywSxxgQoS8zffeXksxjVkpowD5M4aCPnEkBQ1unjTZk6LWvJDH5tPGfYuVmKhqJL2lU5J8mW6mftwOSAt2o9ki8yCZjA+kCyMnZ4qmxqVhMY4IsoD+pbfYqpVeta1b+rAIkNPiYcqZIka5ADcoAAEydGop2iMADUWs+sAzINzaSYZK1vVb3/e9//fvrpz/6Uhlz1TDrq1IeyxuHb3/5Ouva6UZkhiMKiYmbGounjPwKglvV4r+uuG91gDNDyYcolnXP9X+Z5MW4wxipd/M3fAJP0TY0f/eN+wICqGpgGsPwu4sPY0561AZA23WyznPZB3XvssUc2jWgLU7boRxuVCpX2fTgFa2uks4j2K30HTrfqiUObgYmSLs5pjIJOifGTXOP3KDt17pwXyDZ77Z1NF7TPomS0aepdT6eug+anK8a/nP785/fTN//9F+mkoY+mY0+bnx58qOG8jPqiFB5ePt857XH8XpaSvBIgLPwWWTyIyUICUz4Sxs/Q7P+4hOfsskt2gF3bAMmY4CjuW+B/5jOeQkCifaH9Mce8C2HRIlq+R5z7Vu4r35/wZk4GzaqW+JO0KYIs8FQaKHyYYEZbWNbn+bSyNBPRBjxaHSVdnNuOp+TTtK/xW7VkLQgLA4EMv9EvBFMRg875buk/ghph0XyKelYWIB100EHZ7EVTGOYy4fqCKCLnEeHc9yKsOgd8aJM+97kNsiAIYPteUgLwU7pl4h15exJaqGy2G39TmnDjLfm3W2+7MzloM2nEuGcw5RKuLPSlmYuARgPNF64ELisCSPyTAFIaVuODsEgBMX7CjVmgBj7K+lb2HJiicWbl4X5Q3rc8gMQ3E9gFkJgCfUtCAHMp3l/WE+d/dwBJw00IJi/SJFOPBYgkuToASXIwUQoAEAlAvcJO2dpphq4fMzZLU5gIGgOWySwmQFliCGU4NhtsrQXPPRZoDosxoZm3PK+sz3kGXacOzL4AtDT2zBGWKndQFUxV713R33ygAqSZ1I2Z6NQDBHHS5EwqsoEa1gCj8VBS52IgGAWGoi8x/8ba4P0Bsv0PODDbrBujqwIkPkckWYuLvvMMfcccYxEOcGQimPAiixqr22S1SISvxXNFQszG7nH9L3/5S3rj3R+lo09bmCZOfye99/776Rvf/Nf8rUm3HAgBTcxB3xhPxmy1TpnTgVTZiEl1xnCVJv4GsIBS2dKZXBsbV+gBNb5yvoXDtwW+mOpGXCNfSd98Xf+1bNEy+1G4b20AJIzb9zdf+DvwUcNgvb+yf/8B9T4dJGHMP/LNxLtGyQep1CJNnlp7F3X0xm5pMqXNrdVH5iSzTNbszZ6TfZaYcexz9ezzL6Vrxn8+a42uvfXV7ID/6pd+mP2TzrhUBuKGyWKjnUrvd82SXdL1KzAnCqukiXN8gv+HSEe0BAp+R/on5xQ6+5zsK+U3GmNaDJL4igASR2Zgi48XrUY8r1qGD5Jkq0122KHO92mJEzIfKCYoggX/DN+R9miPPVpnjUC1rvjb3Ml+ItePyXPK2I/fVqfUnzR70gXQiuIXd06ekoFkaOLKes03mzWbS1wEOGjXmnPuUZf+MZf4PnHwLusqz2nV+F9KGeJ74De0bNaAOydNzkDcHPMbB2slU3nUsbIAyb1M3f/wD59K//iPn87aHCYzSXCZQgFqOcQs8lIA7Ni0aTa/0ZxuscWW2aSGJ4ownXj7pHTn5GlZ+0dbKVIQMPK+9i2TgHPSlOlp6vRZ6Y5JU9Ppg89KBAxaIuY6CXcJMgESRIfRPPFBE9a/shqkEiD5lgQRdeJDixc/Wl9/PGdlSlqe22+/M7u+CDKo7v+2PIBEA8ZqACAB2kC3dQ0IbwyssVgRWvATyhlt1DcAssSfJ/Y4Lo0ePTqD2o9dg+TDGLzMIbzcpTYPNRjPd/ZyDIT3Ow0G+6bIJYzGJFoZHySTxeC0mGIEEDjGzedHuCypib3UJNhrr33S0V271dSyxITA/OQdcgj5juu1ShIOTZLJCgjVonGNpELiQWfBxQQxzMboV+U6swY7Osa8vPsMKlJ2+I9gFPrNYqgEiPQRSVNY8srkQRIWigGZ9LWYnvZUAZKBuenGG+eM2QGGMKU4MHSMokWLnfPAXhMptlZ/sLuLXHv65f9KHXvPTd/9we/S7//ASfvN3H8W5Vsn3pauHnFtTsoG1DbGqGvVv7auUT1L4BnM2/fhG6TUV8Z6m732Sdtts3Wje7HlPEirGObPzLnRRhvXRxrS+JlPx3Trnkvjw/MB2CY77phDlpf3zkBSzKfl0fnONAvmCGlQstVa9MzdFgJaGkyb5MxJGh8I+sEXP5w69ZmX7p7/jfThh39LDz32b6ljn3npmgk2GF52f7K4z3c2lxzM03G9Vjlq9Ji8sIX5Rsl/hWYrnIJ9Kz5Sm2y8Ud5nbkUAibbSYqgfvFNjAlQAJFHATbbfLm27zbb1wk3Moyi1gYMwXyXpGGq9y7q6pj/xObsREIJp2crvtK6eW62XZs/6oP/1iznle5V/045u8LnPpfPOPW8Vw/yPzBpx2bK5D/B5olUFUuRBcg4Y0RxZ26xLrAgi64xdWnJWDSa/8y4YnrVGrBYAEiDEoZs2T1JIYGjy1Blp2oy70oxZ96S77rk/3Xv/nExrhwcaWxFtTHZ8e6qg4Stf/UYW/oTI+zarokFaGwDJ+m9NB25Ks1oJrEqAxG+2jGIDdClAWIjwKUoG5vq4HxiiPcWz77hjUrrt9jsyryBU4itrDJBsKbKio02bNhltjRw5MnXvenTeIDIaWJYayjZKCqUGP+zwLtn5VWbfcj8YksrUadMzUxw77obUuVPnVQJIGKvNaj/3WQ5ue2fAZZHl5KsMZr7nnm0SB0+hj9UJtK7/NhgBCe8uKgpYWdfPrNavDTQYJiOfLeY0zDMkTANu7733ztLuFpttli6+6KK8CFfrib99Xz46NC5Md40x8ypAslnpLi1b5J2uhYnzz5Bzh88EFTNmzgH34ksubRR0RRtWp/y3f/+/6f0PPko3T387dRmwIP3hj++l3/zmtzn76+rUt67uoXo+vEuX3B/MbMydQC0zALOaxVi/7bRjk7UKkGgdtt92m8zYZYWORaTXkqi6OhDdNZtgCR5rqmlYnf4zpvAMCy6ptqppErk24IJF6fghj6Q3v/yj9MGHH6Vxk99MnfvMTbdMWTsggUaQD4Ys2hY+30XfmE/6LMzUpPaVTRQ5duwNmenTiJH4q+8VfVUFSCef3DMDM8IOXmu88M0iDPGpETVc9aGLuv4nlPithRnfEwVJKPeNaMz51QEpQsZ32G6bNGzo0FUESEdllwW+Rf/8z/+STWe+uW1CLOa0jPwo5XQDoLbddtusQfetgODNNts8jx/tuW7UmJwhmwYJGKIlYkaTz4l2EzCaede96e57bavyYHrgwflp7vyFacHCxWnsuAnZT+nUgafn9dm+YosfqdPyCNWnoROtxrwlQEl0amNO2tZxPkhrU4PE5Gc/0gULFmZA428WABHFJW4oAVI1UeR+++/XgLa8D/CWUgDQNQe6HHFEVrgAg6wTeMWKAJJtrt54441GMdA/lA5J5TnQFP8somysKwJI7ILsv5wqLczMIKRREWb8Xqro1su++OJLqVvXY1YJIFn4zxkyJDVtskPad7/9kiSHspdSU0PqBmYOXT6oXZoxq27rgv8JTKHWOxpEEhEe3bVrBkJMk3yToiTFUIk32W7bdPVVVy0XIOl3YJNJ0lYatZ7nWhUgzZgxMzMiu7zTLA6/6OKs/gaQMPLLrrgySwDqb6zONbn+s5//Iv35L++nXsMeS5eNfSnJnfPd731vnTxrTdrpXoyM87CgBgzP1gS0gDR3TLWjr78+tdypWZo+rc50tTZMbH1ExezSKnVo1y5LucaGRdZii9HzTaNhYoJ6ePHytZZr+v5rcv9DD7+Qeg9dmPqc/3j65a/+kn7xqz+n80c9nw7tOzfdOWPNzEfRLosOE++erVsn2jr52CyONAYSPgp7vvDC4WmLTTdZKQ2SuWLvKnXKjRPPqZYBkEQi7b7Lzun6UXUby1ogpDs5QvTTsd2zTxIzknqrdfxP+xuQ5xwspQgBzI4BzMMct4FRmi6bCp9/3qpvNWJhBX5oPLguWHN6HH9ivVZedJ4ITUIOQE1DL/KMy4f1imB45pBz0tgbbswaWSlcwox22x2T04Sbbs0mtCnTZqb7H5ib5sxdkGwvAhg9/Mjj2cmeJQGvuOyKq/L6zLRnKxw82tyVvJEgS7sCJDExyqe2PCfttQmQ9C9zKJBC68Olw24J+x9wQMYHAXZWFyDxQwt/O+90w/gJ2UIlgp0QJQ3LigDSrrvumt59992AOsuUaw0gURGz+TKZSQQVLw8tYiTUrZhLXI9ydQCSiT5p0uS0w3bbpr69emZ/EWGNBj+UTrKbuhyH2P9pjCLeF8OwNYaIDgOKU+fs+2en/drunXZuvlMCYEjEQb+6ZRUg2R5hz913S7u1aplmzpi5xvWvSruoeKWP/8Of3kud+8xLD33hP7K5zRhdlXo+CVqAkbkqgOOM6dPTZhtvlNq3b1+vaVgbAElelFMGDEif+5d/TmPHjMlaYGk5gDNCh8gZ2sNPog9W9ZmT73o6dRkwL2fXlh/pBz/6Q+pyyoLUffCC9OCCuoi0Va2zFj0t9py587N/GOd+EXf66IaxY9NWm2+WNdzP5EzR12ffqVp1rMq1AEgEnsGnn541VCOubhgZtir1/U+jNYdo52Iu0bQctP9+qXmzpun++2XcX3q9VEkAACAASURBVPm92Aj9zHcETeCH8MIvkyKAEEHLKGqYI/Uxx3TPDtpSnaC1PtEoEQ45bEsJIjCAczZgxMzmsO/a6DE35HYBRjapBYykbGByltRWxGBO8XL2sOy/SInBl1HJrYNri6g02bfxQWABkBMgVQ3ztx6vTQ2S3EtShdBgMYMRsrwvR2uuKXiLfTc9d3UA0iuvvZE6dT4kO/mXe77RUgE9dQFNF+TneUZjPkgfG0ASOYaR8nYP8BMlFb5FWYRKXItydQHSc8+9kC4aPjzt0rJl1k7s0rJ52nXnFmt0tGq+U2q24w6pWZP1/dg+7bDtNmvloIVru/de6ZoR12RfgXUBkDDj2267LbU/6MDUdIc1aztN16p8n+O6dU0/+P730qNf+L8ZIL34xvfSe++9l8fJqtSzurS7tlyzMRljeuedmqUdt98u7de2bZo7d6n2bm0BpIULH05HH3lkfkbzpk3WaB5Fm3f6hObSPh0Gpg69Hkyjbns9/f6P76V3vvrj1PW0Raltl6tS8+atlhk/TXfYbq3MJXNy5xbN05FduqR77q3zN6QR5Fy+poAkAJJ65s1fkHp0755aNt9pjdu9uuP6k7hv5+bN1sq43KVF89Rku23S7rvukq67ti4ablUAEp88Pno7NGmSHa1p4ZlXJYw897wLl4To1+33SbPHQZvzNi2SiDemOSY/juE0SKUzNjMbgMQx275r/NMkAwWMBCEJIojAlJdfeT1nveZrA4ABRiw4NFuxvgJFNNCiql3j0C8vEZ9Lmhy+snFwj7n9jjuzGe64Hj2yAz9NDKBFew2cR72NlfLN8ScUGMTki45ihG/Wa2+8VX8/fykaH7+XAIkWrPRBaszENmfO3LyFmFxN1bZcffU1WXCZNGlKElTj908cIMmXACAJwavmR7CLMpWmzfKqL7O6AAmjIBHMmnVXOuvMs3Lad4m71uQ49dRT0xmDz1jvjzPPODOdO+zcrBqmHl6T4+KLL8kqfknvSB98UGLCrG7J+V5YvwgZPmYkE9+LeebOO+5Mt95y62ofN4y7IWs5aDpW5nj8sccyIBp86VNpwPAn0re/+9v045/8JI0dM3al7l+ZZyyP5pprrsngEwBdk+Pakdemm266KUnfXy62awsgmUtjx41LJxx/Qurbp08aOHDgGs0l8/C0Qad9InPJ/Og3ZFLWHD24+FvZafvhJ/8jHT5gfurUbeQybTp7yJA1mkPl/Lv66hE5BxszB0dRuWPk3VnduRT3ce4974ILcz0yZYuelXl8TebSLbfc8rHMgeXNj1X5bW3NJfWY//ff/0D9XFoVgESDxG8SQBJyL5VLz559clSlcH3BBFeNuDbnHxIMAyAJxac5co7HymElz9GYcRPSDRNurjOz3XZnvRYpnLXtlXfd9WNy/i5b54j85NsqRQ6+KgecUiQqgNSzd5+08ZJEu9ZaVoOWLVvWA4VLLrsiR4HJZSSVB8dy2h1WHtGrr7/xVtY0SZ3DFEnxMXz4RdlUGeaq6hrub/fdeONNWTtFe+bdZBP3G+0VcHjffbPz3zQ+gqkEO/k9AJJ+3HglAdL8+Q9lMDiyiFSLdvGRhUOY91hJXP/EARIHRk6/kiOWe7kID/QBDJpaCHRNAFIsFDqCSnFNDugZwFMHm/Wa1LUu7+18yCEZzfPmlwNlbTzL5p4GtKgF0kgk9FuTkiTifpF80jrEt/o4SxPTnmv+Hd5/QbrixrpcOXzhPs52rMtnrU2AxGegZ89eyWbJfDfWdGwxQ9CekFgle1vT+lbl/nHjb0lDLluQDus/P339mz9P773/Ybp11jvp4F5z04Cz6yJL1SftCPAB1FskOUuvynNq0UrpQJInHEyeMjVL1Gsyl9yrHnlpIopvdo1s8etynP13r3tVABKn4A7t2+coNZFmkoNK4iiiDKBhGuNAPWr0uBz1KA2AhI7MSoACXxx7wdVvUSLX0U23ZrOabNy0SACSBI+cuiUZluaC4/HlV1y9zEHLxP9JDia+v126dMk+uVK7iDaWdiMiyaUUkK1eRmw+UuiZqgRk2CA9QAYeaU23Bx5rTS3/YbSvvv5mNuMJjOJfShGibs7gTGxoKEwk4hWyL1pZdB+QGa448+YvzFHVAg222GzTldIgiZbnViPVxsuF0zf3Dq42zN3Wcya99QIgacTwiy/JuQ5ECfAgv/TSy5NoAflcRGvUQqDLA0gH7LdvOuaoI9OwocPqFzSRaltsuWXOHgr9Usk55NmxfQZkGgfELoILuo6jRcudc1hk0EQpXxCkHXRK9lobBfLHCDrnVJjVetmWt99hh2XaICyas21ZL4fyps2aJTsoR71Kzp7AZElrMPHsL9tAOyMni7w5Ja3zHGHTvkODek3gahuoXbXtoHbtG9Bqg6OsF+3mW2zRsA2dOme7O9t7vIMwdQkp45BuIX5b2VJ7qv2ysvdW6TAImdvfePtH2eQyfupb6YMPPszMqUq7PvxN8qOCx0RjXH/6n/4pM1djnpTn4CAaGY8BpA4HHZTuu+/evK2E35m5w9ciFjaMUebeGTNm5Ci4QacOqp9TBBt5WzDxeK7SnCj7xffkd2FMVscHabqkdb71NtvkKKKSdudWrfLYbTCeO3XOodIAVUmrTo61Zb3uM0eM6ZKW2cK7l7RHdu2bjuw7M0ey1aV2eC+dd93zqcPJ96bORwxKB3dcyivcJ2HmHpU2mOv2fSzrdY4Ja1u1DeZqA9qOndPOrXbJ71zSiq6yDUi1H/CQ8v62+y6dT+ZV+dvKnuOL1ees7L1/z3QimIXg2/yViSfGtg1hzTO/4e+Oz22wQf18qMuD9JnU9agj02abbZp6nnhizi8VcwlA6njwwTmqFBhiqjL+OnY6JEdSW5gvv/LqDBZodThye6aQdSBBuoHeS/KdSQjJzAZo5ZxHt0/K58MvujSb12R9Z1J74UV5uxo/nn/hpZwGYOTIUXmdBXy4tdy5REtjfXZcNWJkBi/OmX/loZNnTOANh2faTnmTJKh9/PEvZGd/yZ0dwAeNlP0S5SHiawWkUH5wiBY1yK8oLEgBkDzLNQKYSDqCQwm4RO9at1YFIKmT8CWDffsOHXIQGG0tjR2BQjJQvpWBOT5xDZIGG0BUwnIcUa9xlpbYyYtw1EJTPZYHkHbfbbfU7qADlwFI9loDDkQPOG/sEEEgSsoBYTdGR2Mk1XzQytXUGK1FV2p5NA4fqBZtpjuhjiZoXWuUdkl9y6vTvVFXlI3VWUe7tJ3a3BhtbmvxTqTfxmj1aTybNODcs0wUkoh72ZdFYQkJF724Koc0AhKBrco9jdFKTmZn5glT30qH9Jufvvj699NvfvvbbPpr7J5P+jpmdcqpg+rfHxCXcI7PgEnvYGJh5xcYwbeAX9KVV12VIzdXBJAuueTSHNJfAiRh6lJAWDRqjc+4Zkz45vXz5ITG54l7jAW09rczv6Keaum3GFPLG6fuK+de9+Man/sxpnufcmnq1OuBNOiSJ9N//eB36Yc/+n065aIvpPY97kw9+w3Nm5kKLonnL6+d+FnZ1sbmiHaijTqVy6Ote6+lfVDfP8f1yCYQ88mB+a/O+DSeaIhX597/DvcwJ1kr4l1sCzLo9MGZD4QJk8nLfHJMnTota2M6tG+XNtl445oA6dhu3XKEGF8kkWKip0V+EiabNWuWAby8bp/61D9mcES7AyShEcnmm1iTOHKHmU3+I+d8kwhA2Rn7mefy1je2v1nRUbcJ7jUZ+ASYK0sWHAoG2+zEdYKU6EnRkMbIWUPOzhtVG7P6RMi87bSYspxrs7GMt6OlMaIA4V9cFcqsCfyP4lmNlb6BFCZ8u1ZWgwRH8HeShFiONDtocJanqba9DTObyND1CiBpNNXX088+l77w5FNZRafTAlFWwZG/lweQOnVon04+4fhlAJLMobYlEM4n43Gtg+qcuY+Jx2HTTItLLVqZS4NOaed4Cadq0ZIO1OuQ4RN6rkUHFELYQUtVaiDUovUe6gpaKfdr0bl2/vkX1tOhZ1NujNY7R53UqbR6tWhJG/YBClpZrrW/Fq3spPoo054yMKuWmTiZZJgn2MT5s3DA49jX2KRo7LpMqzNm1s563tg9jV3/8rtfyRFrF1z/Qjpi4EPpl7/+S/rOd/4r28Qbu+eTvi5aBaOMdgjXpcEok2cKmdXfFvZdd9k17bPXXunZZ59JOzZpkrUoy9MgPfbYYzlNQAmQOJnyRxCyXuubxzUbuRqnMVdkEm9sTtk7K+gsBrZoiXrK0nvwWYix5x7jqaSJc1svGMdBq4zfquWVV19TP0b7Drw8Jwgdc8cb6Y9/ei/963/8Mke5HTvw3tx+0m/Uqa2NzWnzt5zTp512RqPzhKNoOae9Y7WN8XfJU7RDhnC/AcXAsfnk0K4YF6tS3njzrXnz6lW5578T7ewH5mRNSbwTk+oNE25qkMCSxmTU9aOzxcMYpPU58fgeOfPyshqko9OhnTun1nvumQ497NC0//775/B1lgHpMGiqgCF+R3yOnNPQ0mLRInY79ri8DQjT13HH9cgmuXE33Jgcxtcdk6bkvTQff+LJtKrHnZOnpl49eyfKheqx2667pi0232yZ60FnW5JNNtk4+wFtueUWabttt007NWuWdt1ll7Trrrvkc9e23GLztNFGG+ZkqC1aNE977L573qKIlWKXVrvU17/NNltny4Vs1X6L51TLA/bbP1tvDjrwwLS5bY/a2Sf07gxWG3PSDiwhK7eExcyBDusPQMcnGm9a7wBSNHxly9UBSJ/+9D/l5IsGfgz6sgTKAKTILBul/a1KOucWHlquoFECCDbgrNLaANbkKWmvuuqaBog87uGkGVuCBD2pP36P0settWGujTWDJkqZs2lXoj6lBcPACJoobWxb0jmngsRogyZKYaYlLSbNF6kqEZBA2NpL2tNPPzM9vPixbPOl2eBwN/7Gm7MJ8vIrrswqWWrZlT1IKXa2tuvzmh5PfOHJ9N3v/S71Of/zqfuZD2fzmpwza1rvx3E/fwUmLxlyqeVJYlTc5bHnnntmhnbQ/vuvEUAiudH6MgXFmKhVVvdZs+hzGK3SYuqk0XKckDSr48l9kyZNXWZOcVqt1ule47es0zkfxyqtcVqdp70Gjkkdes1JDz3+7xk0P/nFb2f/pN5D5qd+/RrO6euvH1tzntg7rPr8WjzFHGPqKGnxAvyj2tZHH/38MpsaWzjV4T24CUiuRxPHrLey86ikGzV6bDZbfxzjdn19BrM9k9puu++R/XNsiludU3gXTc+KABLrSM6YvdGG6aSTTsoJcLmTANAbbbhBPuwcsOEGG+QtSOQVsxeburliEEYELhGaaUSHnXtB1hwNv/jS7Ge0aPFjaenxaLIPoA1jacCGnnNOOmPw4Hycf955aezYcdlxO+htsi2CbMMNPrd+HZ/7bNqwkeMzn2H+3DB99jP/kh3N27dfeYBUC2cATXIkEdjXGCAxQZQJIuN8dRJF1mrsiq6tC4DE2cxeLCWDck7tVkrimJV9yYCMktYEARBEB1AdOmydwJm5pHM+bNh5uQ7RBUH79LPPZ7VjlRayZU/mtBy0wMV55124TL0cZTG5oDV5Jfqi6anWqy5Zc5Xo5YCgXqzS2Y8IwqZSDVoA7YILLlqGlrZAPdHO+fMXZqZNc1fWC0xRS1u4aZ04u1MbCxPF1DnnrcrBeY9JhhO6Q+6M5d1vkQ5a+T1K2j/84Q/pyRe/k6OZ7pv/zfSrX/06a7bQS+Vf0pbnAHPU6V04R5a/l+ds6kFLE1H+Vp57HrrTB5+RD1nDy9+r5yJImJEBJFtXYL5Vh2DpM/g17N2mzccCkKqgwzioBRD4NthLrhwnzo0Rc8rvjs8/8VRNQYbmE61ILXTuMf9oT6t1YoQARNRpl/r5CxYtQ3fKwCGp55kz08G956ZnX/6v9N57H6bJ938lte/5YOrR/4bUr/+g+nt8c1q6qFOJb9iKpvp8TrN+K2nxFPuiVWl9Q4ty0D766OPZ6ZqmqaT19+w5c3O9dmWXDNB+eEcd1XW5Y6Y6huJvZhXjzj6KDuM7fquW5lDdZt/nZidX87lKE3+LfI06ve/y5pTfg3Z5z1c3jVrQ1m3FUnv+aWvMPSXn4GhbtQTYDzywLokw31J8A48r5xRHfT6VJ5108nI1SHxrtt5qq5xctXfv3unII4/M55KtlseurXauA1Ibb5zBEVDFBHfYYV1yokhbYFl7ZMu/+prr8lpyz72zc6Zs2bIdQvwvvfSyNGTI2Wno0KFp2LBz07lS6gwdls1JIq/HjBlbf49M28bSLju3TDu32GmdHy2bN8saac+yBU6zHZssfWZOm9MkbbPVlmm7rbdeJr1GpIrYdput833bbr1V1rh16NB+pTVItfAF/6YbbpiQs3ivMUD6/e9/n/00AhhF+fcMkEib1PQl03F+3/3LapwwN6rrklbUwN333J8uueTyrE2iURoxYmRmbiXjAw5MsHvum513gUfniN2rSQhRL3U8Ne5td0zKUQlBe9fd92VzibqCFoNgJ+Y4ZyKjtbcQEMZHJeiUGDTwxCEt12nijx2fN1Gtgilqe7vCy3iO1nuKPJBsrGTSNo+0KS6GEe1k5wWuJJosNWOXXXZlvQbLomaxcggTBQjj75UtL7nksuzAaBNTh/dt7F5t9I5By4QYtKIYPvroozT38X/Li+L3f/T79PVvfCMzIfS3TLy9njbuUdpHkEYv6mTu5JRY0sS5HBsYb9BeeeWIDFTj97IEeCWRY8Jx0NqVv1fPRSgaE9T0gAlQa+GtHjvu2CQJZlgTE9vKapCM9XLsmQu1trOg0axqe66+emTWiOhP48/hewHXZ5xxVoN6OW3am1EfoHOPccoUXD7fORB100231tdpvABUopJKWkB71r2L0jGDHkzdTl+UbGj7xz++l6684eXUqdd96eT+6E/JY3vChJvz3mzRTuUtt96eLF4DBy4VUE45ZVBuvzlc0jIRA0PlPLFBqeghgkvQAj4ieLxn2dYLL7y43vxDSIqxIZIpzlel5ARs3y78yMExuLH78QffA525f/vtk2rS2soDnyEwoT377GFZmKpVrzFLCIznA1216FzzPcu2jrjmukZpafRi7imZVJZXL7OvUHJOvfpe2pnqfJoydUYyVldkYmMm2nfffXOm7MGDz8g5f+T9KY+DD+6YgREncdrgAEjC/AlAtibp0uXIvAXKWWedkzNn33PfAzlztuzZ9ly7+KKL88bUI6+9PtFsGj8cw7mF8P3BL+1MgD4OY8lWOGVbque2LmKep6kW9MP0V6VZmb9tfWRLMbQc+mUIj/vkhuKjxeTYWHvc36xps9S2bds0ePDgtNkmG6+SiW2dAySAqBZI+nsGSDRDQNKZZ3I4q9sUdeR11y+j3g51N3X2oEGD62kn3n5n1iCVoEU9gBAVJgnT7tN8MGiATPh4TpR2eQcm0DkwTFJpVQonFWeGbmfmJbQYLim4ZLBS11ugcubUJXTaQSIV/RDPVWq3hUe4cdRJjWvxpw0paQEjCxr/jqC9btSYDCYt6CWtBZFJxSKEduiw87OEE/1YlkxZclGU11bmXNRFtY9I07XuJbGW7XOuj9H+57e/kxfAkTe/ljr2npe3F3njjTfr62by0XfVejk6Vp9/880Ta5qHaPQafKN+A3JYbLVOWjrq3mpbAcoqbfwNeOl/AGnIkHMazWTdrGnT1O6Aj8fEZpwGmPHesrFHe6ulkPTox6wRmT1nGVO2BRMQKsEUEEBoOePMIQ36y3Vg4dSBp9Vfl32Y0ABwln0rVNqcLq8Bs/ydBg4ckrVGgy97Kv3wx39Ism0PuOCJ1LHXnNTvlLMyGLPIloKQeswpAMeiFPXSQPiG8XeU0VYAI67JHmwz3vhbqQ+Nd7wirnsO01q1P/0t7LvW9RVdEzYe9SuBGsJFrfuqwJK/jn6v0gIygF5Z7/U1fA5DWC15qfeWhbxaZzaj1uBPtUC47wsUlc/XVtaDar3+xuMIbBZte7Pxj3StSotv+q4rAki9evbMW3nss88+ywQexaKtfv6yIhuZ95jYOCMDEQBSHPYuNYbxXZvRxgHwEcwBouUdHKjjnukz61wr+AJHOxorhf7vvU/bbNYSbbeuDsEfQJR1slawFn8j5mObK6+Kk3Zj77VWNUihMaqCpL93gGTgW5js0O14tmA6GHB1YtDYBK2yqlUyEU3AUP1jEGHWgv7LieqctBsSEVoS1x13TF6GzoKDWZFk0DloP2otqBiveoJOialUmbnnWwzUE7R8moAb2qFqWzFvfiNBy7RGA1cyNfdgSBbJaKtzz6j2pb/XJkAiYfuWNFgO7fMuVX8sbeToiDH9+te/ST/66R/TCUMeSdfd/Gr68MMPk+yr8e40T/Yo0p9Rr297TcV3BD0gbJEIOqVFjIYx6ouS9slvJa1FvFa/k4C1FUjwfmU/ro8ASftiTml3ZPQt2x3nxiUAai7ZLuWZ515YBkxaKGlb+ebE2NPPgHz0Z5TAFi2aMRe0vpeQ3qCJErD0/KBTam/Mqb6nXJo6974vZ9r+63sfpm/9xy/SSec8mrqfNj89tPjZ/JwqQFM3gaecf+qcOn1ZvyTAjxYMf4g2WNCrwok6LRr6KeiU0YfVcm0BJP2OP2l/jFP9rh3Rh1HqdybBcp4YA+ZO0ERpTul38zPqxQMt8kETpRB03y/o1O++Ki/V1nHjxjdoKxB0730PLFMn06x+V1d1TnnXtQmQevbsmTeWVt54000ZjMjrI6qU4DZu/IQ0ffrMJRqkDRK/WSBJtJsw/xIkHXro4XmbElqhqdNn1R9XX3V11hQBR3Id4b/SAwjHF3kKzPoNz4v7bHqrjwM8AAvC6wkhNLb6OH7T9xzT4+91VWqDQC2BTzLMV58jASbzJ7+stQWQOGlLYbDGJrYASFVN0n8HgBQMxoI1Y+asnKuhV+/eOaHlqQMHpauuHlEzusMkp2ptoE4/dVDWDvBNCtU/nx4TspQqDU4S2rwFC/P+c6FOt3CSFM8+e2iDic0vSh0WxKC97bY7M8MsNTikcKGfohSCjp2ejxDn75DWPZ/pjNnNZsFBy1eKVgoAwHSCUTE9CCdlHgpafh0GrXqCTsnkJi+H90bLFEhTUAtwNgaQAKrZs2enB2bPyQnI4htFKTS/Csxo7qbPmJWfS+NmUcEALRhl+9xHw3brbXekX//61+k/v/vb1LnvvPTsK9/NuzUDuEHvHZjOLr/8quzbol6LtQ0g7akUdOqkQaIt0lfoHPrd4lz2OymQGdUYCVrPob0wRsp+p/177LEnsjZSuKzQ2VJzsL4CpPhO2ippIR8sYeki6k47rW5Taow36Mpy7A0T6vtV/wIhvpe5EWPP4mI80VLGN1AyiQDm2T9liYmOCdriXR2nEyfekRY+/Eh9neecc26aPGV6/i513+vUdMKA0alT7wfS+KlfSh999Lf03CvfTYf2n58GnGdj0EcT03H5fPOPOcyektFWC453rYLfSy+9Io8tvn11tOfmqDQAr8F4OWVgFpomT51eXyfeYp6W/RbnVYAEdMmwPqB//3TiCSekPr16pSuvvCrJ4xP3KKsapCyU3T8nz+cYz+GfyWRTvrc5QyvrewQtPqDfq6bBMHFzBwhaLgVM++V7mwfmE3NezBPfnf/kNddc1+D5NIbmFP/GqNM3oI1jei3byoQ2d/5DOTJM24Su6yN9sC4AEiH65J490/gJE3JeH5u021Web9SJJ56U8+jRGtGgiGaTgmO//fbP7QZybDci5F/JF4kGybeK44LzL8jmNSCIqbFnrz4ZHEm14h5WhUhMabNb9+Hd+iRAiK049t1v/+yTO3DgoGxKA8L9DsDjYUG7rktmct+9+hz8Ub+sah6kaj3xN0B27bWjEj/PNQZIgFB5/PWvf01/+tOfsl9SXG/Tpk1Wv40cOTJ173p08uGiMWtargsn7ZI5kN6p9yKBGymHzVaOB3bXLbbYIkfwVCV4e96Ujt5MUKRhUko5KYUv086Uan7SFR+mkilYaDEEC2u5UAJS7MrlNcyYOp8WKJ6FGdCaDB16Xv01v5FWDfRY/NXDnHfv/Q8sAzQs0oBPAC9t4leBQVefP3Xq9AwY4vnuwWSqmjWAj1RS9rnzKkBasOCh1LvnyanJdtulrbfYPG29xRapyQ7bpVP690uLFi2NGOSUyUk7nnvttddnqbRchLRVn9VFFS41r0yaMi2bFqmm//znP6f7F/xr6tRnXvra//l5/lt0UNRLAtW/+iCu+V6cfG+6ZWL9tfCz4YAddEogmKbD1gJx3cLhWlX1T4IGWPmhBa3oK1uvcLQmZW+51VYN+nF9BkhAsk1sRecccuhhOUePRRFQkuhQgkcLbixOMTaAKvMv+gBzxzSr/TVpyvQsNMS3cQ/GypQQ9yqNA6BFEtq4bsG1oFc1QICqcbp0UR+Yjh0wKfun3T3vG3k7kvsXfDMnFL1s9OL0yKMNtVjM3r5ZtMnznD84b0FuQzxfieGPGXNDwzk18LSsSRs/fml0rT6zFUJVaOLPE31WliVAsmVPsx13zD4bLZo1TS13aprsfbf5ppvk/dnG3bDUvH3TLbc16OOrrhqRtQpVXiYIhTY5+BY+RACyoWr5fvqdgFL6WQFdQJOd5UvaMMuXIBaQoa0qXSDUKfLYNyrvF4Gn30sXCP2unXhp0Lqfjyk3BEKP+cZvMjRyaxMgcdI++uijs1/aCSeemMaNuyFrw4Syv/Ry3aawb33py2nnnVvlPFYSGjNfCboAAjjeeyc8OoAi3kx4ZTaOY/iFw9OZZ51Vb16jMS9BEpAlJQQAxc/sppsnZoGLGc+6TKMl6a91B1CQVVpWe5sr+319AUgLFixKfKL4QkmJcMD++39sTtqS7r7xxhsNMFDgHuU/5H0YKv998MEHGSSFdql169Z/dwCJFEobYVCSbqfNmJX9ZZiOTCKb2ZptOwAAIABJREFUAd577+ycLAxQ8nFMONqjYEomlQnrAKBKwBITE3Mz0EJFjNZCwHk6aKKkYg8VdNTrXlJm0ETJiZcKOuiowKUOqC4m6C32Ddr69HPLLCboLPIk3mpbSdjx3Cgt9lTZ8XyLuPZUn1/HmB6oM70sCeenJSoB0q233pqjKjbdeKPUoV371OngDjmbc4tmO6ZNNtwgtd5zjzRt2vTcN/Ig0Yh5X4dFluYs2hUlYMjc4r2D1je3iDy8eHE2qZ160RfSGZc9lX7y0z+mn/3sZ/V06PWDxTTqi5Ik6/tFnRi5frdYBI0SkxbBlU1OS9qqfwC3ks65/qU9jHEVpTQEEq5ZqPZp27YBoFgfAZL3E4Ekk7X3IgiIspF519zg8/bAA5z7x+Rs3xi4sRbvqyy/lx3JS8AQ/aavy2+Qx/bnv1DTlEyzVH6DrKF8YKkpNeq06NN4lc///BPPp+POmJ+OH/JIev2dH2VN0oibXs2Zt++cuXRcGQvabmxEfVHSEpnTMV6U0nHUmlMWQeM5aJ966plCq1XnK6lebQUAvEvQus/Y9iwbP+/UdMe01VZb5rkzYsQ1qdvRR6ddW7VMTXfcIW27zVZZCLn0kkuzllYeJM6/tGoO85r/WLxDlDSnXBEWP/p4pnv4kccy4K9qatAzV0lcuIgZ8eFHsmBBuIi6ojRPCFvZjLrk+b4XR/agiZIQhN8AjdFW46BWyhaCYjmu4pyWTtZwvM789qwYd2vLxCbS1prCcb979+5p9OgxafHiR3OG+fD94d/T4eCDs4Pyxhtvkn0JZV4fcvY5OVdgVbFg3hC2ZNSOgwBx+umDczRW1iKNuDYnegyQdMIJJ2WNKtOc36+44uq8rchhhx+RhLrb80w2e3zS85i5RB7yaVwRQNJ+Ajm3DsKg72heNnZYF+RwAoRpX++6694GW455XmMaJGAWQGJmo8iQF2ll8yBV+9HfNEjM6fxMV6RBkqPppZdeqhnJD//UBEjwEk1SpAD4ewRIEhVuvvkWyYJrsz/MjdqNSpHKFlPHcC64cHiWkuzpwqPe5DShmJ2o/klADipeIKH0ewEOLIi0VCTUoJ06fWaW0Epp2QAiLbAHm7xBSxrnFGgABqMgWVlYmHbY6tFeeeXV+TnVRd3fpCSqVXTob7nltizhVRd170DKIrlm2vMvzIx4+oy76qVGbaAtmjXrnswAop0WbG1i1vDe0VbPd33UqNFZ40brpl+9EyftKVOmZGbeZIft8/5FnTp1Sr1OOjF17tA+NW/WNLXeY7fUqmXzvDP53XfdnUN19bF6HMCsRU00XzxT6dtgoqTRoJ0+fVb+tq+++loO47YP14RpX0p//esHecGVqyRome0w3rLfndMIyM1DI4eWOt/3Zdopn086BW5J0VEnholBV/vdtwEugomXpW9H41UFEusjQLL5sK2DlN4J4AekmVCM6wkTbsrX9J3v3659+ywtA5neGYB1T/QXkyaQGRrN6F8mSppV5h605i6J23ODJkrjGYCOOuvML48v872YmIFUWqigNb8WLn42dRt4fzrt0qfST37+p/SLX/05XTDqhXR4/3lp+GW31NMCgyTx0K54vnPtZxqKOpXmNHNTOU+YioAJ3zpomcBpm6pjGyABsurn1CWXZXBHe0vruF/bfXISP3tuHXXEEem4Y49Je+zSKnXu2CEde8zR6ZiuR6XOHTumVi2ap3vuuTfRIOl39zt8L7yo5E/eB3+wWJm/6Hzj+2bPWQb0ey99wextIUJLk07oCE12fB+mZGZUfDKejz8BU6WWT50ApHkgyWbQArX6vmyrFBICacp5VJ5ztCYIl3MKD1kXAKnrMcekUaNGpbff/nI67LDD81jWZmY2ZjVa1s022zxrRmwvAwDWWtS1jxkT2GGtiEO6ArwfAPIbLbi0DQGS8Joc4TZ6XBo3/sY87gcNOi1JywIc8FU65NBD8xqHH9NyEfi0YXkaJNpAzzI2gR5CPBNgg+P6sYmGLw7tc85fSrvw2xdeeKn+fT9egDQir+3rDCBRL4Xj9t8bQLJISelO2uX3YBKbLBYpE9uiBiSRytD268+peWJWfxoQpLQptAZFlIQPbqGkiTJgSDtCV+fNe6je7htMAcO38AnLFMmCFuPmQ1GqldFnu/m8h9L55w/PdGgt0Mx2JVPAjDGFmbPuqadD6zlCyMuFXvJG7zV+ws31tECHCcHGXzJukq7JOWLEtfW08r2IHCujcLRVeDBm5709WyQb345p02c1eL769Z0Juc9ebbLav03r1umoI49I02fMSB3aHZQO2LdtmjPnwXR892Oz/8S2W22ZOnU8OC+yZfu8t8mK6cQ7Yqy+BbAWfa4USk2q/eUvf5W++Mr38saks+Z9PScGrPq0kIzU6x2iDoCJGZXEFNc83wJMoi/bZVG85577G2jUfC8LzO2Fxss9JLiSga/M+foGkGgWRJpI/ilPDDBIiBD1h/H5FiI60QEz5wwdlhmxLOByt3hnYCr6VWke+Y5SVMR1701rQLCJa0qLNb+T0pQ9atSY/A2rC60FwFgv7zdvfEffM647ZxK9+c5F6dA+96VTL/5Cjmr7/77zm3TiOY+mw/rcnfoOqPNzsVh4PtNh3A9scUCvAhwAAxgqxxGtqMWx1MDiKdoKZEWdxou2ux7j3W9MWIQw2iP5Y9od1C612nnn/HeHdgemMwafmVq33iPdOOHGdOQRh+dkga332D0NO+ecvPFp1K+kQeB/V84J1/BDgkdJi3fiRSUvxFe1UXuCVrtF0+JHZR/jv4TSU09dGnHmve1GX6ZiwWsAyyoI1of8AgG8eBbNAGF1ZeZR0KwJQDpv2LkN9mIrNUjcN55/4cUMAp597sVs1mN25lO48cYbZyEdQKIZ2WvvvdNrb7xVDxhKoETjU+dnNTzPJfPJITkr8BlaIvNDXwdIApTwZQBqxqy781r3ymuvJ9ur0KS8/sZbGbRK4HnEkUenmTPvrt8HzTes5YNE00QAZOoFiK686pqsGLj51tvzWAofqbK8c/K0FIfr5gR+eNttd9RvlPtxAiRrPJC9TgESFdPvfve79EkBpI7t26UTexy3zFYjK8qkbesOmVMfeezz2b+IqpoPAbUoVHvnnVMShzrZg01oDNmkxhw22njjzDwsoDEho6RNIQWrz0F9+8ADywIJ9Oz2GE7QOi8ZQtSJATCRqStoPePSipMoetIZxhB0SgyAlBb1Rcl04b2CVv1AU+mHE7RAY9lWQJJ0X032h7FhltFWpbaWjDLqtGFx927d0qYbbZjY0o87tlu6/7770157tU4dO3ZMe7Vpk/ZpvWe6beJt6fDDDksdO7RPLZo1SxdffHEDBqs+4M67aJdDW71LdWFC69syEV9+w0up62mL0pvv/Ch9/wc/XKZ/MHwScNSp9C6c1eMdoqQlY+qo0mJWQROlLS4A7JI2mPSqlOsbQMLwaY/MEWNbXxnPHEavu+76vD8c4EQjS2PEd8VCOvOuu/MeYjRCGHv0U5Q33XRL/p7RX74zoBW/R+leeWuCTqkNmHLQRAmE6OuS1gJZgpugHXL2sFzP5aMfTgf3ejBdecNLSWTba2/9MDttd+17R+o/oM53DNMtx6FzQRNRV5QWBhq18vnGhP4ImijlPGLyKmnNK+AxaKJkAjv8kE7pmK5d0yXDh6ebJ4xPfXv1zObqiy++LO2w/Xapy2GHpimTp6S2++yVt4JovlPTZZy09SUtzheeeiYxozmAXX0Uz4qS8zBBAhAOWvOvVqZ+/MF7SuoZtOYNjVDUFyVfMO/MnIfWPTRQy8zp/qdk0KStQRsayVWZT2sCkC6+6KJGARKzUAl04vydL3815z5iwuGovfXW22QH7vi9VslniLBAaMX/aWIs8gBQOGPnaLZBpzcASVK4AEgAKvCoblpYoBzwqvUs1xoDSG+/85XsAM5NxFz3bADaMyJaTjltxl1p+sy7GxwzZt2TN81Fax6ylvjOnvdxAiQaS6B6RQAp+42tjomNBumT9kFqd8ABqdvRR60SQAIIju3ePTNDEhhpNquTTxvcQOowkS2QTFJ2QjagaBDsKI6RyaVSSqvq4m9B3et3C5gPQKPCDyImvtLA4M9Eg4POgbla1EupEi0pjkrYwhy0YSrCcKJejIqfB2kz6ISf007Y4qOUNoEgdVLnBy0GitGVkpi6aVBo10huQeuc83a1rZwfmQTYutFqu771nHLxc96334C05x67pw0/+5l0wvEnpCsuvzwdf1z31LJF8wyQ9tl777RLyxbptIED09CzhySMRCbVbscc0+BdtNFEv//+OZlZ6Os6s9dD2T4e/aP0XLtOv//+h6n/8CdS7/MfT7/93V/TN//1Ww3U+WhJWA/OXZAj/dTpMIGlXCj7XZ2+ne9J1R20gKJow7LffSPjg2bJYpxpr7y6gap/ZZm6/qWJXB/yIAECInCMC9oRpk39YR5YeMp3Ej4O0AIvNmydt+ChHAxx0823LDP2jNNsmrvx5vp+1dck8apJE5AAnOr79Yqr8pxlEq06G2OOxnR8K6VI0apTvnHAvEw7yP+jxym3psMHLEgPPPytDJLmP/5veTuS7v3qkj6aUwSHqNe4pxUuNb3qZMKmGaNhijFw9933ZkGowXgZcGoGKrTZUacxBggwUYpSUp8DT+F3s3PzndLGG26Yttl6q/Tmm19KG2+0Yc5ULHJuu222zr5Hgh623HyztMFnP5u23GzTZQASTSuNGlMbDYWDKRvwqfa7eeIdR48eV0/LmXvu3GVTV/A9wX9pO6JeQKrKn8wp44TGKOhoT2iVqoIpwZUAR6setPxHgchy3K3ofG0CJE7anK1pUWsBJEAHH2Bio0UCkKwrBPTGwEpc//K7X8v3EkSsPzQ5ABCgBHQwpwH1ftOPNEnO/TZ23IT8/dRFczR23A05o3QIwNU9URsDSDaBVTdgNuGmW7O5zxZT2jDzrntzzqW7752dHHzbqocEl7Puvq/OJ2nIOVmQWlmAlJ2014IPkojHlQnzB5BeffXVeqwTmCfKRn2QVhcgGRx8fbp1Ozb16dsvLxbx8WuVy4tiWx2AJIJFBlMmGan5MXeMnOmjOomAJKp8zMxCb/8kyarkqBBFVmpGLAwmWelQjdlh6CLDSrUyxmOhLX0rMFGMmH+SwReMzzXMqWScFhhSJeQedJ7LrGPhjGtKEgPgY0DEdapZtGW4ut8AwLvvvq+eoWuHdAZ3F5Er6Cw4Jnip7sagLVCYX9l+z2d64Kwazwe6+GC0bN48bfCZf0k7bL99uvzSy1KXww9Nm2+ycdYYHXjAAXlvnhOPPz4NPv301GSHJjn6Zq82rVOvXn3q6yJJ+YaAbNSvr+z3BuCU/e5b/PSnP0vf+rdfpGNOX5TOuvLp9OFHf8vRHPq57GPjQ16q8n6AkIaOaTSeRTsHFFaTgRobFg6LYdDal4/Wsir9yzgMMFTH3/L+Xp8AEt8dm3BOnzEzL2DeRfSd96/1DnLAiOIkEEy48ZYMmDhu01IYR2V/oSuBuLGF8WLq8b0AVt/LPIl7lb6dRRVgjuvmCaGhNB/5jfbVdZJw0DIdGFsWIdcGDDg9Hdv/jnTsGQ+nt7/6kwySbrvry6lTrzlpwJCJWegoo6kADY6sTMxRp5IgJbt3tN81mhGaD1GZQUsjrf3l3PWbsUazzW8qaAEUws2eu+2agY9tLF584YvZj48PH4BkmweRoSJGm+9Ut8no1lttmbPGl6AfCMGfmO2i/v79T81glZAQ7da/eJnNU4NOaUH2bflIxXW8TvLHDOyWgDq/Gcd4UWkGDa1Z6U/pmTSSohKjTiVhbE4l5UgWQOfMqzn2ao1H19YmQLIXGy14LYDErMWCIbcRgLTNNttm/6O9926b7DNZaw2sXgNkgBTRaEAJsA/MAEH4r37Do2nBzRfCqAg4v599ztJnfOUrX8/39RtwSqLRB4DLZ9UCSDQukbgVWLYvokN2cWAZ8LGdSRxz5i5I5fHgvIfqtz1hUlcHUx3gvDIaJNF+jTlp6xfz7bTTB6fOhxyS1/XqO3k/34B/n3G+Ig0Swfzll1+u97cOYBTlWgVIsmQOOOWUvLlmzu3S4/i8VxR1e/lhyvO1DZAw7Q4dOqbb75ic+vbrnz+MwUPVW2vysMFivAsXPpxuvvnWLCHb1bhMLBn3lYAhJjEmg5kFTZQ0NkETJaYdv0dpkFYXVPSc9IImysmTpyXbG0R9UTIfBk2UfAfi9yhDGgyaKKu+RugBHMn9gkZJVVoCiqgX+CjpnIti22uvvdKGn/1sarLDDumSiy9OdsVuvefuqVPHjmnfffZJB+2/bzr7zDPS8PPPTyNHXpu22XKL1GbPPbKviKgXh33tMKJ4VpQWqoULF+cEl0EL8L733ntp9uJv5fxH8xf/W/rxT36agV6o/oPWOLFARX1RXjj8ksxIgo5pQXRWucCgxZgs4ha9oBWVRcqNuqIU6cjEVO2j5f29PgEkc0Sosg0zAQx92bRp01zWegcLovHjN/3GrG3R8DdTSfSXVBrjxjXMjRR9Zv4xu6CVxJT/Tq1oKo7c6ok6+QQJn456ovS9+CCpK2hpqjD/oFH27X92OqrfrBz+/9e/fpj+9Kf307nXPZ+zb585bFkncbnI9EfUyaepzrdtKRCL+mm/zKGg5e9GkxKAJOjMMZotQlLQmgeEtHPOOjPtuftuWajggmCz0m223jJvU7HDDtul4RdckM44bVDq36d3OvGE41OnDu2SKDbO1lGXcUpjE8+L0rcCfqOP9L/98mr1O7MZ/hDfCPglKEVdUXq3KVOmZ9++eL7v5f2CJkqRqb5zPB99/kaVNAPojcNaY6+xax8XQHryyadzMkfaZKk7bLPBB0nAEC1mufY1dg4IWEulCbDm+JupDAByCO0HOIGk0CQNG3Z+/g3or9ZL4OaDxM+2/K0WQHrooUXZlG4M0mLZgYKQc30GX8OyQD3/oYfTgoWL64+HFomOFM3Y8DAPCZjWPQLu1OkzsiKibIPzMopteQDJuGneokU6vMsR6ZJLLs1+xqLPReuVdQJIK7sXW0SxcSWKoLQAR8q1CpAenDsv7bvfflkK12AfltQjF8Mbb77d4CXihdY2QGLH7nzIodl81uP4EzNDEgUDhdeaPCQe5jXqc+dsptShVLjU6SIfHCRYi2qpzsd0DSKSKa1Z0KqLk2UJJpyrY8HCukiaoIWISZXqCkZh8WfCsQAHnbBcZg0MOeiUwBWTR9nWadNmNpDAg14bSWgWL/UyAZAE3VsyaYxSWzn0xfPdY3GrhjqTvmtpEgCk0wedllX9+++3Xzqiy+Fp4sSJqefJJ2Xpa++92qR+/fqma0aMSG33bpOOOPSQ1KpFi7wpp28Qz9WPtIKk9XgPJcnSt6YtC1p/f/jhR+mOe99NHXrNTT/75Z/Sa6+9nqZOm5k1gnxlgtZ7k8rLfnfOtMhEpm/QAs80VaXmwfM5wvtGxo4xgFZb+ZOVfYmWROY7R7+j9fxa4zGurU8AiTbRflLCtSWGBAh232PPrH2J9pYlwM7MRbqjYRRaTIPkPgw/voHxPXXqsikUOIbmObXke+k3O5oLJCjHgHPgLc+TJd/AWLbICjkuaY1T5jjAoHw+jV+p1XLPmefekI44ZV7qe97j6Sc//2P69neXOG33npn6Dliq1TFeBCnQrEadxgKAJLFf+Xzzn3QtvD1otZWJvtpWc7qWnw2AdP/9s5OAhp2aNUvdjumaLr344tSnZ8909FFHZufsEVddlfbdu03adust0/bbbJWdtuX1sg0IMOpg9mK2roJ+ZkZzSMZwdMa+cVpL2GJelAtJf6Kl/dHvVX9IAiQ3B/T1z591d3Zir5omSfz4tOcGLTNclZfqd0AB38n5g/Cya0flOstxWJ5/HABJaDytzskn90rNmzfP5jXZs/kf2YeNdSXWvWr55ltvp4cWLsoBN0C/MXnCiSelY7sflzVExi+h2XsT+P1t3ARIGnzGkPwbDZO11tr78iuvZUBi03C5l+Quw0vj2VWABFjQ+PTocWK2fhB0zN8bb56YfZEuuti+b5ekRx57Ih8BeAkF+fj8k+mxzz+ZAe7jTzyVTcXmgfkM0Fm7hO/H86NcWYAEQPfu3ac+TcILL3wx7/GGB0ddytUBSMBQLZC0VgHSlCnTchbTt95aCoZEFZE+aXDKl4jztQ2QTDD5J2686ea8546JQQU/8bbbl1mQ/IYZaRt/JIyY+lT+lmr4MX8JTBtTi0XVNWHGVc0SJkGrVGbjpeLHSC3+JeNk1uODUKq7OVh7j1ItLas3RkEzFvdrB+YzfeZdDZi8gShMuMxKi0HTYlQT2GmXfihNRezNJkdpTvRMYaSeZ6D6W5233np7TfNR5EE6puvRafttt0lHHH5Y6tzp4DRo4Kk5iq3dgfungQNPTfu33Ts1bbJ92mTDz6UB/frlbQWEpsY7Ut3n5I0339qg32mtmDGCTsn/6Je/+nO6cNQL6eiBC9N773+Y3nnny7kvLS4lrcX2wQfnN4jUEylFFVzmsMHE+YTRPsR3Vw9TKSBcmoeMJaCpHA913+iBbIot72faZd4pmXh5vj4BJBL9Jptums2uGDDhwaJ5860Ta7bfe2KY5tOsu+9Nffr0y4CpHLv6kOqd+bI0z7pGyzKiEk0FCFf3J7SgVjWBwCn/mqoWyQJeDW03tsz9UptiHlr4z7rg1tSx99x0/e2vp9/87v+lr/7rz9IxgxalI/vQTNeZCZnCmGTLKDzv5b2NjdLEbrsMzyq1tX7ngwU8xNjUd66VYyHOjeGnnn4m9e3dK6fF6NTp4Lx7vLnUqX271KdXz7THrrukFjs1TVtvuXk69JDOOT+PbNbl2GO641Ygcjaea7HVPmbquOYeZhLgvgT9NErSodAMBq3fgUWApqTFe++6574GAg6+aaEuzXGuobPYRZ1K2lfguDSZcvD2/KrTvWivWpp//fdxACRAXeCPrUTs5bb11lvno3XrNqlps2Y11z/r4KOPPp7Tm/i+EjnixdYvPIeG0djNPqoXXpRBENcLQIZmKEASoBRmNi4fgAit7aRJU/L3E2QR4JUDuedWAdKX3n4n++3YtNn3ALAkFR0xclT2RaId9xwRkPzkaAwJGEsBE41v3VGnWfxC1v5fcOHFSWQ0QG7cxdof5coCpDZ77Z1GXDOy/n7ms959+qaBgwbVX1Pn6gKkWiBprQIkjMWuvQZkvLwPLFv1q6+/WX8tflOubYBk0bFoUT1yDiTJWvR69+6bwc0LL76c20e6lbVZviTthc6Bn2233S7fV9WUmKzAjfpNti8s2bsII7QwlpPaOQdtCwk6h3P2/CqdAQ5kkRiDVttqRVPxMwCcgk47SOUmS7Ve7/7Msy80oCUNlgu6ezBBUm3ZVv1VS/UPpAGJ9W21x13FDBfMPADSk089nVrvvlvabuutcrbfVi12Svu02TMNO+fstP++eydZgLfYdJNsenviiSfz5p2AV/k+NsXVJto3zJLGzLtUtTo//vGP0zf/45fZ/+iWaW+n9z/4IEtSfELKBULdgA8NmXBsdTq8FyZTPts5Z3g+afF8tMZBLTPq1UtyHkWdSmDTd67WK2N09Fe1XJ8A0gtffDn7UvTs2SuH7wPJtAWYub2Vou2+EUZMq+MaXkBQ2Kl5izz2qxoL3+SWWybmbxtjWh0AcfV7ZYA/76H6uYcekGL+rPYr5u75UacSkOHPUaVlZs1zesk8NQZodQgnfQaOS536zksLn/iPnEr3+Ve/mw7tOy/1PXtOrtuckb29Wqfn66PgE57vGVU/NveRyAGT+rYumdPRp2VpAfW3vhetJgBiu222yoBot1Yt0/nDhqadWzRPG2+4Qdpj913TgiVmXWHXZRsBGOHX6olxasHz7tW5R5PhG4o0C1rtJUCWQEj9BKfnX3wp84ig9QxatfL5zgEezws685D2qppV3DigUbLgBq06mauqY0S/u172WZyva4D07le+nnbbfffsewtk0xq1arVLBkqt27RJW221VRZwwyfG2kfLc8edkzKoAhbrfLsWZgdrCSct9A4ZsGmYXnr51QyQaJFocwCeAEn6nsDgN47cQPprr7+Zn2GNkudv9z32SDvt1DxNnlLn8lIFSDRcZ55Zx6fwq1dfeyOvkfsfcGA269FC0uTjnfp6ZQ7jx3fybsYWjfGLX6zLNh44YGUBEuBp/frq176ZsQRHdL5V+i7qUq4JQKqCpLUKkF566ZXs5CwrJhUuM8Uee+yRHSTLFyjP1zZAMiFIZLvvvkdGq6cPrps0GJQtRuzBdtrgM7Iph9NyZnKTp2QnStLdXnvtkydurcgL72Sxw2iZDklHTFaYXMkADARaISHnTEFotclArS4SpDiLPakAncO9zEIlAzLIDATSXNAJ+TTx5YMpmYVn0LBwgA1aCJ5WyWJftpU5jzRHygxa4IiPQFUFzoeJ+cDkQ8txDygOJlSWNiak9gbgMOpDO3dOW22+WWrWZPvM1Em3u+/SKpsLjjiiS3r0scezJso3KaN3tNV7q6es33sDEfEuJiv/o7e++uO8vchXv/Wz9Je//L/MbEg41XfJkmkNv6BaOZ2oiC3G5fO1h7Rd9rtzC3ZJ5xxDLyVgbfaNapkm4971CSBpE+3Pzq1a5XFMvW/MYLCkeXNq4KDTUq/efbOJUl/JlyTa6NzzL0zdj+uR+6+qkdQHwBQfRU6VDqZdc9X3jG+r9L0s1LYVCVraCuOvuqgTbmiug06prfwSyu+lXhnrSbVBS0jKWqlzz099+w1K3frdlg7u/WB6+yt1Ttu33/Nu1ixdcNWDaeas+zJYL+epOs0Te4LRTOV6l2hhBESUY1tb0NA6xvMJdHhSjIOylNhy2oyZ+Te+Qpdffnlq03rPOufs7bZLTXfYPu2+267ZPynuE6Hr25R9Gf0eNFH6btV+BxT1XdBEiUe9BbWnAAAgAElEQVRVTZM0U/F7lDQ6NKrVfsc7gyZKG4ZXNez6liYlaKIEpqrPJyjiT0FTlmsbIHESLp20jc0dd9wxgwpt22233dKWW26V/XE5auOp+AWNjLnDb0ZkJ20c4Mv94Utvf7nBQl+uk84BKlo6IIjpyr0Bknwn65DfRo8dn/keoeDSSy9LXY/pliO1u3c/LpvtaC4BtcYAUt++dUEFFw6/KG+wu8ceeyZZwGXujkhm/nErezC7cV0gUNL4AI8HHtQuW2uUNGxyrIkIFLXbmJO2dXLX3XbLGra77ronj6n99j8gA8eyr9YUIJUgaa0CJI0kAdpJ18ewjYKM1SVqLl/E+boASBiMZ++9T9usFRIlghGZJJiAEhOGXA1YDmQ3TLgxO33dfvukPMFINGUUiQWOD065KGPMBj4fjTJnECYHSJXqdFIFHyKhxiWzsg8a8FQyeVEKHClLFTItlQWhqtliFpI1tVx8RFMxR1S1FsJzmekwSG3AtLSfmaMEENqNAZa7cGufPBvAivuYwRyizEjLwF95WPj69euf6yDVMb+edeZZ6bBDD017t2md9mq9Z+py+OFp6NChadr0GflewFM2WhMx+ggTBPbKuuOcD1HQeZ5NR6fN/moOzf7Bj/+QfvOb36QHH5yX7zWxg1ZJmveOUVeU2lomj/R8YNlCHDRRYtylGQWTYqqN38uSiahcJDy/Vp1xD9DB1Ls+hPnHQtPt2O6pW7fueQdwY5Q5JM8n2s+nnslzCoAniAD8fG1sswAAqUPEFkkyvsMll1ye50SpCbQgzluwKNcd/WXs0b7WjamlW3JkR/1Fi3P6hajTPDOvq0kpAfrQDAUt/wpAozSRaZ/vSkBB17v/0NSlz/R0xCkL0jtf+0n69W/+knNsdep1Xxo4ZEx2TOXEGnUqzTNHOact/Hgjk3bQMldMnHh7EhgQ80kJPMQ4KEtaG3x1/IQb68fujBkz07XXXpf93DhOT5o8pX5cmTf8WewQEM9UGt/MjWXdzo3HqrbHnDQnqrTaov+iXt+KpqdKh2fZPLgEM/qFGbFK62+h6lGn0n21+Iu2RrRV0PvGjc0pPFry0gMPbJddL8aMGZfXgRjbUda1YXzW/Jx4fI+0xeabp1p5kHyHAEjWN755hx52WAY4+HnLli1zFm17E26//Q4ZDNEyAd9HHd01h+D71uY5377qutjY3wAgEGR+mYMlSDrv/OH5ut8JmqOuH50tDqPH3pBefe3NPHZ8y7Zt981jcVF2A7k8R8x5XmiQACSaokMOPTxtuOFGOaq7U6dDMtBiOn/u+S+u1uFelhHvjVcCjIQt24GJXAaQOLU3BpD4eDFjSux8TLdjs1sKkAc4lv1VCyBZ/81B31NuxdGjR+ft08JJGyiqHnyS1jpA0lAvAiFDxNXGly/ifF0AJIOdjZqz9v77H5Buv3NStuP27tMvT75TTh2YAQ1QIfRQ59E4UbeHyYiGgCQgus0BjdslPph2TEp1MDuRIIIWQKvlUMpvQ/0lrXtJnFFflLJmU2VHnSZWLa2O9jDRsWNn2kWLc1urC4R6MTQDKrfXey1anKVVEy2eq1QnIETzEc9nptpxx6Z5I1l713kXi77nmIyYY/UgGTnK3/liXHvdqCwxkejLe9AyewqhB04dQGJJU577bsPOraN75ZVXsxmk93mPp4tGv5j+8Mf30te+/o36e70PbUfUC8SWdZXngGHQ8QfwnPL3OHfdthFBS1tYvmvQKS16wlNJ8w7atfL36jmguNtuu6dPfepTqVOnzonQwdm5ejBft9q5ZXr22WfSjk2a5HxFFtCqxo3pD7N77LHHUsudmqVBpw6ql7SPOurorObfudUu9ddiwShLmhYpNLp0OTI7rnsHIJz6HsDG+MwhixF1Px8M/VG2heDAP8hBc+K9q3MqQuLvf+DBTCerOxNPmXYjxqsxaJ5i/OpkhgGEqnVaaDFXoejo0JPkZaGPuqLkw8e/Ito57a6HcxTb4MueSt/53m8zSOp73ufTIb3vSZdceWM2ZQetucgUe+65y0ZIGoOeGbSEG7u/c8bt2KlzfQZlGtrqeIi/9TltQ2PjLOiUxqf5Y6yb+7QNDuclXXkOIDHboLN4AR3l7+U5sIcGrYW6sTmlrbQ78XygraynPMcTjKmglR+q/L089+0B6nwsiboqfy/P9ZncRYTmXXbZNefosmlrdT6xOMhXxKl6eQAp9mKzqDNFMfWI+AKWaF6AIn5IItFoObSFfxLwLZCJsEFQpRWpronL+5twn7VEY27IYLsESfo4/JCsFbEvXAmQvvjSK6nVLrtkEynhWHSdzODSCpQASdskWxaBJ2ipe/ceianNXBQpWn889Wz2rRXZRkiqv17SFOcCBDiys8YAMg7ZyClS9OWK9mKDJ7wX8xrTY62+qgWQzD3r/qoAJIBpnQCkWo1u7Nq6AkjB2E888eS8uebZ5wzNWh0I3EcGOJhTevQ4Pm266WZ5h2MhpXEfyZLEasI6MFSallIqxFAxEECCliFo1X3rxIZgCsO+ZaLtGZ7KG0UGLbCijmDOShNe5BRGH3SkdRqPUiuF1kBmOrM1SqbN+609kBNdVhcJ2ieO4rRYaDEui4vFu3y++0hB5fMBocw0Tjw5dezYOWdQxthrHaQNE6r8TV4QexFRp1aP9u0PblBfhw4HL0MT9wjrpGGKumk0gOBXXnklffDBR+nQfvPTXQvszv5RdjiUrDBoMbHG2mBysnEHLVASz6yWQELZBvdVaeJvObXKNhxzzLGNt+GgdvX1YsBnnHlW2mDDDXNIfc5Hc+ek7LNwxBFHZb8+GoMtt9gi7b/fvh8LQDI3aOQOPPDAbE6w3xQGD7yIEFv8yKNp+sxZGdCJ4uFcGvMpSu8RYxrg8rfxXo4/TtuARMwpZi/OoLV8eNCYm8CAemnw+KtU5ynNklD38vnaDsxU50n4+kU7lZOnP546952bxtzxevrzX95P3/7eb9KxgxelbqfOTo8+/kz9O2kHfsD8Xb6TZ8g3Rosc9ZrL7dp1SHhUHlONzCdjrUuXIxqMT+P0gAMPyotKmE5cM+9oCKrz7/DDj8g+YTKfxxg3Ls0HYPz4E5ZcP+GknCZF3h6ajqA1xtEeVIxRv7Vv3yHJsE6iL2lFTB12WJf6a34DxLX5uOOW8gZtIHB17nzoUh5wwkl581LbRR155NEN6tAGWqDqXFVH167H1NOqV9uOXvIO+Dyh7taJt+UF/+JLLs9jgQ9Qnz59M+gnDGkjMyNws7IAiQAArNFEcmwGsvBKJrZWrXbNgoMwfcKx/GHAAZ/YxtbE5V0HcITrA0neh0UjQBKAxPTmN4EKoZwIgCQ3IctI+w4dsqsGICq/mXQEFASEgjPOODPRIAEx+x9wQP4um2yyadYc77ffARk88wG1ho4ZNz6DTia4gw/ulCPlzhl6XrqKUHzjzdnFwzYx/NvMScf9D8zNWkFra7ynsH1BVPi+fm9MgxT0KyprASS+jtOnz/xfgBSMOEomAExUuKTEWxZv0lqnzodk5nLqqXU7Zwd9lFS1pYnqrLPOyYwPUAiGSmrm4IyBl8yQLZh2ptxPinoPkKluIYKh0s6UphpOdtA4jUfUa9IKn5b6Pa5pB/MFVXp5f9YUPfJYAydii5B3IsmUCxI/MTlMymdpq8VLGc9SWvRJvGza2dzC5LIeHEw6HLSff+m72f/okaf/b3r//Q+yZmN9aN+6bMMmG2+S9mrd+mMDSOYHRk8zIeLzoHbt80JKCjyoXbu80JOUjbWYS1ECMiJkYkxh6EBKqUHlhMm8jMEGnXEu7Jt2Jq4paS2o7Wkk4jqBwXPK/fD8xg+G+aQMUqCp8iyanLjfPKIB4z8V15R890ZOeDwd0m9umjXvG3l/v6df+q901MCFqc/Zs+u3I0FL8GDCKs1K+otTsjZHvUyoNJAAyrocI/9b98rzKeP55JN7rjJAYm6zL9q551+QgRlwJFHkQQe1z2bLACs0QMD6cT2OrwcIK1rwy99ZZbhJAEHWCc7aJUiSB8lvfAZff6MuP5DN2mlcgOyLL60zuVqfABsmcCAJbwc+8XcAyRgleEr9QEu9zz775vxDOzRpko499rgsIH3605/O/UQjR6t80sm9cnJi89o6Z9slGq3b75ySbA4uT5IksMBXLYDk2Rsvx8RW9sPyzv8XIH36n7JNd/YDc5ZhwsGMqyWgJE8T5jdjxqxsA6dN4otUpeUrQNUcQCgYGsROA0ST4yANMhlUcxOhN0Bph4LWgDSwq3WGb5F6gvbzn3+yQah4PN/gp50KOqX2l34NaD3DVikkgqC1YHnf0lcJLbBk4fFb0PLh4GBelcLl9+CATwLmYLi+HI899nh6//3309lXPZNOOufR9I3/84v0ox/9OGvK1pc2rqt20BZIl/9xmNiq88SCb1zNmDkrj21+KTSSVTp/SyrI7yDGstL4Ms4AF6ZuhzklYrDc3BTt4MF1CVkBj6BlLqYxKgE/Wpsp0wAHnTQN5k3VvwYts66ouaAlbPCjKv2i0JlTN948OZ1z5SOpU++56cHF30oSSc588OupQ885qUf/G1L/AXX+Ve6tC7W+Z0m9szKQkyJBXeWhXn5P62p8/G+9q8anAFiC7/I0SLYaATbCB4kGybltYvjViFiT2oZ5CpjgFxYLuvElcrrrMcfUX4vfVqbkviL4BggSPAKIlCBJEkm/icqm1TK+pdlwH95v/QJELhp+UfZv/Kd/+ues7dp0s81SJ4E0W22dARJNFyUCXycCsS1AWrRomX2EJHOMQz81BpCkBRh/4y3plol3ZMdxPqx8bgkxtQASLT7QtTY0SHyL7QsZ/s+rrUGqOibF37YaiX9777137pCRI0em7l2PThecf8FqfdxaA2BdmthExDAnOQCUWow7rlG9By31fpnLJhga7Q31OdstWvZkWqFSKgxai8Xs2XOydgmtiQFFx+9RyrlDDUntGs8HrAymoInSgPf8oFNaCKD8oInSwsEpNmiZO9QL3QdNlPqG1B202k4zZSAHjZIjnTBuPlYWNZqzT/rwLV548Yvpb39L6ahTH0pDRz6X/vTn99PDix/JPifxfWuVGJvjuRe+mFXPzJq+Z1xX1rpvfbrG/ELy+zgAEsEBgzNOYjw11hfGGjMzWsyQb0IVcAMH6jHeYuwBFkC/38qxxyEbcC/nKc0nf56SzjmBxbyIOmXIN2ZLp/64R3QnoBW0hBhaKfmYgiZKv82YeX86tN/snEritbd/mMfdRde9kDr2mpNO6l+nyRJxRzPGLK5ec0R6DqaRqCtKQgdznPQjhKRPej4t7/nex3s09s1dj7mj/wFdmbi5LsT15d27PvwmmGTChJuWC5CqW414NwBJVC+LgMCKzTffPPsQMvvNW5L7hxbpssuvyLwVf6+1Hq7MNXwKAAK4Cc1AESGZJmn4RZdmgOQ3gUNMt6wE6qWtpChgemzbtm1up7ba/F0pOz6tEj7PxYApH0CiVQWCRBpL2xLgSAkgbbvttqlJkx1zJBpTnXxFzK4AD9PbsPMuyO1lkRCYYOw3BpDUuTYAkn3YrF8lQCIEVX2Qdt111/Tuu+8G1Fmm/IcARNXy7x0gyWgcTEiJaVFv1pqE0GVJy0mXZFxKkYAFs1fpL+QD2EQRuCkZOl8fzLxMOAi9u8bJsnwWhmQLh1Ji9gxmjNJExzQAZFWdv+UbwlhL6dxksUB55/JZTHkWmHKhAgRJ16XpQVtNQlFGcb/3a9Fi5+wvYbHhDwJUcVD8JI/X33gz/fRnP09f/cbP8vYQ/3975wEeVbW1//u/3ydFQCBA6FV6k6oUCT2hBkJCQiihhN6k915C7yX0HkIJVQhViohd1Gv3otgbqKCoNF3/57eGPZyczCSTGBD4hufZnMmZPafu8u613vWuUTNPK/8odvsODQd19b4Z0OBXMUixCiMpI5wrCoCL54f5mogawDL1XR3nfth3LwES1htrO6ef0Bbsz4G2aw0S4DcMiOT/sv4erhEcIKt7l7aJRWc6cg+3rS0M9LjJsXCafWxps7Rzq4QCq3/cw3YXG9Yj+o81jJ3+zURu7VO4xRhI7SKkDre5Y4HRoWMfqdt2tfQYeVg+++KKBgT0GnNY6oVukLbt+6mLDde71cUGaR2Lm3WBAjgKCGiqUiC0MfomkUX/ZH9yd25IvFgKXblOef+8cyRPkE1g/KLvAJApTLJM6PMWLFaaAPps9jZzv/z9dwAS7YmxM1u2bGpxoV37BwQ4w/fhIRGEEhnZM1FouifAyNThWbNYBwThwho+YrSCJCxJBiBhRSJ6m8WB+R2BHgQqAF4KFSwocIseeSSdAh6CQXC1EW7/VI2aSkcJaNJM353ykapWUxI3+RitAMnTz6TvwupGflT4YpMnT3Vel+EgAajSCiD16dNXuWAGIAF60YryAqQTp9SMyIBkHUz5DLq3T3aY0xlUrXVBzKxqAQDG9M6KkMgAuzkfvg/ROFhsTF2sPCQotU4GHJ9Jg/xLph5brDfWMGPq8bvlK1bp5GHqMrgTGkuKC+u1cj1M9tZr5Z4YqKz1+MxEglVp5crVzmtgRWgX0OP8M2Y40gyY88+eO19XGhBKDUA6dOSoghMAyj9Vvv/hovz555+yfNM5qRmyRZ49el5u3rypkxGkS/vAiyWDyRNQhGsRnziRTGYQYRDjO/SM2DIA4ZZ15Yq1H/uf+PteAiQii6xtin6CS8x+3yi221PDMHEARrBMEqFJ4fkDSO19inZKH8JiQT0WIBzTCoTMdWCh4RrMMVesWqMSF9ZFAHUBU+vXb1JXIHUBI/Qb+pW9nwKGOL85JnX5mygtc97g8KFSN3S9RkwSHPDuRxcltP9+qR+2RhYt25pIG41zcB+AN3NcIv4qVariBEgLFy6Wl19+9R/rS0n14W++/U6tsq4AEsAPlz4TNTxJrHJYjkyfAjhRCHLBWoYlDcKuvd3cD3//HYCEdQSAgTUFrR/I09WqV5dRo8doATjiuiIxsHk2qdm+9PJrmh8NEIQbi3GKZ8+cB0hi0cd306bPVOVpc34I6ER0o2kESMH1RqLbFi1bSeUqVVVEEnCHexA3YWDrIAVIrVq3UQI8kemM/3ZQRBoiBJbz5Sugx+YZYHEqXbqsFC9RUo/Hb3Cf4XYkKKpBw4Yawcb93w2ARFAWXEgDkEisDPf4oQJIZcuUkZo1npI+vfs4O1NoWLhO1PjW3XGQIF5aZfDNoMakb++EyAHYB2hWmQAOe11WwOZYZsug7crszLlMHbMF9duPqakKBg9NVJfJw16XFbRJ82GOyZbINHtdlwBp0BDVv7DXtWsrccxZs+bohGbqstJnlYHJGICElcUdQCJB7NrVq2XKlCmJyvnzn6RoAnjpxZcSHYPjxsXFyVdffyMXL/2oZtFx885oKPb3P1yVq7/9rkAUk7O5frY8ayxm6M7siNsli5Ysv21BGquAkmeGps2gIcNl7PhJcvjIUYmJ2aaDDhOA9Vj3y2cAEmbx6dOjdFDLkSOH6uTYFwImzB9tlPx586QqzN/eT7DsuOonWErtoANrKwCJ67IWLKjWtsxneHk8X2s9h0X1jjCo+Q0h8dZ6fCY1ivnebAFsLHqsdTkHYf+mjtli2aKt2Ouijm/qQDYPbDdJarfdLCOm4eL9S06d/VxzAAb32Ch9+ibu00SaWu+LPpY3b14hoopzJQWQvvzqa9kaGyur16xJUHbt3i0XLnyWoj719n/eSXAMc8xTJ0+5PY47gMRYAAGdyZhsCVg1uB+29CcKUbL8jcUWazch18NHjtaF5f3Sj8x1GIBEFFrD+vUle7ZsiXSQ3LnYcCGlT59BpTaI+EIEEakOAhgoJIyFBA5AghOUGnDEb5j0ea6AIKxzRK4ZkIS7zRC1Wdz5BzRxnr9KlaoqoAp4Q+OIuYvj4B4EaLEwYH4hIpF2ScQwYIvAJsAU8wwkbQOQIHhD7oaITiQy7jSkFOBdAaSQ1WEcIGk8UY3wmMxvOT5g+24BpN5YkLp0cwIk+hr8sIcKIJUvW1Zq16op7cPby6bNCPVt0YcPEsUag9WGgcxVgR90ZzAjHB7J/N0u69rJm1iFIJu6Oi7fmeMyYRAVBkCy1+Xld+t2h5TKChbBM3s9/mYVbV3x0tFcHZN99lBnOoerY0LQtroTuGaeiau627bHJXAHoIMCt8Nal78BSBAUk7IgvfbqaxLYsqU0bgyRsUGi0jowUNasXu12ILauYuPidknLFi0SHYPjBgQE6HkuXbokX3x1RToPjZeGHbZrqP8vv/wqzx6MT+BiwwLEYMCEevbFl9TEy/tj4sYSgnUEKwcierhGeB907jVr1ymfBDIkKrZM8mYwvR+2AKSyZcrK3LnzVHcoOYAUFTVD8ufLK0Gtgpx9ioEtPLy9kjCt79z+2R7ZRVvEAmqvh0XV6oqm7QGEXLVp2hXRZKZPscUCaj8mf+Ousdbj/eCOc1V3hC2tCFForuphGbK6vTgm7jxXdQFYVstYp4iu0rLTUqkTtlU27HhHrl+/Jatj3ta/AzvOkvDwOylz6P/2Y+JmYLUOkE8KIJ08eUo6tG8v/o39E/WFpk2aSETHjvKphyCpV69e0jakbaLj0Kdat2olUVFRLvumK4DE/fCeAT68W8ZGstjTfxh7cPFTuHf6Gf0NzTDGD6xoTL64sO+HfmSuwQqQGjdsmCKAhOQI1hGED4ODQzVZLZwfIsgouC8RJUY1nbkgtQCJ37FYByDBqwOAWkESVjq+Y0GOLIA5Py4/FjRZsmRRqw0WzLHjJzrBFu8SPi0uNWQisAQxF+TPn19dps8MHqrtlfkXTTwkKpAx8fdvooBILVJhDg+ItoOILso5IhqcuZDjVqv2pEb3EeHHeIvF/m5YkJBIoR0aC5I7kvZDwUEK8A9QcauWga2lTNlykjtPHpUsR4fFKgZm/UyoLWGX+PkpNEzr99bPrGiCg9s669JQrN9bP2NtaXO7LoO1O1E33HmIqJnz09BAsNZjmc9GOsDUZeIx39m3fGfqtQkO0YneXsf8zcBv6kK8c3d+rhU3o6lL4+L5meOwJRQa4qErF9sLL5yVzZu3aFm8aJHLwdeApUaNGsmwoUOd9ePjD2nEGcDo88+/kPiD8c7vJkyYIA0bNkzyeFcuX5YXXvtK/CN2yPL159Td9tPPP8v+AwkBEgRbVlsAXyvIJfIEvzwTPWRdBxF4oWCi5f0ysMMRA/CyOoOcbgZTLJjde/RUUjARE2lZELFjciHQwJzP1TZ1LraCUrRIUc0bhQkckjerxVy+vgneufX985mBGKuRlvAOKgNhr2P+ZjUK2KAuz5EIUPOdfYsekDkuZnF727PW51imLmRs63fWz8gCmHpssXhav7d+RozQ1MVNklSfpk+ZukwmY8dFSYcBsdKqx245++pXakmas/IV8QvdIoFhY5x1XY0pcFFIbYTAqBUgAUZePPui7NmzR8vCBQuT7AMsRrZt2+as/9ZbbztBDtGc5jhsmzdvnuSxIiMjnfUPHDgoH330sR7LDpCw6JGomuTXACX4LrwbFhYEk0AHoE9RcGOSIsYsApkwd+/ZqwmfcbdZFx2AUMapCRMmaTugLaRFIfKW9stYzzW56kvsMwApqSg2LEh169ZNFMUGyZnwfkjLjf2bqGU3IqKz6gM1adJUt4guQlsgy8DfAUgs+BQg3bYiWUESlAnzHe5h7omC9Z8MExkzZlRrD9dC6g4EIQnTR6uKeRCgg14WhOuaNWsrKCKfH3MYLjJcdOwHGAF6ho0YpWMjfYOAISyK9PfRYycoAIN3i1ULoIz1HssaliSeE14RK0CCLP53SdoISaJ/BQAz8goPHUAqXbq0PFWtmjT1b6wuNrKJEw6LHgNJMmHY8zKZwNwVdBnQGqFg5nNXj/2mHlsGdlMXEqVKwt8+D9+ZukwqiA8iSgb5DNTNPgqiXLwkQiWpjzCYOaarLfdijmsmZlf1kFmnHteF2ZZBx1U99nHd5pg8C3f1eK6ASVOXa+WeiGRAkM0ci/BpVwBp6ZKl0qRJEy1YdgwYcrdlQDf1hw0bJhc++1wH4Q8+/EiGDB7s/M7fP/GK2XrM5s2aKd/o0KlPNT/W+U9/0nB/eElWgMRgDnkRkjFg0DzfpcuWq+K7faDC/M2ExQqLuoDHI0eO6YoXF9yh23nZGMh5RqyWGFAQd0yrEtS6jSrcwilwN5izP3UAqZAUK1JUBfJY8bZp01YHL8zl7toI+7EA0E5MsfYL++/4ztSjbVv7FM/K+jftjboAdAQDa9V+WhdAKPwSkkx/wmxPoZ9RqG/eo/3c5m/n+UNCE5zPfG+2XAt1eZa8T7Pf1dZ6X+b+23fsI43arZJWPffIH9duyY8//yGDp52Q2iEbJLTDMI0K4tmxSEFkFZ0djs35WIHbARKgZvasWdKiRQstTZs2TbZPtWje3Fk/NibGCZA+/fSCcz/HS27BQd805+3QvoOcPHHSJUBiIcFk+Pbb/3HqWDEWsd9VTrFXX3tDrUxMWrw3tICwFGJFslIE+H7FitWqQceEmlYFixbuI84XFTXTbZ/yBCDRLhG7tIb5z5g1R3x9fdXaQpoRda3Vq6+K2satZLakF+FaXnzp1VSDJECAAUFsWfxZQRIuTfaziCDyGMVw2trMWbPVggRnyFwPW7wDuMBI9cGYgPaRj08OBUcFChZUKxPh/ghf4k5j/mGBMGvOfNU5AuhyLs6Lu5Vxku/mzl+k3wOwsMKTeHzUmPHKgeK8gCMrQEoq1Yh9nHb1N4CIMZ5EwVaC+kMHkPCXGoCEuidIl6zI2X18VM0VRVdPCuKQ1AMt0zE9KQZBg6hBygzMoGUAj/X3HBffKoM652Hg5m8KwAnEDnPf+pu0+gyA4ZpScjwmJszA/AbVUlSd8ZUzgdkLrjQ0dlhZAEbxQ0Pyo2PYOUiLklnhWkGN/fOgQYOcHIoPPsgzNswAACAASURBVPhQJSTsddz9PTMqSq5dvyVTF55VBW0mJxLWfvf99wkAEp0DEiMhqrjTuH9Ie8b8SoeikCUas+zKVaudA5eJZMQNBHcDvz0DO+CEtCnp0qVXK0HmDOnk0XT/m2Ylf57cuspj1Zb2AKmgPFHBoaCcJw/kynwakutJfyIChvZNxAntHpDgSRukfQEI6FMoLCOUR1vy86ub4Peswun7tDkSXZs+RttjYqLNUjw5Z0rrcI2085T8DkBF/aDQZ+Tp4LXSomuc/PrbDfn4/I/Sutce8QtZLWHhDmsk946LAVVnQCHnQoyPicNqQYJvNG3KlGRBkbt+sWnDBidA+uSTT1N9nDZBQXL82HGXAAmra/TK1ZodgPsHHBHIwqQFQBo8ZKgGNrA4wRqKe4nvAFDG9b9o0WINgIArY9o4x2GMqvP005Ip/SNp1p/om+XKlNUFHnnYzPnsW08BkjXVCO8Ol26ePHnVfQTAgOeDtdpeAIO0bVxsWLWMhcPVZJ/cvpm3FbVJTmsHSQBB9uH+NNcAKGXhiBUI/hARbLi6HnnkEY1gg5idL19+IeKMFCm40eBUkSoFjhOpRpgvUGVHOBnKAsAHLifud0AaHg4DjPhu8dJoWRa9SlasWiuLliyTPn1IzjtewRQ8Lyx1VoBkTzWSP18+Ifqua7dIJV2zdVcwnDDfsuAnio33Yp7hQweQ0G8wAMnPz0/dVUSRmEK+m/YdOmox+9jiHjL72TLAsoVVjwS8J4WMw/zOqkDLigDTqvX3rCJYDQa1CVYyXPv2HXQCttZp2zbU4ZO3nJsVBJYgx6rmzjWxz7G6uLNPs6SHtE1wXo5PYyC3jPVcfGaVmui47RznCg4O0ZUP9bg/zK0g7ZGjRidZcCNxHfiw0dJg0KMjGJL2PwWQnj99WkOs2/TeK2NmntZktb/+elUHdKsFiYGCFQ2cNTP5vfjSK9p5SCDJc8fVxsBOWC7Pw5AoGdBZ/fM7gCGDOZmpGVinTY/S/GZ8fzcAEgB44KChbgdzriE1FqSihQpK+XLl1e3kqu/gjp48Zar2NczjaIqYPkXiU85J/jVEQ8kvZ2+Drv4GCEH+tPYpTO20Q2t9FkG42UifwfFJA2H9nrZN28eql2B/127qGrDvoy/br5Hfhoa1S/T71kFtEu2jj7nqZ+b3jFOcM7BVkDxZr7vUCN4sE+adkZ8v/yFnXv5SAiJ2SHCP9TJ52rwELj6CBehTENIRlX2QANLxE6c0nUT8ocPKKaJvYL0glxcTEu4fLM1oWkHKBthideU7+pVRLifKC04MYwlcHdoz7lY4WXWerpPmfQqARELXtAZI8HzI1ADYwApDDkImcTM527cAFtoU4wxjqf17T//m+TK2IaEwdfrMBCDJCpDM8XCD8rwBcICkkiVL6fgFEII0Tf44SqFChfU7wDtpSPAssFArXaasAnwsvXCeEICk7QKQUMsGsGFVZLtk2QoFRitXr9NI4XUbNmuaEbiIuFhHjh4nZcqUUysWfYhUIyy67ACpcOHCKo3DwhZDCRHfSRVcufQtUr6Y+2abaoBExlq7BhJ/3086SIhagVwJ28Z/C/cDfg/JaPGHwgsxhZxfgCcKFhwGIT4PGzZCM8uj3ZJcQX0UHoIRj2PLRMF+d7/lO3gGo8eMTVAH3QtUPa2/o2PAZbLu4zP7+M66nxBNVmPWfXwePmKk+noZZJi8zPeu6iJOZr43WzJbYxEjrxHqqp4WxAIZyP5pgISL7v333pOfr1wTv7BY2XHgQxXtI6oNPpMBSFwvmkZcM+2HwZxcQabzAG5atW6tvAcAL6KR5KBiJcnqjsHe5L9zBAas1tUSx3tQAVKxwgU1hxtWTsAIPAD6DxEoDIoACLNvxkyHfgiaXPQjLJcsQvgMB9C0p+S2tG3Iz9Y+xUBm7y/24xCNat3n6GcjleNg3c9ne1320U7t54Af4eraSVnDb7CawkHjM3wKCp+txdXvn6hUVZ6o2U3qt98mW3a9Jzdu/CnxJz6RumFbpWO/jc6VvFnRmy3g4EECSEzqWGRRdGayow+RnYA+xSIDoEnOs5C2bZWjh7UJOgDAijokwKYfYq0lUhQLGjIAVoDk9wABpJOnnldr6r/+9f/UxQbIIKDIjDH2LeMKbZ+xG96iWYzZ6yX3NxY7ABJl+ozZCUAS1hwDniBCcyzOhaeDsHyuEdc1W7XKNm2ui3xy37EIIjINXSSCCIgcx/tQuHAR/Q3cOSI6Z89doNpWWIooACb4Z7jZsBghobJ+4xbZtCVWYmJ3yLYdu1QUmXEU9xzndRC+C+jvXAEkeK+Q2lnQ0l9GjRqtC7sFCxbJq6+5Tlbr6rklAEiBLWXy5MkKzpIlaf/yyy9y5cqVRCDpfgJIBQoU0MgAWPVwerzlzjNgFY5yKWAxJQWzaf0GDVRVlYEppeWfBkjPDBggP/zwg2zf84HUComREy99oeH+333/QwKAhDsM4PrJJ584gc7qteudgxdcECKTSFqJVQSuBK4W+El0NLQ/mJQZ0FnZQuRm8HmQAVKRQgUka9asupJkIPT2pzv9iWdRsFAhdStY+xP70VExhbQM1u/5TARhxoyPSlDXVSpa+s4HFxUkLV7/hkpQjJvhPmLrQQJILDqwUKDrBMjBLQa5mv4CQMJFBkm7eYuW0rNnL+0zPL+Tpxyr+ldefU37E8CKCD2sDmjMPSgASVONNLyTaoTnQWJdox+EBQa9K1cTtdnHcxo5cowuzOrVr6/PzXyX3BaAhehvUFAbJ0ACsFhBkuEgAZIA4ByTsQxPCJYuXOVYbtAqIhyf8Y3gA0jXBCo0bxGo9XCBAWRQ3+a+oJEA7DjfHVfaUnWlIQTKNQCeAUgGGG3fuVt27tore/YR7R0vBw4elv4DBmneNnSXsGh16dJVLUicz0rSxsNBmiIsxwA2B2WmhroCAXNHjjruLblnZgASsg0tmjXzHCBhLXIFku4ngAQXpnSZMjqBYSHxljvPAAVtyMIG4JB2Y2fcLlm8eLFMnz5dpk2briHgWN2whph6hK/fDYCEZhVE0HZhYdIqMFB69+wlkK179OgpgYGBEtm1q4QEBztlANxxkPgNJNHIbt0ksEUL6dixo7Rv3166dO4sYaGhEh0drYTsiMEHpNPgA3Lh88ty7do1BUdWC5IDII2Wjz/+rxMgYS0xHQprCB0eixHuzddeP6fmccQ0qXPmhRedIevwj4iAQTPkQQdIcA0Y9HCnefvTnf7Es4Cft3rNWn3HWDiio1dIRMcOUrVyJSlZrKgUL1pYGtavJ2NGjZa4uN3OPlWrtiPiZ+jIGdKm53bx77RdPvjvJfnxp99l6LST4hcWI4tWxGtaEdMPzTYpgNS+XTvp0aOHBAUFad/p1LGjRHaLlLYhIdIurJ32DWQADCfJHQeJAAr6Zo/uPSSodWsJDWkrEMB79+4tLZs3ly6dIqR1q9YS3KaNHssdBwlAwASMmCryKVaAxAKDMYn0Gn379VehQiQAcJWixk2feunlV5wA6cTJkwqQyD7PszAutvvZggTVonbt2k6StgmdxzJTrfqT6kJMDiDxHAAueBiI2OvRq7cqlWONMtxIM0aZLaCK8WfS5ClKco+agVvNQcaeFjVLOUFWkGSsSwh0cgyI3bwvUovg7kaOAPcnVkA4lnhlevXuJ336DtCFANwk7gkXHNYjXHK414lI4zy40rAazb/tZsOKBFkb2ZwZs+YKwChu9z4FRggko09o0s7Ebt+pbQBSNm41gqjg82XMkCEBQOKcWJ+xdpHp4PTzZ3URS+QkpHEiuY1r1zwnV9u/BZBcgaT7ASBVLF9e/J5+Wl8mhE74IOiWeMudZ4BysBUgTZw0SWrXeEoK5s8rRQsVkHy5c0m+3L5SvmwZ6d4tUnbtcgzodwsgIenOINy3V28Jb9dOoqZNkyZNmyqnBdA0bsxY6da1q+oYMaC7A0gM3M8MHCjjx46T0JAQGTxkiAwYMFBGjRghfXv3kZ07d8rNm7ekfvg2GTX7tPz2+w35zqLobVxsuA7xlzPwEHrOSomwVNOJcGHifiXCDY7V2RdfUVKpAVHHjj3nTDnDqpkUEpiW7yeApKHDy5dLbl9ftWIwcDLhmsmXrRGKXLBwoQpFEsKLqjU6NN7+dKc/8TzCwtopQMKVhCRFkYIF5PGixXQs8qtdS7JkySR5fXOJbw4fqVXjKdka41ATNwAJvtuajUekfvutEjHkoJy/8LNc+OKyhPbbLy26bZONsYnTsyQFkPr37SeTJ0+Rjp06SbcuXWTI4CHaL1hs9OnTRwYPHixYVJMDSM2aN9e+OXnSZOnUoaP0iIzURcuMGTMVeI0cNlz1lliEcCx3AIkVPUKPjD1EmWEJYkHxn3cckzCcLwAC3LWxY8dr+8Ltduo2QEKjjX6IteLosePqYiO1kRUg/dMcJAjEAY0bS/bsyQtFcq9YXFhwoFCNorUnAIkxCK4MIIcQ+SHI1syYpe5jrHOATcDSjp1xSvFgrMI116dvP3URY7VD5R8gRGoXCNkQp+0gCWsTVid4YryTTJkyqdUIaw2giAUi1nEWgEiZ4PL09c2jFiQi2QBKkLo1oCckVHmYJlLN6maDkA1gAqwRfRu7PU6ePXhY4g8fu704P633e+bsS7rwRL4BCxLPGosWICh9unQJABJ8LiVxz1ugrkjun8XsmRdeUsskvyHRuhnPXW1Z5NJO6depsiAZDpLVkpQUQOp/D5LVEslSpnRpqfHkkxqmSLg5udCsg773s0MJ2ACknt0jxSfrY4ILBdLgnFmzFCwVLpBf8ubOJdkfyyJNGjeWAwfiVQDRnQXp2PGTmuaBaAA4X66es1VJ20rSvhcAafTIkfLeu+/K2Ze/0vQiM6NfVv2Z9957P5EFiWuHT8YAQj4wNSWHd9DBh86E/59nBVeNFRYrJawqZhVH/j4mAH7HhEkEBnn+OK6Vg5Qh3f/KI//z7zQruXPl0ihFT0jaKGnjUycKJTmhyDFjx0me3L6qgAuHxA6kXL3r/2v7aAtYkJYuWSJZs2SWwoUKqQpy40aNpFLF8lKhTGmpUqmilChWRB7LlFGKFysqBw7GixUgkXw2es0hdf9OXviCBhN88fUvUj88VoK6b5ejxxMC2AcJINEecKNgXUP4kb5B5gDDdcEy4le3rmqHkQamStWqynGkvzFRjx49Vn/Tt29/5b6hvG3yszktSHX8JEO6R9KsP6X/3/9RQVVPSdqAggb16umEyoKMFCGmH1gtSBWfeEKerlNXSMcRHBIi5cpXUDeWpwCJZ8JYw9gCrw/3HQs1gAwTOgCI4BoWdVi4iZ7D2obVhN8BLA3XCCFVK0iCvM13pFLi+KQTgftDKpROEV000s7oFkEjIABl3ITJ+m4J+8fShIWHz7jB4OYRfWnyVEYRyj97nsydv1BJ2gAkrElYjwjlHzRoqCajRotpIVamxUtV141xODp6pUYBA4DgIRUtWkxdbIT+W11sgCee6bMHDioHCZ4kWlOMdQhgEhEKp8kVMDL70MCDh+ubO/ffA0hWS5I7gIQuUXj79vLa628keVHm4pLbPvfcSWka0EQ7E1FCrD5oiKh9VqxQXurUriUtW7VSPR4vQErMFSJVAgBp5syZkiN7NilWpIhUeuIJad6kiZQvW1oqlCsjDevXlcoVy0vdOrUlj28u6d+vn04A7gASituYVQn1JAScnFhmcDBbdxwkUl5gQcK1hsWIcGUI1Vi2wkLD1C3RtUsXjyxIA/sPkLGjx6gr4ZlBg6Rf//4yYthwmTZ1qrrTJi88K/XCY+X46Qvy9ptvyhvnzrkESCiVw0OKjz/sDDEmVx7uNNonYI+oLcBSYKvWQgJg9r/40svOrO5ofLz++jlNoxC7bWcigNS4kb9qX6F/lRYFUqR/QFOPotjKlS0nhEx7YkGaM2euFMib1wuQkuDdAZCWR6+QnNmzSaECBeTp2rWldu2a0rtXT/GrXVtCglpJn759JCQIN1WIZM+aRa2luObgoWBBMv1kbNR+qRMWI1v3va9RlkefvyANO26X7kN3ycFDd1TZHzSARJTSpk1bNK2NWoM6RuiK/j/vvKdWAlwmWOMoRPpiwQUcQbQlRJzfaKLupdE6MZvnZQAS/BpCths1Dkib0rCxalB5CpCwZDRuUF+yZX1M9YDcASSiv+DFcI8spODFMHdttrjxk5sDrd+/8tobGm1LFBwWHbTJCD4gKIDFmrUun3fv3a+LP8AQukzoDhmQZCLbsCqhu4QLCx0irhfLEQFOvfv21/EPKzvHAPSwMAaoABIzZcqsAsFIGOBeI6INaxd1Uerm2HPmOtxsRLKxH2sUQR1YxgBP7grXC98TqxuRcQQM2QESVi6eAW5ajse1My9BnQAg0U6wRNmfi/XvuXPna7QsEYbZsmZNGQdJma22/wBHxqrEtlw5RzjeuHHjVLjxqadqqB+UF0bH/jsFnypK2SgV2wFSvrx55fGiRaVFoBcgmQHEvgUgEZXj36ih4JJ8snp1gbOAK6pMqZJS88nq0rNHd3nmmYES1LqVlCtTWnJke0xzrbkDSHQWzJq4mUD4hPnbz2u1IO3bu09QvaasXrVaJk6YKAvmzZeZM2bIqhUrBZP+iugVMiNqhixfukzmzJ4jkyZNctRfvUa++PIrBTZotqxauUr3YxFZtHChRC9bLlHTo2TxosWCojCilNtiY+XGjVvSe+xRCei8Uy799LucPHFC3n//A5cAiUEamXzy26E9wuBM2OiiRUtckiMZyOFZ4Hozg//Bg4ckKmqWDkYkvOV5WC1IhGuTIiatCiKVAQHNPAJIpUuVluDgYMmSJXOyFiQG+myPOXIoeS1IiRccvFcAEjwf35w5pH+//uLfuJGsWbVK6vjVkdZtgqVokULSs2cPGTJ4kDRq1FCqVKksNapXk9KlSiUCSAfiT0jvUbvFL2yr7D38sfz++02J3vymWpZGTdsnh484LElWgEQuw+3btjn71JJFi2XNmrXab+bNnSfLli6T1StXyfx582TRokX699LFS5z1jXaRUac3fZMchvTNtavX6LHoo9OmTpP16zfIjKgoWbE8WmbPmi3z5s7VY7Hoev31N7RP2ZW0SU/EOHHmhbPOVC1ohsXGbpdzbyXOMwZwIsCBSZ8+BemWsX/y1OnqjjLjiwFIBE/AW6QfpEVhUodg7ClAgshcqmQJ5cTgZkoKIBE+v2bNOr0PoriY1BlfXjj7cpITt3USt39evHipusSIphw7doK8cS7xM+U3J04+r1YcLEVYc7DgGJCEq439WHwIIiASG0CEe50FHymGyA0Hb4rP1GkdFKwgBEXrDBkyansmoAM3PgAJIjcLN7UiIQg5a64DkM2ep+455iIsXBCxjx474VEhbUr79p1uRwImtCABzJo1a67XjsUMLtO48RP0uWKdxCqGy9b+/Kx/A85nz5mrFrqKFSsmAEiPP/64nDx5MgHesWKff9mwkfNPBPdMxQQAqXEjiYiIUNMW5OmgNm3UfIUJC7MgaQvQBeFvCoJwRJ+RPM7sM1smE7L6svJyBZDKly0ntWvU8LrYkljtApCwuhUpVFCmTp0m4WFhMnLEcKlf109y5fCR2jVryBMVyqslp2uXzhLg7y9ZM2eS4KAgtyRtTKGYYYnmyZkrl3JVzABmtlYL0pdffqW5oMgHldJCehEGcgqDMH8nd4zLP1+W/57/SYJ775Xg3nvk1q0/5YeLF+Wbb751HgsOEisZc72sqjAjA8IBMwb44E5DH4ns4nArGOBJQ2EEIlFZXrlylXZ6/PPWJMIAJCwGDBrtGfTR5kmj0rVLNzW3Dxh45x7MvVi3DFoMXijkAmaTc7HRRvLlzeO1ICXRpwBIOXyyS9bMmaVc2TJqnStapLD4ZMsqbYKCpXjRIlIgX17l/jRq0EBJprlyZJcsmTMnAki8q937npNWPbZLQOcd8vwrX8rVq9dl0MTnpF74VpkfHa9t1AqQ6AssGpLrB+6+R4nb2qfc1UtuPwr3gDXTN+N27dZxmnvCZUOfwmLw/PMvqIXCLDwg6W7Zuk05R0SubVcwNV6JxdShT+3atUeWLluh1jZrqhHEDHEDkRuwY/sOadafIjpFSMMGjRzWDw+EInHtkKwWi0NKABKABEI6XBmiwSBUv37urSQncOtkbj7jhiKo5tSpMzJ//iK3v8fiRCJtzgtpGqI0lhxAEn/zfvhuwoTJsmTJctXyg49DeH8u39yqD8iczVzOFqFWxrR///t/dAtQxM2GXhljDRIgIW3DJCKiq0yZNkOtSFhMSSGCi47k73h6WER6Whh70cZCQNNuQUIslvG4TNmyqsFHe8Lyv3btegVyWO1effV1t8/HPE+zHTjwmbQBSFiRfv31VwVJdoBE6CYCiGimjBvnQHNcAKQygFDx4sWVBAYxr1ChQjJi5Cg1r5qLNNvjJ06rDgsI0RVAMkKRLVu19rrY3AzoACRE63xz+gjy8Q3q1ZUxo0dLrlw5JHfOnPJ0rZqSwyerFCtcSDZs2CAlS5RQ10HFsmXcAiQGa3KA0cEJ17VOyOYzgpEQoD//4st7Xv7880959vh51ZtZvfltuXHjpnwLuLJci1qNLADJwR8apwMXHQyzNdE3DNjuCqtAoh8YzCEuouPDszHPACVtBNfad4jQDN101rQq7cI7qOI0K19zPldbBUhlysp0ktDmz58sQNq3b59y1DBbey1I7i1I8F8ezZBeMqRLJ8uWLRcfn2yS0ye7dOoUIdWqVJbMGTPIgP79pXrVqprbir/TadRPQhebeWc74o4rIOo2Il4J2zdv/inh/fdLw/ZbJWbHHR2kM2fOJmjH1jb9T36+8NkXGiTDOG3uad+zB5WTh+Viz559apUA/LjrT3yHhYgo29jtO1SdeaclCpDjQtyG58KWSRjNnbQoWCjCwzuqpIcnQpEZCG/3b6ScFTtAIvLLKGnjYrNakABGpPVgjsPiMWvWXBk7brxyhpgfPS3QGhhrIBhDEXD3O3iTCxYtURCEewzRRgOSIEwrQJqKdWmuSilgMTp8+IhGRSKeTF7RChWfUHcaYAiA4nCvpVNXIWAJIjXgiUAp0ioR9cY7gvQNIRuVbRaPJmKNcH7K7r3Pyk7yW+6IU8I21ISt23YK2x1xe/R7Uw8QhEK3XSiSceqNc2/JmHHjFcyRggy+EpYlxGQJ3CLABv7W+AkTZeOmGI2WdKctNWLEiLQDSFiQrl69mtDF1riRalsAkEB8VoBEo8Csxgr9qRo11efJRGpUiw0wMlsvQHI9QJsByJOtAUiQsEkbwaqHSDFWuGVLlZKmAQFSpHAhJZauWrlSajz1pOTJlVPKly3lFiB5cl4GAjJJL0ZO/h4WQmoBSOt3vqNaM19+/YvgmkOMznodELMxd1vvBRM/qxyI1nAhiLzRyI7IHgqWGMAZmBnwZs2aoyrAiLGRHXvuvAUJZBI4LtpJhJnS1h3JKB1pMFR47XZKjNR+Rm8Hwua4CQ6RS+t9WD8DkEqWKKnpP3j/yVmQvAAp+T6HBalwwfySKWMGebxYMZk1c6YSdvPnz6eq+aVKPC5ly5bWCLdWLZpLaNtQyZ/HVydTOwfJ+q6WrDokDTtslXFzz8j1G3/K+/+9JGH990tQj+2yPe6YRudAaGXAvx8LbgomJOs9kToDXbCFi5aqpQjLB1FcWBoMUEIracCAZ3Sih7wMaZZJdfOW2ATH4rgkDibZKilsmIjhzqRVoX/DRcRCbr0H62eTakTdSqVLKzggL5nVxZYUQELbCOoCQpmAGyZqhA7JMcexPS19+/ZTGQCVGRk+MsnfYcnDSkRkGQAJfhggCXcbwSl8xwIPzpACpCNHpVev3ppJgWfN7+ACoVDPOEbQBy42gCGgiTEFMAW/ipQ/AFes5uS3BICR/Hvx0uUa1k9oPwUghJjjxImTZPSo0TJ8+AhdlA5GCfuZQTJ69BhZu36j8zdYwRAudgWQDF7A0kj7mjdvgepuMb7jgkQAE48GAQO0O6KV6UeucIcdIGHMOZkaF5uVh+TOgsRkYgVIrNq50NWr12roHeF30StWqmmVCcncqNkmB5BYnfk3bCheC5L7QR2AhEuzaOFCUrBgAdUzGTd2rLrWAEKQ3AsXLijLli6Vjh3aS+eITroSDm8X9rcAEtajmJht97y8/MqrcuWXazJqxilp0H6bsBK/cOEzdY3Zrwdin3Xw4zMh7axWiJxhVUVOJPadPHlaXQXHjj+nXInl0auEjPDUQ8QOC5T9WAfjDwt+cLhad6u4ugfrdQCQSpUsqSk8yI6dHEDasmWLhq17LUju+xQAaeiQIZLl0YxStWoVqVqlsmxcv145fMhPPF6sqIwfN04iu3SR4o8XlUYN6iuAqqQqxa4tSLwzokMnzt4vdcNiZMrCs3Lr1l9y9NSnStqOGBQnO3YeUF4O3Jz7sezavddlP9i774CGd4+fOFknaAi0CPjtx219+KgcP35Ctm3bobpJE0gWO2O2LlCs7dh8pr3frb5kjoub3ZzPvjUAKVfOnFK9ahWdsJOzIJHeiYmbOY70OER7oUaNUj2WHybqqtWqyYkTp5TATmh/cgVrNYAAgMR4lVT9+MNHFQQBVgBI5D4zIAmOEABp4MDBugiEzkLi7b59++o4FxnZXa+PazQFRXmi1jJmzKgRZpDOsSCRaJmCYQRA1alTF+UiwStDMXvL1u1aEIgcO3acDB7scLtZRSu5lokTp8iIESM1maz5DRFwJHu3AySELe06R2fPvqTJrOFUkeePRTNCk+R4nDl7rvJnAX5z5s5L5Lmyu9gASKdOnXLSiQytyGzdcpA8AUhEGBiA9MYbbyr6RPcCgpm1MBERSo3J0IAjtskBpLx58kiRwoXTjKRNg7P6u+2d40H8G4BEQ2ni7y+lS5XQxhHWNkQ2bdwopUuWkCerV5X58+dr5BrhyES6ZcqQYk1KNwAAGThJREFUXohmckfSvp+fw8+XL8tnX12RFpG7ZNK8F9Sa9OFHH7sd8NzdC8Q+LElwfPCfU6yf0QYhygaytrtjpHQ/7d/qokvp713VtwIkrBfJAaTGcNDSkKT9MPYpABLh1WgdVa9SRQb07SMF8uaRPn16SYumAdK9c4S0CW4jpUs8LhXKl9X+1D0yMkGYv6t3xb6jx05Jz5G7VVl7dczbKk8RvfGcylUMnrRXjh6748J1d4z7dT+uk0lMxrf7k30LqRvRwrTsA2ndp6wA6YmKFVSjJzmAxMTOfMdETjJiIrKwwJAMtm69+srZKVqsmIINQto9Lf4BTVQ+gEjipH6DwjTAgwL/CBVrA5JQt1ZQMmmqWsHhXAJeW7cOUusQFiIKx+ea+ey4dkQi4SL9WzlIlSqhvP20s/jVra8gCbI37xWAZArj5vDhI53XxPkhdWM1NClQ2CJLYH7DdbsCSPAq8Q4Y3IDbEqsRlkssk6iD8x1WJCKQ8WAhS0AkMQacI8eec/4WVx20IKuSNiTt559/XtylXPtbAKlFy1ZOgMSD58EQ8UToHYlQTSF6AL7GkiXLEiC65ABS8ccflxLFi6cJSRvrFklJ4YiA9u/XQSal1wVAIsyfSC+E61q3bCE1qleV6lUqSYO6dTTqsGG9uoJbgAzxuXP6SO9evZLUQUrpNdyr+qdPn5E/rl2T9z66pFFBJ176XG7evKkrn9Rew4643WpFQnQN0qjJQZaWwIhrw9IEmZ60Jqiap/Z67b8DIJUuWUoXJ6y+cubIqaHX9knICEXitsuZI0eakLR5ZvC0SFUA0d1+bQ/q3wAkdJA2btyk3D1fn+wqulqmVAkpXaK4dOvcWcqULC6F8ueTLJkyqqr20aPHPQJIPJP9B05I2z47pGWPXfLCq1+qJWnC3DNSt91Wmb304AP/HJ89cEgjutau2yBr1m3Qz8lZQlPTVuhTBGIQAp9W/dUKkJCZIdQd3Z0ELrZGjXUCJkydNFho80yeOk2tPXA2EXKEE0P4+b0quMkAIhCzV6/d4ARJWJTYT2HRB8DATYrLD+6RAR5Y0dt36KB/46YiSAeAhBWJAjjy86vnBEhYkuAvAUKwEJGUlgI4IxwfKxHnxGKIFR51deQDODaZCPgOkUnq8zuI3nCRMz36aAIdpKJFiui1ose3eUuMumfR0cIdiBfDXP/ESZNVN47nj8WL/KQ8e8YmfocwMtam5s2aJQJIuNjgW7sCSX8LIBkXG35W0C7qlqj4YsJ8/sxZZ2nWrIWG502dNl0JV9QnBBKSH35hJPAZYON279UHSGfhJmvWqClVKlVKExcbZkpIx3BJ8G2npkPej78xAImIB9wCOX2yCRE1RQsX1EG8WYC/gqTcvjkVHLVp3Ur27X/2gQRIKPXeunVL1sa8LfXaxcq7H12Ua9evq8bK/fhurNdEVA4JhpFHINrTmvbFWi+lnwFIJYqXkCefekpy++aSXDlzJQmQMP+jDJ0WLjbIqCRiBijBTbCDspTey/1S3wAkrGNIS1StVEmlMRBhZRHSvGlTDXTAqtSpQwfZs2evjidWocjk7gXSduse26Xj4APy9Xe/yk+X/5DBU09Iow5bZcU6ryBucs+P79FJIrM7C3Emf09+k1wdA5AezZhRiFx0cHBsAKmxv6ZRAiBVqFBBI7wI+iAZNq7458+8KLgjoZjcq4JlDtAB52jt+k0JQJLRQ4LzhYDpM88MUhFKUnUYgAFAIhcl87Jf3XpqNUI3iFB/ngHWHbTZIFIbSxL8SjAA3Kaly1dqgfs0bNhw9WpYARLpSwxIAtSaazWcKbihgNCsWbJI5UqVBS0+shZUKF9BcPmNHz9ReUUED2GpRKzTXDtbwBIixczvcJMIJpg/f6EsWxatYxQphCDLjx41yiVAwqXmCiSlCUACDLE6xtxFdnAePIkKTSleoqSCJVR8iSCCpMe+woULS6XKlaVAwYJKAqtZs7YSrWjEAKRaNWtJ1cqV0wQgbYmJVYVTkC+5XZLrKA/K9wAkVMfJQI91AGXXxzI9Ko+mT6cFHgWFKBvCu2n81K1Zq/YD52IjLPmvv/6SsAH7peeoI/L9xd/kq6+/eSDeZeugILWiQm7v2LFTmgIkhNO69+ytIqDJAaSGjfzTLIqN6FRWlUS3sDp7UPpMctfJ+6lZq5b2Ewi5JFotWriwRrQBkrI9lkUyZcwoT1SsqJM0/YmSy9dXV91WocikzrVqwxGNYgvvt1/lVT46/6O07bdPGnXcKgCopH7r/e6UOPT4pmq2+f790xYgEeZepXIllwAJN3WNp56SoUNHqPoz8wkijFtitip5GfcOEbKE09+rgvAjoIOyas36BCCJpLLsR/0cy8rcufM0fx8ZAQzIQCsoOCRUo9Rwa2GNJr0IaUlwWS1fvkJBCx4YItioS7g/fwPAcJFR5sxboDn4SIFjrgcXHIRuA5Ic8geOHHL0FdyA8JgQ20RKo2Tx4hoJT58igg4eEniA65o8eapaC6GHEGRjLahzc51sFy5crPnlMMasWrVGMQcRyUkBJFcgKdUAiYGDsGIifgjjK1q0qKI3MjmDNHl4ppAFGBMkkukgVTgzkL5YcZFfi6zCDRo2VnPpmDHjdWCwAqR69RtInTp+Gs64LHqleFJgsS9ZFi2Lly6TmFiH3xuQhHsNKXyQPrmoOBZKn54c836sMz1qpgwcNDjB9S9ZtlwGDxoswW2CpU2bNtK9e3eN3DDXjyuU6C2ir8qWLS/z5i+47wuRJwhBXr/uyL82Z9Wr+pmVwv14/egSwb0jwaKDyL1V9b6YePGpE83D91FRM1U+ILX3wKKCxLMMPqikewqQWKDQD5cuX5Gg7Zg24mpL3yFahe8gpB577qSmoqEfYT2CBMvx+Jv7dnWMB2Ef49T4iZNScP0rdJyBAItIYM9efTxqk1ggegxeIbXbbpaxs5+XX69el+OnP1P5ira9t8jsecs9Ok5q286D9jv0lbhm+g0WA9obCz0W4nBPiDjFrYK3gHExNfdHRBYeBrg31apWcQOQAqRRw4ZqtQKk4cIJbNVKJ3L4MUjdsBBavGTpPStYXAwZGsCxYVOMEyQRYQhY4fsxY8apIGTTZs3U1YY3wVqQXQCQ5MyZS8ERStoApO07dimYgsjNOEC0G24vKAMTJk1RdxkuM0jSzOkdOnRQy405LwluAUFoXHWL7KnBXHxnZAgATXCIsmfLKtWqVZO6deurV4mEuhhdELfE1Ud6GiI80anCZUepWPEJ1YIDR3Tv0UtxBPcAMZ52AjEbizluuOQAkh0kpRogYerC9AaDf+q0KG2oU6ZM10y+TMBzkT2/XXgpCEEBnGbOnKO8BcSnAlsFaSLaatWqJwJI6EuQQgELUrFixaRQ4SIaqYPwpCeFBwLbnpxArVoHab6WKVOniSmjx4x1ELZaBkrx4iU8OqYn530Q6qAh4e/fRE3D5LTBXHm/F9xSn332mTx3+oI83TZG1u94R65fv6GCpffjtVeuUkVXuLgB6tWrL4MGDdaCuZjP7Gdwp3NDHEztPWA98snuI336DdC0CLxP3Nx2d9cdDpK/8mlYtLDqZXLxtM3iRidKh/qhYeHOvmT6FIkjWfWhyMsA5elxH/R66LFgmSVDOpwVFh6e3lPb0HCpFTBC6oVvk01x78q1a7dkx7Mfil9ojLToMEdaBLb2+FienvNBrYdFg2sHlKCuzRg+YuRolQXgM7nLAKkspitVrpKq54a8Bv2RCZgIRoBS4cJFNcTdRMHRn1sFtlTLPdZT+i7zG20f0VYy0Fd8opKqPKP0fC8KaTp69nRYbVDQJpLMgCQI2wpEpkyXJk2bq9WL9E8Qymmz1kIoP+AITT3I3+i8AZCQR0CbiQIhmlRUCOgi6QPHCDebKaPGjNWossjISF2IA4QgZRNZ5gBJDnV0+El8h4YSczVpRJSDZAFIWI0wxvBeMcggq4IURIsWLXVO57nTBpATgsIAiCbjAdfLeDV79jxp2bKVJhLG3ekJQDIg6cqVK5JqgIRpjgfHgIyrDFMYjQO+UdvQMOnRs4+Wps2aq6mLfCuQ3UCEvr65VWNh+MhR2qhIlYCbiN/TOPkNx02fLr2q02bJlEkVTbNnyy6+uXJJ3tx5ki05svtobirq58qRQ/Lmzp3gN3ly51ayKsfyyZYtwXeeHP9BrkOqiTy+uSWHj488ljmz5Mie/b4vrQIDhWTK8DSad4uT19/6VsMzuYf78fqzZ82qujhcG1Fj9mtkn0+27KL1smZN9L29vv1vVJszZc6svydvFIMHgzm8gTp+fhqQgNikKbiWmbwZ8FAH5r375syppnTkAUhgm1whgS6/oV5OH59E9clbRZ1cOXOoqTy54z003/v6aloSOGCZHs2okaI8A49LjtziFxgl/p13yKtvfqPSFaQjqR2yWWrW7+75cVJyzgewbpZMj95uW9kkZw6fRM9F+4hPdm2bWCI8fv45c2i7zoJbiT6VLZu6SrM+lkVFE/k7e/bsUqJEcS1EiubNk1vQSiLggXo5c+bQa8qSOZP8E+WxLFlUVgDAQQEcGZCEyw1pBfYT+UXy5Xr16um1258R94N7DXDE/QGUlIflk11y5cqpxSd7dsmc6VEpUrCglC9XTnPrGeI158BSRXqUIUOGaWJic03UMSCJLBpYlfiO6LYSJUrp+KSAtFAhNVpgqQIgtQxspW49rgsMATjDnQ1mAKACWAkYI00KQBH9LZKOo1+FZ4v3hbDnyy+/6jFAMiApVQCpU6dO8tyJkyr+1LVbNzGlcuXKyt4n39Xx505oQbzpYPwhqVa9umY7NnVBe5u2bNWQyPz58kn5smUktG2IqtOOHDlSQPL4TL3F+wxoAxs2bdaJA45G+DPPyuVfrknc7j3e9uHtIw9FGxgyfIq07Boj/p22y48//y4//vSHDJ12UmoGb5GuPSbIsOHeccA7FyTdBiA6G0vR8hWrnZpE6zZs1tQjgBG0qpJ6jp07dxNfX19ND8Ziy9c3jyaHRRzSVSFFCe4xSPLIpnAN1kJ4v3H9sYXa4QBJw9TyhGWJ/VihsKYXLlBA6terpzn6SDtTtWp11VFct26DRgcSIUjp1i1SjSmI9ULMfuHsi6oVRdAKEh2ly5RJUH/J0mWCSj2BTC2bNxdyfaIYnupcbO50kFo2ayIF8+eTMiVLJCqQgB8vWkRIMovmDp8LFcivobH58uSREsWKJvhN2dIl1eeYOVMmeeKJipr0Ed0j+Ee1n/aTZcujvcX7DLQNfP3NN/Lu+xelccQO6TP2qFy/flN27d7jbR/e9vFQtAFWy4NHLZQ6IWulXf/98vlXV+SjT36UkD57pXnXbbJg6TZZHr3iobhX77h+d+Y1eEhGORveEWrWCDFiSTLh/nwPh8fdO0CFOn+BAmpBIswft2a5chXUSoOlxl5wfwF64AIBlLAMcYxBgx0ACOAzbPgotRSpdQmQdtuSREQvYIr9XFfZcuUlW9ZsGr2O+w8XGecuWbKkPF27tvK+4H5RAFGIedaqWVMK5C8gfn5+aoRBFgACfcEC+aXx7brmN2yxeAW1Crx7AOnNN9+U06dPyelTaVO2bo2V2NhYOXr0mJw6dVri4w9p7qNp0+4eyQ0Wf7fI7t7yAD2DK1d+kY1x78rToVtl98GP5NKPP2rYpvc9etvxw9IGunTtLs+MWCo1Q2Jk4oIX5OfLf8h7H12U+uGxEhC+XDp36+Mdsx6gMetet8sePXupawvAAWE6JnaH5kADJK1ctVZTimCtgQfk7tpq1KylHCTAEe54wvzRD6Q+kaoQ312Rz0mtsmDBQsFSQ+44XGxYlAi6QqMJGR+ui0KSWyxZWJLgCpn9WKHWrFmrueKQzoiJidEMEEuXLJaV0ctl1YroNClHDsXL/AUL0t6CBCE0oEkzb/E+g3vaBogK+vPPv2T+mtdUcfi7H65K/KFDSr73tkdvf3zY2kDjwJFSK2SLxO77QNv9C69+pQuD8N7rpEnTFve07z1sz/Zhv5/I7j0VcECY3rBxi+Y6i90eJxs3b1UxRsAICudNm7luR+Rcg+cDLxFeca5cvtLYv8nfbnOQwwn3V4A0NUqlAYwlCWK12Y98wL14R+UrVPQMIOFKS66UL19eD2Yy/Xq3jozH3udwb57DokVL5IeLv0n/8cekccftGt4/a9ZsJQ9638G9eQfe53zvnvMjj2SQao1Gq7L26Ze+kN//uCnLNp5T9fjKtbpI+vQZvePx7azz3naZsF2i7G3ABirmiC+b5LGk9uC7vv0GaqCUq2dHyhGI0YT3A45Is+KqXkr3EdBF1Kwhc2NVQj8JSxKWJsNT6tq1uzySLl2anNOTayxRooScPXvWLQb6F2xtVwXQZP4NHz5c2rZt63FBeycoKEhat26d6pKS89nrct6/c36u335MT//23nvav/cvv/xK3n7/B2nWNU4WrHpNrt+4IevWrU/0jrzvPfXP3tvmPR/frGPB3ervkT0HS2DkJgmI2CEvvva1XPrpdxk65YQ8FbRW6jXtJSEhjuv1tnlvm7fOs6GhoU5L0ZKl0bJrzz4nSCKaDYAE76djp4hE42dgYKBGw+JeAyQRwVapUiUJCQlJUDe1bT4iorOmITEALmrmHCdIMsAJ0nZIMlgjLdv8wIED5ZNPPjFQJ9HWI4B07do1+f333z0uP/30k3z77bdy8eJF+f777/Uzf6ekpOR89rrmPJzffE7Jluu3H9PTv733nvbvHfXsF899LbVDY+TNd7+Xv0Tk+vXrid6Recfe956yvsZz87Z5z8c361hwt/o7C9T3z1+UuuGxEjHkoHz+5WX55dfrEtR9l/hHbJM33vlS27+3zTvGG/McUrJ9WNv84cNHFQjNnDVXAdLuvc8qSIK0DTihPPfcyUTj54cffiilSpXSCLbs2X2UizR79mz57bffEtT9O23+zTffUjFPrgE34KzZ8xQkTbgdzcb+des2ysWLlxKc09rnzDtOi3Gefvbnn38mAkZmh0cAyVT2dMtJjVWK/CYILpm/Pd16ei5X9azn4PzWvz35bLWeuTp+Uvu89+6wSKb1e1+4+jWp2y5Wvv3hqtvHb3233vfu2jJsfUbWz94277ZZJfnF3e7vR56/IA07bZeJ819Qpe1PP78sgT12S8Swg3Lp5zvjLO/S2+a9bZ528OmnFzTcn5B/3GvkPHWApH3OcH8i2ezA4K233hIEZOEfpU+fQXWG9u7dm6j9/502D7jau2+/E6iRBoWCu8242dBseuONc5pWKtHJRRLM53e7zd91gGQ6rqtMudYB2v7Z1YPxdJ/1WJw3pQ8xrSYL7727zpBsfT/2z+7ecbsB+2Xw5Ofk6m833FVJ0HG87z1lCwNvm3fbrJL8wjpZ3I3+jrV0fdw70qDDNlm8/g25desvOXLqU2naNU6GzTgln3/5vbPde9u8t83TBgEhpPvBGrNs+Uo5EH9Y9j0bryBp/cYtuh/rzaVLPyZo2/v27VNxxXz58sljj2VVhfDTp08nqMMff7fNf/fdd7Ju/Ua9DsL7585f5ARJXDNlxYrVKgyc6OQ2gHS32/w9AUipGThcPRhP99kn3ZQ+xLScLLz3njKQ5O4d+4XFyuptb8utW+7Nod73fmcF7W3znk+W93t/v/r7DZmy5KzUCdsqG3e+q0EKyze+KbXaxsj0ZWfkh4s/phok3e/37m48YL+3v7vv74cOH3ECofjDR2+DpIOyc9deJ0dp374DCR5vVFSUPPpoJgVHhYsUFX//ADl//nyCOvxhB0ipmePOn/9E3WuAISxGJLpVS9K0GXrdWL8OHIhPdG523Mv3fs8AUkofossn4+FO+wPk75RMGGk9aHjv3XOQ5OoV74//r9QO3Sp7j/7X1dfOfd73fmfA9LZ5zy3HD0J/v/jT7+pWa9J5p7z0+teqKt9nzBGp1z5Wth/4j/z005137x3rPAPHD8J7dw5utg/JjXWvvf6GUzSSZPIGJO3df0CWRzs0ieAoXbt+3Xnk+vXrK+/okUfSSbPmLaVjx45y40Zii70rgJTSOe7mzZuaNH7q1Ch1BxJh5wRJ02c6rUvk37T/S+7eXX1v3ZeS935PAVJKHqL9oaTkb+vDsH72dOBIyQO0X5e7xuO9d89Akv158nf3kYckpO8+Fc1z9b3ZZ33X1s/e9578hOFt86YVpWx7L/v7R5/+JMF990rX4YfkwheXNfy/3/hj0jwyTk6/fD7Bytrb5v9vt/kLFy44xRlJVnvk2HMOkHTwsGoiEWaP9QYgxb+rV68KCeTJgUrOszZtQmTcuHEuO0NatflLly45rxGXH2rfCpJmz3OmTMEVd/nylQTXYR3brZ/vRpu/5wCJG4ITxM1Yb87+OcETSeEf9mNZ//bkId6tyYLr8N57yt47LrUG7bdJn/FH5cov15JsCdb3bP/sfe9JTxjeNp9k03L7ZVKTxd3o70RzktQWTTD+vf/xJekw6IAE9d4t/3n/ywRjqrfN/99t87S9bdsdUWtz5i6Qg/FHnCBp9979YjSRtsZuVyvRuXPnJF26dJIpUyYpXry4VKlSTXbt2uWy3adVmyc6+f33P1CgBlhD/ZsccoAkJADYB3Aih9qtW7ec12If261/p3Wb//+dpYacp7Ad3gAAAABJRU5ErkJggg==;" vertex="1" parent="1">
          <mxGeometry x="210" y="340" width="364.98" height="80" as="geometry" />
        </mxCell>
        <mxCell id="jydLiOGZCY1Jxmdr5eNa-3" value="" style="shape=image;verticalLabelPosition=bottom;labelBackgroundColor=default;verticalAlign=top;aspect=fixed;imageAspect=0;image=data:image/png,iVBORw0KGgoAAAANSUhEUgAAAZUAAAA2CAYAAAAPpATPAAAgAElEQVR4AaTdB7ReVZk3cBQUkN6kiygiKGIHGzoWRmdUQOyOxt5GpdjHhqi0FEjoJfROKCH0Glp6cpOb25Kbmx4SA1IEKQM6z7d+O/4zryizXOvLWttz3l2e3vbe5+I69dd///M//1PaX/7yl9a8++f57LPPttY59sc//rH6+/vrhhtuqLPPPrtOOOGEOuaYY+r444+vM844o84///w677zzauzYsXXWWWe15l0zXzvnnHPaHHMvuOCC9n7uueeWZkzrXANe4GZOYPltTPMe+OBmrvUZ8x54+rzD5/3iiy9uDYyMGff7oosuqksuuaSN5xmaPDvHA+fCCy9s/PltzaWXXlqXXXZZXXHFFWthmaMZB8O7OeamZc7ll19eWuZ6dr5bj15PMDIOjnWBmzF9aPNbs87cq6++uvVfeeWVbd24cePaE92dLTA9NWPWmK9dddVVrXX+zhrz4DQWmN7h9zTPe2i75pprGiw8ZY55xoMbvs73wPXUn7E80+8JFpo66e/sHz9+fMMLhzlZG1hkps9Y5zu46TdmvfG8h9fgz1y/0yIna/SZ4wlW5BK4foOvPfcdD/q0575fe+21dd11160dB0+flvmZA7b3ThjmW585xrxPmDDhb+bq08D0vP7669uc0KvP2qzP/M4nmMatBccTbi34OmGbC77xwA5P+e0Z3J6BJc6BmQZO3j3hzrrQ4bdmrga2udFX+jyzNvizNmvAtFa/Z+hGH9qCP/oPj+ZpmecZmtgRm4p/iV/iJXruueeeWrBgQT366KP15z//+W9ygTzQ2ffXFLL2sU4SR2dCSfKw8KmnnqrHH3+8nnjiifZ86KGHasmSJXXbbbe1RHHSSSfVqaeeujZxSCASQYKx3wnGApfAiHjNnLx7CoRpGQPrzDPPbHMTOASUJAuwNQkhQRksa+A2NzCNo0G/dzACx/rTTjutrTOHs4IR+GBKlgm45lCGFl7BDA7jGvzWWO93AoOAwDiiVDA0vzVzzcm4oBV6E1SC3xzjfmceWtESw8kc4xrYDBCfjMhctOojCzQzQE90xgHAi+HGwMGAGw4wPDvnxQGs06xDg3mcBg4wNOvgw6t38NAaeRqzJrIIL5F1YOoHz1zP0BY44EZ+kVtwWYNfawIntN18880Nd+hAo3lgoBOvnvoDA8/6zNEXOcBjnqc+OgArtFqDJg0d5BRa0eO3OdEN3GQbeXv/R+3GG29sOK1LsErQEaAyrg995mh+a97Ngcd7ghp42i233LI2iMFvTZ74BNN66wL/jjvuaL/DC7ihnay15/7OnJtuuqmN52lucJpz6623tt9wh2dP9Htqgd35tJa+wcWTMU900xEejGv6zQPTEz/g0q0+zTuYwYse72QQvOaE36w1Zl364Q3d+qMzz8451kUOxvIeevJkS6EJLexKLNI/bdq0Wr58eT322GP15JNP1p/+9Kf67//+73r66afbhuOZZ55pz7UZpar+LqlIJJrJAD388MMtoTz44IM1d+7cxtzw4cPryCOPrFNOOaUFS84g+ArCApJ3yUDwFqgFOP0JvnGOBNI8szbrBWLv4EgMHEqz3lhgWg/H6aef3uabm7XoEICsQScn1McoCM3azAUPDHMFH7/NN84AKAU95oDhPXRRsjngGQ9tnmCBEz7B1x9e0AeWJoBEyX5bkycjgcdveBkAmvACZgJP5zvYYCZQJXkwIvRyAHR4RyfjMx/P9AkneuAFI7/hitEa16zT4ESfOWBHH+jS4AELztCTtXjioOChASwOap0+vFvLefy23m94wPUEA2zNHL/BR0fmWmcsvzkqfGCYT1/m+O1d8w4OuOHfexzcOnolW+NohyOyNu535AIW/GCQpXctsL3Da51GN+ETTvTRP1mY64kP+DRjgo6ntXTtHa7wAI45WnQLrnewzE+gsz7w0Z5Aa869997bYBpHhz44Ahd94OgzriiFG6+hCY/GQk+exvVr6NLAIktj9AKe3+CDGzzoyVyyM89v8gEHT2QDl+QQnj3zbg49sMG77767wfcbbjKwDqzbb7+9wTYmGKML32DDgT5yMxd+/WCgJ7xFd3hI02dOZ7MWbjjBBhO9foPJ9vShDc/eyRcM752w8AeXPrDILjjZghgkMS9cuLBsKpJQklxsQmxKcrq1NqlkS5OkIiNJKitWrKgZM2Y0A/71r39dhx9+eP34xz+uUaNGtR2K464TTzyxBX6BtjOJCEp2MieffHILtHY0ElHmSBbmpEkMaQKzZv2YMWMaLvOMg6MfLLA9BRtj6EKPOfBo8KBN33HHHVeSIljGwCa00aNHt+fIkSNbYDBGoNZahxbzGIqn32CA67d5aPHOeD07+83rpAOtgpw1muNDNICLPjjNYcgCFTrxjC540cZw0mcdeOSQYBy64bUGHGvQx7jJyXx4wbcezWgBw3xP/d7B8I4XtMGJHk9w0aSFjs6xrLM2tAROAiXcaIEL3xln8N7xAY939MMrKNGJPo3jcurM5dR41MCEAy3Wg+WpDwywrPXbGOfyO7wFtvXsHq/k4Gl95BMcZBddoMMca/VFVmCjla7QF1jmkAOaNO/Wk5U5ggr9ebdOoDAONzoFEDiNgYUPgQK/ZOFpnvXG0RUZhdb8NhdsNICPBnPAs95asAQlMujEjw6/8eCZ4IUecD3BAoP+4EQPfPq16MX6wAYXHcbMIUNrBFTNWBILeMGtTxBFu3XmCsbo8hs93s0HTyNDY/rRGR2g35jf4BlDFxyCM9q8kxm+wCYvcpJEzIXf03w69Z5mLbha3j3hBAuNwRF+0AC2RHLnnXe2udaYa07wJImxGw2cyAh9SXj4Rz+6yUDSciz2hz/8oVyByBc52UpiWafz2CsJxVNCsTO5/LLL6thjjmmN4VM8pi65+JK6cty4uv666+oKW/ML/5fRMEvYFMpx9BGWJ+IoJAaQJ0bTMEoAfofJVBXpMwfznfNiJOZqDMZ6BmFMdidsDR1+g3fffffVXXfd1SoRv2V4SvCcPn16y9TezTFOUSpoFZo2ceLEBgMc/Soa55KTJk2qqVOntnXezZP1Z86cWbNmzWr0TZkypcEAWwKfPXt2W2OONZq5gYUeOOEyB3wwwA5O/V1dXW3e5MmTW+VknnfNfHD6+vqqu7u7wddH5+YtWrSo5syZ02DAm/nWWmeNPnTk3e/AxoM7t56ensYPWH5r5sPb29tb8+bNa+9oNYZ/vHrCGxicxBq0wa8tXry4zfU+NDTU6A0++MHWrw0MDKwdh5988Gq+BnbePdGLPg0N1me+Z/iBAyyVqbnmBY55aDOXPCMnT/QZw7dmLWeFCy3goFu/397BNa7QIxvrVq1a1frAM26uFlrND61oAM/v+fPnr5W9PmvhDK9+g2Ge+VpgwuU3XePFGjpjC2QBf2RvLI2MrDMneo4+8QKWtd5jb9aYY7732DfZmWMMbjSZEx82Do8gaJ4x/mI+OGj3nljQiS9+Zhw8MODFf3Dpxws84FkDnzlJaOYGD/hgoIMtgylOZLfhXb8nmviyln6xzNz0iy/GxDfz0RPexSlzxS/zvIMt7iRWdsZc8dEcY4mRSXCJhX6LlwoLCQ1u/EoudixJLvLJOskynQnFu6B52aWX1eJFi+qJxx+vp558si12x+Jo7InH/1RPPf6neuapp+upJ56sv/z1yMzdi2aLBI5zuFz26EdAEpk5nQ1s8zubvsyx1piEZyflHS14ME8fHIHj6A5uR3eyqvnuh8CxzgcI3q35/e9/3+g1jm595nj3zD/v8KApd03w++dpPDSa43doylr0wx0eHnnkkQZv5cqV7Uk+/uEj/HtaAwdeVq9evRYu+MbQGpx+6w+NWR/Z49t8MjKGNs8HHnig9cNvrd/+4UkwA9da+K1Fe+RhHvzkba1345E9+KExvFsDd+bAI1Ca591225i1+Am9fkeO5tGzPvKBG17j+tCchnbz4e+0I3Dhyho0gAk3GQQ/OOEBHP3mpXJDI77RAAZ4cOojew1uDY3kaAwcfWQHn3e4swZ9YFtjHHy8gm+e3/qzJr+tQSf6vId/eO+///4mT2vAxYd1cHlHi3drrOUj5uqz1tzAxCualy5dulbmmbts2bJ2Lg8nmPSNZ/0SHVjG0Bh94wt882MPZCRou9M1V7Iyxzu8jmeMuQMAFx608iu4JMgkOL8lakksNIQOYwoWcL1LtuaAD4akpwDQl7VoBG9wcLCNeUrM8Euwkg84+uEEHyzJiF+hH2/6zPH0WxKS9JP44fUOHjia5JYmiRjzWxJDg+AvqUhMklwSXRK2eZrE4gk+/Nahzzzv1oFjnp3hN77xjfaMT7BH9roOB/lH7Wc/+1kNP2549ff21WOPPNqSCAUyLMb70AMP1v1LltXq+1fWQ6sfqNWrVjUDo3jKISQKjIAIjtCjdEbrd2cjsOe2znEKNA4mOBTOGOEK45lvnKLRILvrZ7AUZQ0+KAQ8xkPJ+KIM62IADIJi4TA3Ruk3hVkHLlrAphC4vJuLDlUUQ0Q3+cADlrk5pzQPf+DBr8qJ8aIFreQawzYXfPPARTdDQBcYntbBgU40cDYOZj760AyOCtNa7/jVD4Z+1RpZwQuHfrTCHV3o1we2ahOsyMM8dOtnlH6jCx46M6aPjNkEWs2jI7gYMDkwXJVYJw94J2swjMHhHWx8szm04J384OB0xsHhMH7jzzx2QgbgqGrhJSdzwBCcVWzGwTauKiRPwdV6Y5zaGv2duo5dGAcXflWmfg0PfpM1OHChB22qTnMiEzzgn3xUwWQamHi1Hj3modUc+MCiU7SzEcHCb7DhpROBBe2exunWOnohB/apQkYL/vQ7hSB7vKmII7/oBR1gsyl04tM6a8D0G87IgfwiSzIOjdawEfyqlskAH3CCi3fvdE12qm+0gGUN/J7GwDKP/aKTvMBgO+RqLZrJTT/ayE1wBhPddhx406yP7KyHC23m6Ue3+X6jJ/DIDDx0W2MMHjKBH51Oe9BB5ubYXYBDTnYXfNFcuwm0oJf9JC7AgR8NHskBLWDCDQcbMYYPciVfOxX8anA6pYLDcd73v//9dmyuAJBD1iYVL/8oqTCSG53zXTuhhh99TJ15+hntCMmRE4OacPX4uv3Gm6t7ZldNmzSlxl+95isGxFEKgp355vzPOlsnvyMgQu5shPncRjidc6J0RuFI66CDDqoPfvCDjWGOjUEB4+ijj65tt922PvvZz7agIXFwLsJ973vfW7vssksTjmqKMlRq7lt23HHHes973tMUnuoJTe9///vbmOM/8DmWtc7Wd9ttt/q3f/u3xjMHpGB0/ud//me97GUvq//6r/9qVZw11lIQ/NYxEA7LEPA0bNiw2myzzeoHP/hBm4t3jkfZe+yxR1vDMFJFSWjf/OY3a+utt26VA17gZkzwHHjggbXXXnu1u4pUmPDQx0YbbVTvfOc7W8DGK0Oiuz333LM23HDDdp5MnowJX55vectb6l//9V8b3amq0fCpT32qttxyy/rd737X5nJuQYKuX//61zeZshtBSD+e3Ee85CUvqfe9732touOA+OJQaN5+++2b0yeQqpjdn9ERGuAgawnM2o985CO1ySabtOMH9NK1cVXVPvvsUx/72MeawwiecJA53ZDd1772tUYb2aABrZtvvnm94hWvaPanjy5U4+BssMEGzakkUvImP/Tghc7ZP7mQpzm/+MUvGj/w0I1EKigIZp/4xCfq1a9+dbmzJB946Ip9b7XVVrX33ns32GxUEFSYwMO+f/WrX7Vqng2hwZrXve519YY3vKElBLyiAVw2tfPOOzda8I4GTVD60Ic+1PC4p5Jk8UQWztTZyZve9Ka2K0ixwJZf+9rXNjuBE70SEJ75OBsCU5+59IGGT37yk7X++uu3e0N4jLEjR0ZvfOMbW7PeXLThy58q0MXHP/7xpjPy1MAk60033bQlCr4lMNIVXunu61//elsjQEomdIQutiUekQP5WCNQ8rHPf/7zDTe7Iwf2+sMf/rCt+fnPf762oIBfcN5mm23amHhAZmzROzzsEf36JUY0Shbvete7WhzioykKjIGPhu9973vNH9kvGsVVdLEFsqJXvJCDKwV28ulPf7rRFhumC7HMmMRMpmgjc3dfaBg2bFiLf3ihDzGAzPjLUUcd1eKguMnu2DRbEYv4h/gOjn/Pm1RyRPDnZ59tAr9q3JU17tLLa+TRx9Zxvz2qTjh2eJ150ik1+tgRdcaYk+vy8y6s3/3iiPrFT35aZ512Rv38Zz+vH/3wR3XTX7+GGHPiia3CkrUJktJc+Lj4QTxGKM4z734Timfac8cxycEo9MMf/nAdfPDBzZkOO+yw5jQU48Kd0Qty8DM+CnHHw7Df8Y53NOf9yle+Ui9/+cubEbrkEmBGjBjRnGH33Xev9dZbrwnRPAGVML0zFoq35jOf+UwzHM4g+UgWP/nJT+rYY49tAUiCdgEtEAniziS/8IUv1Le//e3GowAqUKJflQAvJQqgAsdOO+3UjOKLX/xi/fKXv2x0S4zrrrtuS4QuxPHE2LxzaHjI20cAHILjf/WrX210H3DAAS1YePooQCJCGxrcdUmc+++/f3MMNOJVoKLDb33rWw2HREuGDJZxudy3Hea8KpgtttiiPvrRjzZefQTgAwr6kuQ23njjlgg5mQ8/clZrDdlJBhzx0EMPbU5I7uijZ2OStYDMjiRnciBTvPz2t79tgVqSkxglXJeQv/nNb9ZeRILHHuzGOYpgjm56RwPZCWj5YIKtClwvetGLGk2CAF7ZKcdTBAiUAjD9CMyCwX/8x3+0pPnTn/60yTT2ImngDa+SDT7wCy7bXWeddertb397C2boN0dA1C8JszP6lIwEiS996UtNpjvssENLloojfgYeXtBGB6pO8sErOl/84hc3m5Z02QodKXLQze4FFjqjT3PIge4EUVUwmvEk0Siq9Cvw6AjNAo4CCJwXvvCFaz+u+dGPftRo4Ud0J1kIVuTP5vnAu9/97mZb9Mg+yAHf9MUWFDDsnRz5jXiw6667Njz8RAVvLTod5e+7775NfgoZ/KAbTnPAU1yA/+Uvf7nZMn7ZvGTvS1c64mPkjkZr2BCZ4pmfSKCSH54Eer731re+tRV3ZMu/+IxEoihix4I9P2GrCgTzjJEtu2F3khOb+u53v1v//u//3viWNMlbIrGLVbjhAd/0LW6QI1je7Uj4Ln8Vl+ARD8lPDEOX3+7NP/e5zzW++bXYQecKKXGUbtkEn4KPbLIpWbtTcQaW3Yqk4hzy2WeeqTNOP72uumJcLZo/WPO7e2vFwFA9umhFPdC/sIYmd1XXHffUpFvuqJuvvrauv+qauuOWW+vWm9dcCPX299XAvHk1fsKEGlq4sGZ1zWrZTDUjGzpG8K7i4rx2GAzT8ZoKVhWZjOq3zKqS4FiydrK3ykz1ah3mKEajLIzCAy4FcfyXvvSlTZg5xweHYwkWnFVmJwsyoCzBlCPbuqqmVO0CCeOCRyUkkMCDFwEBPEZFWcngFKGKtoazCKbo9k+V9IIXvKA1yS3n63AJOpwbDfj2Dx7yUWUEjzG6A5Oi4THG8FTW+LEzEYDB+sAHPtD6wVJR2U3o5ygMSr9/5EEu5MNQVUVkDZckwljhUfGRi+MruDgsOXA6xgsOvshKhQgX5wDLfBWUoI9XgVEQMeYfnGgQlDwFD//YDHlLuHBxYnpgz54CIzycym7AfE3CpDfObw75WKNwQTccb37zm5u9oQ2vbJGO4Nluu+2aHShsjAv+1pCDahIsMpX0JGY0cEhHDGyIjOxuJS9jghg47E5AUK2TN7jgwG+NgGXHwMHZEh2RhXUCF9mRrXl4Yj8JNnQnkLM1sMhHsMCPQMd3yMY/gZYOrJHE6Y3+6EPiRjO9CoBoSBP8BCzjfDr/6BVdbEvwwhN+0YgGyUERpNgjO7jYFhsmc0WjuehjC/wKDgGVTeOfHPBEbnzWbix8ok81nsQvMPITfNEJ+7DOU8ICR2wSeBWYeLJDgAcN5IteNChOxCd0+ydwg2WNRCBmwSMWKRytQYeCEZ8ae1REsm8ydSRmHVuRmNkWe1UooAHtCgb6ZsOSJfnQj3hIz8bIWyIiB+vwJZ6wUzrHh/nkozihbzKnh8hAnFEwo1vRIEmJNfxJchVX2bL5cGhksfbrL4wz4OZIzzxTx48cVVdcelktWTBUXZOnVfddk2vRpK7quu726r3p7nqgd0GtHlxcKxcsqj/cv6pWr1hZjzz0UP3hwQfrsisurxPGjK677rm7rvAZ4JVXNoeR+WRvhKsKVEWIE0Qom5E5thJ0NQpTHcmMngKXLaJEQfAyvipBRWEnwOhVZJgWXAmdcm1hU42ByzFf+cpXtoAHJsEIHCpWDsBBHFFQCkenaMmA0FVTqh98MA47IcmAgeFJ9cR5BBUVJOVSjISIb7sCvKJBFaSKEqDAZRwqDoYJH/7xyGnw9qpXvaoZOse39c22PRUxxyBPlahEpopyTCKZosVRAsOAD88cU3IiU3IhZ8EVbWjg0IwVPwxQVY4GY4xSstXAdQwpQHznO99puOGhM2s5IZj0S5ac2S5UtSxQ2t3pJzMVEGOGQwCnA7jIlbM7PoKHc5ovENg10YXdGzx2GODpd0wg+QgQdMQG0cz2NJWqIIRXPKKND6Cdo3FEMhXQJEVBQkUsKUjSjkYkNHKzM4CD3eHDjkSfMZ/hk7dAATZYjhHYksDA5gQ/umAjnvDGTtgpeHaS7EEQEkBVmJ02bIcu2VvnuFKgk+zYt90VPIoifWjzRAu9kquCjD7tyMEV9OjC8RefIzMykrTwY42kKQhKBnzTDpBM2T7/4Y90gQZz+ZHdgp0vu8Yve6RTRz8+kycjts8W6Jz+7LrIJfcAfFSQpAtVvYAmGUhcEjr5OP7hC3hURJKpmIBusQINdlTw8X+0Gcc/3SiY2AvfYqtkhw9ygZ/PC/wSMR7JFC+KZ3pFAxsTgyRvc+wG7ArwhF42zk/I3c49tqDYE1/gUCBYo+gAn0+QN3ieZMAuBX2JRZ/4oACgPzDowW6HPMifzunVLkw8s1sViyUZNmQO2o444ogmA75EfvTCthStdn6S7d8kFRk2HUksjr/sVC6/5NIa6p9XEy6/so796S/rihPPrJ6b765Jl02oK04ZW3dec32tXLC4Vi9bUfN6emvV/StbsDj73HPr+NEn1LEjhtchhx3aEoVzOoYm6wrCjqYc1TAGQdcRkQzMUQUkQY7xqkYEFE8CZBiEz8AFYjAZAsYZVaoJW2vClGHxxREZG6VzegrlZIIEYcnoMrhAokLSp4JWGVCCYM+RJT1BgtEIzsGjYrYtFiwZECOxRtWg4gOLQ3hKJGiWVASW7OCMqx7Rx2E5LsPwj5HAIVhIGioMdKh2VFKqCU5H4YIjPGhgVOiWVMAXmDg+B7JGQhYQwAEP7eZbp7pCg4BNfo4gJCjjZOIf+QisHBHt5kh4+gQlToFmjuKYgtzsPNGBJkFBVU7e9EcfaBCQ6EIwltg4BRolSfKBCwwOTudkIhFzYnYhIZMDXGAIImhXOdMb5xPwwAPLEQQ9mG9cQqY7NsHR4FAYmKPwQBvbQ6sAxH7YL7mhwQ4NT9ZIcDlG5IjgGyMnAY0tos+uRWFBH5oEQUcCFp8gG3yhxRr2jX7y4R/4VT2mMGILkmGOkQU3tm2nw7fIgE9Zg1e6EDTZid0G+fJbNNgNkQ3c/Agu/QItuOjmW3Sk0KNzTUDGqzWCmkALTwoMfg6P4EoP7oIEU2vQKHBLEOhzjCZWoYE9kgk9WKeSVwyggY4EWPTxGTxKnmimo9e85jVtTMwgH7KmP7/JlN3zHXpDm/hDpwK3eGKuOGQdn7czkRDJE13G0Wg+GvDEF/BKDuzefHJQfLBhfiGxORY35pgYL+CxF8UQGWgKOP5tPAWdfjseusM//BIyP6JzOqY/CRzdTgoUTGQnYYFjneJbspEoyYO94UfMIENFHLnzD7FbAedfckjbqXR2CL6tPfvnGjVyZE24Znw9sGJlLe6fX7ePG1+XHH9qTTjtvJoy7vq67uyL6tZx19ZQd1/NmTqjJt99b83r66+pU6bURZdcXPdOuq/GnnN2feGLw+rgjx9cO+60Y+2ww/bN4Nd7ke3Z+i1wCuwqeEpikKpWDHI4zKqMBFYKSVLhJITNYRkg5xFUhg0b1hzdUwXEUFUi4HDCZGWCkRzA1acipniCsgUVKFSfKgOVE6OSCFQu6OBEHB0eZ6JwgSkI2AEJRLK8viRDAVXA2W+//RpNkonzZjwxPoGAoikRz4ydQ6vyjQnsqtQoVuUkAbu7EeAZpyCpEhbs0I0ecsnfBHF2NAgqDI5sVDwSOn44k6AnIUgGnEpixBODtYau7BDQ/y//8i+NNoExcuYYdiuSop2DZIDPFAcqRzT4gAKvdMARBG46cvRkx0THaEcDPsmUjugcX/oFbjSj3Vw7QDokO+fHaBCo6Yju6EN1qqgxxvbIjnwED7KUeCRnMgCP3tkj/PSQna8KjaMJwsbYEPmDF/vFo4qPPMjHDpP9sC12Tk+Oc4yRoSChksSvJIdHtKFdcAaLHtiWwMAu0UDX5IAvgVg1SUf0KtGSK30K0HiiR7tEwdBaSZg+BVw0Oh4lB8WQuXao+EKHolAhwqfAowsFnkAkkFuHBk2RovqVSOgc3+yNLbATicU6d3t4EazoSkDHJ3mjAV7BTkDk02DxTf0qZnyyJXIjU0fXaLNDJVPBL/DsPPgreyFTVTma6QHN+DfGTuBHn2NRdIkZ/JX86ZstSyR8M4WCQM0e8EqvdlkSdGTKVtFMH2zILoGu0Y43cpVAFCoKPzqnQ36Hbndi4p1igrydNKAXHjTaceCHLbBHsoSHvPmPfjarT3xh32ihUzyxQ7hjJ3ZOaM49lV2iMTw4DVLsSuZ/l1RkF52dSWXMCaPb8deqJcvr6Yf/WA8OLvm0pJQAACAASURBVKnJV99YV445s6479by66bzL6t4JN9e8mXNqsLu3FvQN1PIlS6u3p6cpp6+/v44bPry22GLzevWrGdzLa4cdt6+tt9mqdnn5y+qF676gBVMGRwkMRkZUdXMmTi0YSTayrj7BnrMwdEYkwwtanIjwcrYs26veJB4VgO2mikEgYRiqKo7AEFQ6xji56t86QpJcVMTGGBo4gccJVC6CBkdQATlXpHDwVCCCgyo/yS9HD5yB8RpDA77B4vicAE/WGvOkaLsahqmPLMjFsYcqg8OQBXiqIFU5GiQjMsGLChedjNOa3KmoTFQ8ErOqkh5s6/Gi33GoSg8/Eh9dWENOtsUCDFyCEdxoI1u8qvgkULKLHMDGJz0I4CongZ5jgqeiklTIk2PhTaFhJ0MGnI8e9KFRdYoGepKU0CbYos/OQMVnJ8luzEcf/cMjCMMZOyBDwdOOgezYn/kSFFngU1UuUcLDVvHMqQQfjowXtBkT1AQ3/WhRJJlvjJ2oBPHFOdFLRoKTxI9XCZt86M4agdMOUSIIbeQEpuBC3goNOspuJ3YCnqAEB9rBFSjx5DhKwsgaviTACWZ8IHzaOZAP+1FkCFih2xyy5iuOoRUJgjLb5nsKNztVCd/OFs30ZFfL7g455JBm92yVzJ1g4EcAlPDIAO2SteIMP3b5/MgY3YoJ2R05HsInX4ZLwCU3vieRRG5sk42SA1siF3aADjsQvL7tbW9rdEc+bNUugs/ateCVn+JbgZQ4ww7gZ1/gkQE/4oPkLS7gld0a4xf8wxr2ZmcjeaGBjtgTGcAnqCsG2J2dN9oUW+KZRE0O7FihhF42jA62iD6JDJ/sCB1OiqyRQCV3yZA8FUBwo8FHPmKvPklM8pNUwMKf3CGHrN2p/KOkMnLEiLrsoovrwftX1aTb7qwxRxxVF444qd2pLLx7el171gV17XmX1OCsubWwp7/m9/TV4MC8llQg5sgq+XXXfWHt+oqX196v36ve9OY31M4771hbbrV57bjjDq2qIBjCZvSEIzOqLnLExGD8Y4yUQBgSDGEQgKpSMhEgCJsxyMoUYG6OdHKGLWhzXtUwQTAElROc/lEORXAIlRA+wJGhrWOQ5gogHA3NDIDA7SJUC4ydEVijn9NRIKcCj0OZq2qz1vwcGQmSEonAD4aKR+CJsangrUc3xXMEPKpY02+nw3DxytAYYpxSciI//eSELg7gaAJfYMBhzNO4NRyakWZnAXb4Iwe84A//cJungUvW6GPY+NbMsSuStDgneZNNdCOocQJzwJT40I1f8kILvGSAX/10I5AyejrV0K+hDw/WCLx4o1dPlR/nUKCo1MAWlAQgNJmDl+ygyJteJBS7JWvJC4/4xQs8sSPVLRmSL77pWp/fdiLO2sGylv1FPmwHzexHv0Y+qm1BUPCEAzy0wokG69gVmeBFooBHFatCNR9P5Eg25AouXODpI1Myl9ztEuAG246Gf5M12Pwg68lAAFPB06sCARz9GjuzHq10ABf9WQ+WRIU29JMNmZMTWWvoUVSYC5716AKDPcbu0O+4hy5zt8Uu0A0vXq33O3ZKRmRqnWIMLeDSZZ7ky+bNFRvYlN2DhKXIQ5udmzsNtEqOaIFLEM6OGH9skx0p9hQddiV2dehFH7sjWwEen3RDlui13g7LPaDjpxyhsZvsOMGVUMmELeBfrLTzo1O2TNZsTlHIBvmNJKd4U3SxbboJTnShid3wGUWfeKv4/IdJpTOx+Ov4o393VI277PJasWhJ3XTVtXX2yDF17Rnn141nXVQTTj2vxp95fs26895aObioZk+ZVtPum1xLFi2urlmzGpOYQej667+4Ntpow9p2223qdXu/tiWXHXbYrnbddZfaY49Xt3M9labKRuB00UlZnJqwKImyCUImp1SGQcgMTyMcgVcFqFK3g1AtJylQKgdjKJILIXMQwlFlMCQ7JMdPFEjQFCcIejIsBiOBoEPik6VlccYADjpirJIBI+e4aCN4eBjAsGHD2hpBnWIlQmtj4GBoFMxxUymiwxadUWjwcy6BEX6wVLNgZZ1xlYwjGzsxsiE7iQNeTUBkcOQtaVuDRjJ0KWjbKxhoKjtzbZdtm1VUkpUqjSxUdc6rVZN4QDPjZrQcDX0MUEFAj44R6R5t8Kt4yFkSEeCdPauiBCkfI3BEW/MkDEbNuMlIlWSN+ap9zThYaKFTRYhqW1Dwj345vkoRv9bY2dCFNQKBNeggY46juHFMYcfCqe20HTnSMzthc4IZ3GCo5iV14+xB0MUjvQleHFhAQoPdmzXmsyFy0ydZK67QS+8+wVWpOurhG+xZcLXGsZY5fIg/GZN8rBHk4eIn7BwdgpbdhIDGT+gGHJftaHNkYkdlx8CHBFhBBl3WsTXByxhbwK8vCBUF7kDAQgf98hW65ONsiy/pRwu5oYGPsEtryMy5vh2Y4xk7DbQbE3TZop2nnQh/YwOejj4VZSpvuy7+h1d6pXsnAviRsNDMnvgU+8Uve1Tk0gM84hDa+RKa0KwJuPyJ3NgHu3e07M7DTsoxE5vX2IaAb4coEdGLpEJfaFUY45HsUgDTDd2TiYSUmMVW2R79sAO+xc8kBHbO/tiotfyWLZA5etxPOdJmE3wfLsmKb4s54i05OPIiI2P0hGa2SVbkTkdswEcV/OL/TCp/+fNfShtx3PA6d+zZtXhwqFYsWFRLugdqyfS5tWRady2d2l1LZvXU8r4FtbhvfvXM6Kre2d31wKrVNXdOd5115llN+AL9euutWxtv/JLaZZed2y5l991fWbvttmvtscfubYtvK237yfgomJA4iCTnmAlzqh5nlYSuSuNcDJFxexcMJaUYkW0zxarKBFkZXBAT2AVWBsYZBGnbWGe0noKcICUbMwIC54ycm4FZQzEqaDssHxswYEZDqalcOLU+CqUojqSawYegy6gFOzThgcIclTBMQTc7JkYnCNnic2Ay4KhwoxV/gjvnQDMDFWQ4gjUqTE7CwMlZglDxMRTzBWgBkSExWMHZGkcZ8OAPXRIW/TAq8sQfpyNHwc4xCRx445CqbrJQnXM6uNBFJoIWPdObAMUJ0CsYCUwJkHQGt6MROlCZkZPKjwOQlcpbNQUPfvFGPwKns2a7HEHEXHRIcuzErpY+FQn4kBiGDRvW7I2j0ItAgQaFiGAiYfnHLslMIGA/jjM4MNmwAUlZMoKb48GBZ3pEewoBAYlDChDsXFHD3sgEXgGQzsmNzPEneKPTF1qqTrYXW0Uzm6VLQSAygQ+9qmFydL/DL8kdb4o/VTVarMEf3aFLcOFz+BSwwLcOjXScoy480icZ4FHgzS4vlbI18Evc/NQRo6JTgGKHZEY3bJi9+YdvgdP9gaDoSFAwRIM1dOQ3+uAW2OiAb7AXeLxLVlnDduhGcSHOiB3GJQMBFy52xy7wm+pdciNbPslHJRVyYq945geKBMdp6BRT8Ccx4E1CYZ+SExrIS2O/eHTno1ABI7TSKZ9hX2yJj/AViRVf8LBdSYSNo1kR5DfbYEdsD83mO7YTD/AIrsY/6MsacQ5O9iEOkrF7F7SxOTYJJv1ILuKAxPT3x18+sdb856s62sjjRtZF519YSwYX1qrFy2vJwIJaPm9hrRxcXEt7B2v1wmW1Yt7C6p0xu5YtWFzLFy6tnjlza+b0Nf8pjPnz59WRR/661lvvhbXpJhvVTjtuX1tusVltsfmmtflmm9Q2W29Vu+32ylap+nJBJiYAClVt+CcbOz9l2AK5d0KnVHMECU/BG8OCtaAic6t87GYYN6UyUBWH9YIXXITG0ClVYCQoW1xrCZUhCLLeBSFOzSAEOpWzHQ5lCrj6KR4+ivIuUFsHBroYOtrQYk22toyTUgV7RqriYrQqW4ZPaQxX9Sg4qGYEOYEpwQ8docE6zgIHp1PJOZ9FEwODXzDiiJyGkcCnChd8GbGzWfJkRJIHOuASiKxFD3moGjkfHlVUgg0ZqMQlO0aKNmvoS2K2w6EzOMlIRUQHEr7Ehkbj5C4B2KEmseON3sjOOL0L2GhBZ4KABCSggU++Gt3iXT8bQAc6ORG6BdcECvPAwrNARVZwWwcOexUkJHY0sEN8o8tTsBTQ6ROfAgJaFENwkgMcAprkiF7yYrPsFG4y0+iRHZE1XZEFeXvimc7YOP2y2ezO0Au3Pjg01Stdgq8gEcDgoFe47WLRx5bYN92Qs4RDNvDQp4DEX9CGR/JXIKHFWgHMaYFkQj94J2eBVlAnN2MautGjBSYfsAaNdhoCOrjkbA2a2SafsYbNSCpOAKwRvNkx/sChC3bjN/mwAbYmlliLL8mYPsAmI7ZLL37TJ9mDBQfZkj2e0SOxetrFa4oBchOw8cW22DJ4frMRtkA3krPCxZMe+JP59CUuWINP/kPe4hPdkCX/9htudkOueIELv/hGrz6JVIFhd07m5Am+pz542CT90iOc4qMEKfbAjXZ8aeIDG2Tbf7tTed6kMqouPv/iWiphDC2t+b3zanBgsBbMG6pli5fV/J6BGujqqfuHltbvl9xfSxYsroGegZo5Y1ZT2NDCofrWt75RG264fr1kgxfXRhuuX+u+YJ3W1n/RurXZppvUhhts0D55c4mHYUpSdaRyzed1tu220y5Y7VQwwPA5PEfk8NYIdAyfIPVTOGdkCJxFZeAp4KqWBS5zrKVIwUJgNZ/RSDya4MNojFnPieAgeEGG44KNfi1BEx5rjDFSeDxVNQIEZxNc4KB4cNFEsaoOjmwOA8AXfAwR3xJK1gaOJxmYh35z8McABEA0w4FP8mHQGvmlKhMgOQ8HkyQ4oN8MViBjzKpaxuvoQRN4BAqJKBWdIM1RGDHj52icHEzHhypSshAY7IpyKcpA0W2O4wTOaa4KjAFrKlo0cASVEpokJImT/cAJP4fRzFcRCkyc0A7AevSgn8PgF48CElnh1VrObT5+wXWs5SloSXaCqwSjWMlc+OC3hjwEV7iT5OhXoAQ3AUbiogsBEg1ggp/q3VdsCgpyxAP7QB+52EWQhTXkQ8bmqjKjK+PoQ6emKCE7dJlPzo7+HM9EDgIT2OzvrrvW/Fdz4ZAcJCf00zEaHRHii81LKHzajlrwFFjJjazYNBukY35iPn9jf2wBLnyjj+0JZOwdbO9sN4lB0BcQ0YlmQTH2zGatYWPsW4AlK8HVXLTDoR98c+iAjtDIz5K8zEdT5E327EUs4l/W8wF2zn8EZckBnejAN72gkx3SBdtjI/roxS5VfxKJJ3js2e6Zzo3H5tgIfiVBCQ98NsU2Fcj0iUdr0ItPdk1m+BIT0MaeFMloYfNsFg79+CYTSYvsNevIGE/8Bg1i6T+VVI4fcXxdcO4FtWzh0rYL6evuqwXzFtScWd1171331Zzps+uBZavq90tX1mDvvFo6tKRWrVhVc+fMbYqbPHlSnX3O2PrG179ah3zvO3XYId+tHxx+aHt+7zvfrsMPO7S+/vWvte24rTYlCNyqeQFPBcGRGKezVMdHvn4hIFWMICyACuIqCUKgBE5CUbI+pxF4KZcxaQyLQgiUMm3hCJUgBV1JwxzCZXSciDLSGBNcsrQAILmhnQIZAtwUScEJHBRsTXjkRIxBsGRk5sHnSUm2rrbjKhOOB6bdBkPEF2OWNPDNGOBmAPhjXH4LJvAyRoYh0TAGv/GAH4YBHz7JNUEGreZzLoaGTuvgtvUmY7AdJ2oxLs6ENrsxSUFANR88660TjAU7gZbT06GERNf0QV9oc79FLyp/FRPnMk8AlESSEOgBDZw6ARY/cKGDk3nHc2iwXjLBuyDAacjNfIkJv2j3m4Pa+pO/dejhmHajnF3iMw8dYMLFpiQ5ODmz33imH1WxIAAWfulE4IafrNEYWxCwyZHc6dp6+mYfCUr0AGcSJ1mAjSe42W+SIXj4CX/0hrfYP5/gG+wwSdp8fgW+fvoED+2SBVrYsONA8lcwoVeFSyaSAD/xMQa87IN/oJ8toBVdZMn+BGn2ijY2Yi7+zNGn0RHY+gQ5a+B0vKs4hQNs4/DQD7mgiY9KYGgCX+zBH77Mo3cwvEvM/Iidsik4JV1rhg0b1uQh+dg9OV5yXEhGeAKDrtg++JKWnSDa2LLTBrJlI2waj9aREdwSmDV0jnYnOHDjHzxPc/kEGwGLLeGNTThOJQ/HnXxDDLGOPODDL77omw2EN/E3eKJvcgNTUhFL2a+igozFnX96p3LCyBPq3LHn1vLFy2v5omU1r3egli5aWpPvnVLnn3N+Tb13SvV39dSxRx5dPzn8RzXxton16MN/rL7e/jrm6KPr+ONH1eLFC2vG9Kk1NDivFsxf0+YP9NW8/t5atHDNf6VX4BJsVfOqBGf/grvMR1E+43SJ5TNUX4lRisyIQY5mPUYp2iexPq90rk/QPoPT73zdmawmQbkUdRbueM09hzWqNFUNI3AH4n7AsZuzaxeVaHD27d12UJMYVGICYs6JrXEvpIHB0LLGERjHYbjG8erpDsB9iXsJ8/WZaxdELpSIXnSq+DgGJbuA97WYM09fa+DPrg5eOO0AnLkyKMYmAKDPfONg4pV8/EYHmWiOBlTRzl/NR5e5ZAePJzqdQ5Mx52fUDBINLmLDOxk6/wXfWnA4iiSkUhUU6BGvmoAoWDNqQV+whgsd9ECHzobhcemId/MFOUWBQEpXzu3NJQf84RMtaMeXIK54ERgEUfqAw12SNXDSCd26p7PGUaTdp8oSHPZjjjV4RhOcdOD+QOVNNoKQQGYnKtgLwJK6wOYcnp7As16DH4/4Y8sKLrxJUHRoDlmao1nvN/qtVY0qviQsAZ+MyCN3X+jz23x8ShRkb7dAn+yRbVlnLjrgwacxPsb/JBeB0W/6wp/TAdU7vUoydtkSARsAAw3kyYfg8PTRAbsT5OhcUESfPvNduJvny0h+bj19SdbigaTHP+gX/2QEJt70a+5n2aSkJRn5AAB+a8gODrzhWb8jd/xmx0dG5IwOtgQG21GASYrkhFZ0gQGuPjQIzGKFooHfmQM/G4GbPtkP24GTzsjVrtIcdqY/dswmNfTi0xgbow8nBmhEP74ldPDpGl6yQScfUbxKPI7z6diJEN6dEklc7nl8biwWS0JOW8QFhZ8kpbiiY37E3tzJrdPuU57nTmXsGWPr/iUrasXi5bVgYLBWLl9Z3V1z65Ybb6mhgQU1Z3pXffMr36iDP3JQjb9yfD360KPV39tfR/3uqBrtP9ngnPnuu2rWjOnV1zO3lixa2BLM0OD86u/rrYV//T9PQijDUAESqoyOSAHLX4QyWAbh+EtQzu6EAcrmjJsjuGD2/T9FyuAShQt4HwKAIym5l3GHQ+gqEe/6GJvdCqGDY+tuLSMG0/EMeji+v9kgaPAZPwP3nblmZ2XcV02egiDY8IPN4CkabEqnRE5iF4ZOSZSRSB6O1fAq6frwwBp8qp4EOPDNRwse0Knhk2EwJMajElUJwW8eOu384AMTr/gDh5GRHzlLluYbAxcusOnB3xFoHIJzcH7zGWboAJ884LLWfOvxK/nYkdq1CboqLdWZwGn3wtBVVIIi+aIh+g18MsaLMQFIZWj3IQjAYR7+4I4NxA7QZJ7EpnojJ3DQaG50TCa++QfDOHocy9CDOfgzrugBOzjBQZ8CQAKRDCRdR52CmqSkuBAYOvUHj99wgYcWwUYiUnQ5WqITfEW+aAhea+hHdarYIlfBUr91aMpato9OvwV8NiKB0yW7BNN8/KHJXLjMx7uK2s6LH5E/fPhTbLE5OwU6Fnjpkm9biw6w0ER/cODFuwpe8CYXPi+IsxnjsUVr0Y5PvJEl+tHLR9kzW+FT0Rv60U6uik1FCHroTaLjG9Zbp5lrLRh4w4tgnXEFXZIKHiUAiQRtcFiLL3bmN9h2DgJ8/vZM0sEfWeojc+vCq9hhx554Abe4JSmQoxYbgQvNCjdwycyYPgnButixuegxTsa+3LQuCdtTMmEP7NZ6O0EFh8TIjsVetqJQslP5x0kldyt/fdqpnHPWubV04dJ2X+I+RVJxBDZ39ty1/bffdFtNuOramjFlRrtzmT51el128SU1+d772n+Q8uCDDqoPvO+9ddABH6nPfOoT9elPfrw+/7nP1kEHfLQ+/alPtU/5bLkoSICRMRkhIimAMQhaMrU/3JG5VdE5g7X1dDziU9IYAkNJJU7wlKEPDAokTAFXJmYEFCDAEyTBW+M34Qvw1jIMnx2qMvxGV6ofhmAdpwDfWjgZCaPAB1gMV8Bm9Bwkc6y1Dhy0qWxUPgKs3QpnFbA5kPWMU6CN0YCtMWC40c/A4U11IykJtPg1Byz0aowILIHVbobBCSySIdlwYMZnXuSDfzJRsZFLdgHoMgYeHsFHl3X0Q4fkJqA63lNhSkTmCJ4CsGqX40vg5GcNeJE7OjQyS/BDHxswHx9kSw5knSADv/matYoV1ZadAlpjP+SEntBPXnBbI2g5dlD14ZPO4KYz8+jBXPSBZ8dpF0SfkhGdSg4SIFrNQSf5WG+d9WCiA9/kZb2ka5dH7uwy8yMPgQM8a9iyXZAdIbujd7SBizd6IQd91pAZP1ShSlzszBiezec78MWHBD6+IIGALzgqBuy++BaY6Has4gRAUEriBhMsc7yjIz4gwMfH0EDe7I+cQ4u1ZEQ/aFShS0L4tiNADxmBSTb0b541dKYQIkfyhdt7aIts2I93TYFGV2zcevDIyBGQuyE7ZLs0tJMz/6Ef/MGJXn18UT/Y5Kcw5KP0hk4+iR7j+LU2tgivJhGy18jDOnyaa13WeIeT7MRUPFiDJvSbBx590pdxv+FHoyTjyE9spdPEWzsUSUW85sOOv3yZaAf/9zuV5ySVk0af1I65JJGFgwtroHegFgwO1eyu7pp45901c9rMWr54WT38wMP1+COPtfuUoflDNXvm7Lr91ttq4eCC+s0Rv64tNt20Nttk49p9t1fWVltsVi7pt992m9pj91fVdttu24ycUJzxuT/gPJRkS0UYUTrmBRfnzcZc9tnhqObNt2NgZByU8XEahkSQHEmwY6QUbB6hSSqUS9AUECOIk8JN2IwUHBmdMek3X1+UDV+UlfW2ptbYZppvXbareLYGfApGH7rRz3CcuwpAdiq2nf76OI5N6eAxeLgYnj7jGjgCcr6XxxcHZ7zgo9PvrMMf2hi96p0hkpPASVbGrGX06LSWTPFvmy4YwYc3sNGFJw2PGjrBZOwCsGDuDN9aNKHROjsAdmCnSd/kJLHhD168wYF2z8gPrfj1O3qEH90CBtrhBwOdbEPFBx/Y+IxcPPFsPtqNa2iBxw4VHeCHHuORJxrwCAa+yVVR4CjMnZGjKefnnFkgDA60CY7WkbN3MgFbIJRoJXoBM3Zkrjlw49N7ZI0GiRbN7BxfYJKFd/Py1IdOeARyskEX+ZmjsS3rIxe4zAdbNatit9MgFzolUwHbMRi/BV8/OHg1TwObXZifPnLlo3wHv/wMvfhNwzM94o89gs3f4CFXMkRj/N96v+HHL/7wogAlOzSYG/nh3W/2RPdo4nfWoYs+3Rk5/rJToU+7J3PEGmvQAC5fgdsYXvBkdyWpmGNup1zxhg7zE2e8J6l4xzvZoQeN5uvzDic/hgcO8CQ8PNBh4oR51sDhmXjma0zHw64D2BD+HGkqcN0r2qmI1YpAR9j/VFIZffyYOmfsuS2Z+NproH9eTZs2o2668ZYaN+6quu3WO6pr5uy69abb6rrx17UdzGOPPFZdM2bVeeecW3NmddXYM8+qLTbbrHbaYfva/33vrdfssXtt8OL1asvNN6u9XrNnbb/ddi0IYNRZoAQhMEgSzpBdjhJUKllBxtGPL6fsaty9OAdmtCosRkkohENJUQb4jJVSjXMCSlfFWWN+FEr4jJOi9FtjrXWqdxULowYbXPSZ4x1Oa831W7A235konHCZyxDANN96uL0zBnAZuIQnqfiiS2Xr6xpzGQGDMp9jgANXaECzcQZOlgwoBsd4BSi8WZ91+EGDccmZIeIDPk+wwcy7fmvx47iMAaKFA2pgkSMc+IHffL/JRkB0xOEYSDUNtn50OFKRVCSd7KrAwmd0Qn6hBc3w0acihMzN18gK3tBlfRp8gpHKFgw0GIMHX2j2Gx50gQEWp3ZpSs7G9XniE77oEq8c19N6iUjVJ6nYoTmeUtly/NhZbAFt+vAAPhr8Jmd6TbKNbAVQ9JOLeZoxdKmGJTkwQgt68KcPfP3opmdz2auEZFxg1e+dXMC0Fg6JAa30RCZ2JOwW3fCjiz05efAhiMIDHHJBKzhwoyG8oA0+cAV7PLNHuPWZ5z20mKuBZSxJlDzAjjyiF7/zTl/0bZeFXzAiB2vpw3x40eXpOAxuO0HVuuLWaYmdWBJ+dIFXsqBj72Qb/5V8HIVLumCHJzgi3/h2ZEkObJUcxRP95mt+gw0OecYmwJJU9KEjdq4/9ms9HZKjdXjk1wp9tgCm4ktx636MHTv2slOxW5NU/qnjrxHDR9WZZ5xVvT39tXjR0urrG6iJE+9uCeXGG26uO2+fWOOvGl+HH/r9+sTHPlnXXn1tPf3E0zXlvil11G+Pqjtvv6NuuO762mrzLWrrLbesD+2/f31w//1rl513ru233bb9nQrDcl5JcS58BBPKVfHYUtkVUIZ5mMW4pJK/ZXC5y0nNtwUmdFUtARMYAyEQwtRnnEMSLDzgewfXfA7ECODSrDPmCY5tOUNgcH5TDEWgMTj0U4pmniMd2+YYBl70w2uNecbQrU+TCJxXkke+clOlploWWMxh9PCh0Xqw8Og3/myTrTFX1ceoGXB4xqP11niSgZ0DWII03aDRb3LjCGBr3vXlmFF16F1QJxc8MtbIEo/wolHSlFQYqI8QVLdkJMGo4l30OsM2H490EhrAZi9+G48jSWoCimM/881BJ97oxzxPv9GOL0kFv5KcuWSAJ2N+sxlPDf1gsgFVOXh4M8cYvqz3O7Ixn0zJ0s7LzZvEoQAAIABJREFU/Z/CSfB1lEU/6LEGP949wUKr9ZqEJjm4p7CDQGMa2iKb0IN++nDu7/iNXZMV+syPTs2HR78AJmGqnq0jQ/TQo/ne0ZX1ftsV0BtZ4EVxpyCUYPRL2I5KfCHp4wm7GusEOHjDM/z45BvmCPL66Mf9QGQMt/Vp5uDNGr5uniIufm8+/8S7MU+NPtgLuskWDjZJHuxLM4/9wiEJ8h9zohtH8mzXkR/+VPXmWIcvuCMrcNkI32AP4LMRfoxXNJoLdqes4UaDPvP9Zqt06zc8mnVwwE22eLLGb/gUw97JLbDYD5rgJnfvkas56HKk575KLHIUJqk4XZBU3PHxUUlFrE5ScQT2vxf1ncdfVTVqpO/8x1b33N7q65/X2vTpM2v8+Al19VXj67oJN9Q1V46v4ccMrx//4Md10/U31SMPPVpdM7rqtJNPq6mTptSZp51eW262ee243fb1nv32qwM/ekDtvdde9a63v6Pe9IY31tv23bcpgkH7PE1VrjJhnLI/odtm2ma5DBQ0XJQKOqofScW7r0Vc/AoogqkgytAYC0cBx27HGEOlFBlY9ehdn+ClcmQsMruEA4b1gqt3TsRowVOlUR7nEZhUZBKb4yDGp6JgRAzNGngYMnh4FEAFU9W1gAG3NQxe4PJJos+G7ch8uGBXBa7LO2vcBzimQKvGqdHJydCFRrTAZ641YGsMxrgxiQb/cKNPIPDbzkgVxdjQbp41ZCwxMUQGCQb6IwMyBgcOfEg0cEpuZAYWHnzRlONLlTvjpHf80q0LZs5sLZ4EHYGIDODQJ/BxIk6KLrtVOOHXzyE9OaJx+NGBds5GZo4VFQr4NwY2vZGBAM5ujFnjCQfZoE3jzOaRseqOrtkd+oyzRfLx9ZOjAztrdiup0FvgoE0FSjZsCqx81EHG7nHcP3lP4MAnGcBFrhoazWFbLlnhVdiwbzpEawITmyNPdkNfkqXPS93ZoYMMjOMhsmADGhmRnZ0l/shdoPFHkD64oU87bElU4PUxBnukT/is1+KTaILD7pqM0azyJ1d6Mdc6uD018+0YnGjwW3xHn2jXzA8stsgfJT16ols2ztf1kyPfsY4u6FGSRbfYwzf0a/TjCMjRl3sV/JmPVjrRvNMJ2YIDP51qZIpXsQA++scjOaA3c9FoHG34i31ZT+biEhn6DYZmHn6ib3FJv9/kRqf0gA94Ehv1gYc+dNld+hLTxyaO+nxx6+n4yz2LXalPniWU/J3K/5lURo/239o6p7rn9rTEMneu/0Bgf91776Qaf82EuuP2idXb01dzu3vaMVhPd28tX7K8+nv62w5m2eKl5b90vOlGG9cuO7+s9njV7rX3Xq+rnXbYsT764Y/Ur391RH35S19qzKoYJBUGaEvlWAsDDNYRiWqd8hgrQxVkOaY+VYJzPdszVRmD5FC+7lAdungGx2/VPqMTABlFEhVnYji+7rCN9TGA4zgOqaJ2Hg6uRAAe+JKSC2pfjNkKErKE51NfeCmSYjzhsV6CRKesj0cXt/jzpZU16DDfPF9/Ca54t4vzNVRokMBUCb50ghOtqgpKlijJQeATIMDT8O6+RHACG2/eJSu/yR1tfsMj6HMiayQ4Aco9gGMpc+CRZOEhU3Lx1GeuC1yyccwT2ZODu6LgkUwEHH9X40sTvDhOUO263AbLXIGFbOjRJ5mMHB1wopHu6CSwraMfY4oNsrLOGnzTJxkpVsiAPOEhdxfL+PW3F5qvlsyzJvDApHt4OCUe2SA9cES/BTqJHGwN7ar2HGeCK1CB4Um/dMgWwHEByhbJ386BPFSMbFcQRG/smVzZDxho807m5AEvOtBOXnijW429g2EHBD7ZmK/fXLrFN7uC2xhZmAc+PfvNzgRIAUjS9Nk//nyMQJe+GkITOtAEJn2xITj4oqTATsE2x5h55KjSBh+f/FGfdeyUvpz74wEOsjcW+sGyhp4VKmwdL55oABP97EGSF7Stxxe4GhjkhWdwyR5NLq3deSqG2JggzxbpVOLiJ/ghWzTADy4d4Qd+uNm2NfAai3ytD16yA9OT7XnyR/zTIRlKkIonsMUhPOGHvBSg4hFc8PBVjcytZVdsjQ2xR/Adf+mXIOnenYovUX1SzFfxYrfmM+J/KqkcP2r02p1Kb99ATZk6vWbO7Ko5c+ZW9xz/SeXBmj9vQQ30z2/JZub0WbVwwaLq7e6tiy+4uFzau1vZa8/X1Lvf+a566VZb12abbFqbb7JpHXTAgXXNVVfXQQce2LaqKjOG6FiLYTBCzmcXkuMfyUOfRCLwCLiafhUD4Toa45SCLeZzoSTg+ytgApAAzGMEDJADqxoFA9s7jmHnY56gCIaA4aLKOvNUJQKALO24hpDNEQhkcvSr1MCVoGz9KcEctIKvSjfXVhJe7yo9dAqAgrJjEvxKKhKRoOQdLY5S8C/RSkw+9fN5LHrhZvDk4IlHcjHHkRO6jfmiQxPcydpfJ+MbHy5W0SB5awwKfOs5EbrBlhitAx+NZIxmO02Jkx7whkdrvMNPJo4tVe8qJbsQhuw4k/zQDL6GDmsVHdm5oQkt1uOFXOlGo+/I2W4Pb2wGPdagGQ228mi2xQeDfugGf4IhnjU6JmNyQRedmu83+lSqeMEb/nOZ6Z2+wIWPDCRRMteHVnTSF90Yc/ELN/2GXvTxj8jEWb41+KD/4EMLObET8rXGE61owRu5kS9b09g7OeCP7ZmvoRcOuPDPRtDKPuAhR/yya3+4KYmY48JWcFUoqrjhst7fSvEn8KIfstHvk242j07jdML++E+KE33+dICvkZvCQiGC7uf6qqMosMHDQ/6ugr7Qimf9YJqjDx5PtEW2aKEn/eShZa4YQJ90xV7YBB7wSE/w4z36p0Pypgf04o8fww9ncJiDTroDE076pBs+JlHDTQbgaObDC78k6J1NoCN4yASP1qJFM8/uV1EHHl7JRLIKHslQYkOPgh5cMkezYoOs7E462/Mefw0fPrJOOeW0mtvTV/MXDNX06bNq6pTpNXXq9JoxY8373Xf7T6zPbElmxvRZ7ZPiqZOm1pjjx9R999xXE++YWMePGFUnjh5T+7xln3rp1tvUNlttXfu/f/9277LPW9/aqhEECz6+6pJRGaxttCQiKGiSC4fjvHYqgjJlCmB2Nea4wLeOYYOV7Kl6krD8NkfgMk+ff/pVHGCAJwgJ6BzQXH/s5jLKxTm4zhDBkdDMF7DQZp2/t8l8a8zVZ52n7/jhFnQFI+vdncj2yfjW+/6fAhktZZJFYMOtZT3cPj2GA+9w+nYc/vBpTLMO356Z66MIW9is89t6QdwTXrxa591cNPr0Fw791mhw6Iu+8En+1sBnjnFyQL9AxLBVbByQDgRLARUu8Bis9dbQiSCFZ3ILn2RHV/SIN7zAQ2fm0RF8aCUTfXgiZ3DBwRN85sbO8BiawdXohN7CD1zwskn8gGeNuWgIHWDSpcZm0YZHNIHliSYNrWikA/SQo4QaO2e38MKBRrTDqy/JFwxryAV/7Bx/kRkarTXOdskW/MyPniNLsgIbnWg3H21sj74lYO+CoWAk4cBPJmQmabJjdKLbXDTC6R2/cES+3rVOncauyJKNkJXgrsCiV7aGNvP8xiMZg4MWOOjOfDyjwxwyYWf0QF/4RKs5aEMDXNZb4x1fkgR75Kvmko215kTvcJMpnHRPDmgBE73GPNGLdu/Bby166V8f/LEF8+GjJ//wiS7yxD849I2PwPW0JnT6bX5wwAcPeSh+FClg0hM5KyQkFYWknZfkkjibxPK8SWXEiFF10kmnVE9vf81fsLCmt/+m18yaNWt2TZ82syUYX4PNnt3dLvFnz5pTfXP72h9HHnf0cXXc0cNr4u0T213LheddWIcdcnjttututf1Lt6+dd9i53v2ud7fjJJkUgQxE1nX2xzkJXmWCEdW3DC7zq7YYr8RCAARinurKHFWJSkRVRQCEYj3YqTIYvSqEgs0jGI0TeIKlX7JTlaWysYbxeKZqMVcVoU9FkcrBuHUCpHEVgN8aGmV4a/w2V7XBQP0Gw5jqleHBoZqwRmWKT3SlwiQT/aELnFQU3vXDiQ402nGYT27w5UleCXpkHeMxR4MXDd7BQoM5cIBpTapZOjUXbPjxBDe64DaXnuldP1h0zcEUGI4nrJXcGTf6g8M8PMOroQcc/fCaSzZoMeadLOHEA1nDhy62YU50R9ZaqjnVm2rSGvDMN86WyEu1hzdygAd/ZENfcPgd/HYf+DGXDYKneWcf5uMZ/WD7rbK0C5Bw0aviRIvfKld0Wo8mtGrZsaPRHBWsqpVs4NHA8GTz6GfrjkzAt8Z8Y3gHE26y08hcJSuo4B8PbJjeJAS60EcOfJSunApYAyd67VD4mjXG+alqWZXs2E9cUFmjR0MHHu1e0As+/vCqOnd8a0w/evGKJr/htJ48/cYf/E4bwDbfGJmAaT65eqYPn8bQhE5wyEQBjGcnH46I7D7sosxHL1rhC0y6dGzoZMVOi0zwgB42A7515I8fcxzd4U/xhWZ6IiOxBR3REzzsBTxwzUEr3TryQxvZ48OayA9N6CdHR15kwgbZKzsDDx56Yv9sFF8KB/0ScRKK5/MmlVGj/DelzihHX30D/r9LprVdir9TmdvdWz1zHQ/4fwKbXnNmz63u2XNraP7CWjy0uI76zVH19n3fUR8/6BP1w8N/WN/82rfq+4d+v9649xtrnzfvW+96+3613zv3q2FfGNYUgWHHXi7enIUzSkaBYMqgJIwJDLK0CkGlIvEwWgZgnctF54ouoGy9XVb57QLNpaYvJnwF4gI3l3q+bpHICIjhucxy+erjAWPWucBy6eZC0hm6+c4aKUmF7TLORZnzTPNd9rlYs84FHb5cjlEaXp1vO6cEB62+6oATzbmQ5LCqDZUkQ3BE6BLNEZEzUPg6L3UdObikhRsul5zOfZ2bCiqCtEtAc/CALsdOLorBRa9LTefGDBtOd0jodNFIvmgFI5erxpzfMnjGxxncf8DhEjh4vOfSFJ3OhPGnMBDo6cIXO86qVUn6XRbi0z0IecHpAtlZuzsKfegle3w4i+bInIgtwU3u5KahH23k5tLaGBoEBg7oHJnu2Ae9u5j3pBsfCeCJvNmaYOmcnJx9JGCdew/n187lycg6NDsiYCOaRCFpCgZkSwfk4uhPI084yNlav+mTvODkyPQf24Qbjdb6aMJXO74EolN40eoOhYxc7rM3Hyj4+AJ9GrnDRaYCuUBDfvzAmPn8hV2yb3LDX44r2ZWgR3d80q7GnQDa4EyiwS99kSOawQSLvPDHLtDhfkBwJC96ZRtkQGfWoB1/aPPlExjsFR3m8Hm2Q650SFbWoMeRHP3ydUnEnQZYubymZ19JaWTjaygxA73sQ4Bnd36LK2DYxTgxcR+HTl9xoQsu68GHGw1sWQCnB7/5O5mGVvOtwyc6ndqglY+hjTzFFHLKRwBwBpdx/s4f6dwXXmCSe+wMb5EjHVrjniUxyXyNvyi0+BQa3W/Rrx02nfJ3tCnI7MqSVJwYPG9SOeXk0+q0086ortnd1dM3UDNm+r+XXHP8JZn0+yKsb6AdffX09NXsrjnVNWN2zeubV/fdfV+dcuIpdeQRv6nhx4yokceNqpPHnFLnjj2vrh53TTkiu+WmW+rssWc3Q5YZZXlECjIcT6ZU5Wmyo98ypW2jbbcsqkKw5TTGMCmK8Dk5Q/HMl0qMiwAZGkUQtIsvTiPQCIiqDusYPiUIGsYEXe+CNGVxOEGFcFUNLucoWxCwlqGDA4dLVV8ZmaM6UD25OBPEwUajoMvAPBkhZ+LYeJVYVLqcEu0SJFjwoB0cDoZPdKGbwTE8F3MqIslZhcPhjCVxoRNfAhn68SkgSK52ESocTs2oBC3OAJ/f6LVWclVhqWA5mctBQQdv8KAHbDzBh19OL6A7DqBvPOljuLbrdmcuRM33dQ+ZcIDokFOThSBCl8Y5NfzsxUUzeOSJfrJAB3q8C9oueQVp23o7B0E4eouMzMUrXZKNJMf2FDWqxjg4OYRXc+H0JG8FEdj4QRsHtFNzySnx4YH+rMeLd41u/QZHIrHrs0O3jg7wY30CNX3QP9wuXOFSdPEZydgasscjG2Y/dOQ3PtDHj9gamtkE/s2ld3M0eP22TlXsAxv8CdCOgehPkCIvCYNPKQQFU2vyCStfwbsn2sjcZTVbBQcNgimbEOAknciWXtHFr+haEZLAbj7do9088mF7iiw8kZPkye7cFSiYJESX1/DwLcVHvtbCMxvk5woQlTwZgCNmKPrEIj5tLdvEo3V8kg7ZquYSXMCnI/zij02hD63WsAN8slH00YkdBzukXzFIY3OauRp9ooncJAO0iIVo8REE+sgwMiEfjVzsDunROzrxIKEp0MRmPi6OOMWwo2Rbihx65/eO+SSVHOE/b1I544yz6pRTTm93Jo7AZszoaruVSZP8AUxX67d7cXHf1zvQdipTJk+raVOm1/KlK+qpJ56uPzzwUC1dvKwee/TxWr3qgXrowYdb+/3K1fX4H/0H8tx1uDtZVU8+8WT7vWTJ0hoc9H/5ObMFtqGhhTVrlv+3ub72W7Dr7p7b+mROBms7RtAEKKAxOMIjNAFLVaFaTZUsAXEijVFxfgFYpcmw9UsaHIVD6mNk+vKlhTH9lEUpnD0wjMHBWAVpCYFhwkXxEs2wYWt2acZUWeByCP3gUKQg4jyTMgUKBsewGBCaGT9HwBsjkCRVHN7BUb2jm9EJQMbAgVPzVQv6BWSGZ1tuJwU/WN7xhS5GSj4qNg6IPvzjzzjnJXN64DyKBPjtfMDwLpCriNHmyxZOyiAdb6ninRerdO1Ufc2jCOBwZAY2R8OrYIIvuNBDzuDRm3H61ocueI3la5f0OY6xG/MUtPGBZrrJVzb60Uw32SGBhQfyIE8yFNjYBvlxNPx6p1fFgURrnZ22c2+B1ho8Cexkxz7sduAnV/YDP9x4Eoj81q/hW9CBlw7RZ5zOBBZJmzzw6CIcXDttgcw8dq2RD1sgSzbCRumPnRjHCx3ik07w4QkfXtFMP/zMsZizeIGHbhVFkqhEjJ4UL4IX/Uk6bA0v8NGBwhLPZAC3YshOSD+6yA09nooIhQ8Z29lIXHgnS7zSD17pyzgaBE9Jj0z5kHc7ecHTyYMArumzy9OsQR+46NLAlOjxp/DjE0lanuSIPzTQF3uRQBUMEi675k98gb/yZT7In32RJvmwWb4JDpsnZ/CsIUMw0cFGNT4JLt7NT+JAOztnL3THNjU6ZSP4ktCsESP5GZ3YtUpQEocY5HjZzkQx7SnReHYmlL/fqbTrnjX/M2b0SXXyyaeWT4kljnYh393TLuklFruWLruTWXPamLsVX4VNn+b//9nFnP9707k1VeJxPDanp8037k7GMVpb3zWn3ctYn9bd3dM+Vfa5cmtzHbf1tk+YfdacNjh/sCUVjDFOSuOkGoclKELWZHUVBsFROAUwXtUTBQnYDJ0RCkichQI1yraGAigdnlQfArb1niouiqR88yldguEEnJnTUhjcjCDOxIgYCgNhaGg0ZifmEpEy0arSVCUaT1UFHiOFC1y0M2IOyHA4QJyBA8UIPdEmgKKNvKwVYOwI4MKHAI0ncsITB9DwbIxhCUyMkTGDyck1fDFk7xwEfPSgk5MLPio91bGjGhWqJONIU/BSycIDL/icFS90A5agR45gCTycJLziX+BDDx0KqgKn8TgPPjhsqjxjbIe90BVHFywFIO9g0BO4fsOh5RNNehbk0UbWdAk/fjmzXYMgpDAS4ODJ7pKtwoOmJHVwEtzxQI766FciQQvY8LBdyUmgJCsVMns0Fw92c3DgC/9JIHTIllTM3o3Rp6BNtvRAznj0jh/z0YNfNLANOOlRUmG3jk1yPIRfwZmt8h22hl4yZHtskW/RHzthI3yObMkTD/CSizUSLD3F7+zqHP3xcfTEF9kLPiMX+kc3eVkLBnnBA3/8ET3wRzZiAjnzB0UrOSoU7KoUQT5WwIdilizgpUv6hYu9sgf2Q75wohEt9EkW6AFfjMIHHHYzCqvEFWP8nAzEAbsXvGn66AV8v8HQrCcTPoIveqIH9PFXMjUfDrwlnkhmfFJCkWDt6hVDij+7PMdfEp+jXBf12aWsSSodiaTz1SX9mDEn1cwZXa1JKoPzh9pnxIL/5MlT6957/N3IzJIEkhAkIQlEInHvYr0xicRXYzk281tCkliyNs81SaW33d24vwETLH/dn4Sy5rnm+EtwEhxt2xLwGZnfhC9Iercd5MSUzVA4OmUStCclJwgQKkOgEIrk7JzK1loQ4qSMWXLxm1I0io7DMhaBNYGGAWn6VMUCMsW4a1HV6qd4xg23il2QVSWgK3gFfAaBZjgZG5yMl/FzQkkIf34zePyCS04CEicyJ8mNQXIGzpIjGLLT/MY3Q8STIM/pyAjdzorBFnhUl36r7lz+2cWpMlMV4R89qlLGqRKiG+e4ePDFiqQiuTn/dYRAP5wQzwIkGdlxCAYCLdzkqEpPohHw4kh0qB/v+KQjdsJxyRB/bETjWOiAk97xjWdB13pVPzxwwu1YRKNPvxP48Uj2EpWkL1g6JhGEJBe2hCc6ZZMSN3yCEP3hj37YhHf2wF7wDLYASZZw0DuZsFFwwFQkCXBw45PNpDgQvPCYwAIf3YGHR7xI0hIafHRHnpINmdK7tfCyfzKUCPAnqUjU7hGMOepzosAHBF2B0jPryRF/EjXY8PiNJjZCr2wSXfgGm5wkJvDZv+Ij90rkR+Z8nJ7xj072yg7YPl7hIzt6TRL11OAXC8iT7gVadoFPdKOf37Bdd4B2YmDDR8ZsJrJPAhf00Y0u8NBMZhKN+QJ7kgq+YhPe2WrsBH8SgYRoDXj8n0/qp0O6ZVuSClr5Pr7IIHEDP8bYhTsZayRRMQBcsHxI4X4LbDIThxQIjr8kFUeBbPnvdyqdmaTj/bzzfH0wtu06BH/B/f4Vq2rVqtW1bNmKlhwcd/nMWDKwO9EEfknFl2Fau3/pm9d2Jn7nXsYnysb+f5LKjOkzWpWASYJjBByBAgV9CuUcnIRQBRTKYogMjdO6kKM4AcU7ZVEioXNGhsJBKY4hcW5PRsTwOIttt2DK6Bm7Sso6ymE4DJPiBC/GxEAoHVwBFa1wmq+f8Qr6vhRyJORjBTgdNzAq8wUVNEg2+IaXgXkKxIyDTBh5Lg6tY2gSBT41fOpDMydTYXI0xp7jAIFFIAEzVQ5aBQiGSN74wh/Ye+655i98I+ucK5vPcRi3YOkuQ8CBDw0Cv08dJRbyBE+AkJzgSRUOBtmBR86qMbShGRz8kyd5CCp400+fnmQkuEh4EoSgKXipzsmME2n0JomBTWeSHBoEOL8VKeQHPnrI19MYuVvHadkbp3Rs4BNOR0Pshk3ayZG7JIZXNJIbmGSJD3wKmugha8e87JX+zIXXulSy9Mbh4fAFkYoTb+wTDPYlkOFFI0M0K5LIh13jn07BZ5MpLswFw1MfnwFDwBRwBFk2aczTfYcjXH9Iyhfog1w8yYp8yNATPo1P0CE85IIu8NBoLtujFwWNoyr2QYZosCOShNgIGdI1+uDEB19He/zcOLrYF/jwe+pn6+QAjn6yAYuc+Z8TEvrEN/0K2IIz+sC3nm7A0o8Pl+R4YTtJOOZJQvB6F5cULzn6k3jNNU4m9IMmOjefnXsHl9zgQCMa2J4kiSY42RPZaMbJnR7AoRMyQif4Po5S2LpekEAVgY44JRI7GEUOm/b11z+9UznuuBEtCQwMzK/BwaGSRPzHJCdMuKEljgWDC9tOxY7F36nYlcyaObvdufgtGbWjr+6ecmQm+bQk0tXd+tsR2Kw5LeF4T8sfWK7dsTzPTqWvr79dRuZTSZnU9sxZoMs4X2s413Uh7PKXgTMEBk4glCcgdQZbionDCgwEzdkZlODqSyFHF4KeoCSbOysXKOw4BBxGzaEEScFTAoMnDgoupTMGygSbQaocGI1qjcP4vlwVYOuJF080M+j8tbezUjsDCUZA1AQNSUDlBwcnZSTeGS8DE1Q4poQk2aJRxe1yVxCyrfXtunsdx28qcLjtIARDlQy5CFwSLYNnkJyXE3FcDslZOYREgiaykfglesbqbxYYq6MSFZ/jIV+YOBuXWMnc1z3krbrnYGQkgCQgkiW45M258Ag3R0ajwGQuHq1HMzsREOB0bGN35PjN5avkbQ7c+JWA0E5XSbjRWfglUzIgU7ySDxtQOdIN2bo7EmA5piMFH21wTkHRrpLeBTh0oxXt3sEkQ8EBLwIcfpIcVM/GrVFECQQKEnJ1FMX+XbqyKQmUXbATuxtyA4uds0u6o2e4BWDBB2/G2BD8Aqg5bJstSmDs3iff/6+0ewvV/DrrOO6d4kURq8VTqCheVileVomFBCrEpskksWicVKymh9TUGKq10CaZSTLRUCQKiihShBLBnBrFtEnqTTwXvYgVSxi10LSZTA6TzGROe0+WfP7v/u5Z87r3dLcdWLPWf61nPc/vOazj/33f7UM23jWISzj40wcbxKgkdshlT5hhpyP59FEWR3xq8nRiMSZbzMQwLE4sxnnfD/MhGHY0+bE9XGTwhT6w858xiDf/0U8ssYU2csg22RqLfGtc8okNi5hiFwl/vvOOTAyxiTjhc/bs9EE//eRs2SQOkw2F+CCHj/WB1ybV2BCj9LLA2Eyygc0lH8Jl3OILc7HQ3MK2LTTGjXFo8WBn+PhRnU2KuMFHH/a3iRHnPiBl0ydezQE+DGEBtajA5QbCxtB3pPa0qDil3HH7wWWBOHLk6HjwwUfGvquvHT/4A5eMN33v9433ve8Dy7XXl7/sr7z9+7JIyF1rWVxcjzmZeJlvMXri8c8vC89/fvG/xpe+9Mxy8nEdVnKN5vSif8ki5NSzfgXmfY10+PDqi1eO2AatYDLZWDAYkoMdoU16BpJPKVlsBB/HuaKxG2Z8g6kHJ8H8AAAfeUlEQVRdkEmJowWWes4QECYbAWi1d/KwS/OJM8GJB6cIQANBEJjATKACwA6igYMvGRzIufoJKmU6CFA4fbLNJM9xdtKCVkALBpOSz7Zb2EwWJiWy9DXA6S9oTQgmITkZ9BBUeJAniAWrZ/ZiKzthOvaRRAMPnUnbtQHeJlsDyw7YgBPMBiO9+ECwsqG+BjearllMRvD7kIVPmsFlUBgcFjTvWbTDpQ896Whho6fJ3gTL1uzFjiY52EwWeNERpiYHkwY5JiqDkb70MMG1gzPhGGB0w48t2BONwc+n/AAHPfE2GPmVD00KfE1/caKv+HMa8iLY9RCdfaJHLPYdAvFqYhZfFk/92EvOJwa4yZ9smwAbFL4zUYo7kxb/wEd/MQuPxYzP1PGNOthMyHjS1TNZdGQXvoJDG/vhq41c/dmEDflBvThxMmpXa6IVa8YV/zllW7CNN+/4LHpy41F/pye+ksjiO1j5ip/J7STG3tr4G1Z2dwpmg05Z4kTcWSDYiD/QqxP7dOVLfmM/ccRH2sUf24hd7WSwKX1bfMWbydSGxxWQjxTzK5u1ATHu9eMX+sBg3BoLLYpsaRNhDOUf+PSho9OGcWsRMneY6G1a4IeHbdm5eQRmPNmN/8WyeQl/8wY/o2dPdiYHLvqwIwxsoD/sNq0+5IHWqwQYbAhsvGwSjFPx6JbIly/nK7Bvm268Lij+2Z/++bjjjoPLO5RjL786fusjHx0//Ga/cvv94w1v+K7xoz/yY8s37p/72vPj8OH/WSb/5dNfvhC59RLeacUJxZXYM88cXui8U3ESQaO9E47FxafKuhJzyllOPd7pfGGVarPY4OETYnZkrmwYySDgGA5gJA7lGAHOKJIBKdmtCGSGFUgCsMlPnWcDT5mRG0wCg+EFnUDhSM4waZmo0OUotCZFA5Qz5ZyvnbMEBv7KHG+AmSgdWdWbgFx/2bV4FiwwSgYkWYJF4JhA6IEObm0WF3X4ojfRwdNiJkBhJtOAwAM+gQ87m7KnZIDhxRb4wEuWic+A0y4ZsJ7ZrwnMs8kNfycAk7mANAGZNAWt5IQIt9OliZh9LIyC2eA3mNiK3emRjvjCY7FSz77pzeZ0ZCM+gBF+9fyIhz50NanQFe50Yzv9yWB32E2obAQHbHiKJfYkg2z2htkEarH3bOdpR2fnB4/++BdL8nxJ1/xssVQ2WfGV2OZbuMnkbzqRByvsxgIfaBef/EpnffTFy65XDoPrI3LYUR/02vBmczbBTx88+NSkKHlfhKedLdy+c+X7HTYleNgUWYjDKtdfLp7YSyIrndiBb+AQi9krXHQ0SfIDHsaGOljRWuDZSplu+MLGX56N2yZYuZhBy5eNcf6hN/5h4wcYLHBOSq5qndDERacgMQ1HCW98xbM4UdbG355hUUbHJhY7iwW5MMOjjk7K2Yq+nvErlsSpdvZtblLme7GNB77o1cMqZtSxUZszNrLYGJPmIwuUTbeP0vu0m1O2DQLd/dvTonLffX84Dtxx57IY/Pfh/x3X/+L+8cbv9qkg97yXjEt+6M3j9tsPLL8B5krr75/6x+VUsiwSX/i3ZdHwvsWi4nfCvvKVr46jz784Xnrp2HjtNT+JAMgqbW6+PjY2/ETC5jhzemOcPnV2lU77yRF/E9zPgviZj82FDv25zTGOH1/9FIaTiiOhQWHXwbAmSfer7lztIpxO7Hgdy01sjuK+Lave9ZlPcjCYiQmNk4L+rrvQabO7cjKwK7OzdCXl2saiZrfptKSfE5BBpI++dmnkCUI7Vp/v91FICX9yrPiuXtC5B7cj8H7BLwb4OQYvzPTvm87uW13DwUIGLCZiZTtgV3F2kD5PbscBm0nNFaHrJJhd2bEJXdyN4umojaeJwDeN6YvGRGj3Aisd8GVbtBY99iMPTvLZgP7o1NmZs5UEGx1drRlEXtJb6J3+TFCuUJxg7HLt6tnWxMyOeNsp0tVOsY/PaqMnbOxEN0d0/lDPtvSgI0zslI3o5mqxb2KzcX5mKz5xcuIv/Mm3KGZrdqC7q1Cxo0wuvdmd3XyYxAbBp/lc2cDA99rxlPT1TD6cymyAFh58Xe+wAT/R0+BGa+eILj/Qn17sxPaupIoTvqcrXHjSnS35VkyxfeOB3ciAD14yyTKm2JUMWMhwzWahdnr35T1+NWm5zqST5KqRvZwo2JSN4OdHthYXxoeEHj70rq1tQsQqnMYsmXRgdzjEHJvRE70xwQ5izgSoje58Qx4b8KnYgQW/fAwLm8DG39mYH/Aiw9UeX7rCJUOckGmcsY1+cnLoxRd0QGsxZje2p6NYpC97KBs7sNLJ6ZV8/ejOdrDhCY8ktvlEXPKRGIEFVjGElp70I8ccCI8xor8bB7bEBzYLjEXQicmm3ObcpgtW41OswdmHT/a0qNx77yfHxz9+2/A+xUTv02BvectPjO/49u8c3/PGN43rr98/Hn/8yeGLj3K/A9YL+6ee+ofxz//0r8u1lRf7Fp2777pnXH31NeO9v/Jr40M33Tw+8P6bxk0f/PULkvo5fex3/LLobeMTn7h9SbfddseykDlBHThw57j//r9cdvOcavX00b7en9hBMDxDGszulk1OnGWiFnQWIcYwgVuZBbJBb9BoYzw821kbHN6fGGDuUX1xzk7UYHPEN+A53KD0wtKA5CB36YwvQDjQ9Y5gN4GabASnnZ5dPvkWSYPTJOPe364CH/fxdoN2JoKV3vSzuxDI5FgUDR4LkoC1exU4FhNt+Gijh8ChKz1NJnZK2pyQyGQrR1sDwc7KOxb/LNiC0H2rAWOHZ9LyyR+Dk57u0+lvt2hw+NihgLZrNqDdw9JNm52V3ZKFmAyLKEwGORwWOD7kBycX78cMMHjJYE8DxMaCnS1EygYW/1n4vMNhA0d3Gw+DMz84ReDjqtGgcRIRP642yCNLfJkE7Gr5C0Z2Rw8bWWKI3j6xZ9CyKZ5so82kAx8sdrwWY/4nw4DuOx7w0NGJjb8sqP22F/u53+YnE4ZJG07xbTdqMYCNLHzojJeTokkArfjlTzGkjV4w8HufpDQheafHV3a8NgBsYEcrpsQFWU4j/ORLj/R2324nbwduDBUzdBPPTjv6iQc+sFsWXxYFdhcjPiFnDIlzct3l85kk5tkYH/HupkI8mnjJR+sWwvgik/2cltSzEWzGjLiA28TPRt63OsWIQePaQmVMmuTFgjHu1MAmfMie6PE05sl0Xe0fnxgD/GDsuZ7zcVw6i0tt5NlIigNjkF42uGLK7t8cwH/8yNdwsJVFmf7k2+SKPe/OYGVD/nTCM5fAmgy+Frd8Z0yaJ9mIfLELu7nMqVVcwsoGTis+oOKkYv4kz3sVeMSleQftnhYVL+lvvfUjy4nDFZf3Go899rnxwF89tPz8/bPPfm2cOH5ynDhxcjs/efL0OHXSjy+eGqdO+XG+0+Pll19ZPor8Gx/+zfHWt/7kuPwyx8AfH5dd5os+P7ukd7zDZ7kdg/1lxSvGFVdcOd75c+8aV1551bjqXfvG1Vc5vl6zvNPZt+/aUbrvvj9YDCpgTBZWc5OLYDPwGFDw2YWbYK22HCVoDCL3sYzCeH5ewUTJOIzlOMohJnHHbE4UwAagQUaWyctO2+SmbFEyOdpZCSKDinw7PS++OUiAG9gGuCszAcSh7k7x8o/z7BAMMAPZ4BIoXfU5GgtEAeS6wsQrQGAwsZh8BY3JA087EzaBUxCZTAWnqwOYLYgGjOtCgWjAmbxMjJ4NAicJwWRBxsfgYHO62sHQEa1BDBP97Y5cS1jkDEyLFPkmaQPeRASLxZJMvC2qJlOLioHsSsGk45+B4hpCYDdY5ezH1gaEAW9wsTtf4Uku/9lIWKDYE73BasfJv7CygxjgezFlknX9oQ4eennfBLM2cWASsltlR/3EGjuJITLYweaGTLtAfCwG9LAJQW9xNzGxAz5sZNHnb9j4lK342LMJgq0tThYrtkMvtixy4oJ815z0ZU8yJdjs9umFjwnVhGzDYZNgcXXVYsI3Tkx0ZFgsxJRrtmwnLsQ0G/ZDjF5c86EJjH1trvwzrsS1eLCosJ8J00JijOFhc2GnTa5xzJ/GIBtaBMU124s5urEHm8EnXo0rC7gxaKI0qZsDjA96i1H9jD2LHb/yIZ2NTxsGE7V4Envey7CVucRCYaG06Jp0LRSw2xh59+OKiL/EkLmEjfiaj4xXiyQ96G9M2siyrTnJYmvz4SrZGGQLkzZfO32IL3Gmzdix4NCXXsaC8Q0rGWzgSsx1Ln9ZOF1biW++sVm1QFiI6G0xtKGBXfygZbv8ZyPt5ONkYi5iG+PeuDPWzTn+7elFvZftDzzw0HLi8JJd+dOfvn941/KpT/3F+OM/+pNh4ZmTH6G89/c+OfzVyHsO+VTSgeUK7eDBu8Ytt9w6PvrbHxt+/uXQ3Y6bv39B30OHfndId999z3KquevOQ+PggbuW/j4wgJcTypxuvHH1t004w4RjtRb0Fg5ONVgYjEO6DhPYglW7AWi3YXDYVRp0JlcDUjDpjw4PZcErkASDoMdL0l+9nZQ2C5ZnA8ROyOSszilFAJHplOJZH7s//Ex+7qzROqKro5vdP74mNXrAKtjoZSdpIjLgvDw0getncBhQaCQ7IINJGxkGlEXL7mT//v2L7iY2MgSLQNXPAECD1kICG7vhYyIyaJTZBzY6xxM/ttPPLosdXCvokw/wg5sdYeY/vmR3eNXTXX8TnQEs4Q0H2/OXMvuxA93yH0zkszWM2i02fM0m7Mh+Jjjy6cy+2c9gJENM0ctCjR8ZbK2OD9mMXnwLs0lJuzaxIA4kZfJtCuhgsUPLx7CxhxjhB/aFm33pTJaFAHY66+8Uxn76wk0GHPDgJUfL9iZjfenKpnRkHzYIKznsTAcxygd0xgst/PobJzCLP/JMyDY+MNNZ7JmIxZZxM8cfGfSjD8zo2IGubEMHOJ2W4GBvNoEZf/jEFZ3oB6M62LTzIf+LIWWxjAf8NoPsxqdiBk/24zeyyYGLjuICb+18wGf8zm5wNbfoZyFQzxZO72zKfvRgJ/jIdUoig450N+nT27hRjxfZ5HomV1904gS/YsQmxTNdlOnMluj5zJjFy5jjJ/ZhCwuEsYAeT3FBHtniSR+06sSb2wT88eQTdrExsMDZ0Dip7GlROf6qo+y/jIcefGT4cUmT+odvvmW8+92/MK5851Xj8st9e9PHRc+nSy99+/iZS73k9gklL7F9t+Cnxtve9tPLaWO5+vrQzeNX33vjuPbanx/XXedLfqvkWbrmmutWaZ9vf/sDU+9ZpV96z7hh/y+PG244n/btW72As9Oz87PSmoQFt0lLoApe7SYqTrfw2FEKeoNNveMgOsFvV6heXwPHZGZgGBTo0Gsz2ZKjzYRDdm3ae3GqbJcKgzK56JXxxKOFUPA6BZj0BZx6V0vpAhs9w43WcR5/eOxwYYS7UwkedNaPLO3a0MOkzbM2iSwyLXTs5Bl/eAWs3ST+9FbPZgZrPjCQ0XpGg6ddMez6sRP+ZMrxg027ickzOerYiV/0t8OU0wdvbei8rIQRb7l+7JBO5KHXTyKHjPxFf3zyXZOhevLETHzV8Rkd2REGdsKTLmIlXcnSzj5sIC7JQaMPjDDrC0v1+HqWswdb4mNXqg5OfbXh7Rk9+cnh22yivgkffj5DxzfsIsFFDj766U8W27InW5KvnV7ayIZZrKoLJ1o7ajLiAy89yRG7ZGrHh24S3mwPr1MJfPCSDzMZZMKknzay8MQfT+3wa2OX7JxdyIDTM5voQ6Y+ytr01S7HD//4wAmbZ2MVHX+zAzrY6QyrNiemysUzveB1kpbTRRzoS0/P8Eh4qJP0wys6+PRThxZ/uTFLd210EnfGp7ZiJj7sR+c5numoP935nL50Q2PBbnNiEXWCcxrb8/dUjh93P7n6S49PPvl3y0eEvSt54onPL3+r/rOffXz508IPP/yZJX/kYT91/tfj0Uf/ZnzmET/f/uh48MGHlz897Lstj/3t55YX+f7OvY8ZO/1417J8b2XrJ1r6OZflI8Rb36T3bfqS9zfLt+p9s/7pL46nn/6P5X7R0dbR3bFM2eqp7JjomOkI3RWZayB3kl2ROYa7gkLnqkR/70scj92XetbXkdyzekdVPN33OmKSpT8M6B0Z8XfcRev+FA8JvTr8POuHpyuKyo6iyq4ctOGnD9zq5bDI8VOms2MynulAN3zxIw8NTHAKCFcmjuvw4aOfNvxci+jjrpd96IofmeHByzOMbCDVhhf8bAk7nnBoV+eYrh7ecOODLjwwwUM2ftphYAPHd9j1deVFVrqhVVdfumrDB3/y+UcfNsALFvJgRAMfPp7ZAk598ESHl3iR4EFb3LAD+frgpS29sje7aUfHJnTDK3xkaMe7NrKVw4RvPkGHXhs6/OHBG57000YmOeq0h4+fXe+opx8/4GccoRM/cKWnPN7a0MKgH1uhVa4OD7ZGJ2mns3b+yUbwZFN1rlzQw0Xf/Cg+YYA7fPTWH0902vkYH3V0Jze9lfXJr8roG3vZSw4j3nygn7hgGzq5ToZZcp2HT23mCjjIJ1dy7UmGVHzqC3Nxqd4z/sr64enKiR5k+sACH6CR48tW6FzTGR/qYYKXf5W1y/GlL9l4ui7VRl91/AgDfeCXsglfuCab36c4sez6kWLvRF47cWp5Z+IjxcqvHPOC8vg4+Zo/PHVieV/inYl07NirS5t6NHKnHYtTdc8//8LyCTD89PGuRjry3NFVOnJ0+E7MQnf0xfHiiy+PV1/xR51OLe9qlk+FnT67vK+B79Sp83+MqntcSrp/dn/ovlPqJaKJwh2kF3ruZpX18xLU/S86BjKRuvNvBcbDy0N10XlRiYf7a3e3+GgjH39l7Rkdb/3hUtZfm7owc5J6SWCQq939ORn6wSbBRo567yvIl9xhx08ZBvXq0JKvLIdRG908oyXbcRYtu0h2I2RqI1cfesvZK2z41Q/W7JPOcvzgVsYrGcro0xEv+NGxgXZtdIWFTdCTr82zRDf02siBUb0+9MRDjo4M9crq0ZKnHs/sVf0sk43QksMu/iVDXzLkdICZDHX6qSdPghGP4gjP6vWZn8MKl7I2uqJXByf+5LArPSrjhZa8ytrqX1v0MJHBvvkoO6Dxj950I1vCA71/+qSnfto8V64dnmxBH7w9i30Y9FPHPmxp0sKjsjY44SgWjfPsYIxblPTJJmjJ8Ewm7Pih06aOPHEPR/LwpYM6i4QyW0ZHF3iLK9jwsuCqJw9f7frhh5fkWX8x1jPscKnPTnI81cMl0QXubNEch6cynuSzCfowKCcDD/aGCX++hRcP9TDjgS6ZnuHxb0/XXz626+O8Ju+zZzaXj/RaLF5+SQAdXyb5jbPnxnbaOLd8zPf1c/6S4uvLx4Xlmxv+frG/arj1EeJNwXhu4Yk3GZKX+hYPi1fJS/8+Srz9ceKN1xeZns+eXU1yjCkxhJzSFJYEXMHNWZwhiNB5ZjhGYzz0nrUxbDzxqz1HxINRlTP2XE+2ejzR4YePOliV1cUDDm2cri5HodWmHv85iAswTtdXO1p86a0MB92U6d+gxy8MaOjmH55kZEc81eEHi3o5jPppF7D0RNNEpI+XexI88OGL3j906vgBLxj9w19fdRIaONNRmZxZPtn66EsWGXTFU399tSlri06eDmFMV33w0EeberLxlMJMD76qv/pkKccnHfIH+vigUdYPnX50Ymd01cMg4WFC4EPtTaLoko2ntuIg3NrVl8jQHx1dyVaWyOIf7f6lp2fxZCOEHx7koZWzsbJED7LQoMVf8izBpR1dberIhoeubCKpQ4e/XLs6MvGWz3qSL+bwRQdzfkCLtzby1YdTPduiIUcbXtlFe7bS36SOjl1atPBC71mMaAsD/Mr46g97uD2rJ4P88GUjcsVlWPHWV06evvpJZOiPPuzVsYWyvvpkv/RqvsiP+OSz/Kaueap815OKDYeTgVOJCdynvI4efXF89dnnllOFE4iPGm+nMxurBWbr+yYWjmVR2fpOiUWlhWVZpE6vvncSjdwCdXZJAvz/p4XnDotKzmAgDmRMDmGUnM9g1XEGGoZWJxcQjOdZWTtD5zy5OgYnA285erwLEkZW1heu2vT1PLfhiW5O2tH6h5dAgJduydSvvgaMyQUO/NEp60M2jHiGA080ZKjXro1e+MCiv2szuefkoSGjvnK88MQDbfjV64cGlgJVf+V0JtMRXU4mXpI+dk109iyI4SFHfTqHkZ0MWs9NIvyJLv3Dly3oDiOsErrK+OGFhnwxUT90JbLwRUMeGthL6vCgM574oMU7+9BRwlM9OnbCS8IfLv30QeMZz+IWTXbWJzrlsMWHT5RL6YwOD/LrAwdsNgboyMuXaPHKp/qwt2sp11rZDj3dtMvxkeufXbXhExb10dUPXjT6KvvkVzJMqMrwiBV21z87o89ebIIPvuykns7JS5+w6FtZHwk+ffDS5hkuz3JxgQ8d1WnPbjDCmh7q0SRHvb5ScrVJ+LWgw974T04LYfT0l/AiV8JfTq4yGXilW3T6zWPQM7tqx09ffdihBUW+66LSCcFEbuFw9fXCC/5u83Pj+SMG2qnltGGBWFJfTDTpW1C2Tii+pCh5dhqxUC2njrOO1asvNZZv84rn1gmpBSa+q8Xn/EmFggzEkAYAh8kpn1PKMx4nomOknCPP2XhqazfPgPE2wDgTLZk5pTLj48/RjI4Wr5yoHW0Owtc/9eRwpH5o9EkXz9rhhE8iW7s2feisTDZaGGGR9EOPp3KTszp94YHBYNWWPejLDujwzq74S/HGtzIa/cNTnq/gE4ye0ZmMyDX4tBk4ZGYjfNM9HOTNeOigLVnJl9MHL7Yq5X/1+R0/PJpklPMjOnxgkeBjL/xL2QSG8GrDB1680lEOMx74aYdNLmUrbfpLaOOd7dXpRwdtYVPnWT0M6RkPbSW8Z+zxgy8bo8VHjpe4drWSXujUFz/KeKoPq/7kk4c3XtrSlU0kddqyUbrxizrPYoYMPCV49NOmPt7qJHJh1X/dntrwk+vPt2yAj3zmga/+fBnGyurhkPCS6A+f67X6yckLY/5Gqw0GSRkPdCV4xCFM2uMBc3FUf3ZlM898JS/mlNHjjxfZMw6YYaQL3tmX/dDCoT8Ze1pUOjGYyE32rqSWdyPHji/vOSwO2ua0feqwoGysvvW+vahsvr69mGzTWWxckU0p+hYifC6QccHz6shOKYaSKFlioPXECRKj5HQ5A8sZUo6G0dTnTG3qCjTPnKFdn8o5GQ91+ki1o0WjLpkwJ1u9vrA3oSnTD2580re6nrXjVT1aiRx86VMdeXBkj7ken5mH/uhK2pX1keNTXeWwwIPGc4nPLBxNGvhoU9diE565rzq48nGyoy2HITvTc/ZZds72PeuLXzLgSbYcnZQO2WSWpW7mi1f0cNObT4tZbTPNbrYLF9oSWmVtMwZ1fJ1eleVSGOXxmHnOvJKbTuIHj2jIoBc/ppPn+PGT+pK2OeGfnfEKT1jxSbZyfdNBHyl6/dMxXmRI6PTDp35zX7p5lhcv8nTWN15yWPiyeKWH/ibi8HiGQ46Xcj5Ho37G6zlactNdXWX02tKPPsrq8Q6HPspwKidHXZjooVxKv/o1dslQpqsxmh96XnbFW//telLZ2FgtAssp4czmcsJYvRwXPGeW00snDpP+cjLZWkwqzwvETmXvXy6Wlp9x2TrlxPN8bkE7PwFRktIpK19fUKLJcAyVQxiV076ZlEN2yvETAN9I0icnGoz0oJs6bQUYeemwnq/ro08p/tlhzgWTRN5sT3UzXeXkpjveUtiiW8/5wjVFiyZZdBWw6rWHpfxiOqWbgVO5PEywzrqlozwZ5eFNP3k6pes6nuTMOX50kfhxnlzJiH/y5GEon9t2Kkd3sTy+8mSmj+ed+FanfdZJOdulG734sgWzdvUWnOobk7CGI/58t+4/srJ3ONMzfD2XV1+enL34a13PYkiuLRlyuovVFlQ6z/T1mXVIl6+Xh7mcLrPsyuq/UV7xLF/vDze+s8/yY+OTH+nt2Sll/rfrouL0sJwQescxXUltX3d5Ub91Wjk/2W+9nF87qXxLi8p0kplPNZvL+5vVOwcOZugCaTcnzDTrRl0PqL0+rztlfsajwbKXnEP1h59OHJtu8bJANfh2wzgHN5p0lV/MNnOwrttyfp7L8Z71nsu1l+vbgEw/A1LgFrTpHB75rNN6ed0OyZ/1JQNfqclNXp325KVfmHfLZzkzjf54rcukbzqjqU/y6qNfqbbd8uhmWbOO6SdHQ8ZOsnfjv1P9zHMus2cy5E1Gcz359F73mWf2zCbl4YVDeT3N8pVrX8cdv/X6iz3XR46OTiWyxGsnFfXRr8dFz+XRzbLDLU9G+bqOPc8y47mezzJ2Kq/T8wMMxSrf5cfGp7pvalGxULRozPlOC8iOdbssBtsLzPSjkv245AX51vuYbfq1581Ni9pqp0BJBstp5bPB1g1aW7Q7Bfle6uq/U05GgbHXnC4c2i6A89RxdDLwXdenoKw+/TzX9vVytPolp3zmFf85F+QwljzP+pK7Tn+xk0r6znjXMTSwZpnV7ZTDM2PYSzmZ5QbXnJJdvpPc6tA0UNWRH9+w0Dd6+V4wr9t5ttksI1nrebLXc3xm3soztsrRzHLry1YmXc/JFVPJqs/8HL/y7BCtHH38dstnnvWdeYZ/tzzaOZ9p+XN9UUEbvuSHr7E057vNLzONcjz2ku/UNyw75TN/5W91Ufk/r95ZnzwgVEoAAAAASUVORK5CYII=;" vertex="1" parent="1">
          <mxGeometry x="50" y="180" width="300" height="40" as="geometry" />
        </mxCell>
        <mxCell id="jydLiOGZCY1Jxmdr5eNa-4" value="" style="shape=image;verticalLabelPosition=bottom;labelBackgroundColor=default;verticalAlign=top;aspect=fixed;imageAspect=0;image=data:image/png,iVBORw0KGgoAAAANSUhEUgAAAZUAAAA2CAYAAAAPpATPAAAgAElEQVR4AaTdB7ReVZk3cBQUkN6kiygiKGIHGzoWRmdUQOyOxt5GpdjHhqi0FEjoJfROKCH0Glp6cpOb25Kbmx4SA1IEKQM6z7d+O/4zryizXOvLWttz3l2e3vbe5+I69dd///M//1PaX/7yl9a8++f57LPPttY59sc//rH6+/vrhhtuqLPPPrtOOOGEOuaYY+r444+vM844o84///w677zzauzYsXXWWWe15l0zXzvnnHPaHHMvuOCC9n7uueeWZkzrXANe4GZOYPltTPMe+OBmrvUZ8x54+rzD5/3iiy9uDYyMGff7oosuqksuuaSN5xmaPDvHA+fCCy9s/PltzaWXXlqXXXZZXXHFFWthmaMZB8O7OeamZc7ll19eWuZ6dr5bj15PMDIOjnWBmzF9aPNbs87cq6++uvVfeeWVbd24cePaE92dLTA9NWPWmK9dddVVrXX+zhrz4DQWmN7h9zTPe2i75pprGiw8ZY55xoMbvs73wPXUn7E80+8JFpo66e/sHz9+fMMLhzlZG1hkps9Y5zu46TdmvfG8h9fgz1y/0yIna/SZ4wlW5BK4foOvPfcdD/q0575fe+21dd11160dB0+flvmZA7b3ThjmW585xrxPmDDhb+bq08D0vP7669uc0KvP2qzP/M4nmMatBccTbi34OmGbC77xwA5P+e0Z3J6BJc6BmQZO3j3hzrrQ4bdmrga2udFX+jyzNvizNmvAtFa/Z+hGH9qCP/oPj+ZpmecZmtgRm4p/iV/iJXruueeeWrBgQT366KP15z//+W9ygTzQ2ffXFLL2sU4SR2dCSfKw8KmnnqrHH3+8nnjiifZ86KGHasmSJXXbbbe1RHHSSSfVqaeeujZxSCASQYKx3wnGApfAiHjNnLx7CoRpGQPrzDPPbHMTOASUJAuwNQkhQRksa+A2NzCNo0G/dzACx/rTTjutrTOHs4IR+GBKlgm45lCGFl7BDA7jGvzWWO93AoOAwDiiVDA0vzVzzcm4oBV6E1SC3xzjfmceWtESw8kc4xrYDBCfjMhctOojCzQzQE90xgHAi+HGwMGAGw4wPDvnxQGs06xDg3mcBg4wNOvgw6t38NAaeRqzJrIIL5F1YOoHz1zP0BY44EZ+kVtwWYNfawIntN18880Nd+hAo3lgoBOvnvoDA8/6zNEXOcBjnqc+OgArtFqDJg0d5BRa0eO3OdEN3GQbeXv/R+3GG29sOK1LsErQEaAyrg995mh+a97Ngcd7ghp42i233LI2iMFvTZ74BNN66wL/jjvuaL/DC7ihnay15/7OnJtuuqmN52lucJpz6623tt9wh2dP9Htqgd35tJa+wcWTMU900xEejGv6zQPTEz/g0q0+zTuYwYse72QQvOaE36w1Zl364Q3d+qMzz8451kUOxvIeevJkS6EJLexKLNI/bdq0Wr58eT322GP15JNP1p/+9Kf67//+73r66afbhuOZZ55pz7UZpar+LqlIJJrJAD388MMtoTz44IM1d+7cxtzw4cPryCOPrFNOOaUFS84g+ArCApJ3yUDwFqgFOP0JvnGOBNI8szbrBWLv4EgMHEqz3lhgWg/H6aef3uabm7XoEICsQScn1McoCM3azAUPDHMFH7/NN84AKAU95oDhPXRRsjngGQ9tnmCBEz7B1x9e0AeWJoBEyX5bkycjgcdveBkAmvACZgJP5zvYYCZQJXkwIvRyAHR4RyfjMx/P9AkneuAFI7/hitEa16zT4ESfOWBHH+jS4AELztCTtXjioOChASwOap0+vFvLefy23m94wPUEA2zNHL/BR0fmWmcsvzkqfGCYT1/m+O1d8w4OuOHfexzcOnolW+NohyOyNu535AIW/GCQpXctsL3Da51GN+ETTvTRP1mY64kP+DRjgo6ntXTtHa7wAI45WnQLrnewzE+gsz7w0Z5Aa869997bYBpHhz44Ahd94OgzriiFG6+hCY/GQk+exvVr6NLAIktj9AKe3+CDGzzoyVyyM89v8gEHT2QDl+QQnj3zbg49sMG77767wfcbbjKwDqzbb7+9wTYmGKML32DDgT5yMxd+/WCgJ7xFd3hI02dOZ7MWbjjBBhO9foPJ9vShDc/eyRcM752w8AeXPrDILjjZghgkMS9cuLBsKpJQklxsQmxKcrq1NqlkS5OkIiNJKitWrKgZM2Y0A/71r39dhx9+eP34xz+uUaNGtR2K464TTzyxBX6BtjOJCEp2MieffHILtHY0ElHmSBbmpEkMaQKzZv2YMWMaLvOMg6MfLLA9BRtj6EKPOfBo8KBN33HHHVeSIljGwCa00aNHt+fIkSNbYDBGoNZahxbzGIqn32CA67d5aPHOeD07+83rpAOtgpw1muNDNICLPjjNYcgCFTrxjC540cZw0mcdeOSQYBy64bUGHGvQx7jJyXx4wbcezWgBw3xP/d7B8I4XtMGJHk9w0aSFjs6xrLM2tAROAiXcaIEL3xln8N7xAY939MMrKNGJPo3jcurM5dR41MCEAy3Wg+WpDwywrPXbGOfyO7wFtvXsHq/k4Gl95BMcZBddoMMca/VFVmCjla7QF1jmkAOaNO/Wk5U5ggr9ebdOoDAONzoFEDiNgYUPgQK/ZOFpnvXG0RUZhdb8NhdsNICPBnPAs95asAQlMujEjw6/8eCZ4IUecD3BAoP+4EQPfPq16MX6wAYXHcbMIUNrBFTNWBILeMGtTxBFu3XmCsbo8hs93s0HTyNDY/rRGR2g35jf4BlDFxyCM9q8kxm+wCYvcpJEzIXf03w69Z5mLbha3j3hBAuNwRF+0AC2RHLnnXe2udaYa07wJImxGw2cyAh9SXj4Rz+6yUDSciz2hz/8oVyByBc52UpiWafz2CsJxVNCsTO5/LLL6thjjmmN4VM8pi65+JK6cty4uv666+oKW/ML/5fRMEvYFMpx9BGWJ+IoJAaQJ0bTMEoAfofJVBXpMwfznfNiJOZqDMZ6BmFMdidsDR1+g3fffffVXXfd1SoRv2V4SvCcPn16y9TezTFOUSpoFZo2ceLEBgMc/Soa55KTJk2qqVOntnXezZP1Z86cWbNmzWr0TZkypcEAWwKfPXt2W2OONZq5gYUeOOEyB3wwwA5O/V1dXW3e5MmTW+VknnfNfHD6+vqqu7u7wddH5+YtWrSo5syZ02DAm/nWWmeNPnTk3e/AxoM7t56ensYPWH5r5sPb29tb8+bNa+9oNYZ/vHrCGxicxBq0wa8tXry4zfU+NDTU6A0++MHWrw0MDKwdh5988Gq+BnbePdGLPg0N1me+Z/iBAyyVqbnmBY55aDOXPCMnT/QZw7dmLWeFCy3goFu/397BNa7QIxvrVq1a1frAM26uFlrND61oAM/v+fPnr5W9PmvhDK9+g2Ge+VpgwuU3XePFGjpjC2QBf2RvLI2MrDMneo4+8QKWtd5jb9aYY7732DfZmWMMbjSZEx82Do8gaJ4x/mI+OGj3nljQiS9+Zhw8MODFf3Dpxws84FkDnzlJaOYGD/hgoIMtgylOZLfhXb8nmviyln6xzNz0iy/GxDfz0RPexSlzxS/zvIMt7iRWdsZc8dEcY4mRSXCJhX6LlwoLCQ1u/EoudixJLvLJOskynQnFu6B52aWX1eJFi+qJxx+vp558si12x+Jo7InH/1RPPf6neuapp+upJ56sv/z1yMzdi2aLBI5zuFz26EdAEpk5nQ1s8zubvsyx1piEZyflHS14ME8fHIHj6A5uR3eyqvnuh8CxzgcI3q35/e9/3+g1jm595nj3zD/v8KApd03w++dpPDSa43doylr0wx0eHnnkkQZv5cqV7Uk+/uEj/HtaAwdeVq9evRYu+MbQGpx+6w+NWR/Z49t8MjKGNs8HHnig9cNvrd/+4UkwA9da+K1Fe+RhHvzkba1345E9+KExvFsDd+bAI1Ca591225i1+Am9fkeO5tGzPvKBG17j+tCchnbz4e+0I3Dhyho0gAk3GQQ/OOEBHP3mpXJDI77RAAZ4cOojew1uDY3kaAwcfWQHn3e4swZ9YFtjHHy8gm+e3/qzJr+tQSf6vId/eO+///4mT2vAxYd1cHlHi3drrOUj5uqz1tzAxCualy5dulbmmbts2bJ2Lg8nmPSNZ/0SHVjG0Bh94wt882MPZCRou9M1V7Iyxzu8jmeMuQMAFx608iu4JMgkOL8lakksNIQOYwoWcL1LtuaAD4akpwDQl7VoBG9wcLCNeUrM8Euwkg84+uEEHyzJiF+hH2/6zPH0WxKS9JP44fUOHjia5JYmiRjzWxJDg+AvqUhMklwSXRK2eZrE4gk+/Nahzzzv1oFjnp3hN77xjfaMT7BH9roOB/lH7Wc/+1kNP2549ff21WOPPNqSCAUyLMb70AMP1v1LltXq+1fWQ6sfqNWrVjUDo3jKISQKjIAIjtCjdEbrd2cjsOe2znEKNA4mOBTOGOEK45lvnKLRILvrZ7AUZQ0+KAQ8xkPJ+KIM62IADIJi4TA3Ruk3hVkHLlrAphC4vJuLDlUUQ0Q3+cADlrk5pzQPf+DBr8qJ8aIFreQawzYXfPPARTdDQBcYntbBgU40cDYOZj760AyOCtNa7/jVD4Z+1RpZwQuHfrTCHV3o1we2ahOsyMM8dOtnlH6jCx46M6aPjNkEWs2jI7gYMDkwXJVYJw94J2swjMHhHWx8szm04J384OB0xsHhMH7jzzx2QgbgqGrhJSdzwBCcVWzGwTauKiRPwdV6Y5zaGv2duo5dGAcXflWmfg0PfpM1OHChB22qTnMiEzzgn3xUwWQamHi1Hj3modUc+MCiU7SzEcHCb7DhpROBBe2exunWOnohB/apQkYL/vQ7hSB7vKmII7/oBR1gsyl04tM6a8D0G87IgfwiSzIOjdawEfyqlskAH3CCi3fvdE12qm+0gGUN/J7GwDKP/aKTvMBgO+RqLZrJTT/ayE1wBhPddhx406yP7KyHC23m6Ue3+X6jJ/DIDDx0W2MMHjKBH51Oe9BB5ubYXYBDTnYXfNFcuwm0oJf9JC7AgR8NHskBLWDCDQcbMYYPciVfOxX8anA6pYLDcd73v//9dmyuAJBD1iYVL/8oqTCSG53zXTuhhh99TJ15+hntCMmRE4OacPX4uv3Gm6t7ZldNmzSlxl+95isGxFEKgp355vzPOlsnvyMgQu5shPncRjidc6J0RuFI66CDDqoPfvCDjWGOjUEB4+ijj65tt922PvvZz7agIXFwLsJ973vfW7vssksTjmqKMlRq7lt23HHHes973tMUnuoJTe9///vbmOM/8DmWtc7Wd9ttt/q3f/u3xjMHpGB0/ud//me97GUvq//6r/9qVZw11lIQ/NYxEA7LEPA0bNiw2myzzeoHP/hBm4t3jkfZe+yxR1vDMFJFSWjf/OY3a+utt26VA17gZkzwHHjggbXXXnu1u4pUmPDQx0YbbVTvfOc7W8DGK0Oiuz333LM23HDDdp5MnowJX55vectb6l//9V8b3amq0fCpT32qttxyy/rd737X5nJuQYKuX//61zeZshtBSD+e3Ee85CUvqfe9732touOA+OJQaN5+++2b0yeQqpjdn9ERGuAgawnM2o985CO1ySabtOMH9NK1cVXVPvvsUx/72MeawwiecJA53ZDd1772tUYb2aABrZtvvnm94hWvaPanjy5U4+BssMEGzakkUvImP/Tghc7ZP7mQpzm/+MUvGj/w0I1EKigIZp/4xCfq1a9+dbmzJB946Ip9b7XVVrX33ns32GxUEFSYwMO+f/WrX7Vqng2hwZrXve519YY3vKElBLyiAVw2tfPOOzda8I4GTVD60Ic+1PC4p5Jk8UQWztTZyZve9Ka2K0ixwJZf+9rXNjuBE70SEJ75OBsCU5+59IGGT37yk7X++uu3e0N4jLEjR0ZvfOMbW7PeXLThy58q0MXHP/7xpjPy1MAk60033bQlCr4lMNIVXunu61//elsjQEomdIQutiUekQP5WCNQ8rHPf/7zDTe7Iwf2+sMf/rCt+fnPf762oIBfcN5mm23amHhAZmzROzzsEf36JUY0Shbvete7WhzioykKjIGPhu9973vNH9kvGsVVdLEFsqJXvJCDKwV28ulPf7rRFhumC7HMmMRMpmgjc3dfaBg2bFiLf3ihDzGAzPjLUUcd1eKguMnu2DRbEYv4h/gOjn/Pm1RyRPDnZ59tAr9q3JU17tLLa+TRx9Zxvz2qTjh2eJ150ik1+tgRdcaYk+vy8y6s3/3iiPrFT35aZ512Rv38Zz+vH/3wR3XTX7+GGHPiia3CkrUJktJc+Lj4QTxGKM4z734Timfac8cxycEo9MMf/nAdfPDBzZkOO+yw5jQU48Kd0Qty8DM+CnHHw7Df8Y53NOf9yle+Ui9/+cubEbrkEmBGjBjRnGH33Xev9dZbrwnRPAGVML0zFoq35jOf+UwzHM4g+UgWP/nJT+rYY49tAUiCdgEtEAniziS/8IUv1Le//e3GowAqUKJflQAvJQqgAsdOO+3UjOKLX/xi/fKXv2x0S4zrrrtuS4QuxPHE2LxzaHjI20cAHILjf/WrX210H3DAAS1YePooQCJCGxrcdUmc+++/f3MMNOJVoKLDb33rWw2HREuGDJZxudy3Hea8KpgtttiiPvrRjzZefQTgAwr6kuQ23njjlgg5mQ8/clZrDdlJBhzx0EMPbU5I7uijZ2OStYDMjiRnciBTvPz2t79tgVqSkxglXJeQv/nNb9ZeRILHHuzGOYpgjm56RwPZCWj5YIKtClwvetGLGk2CAF7ZKcdTBAiUAjD9CMyCwX/8x3+0pPnTn/60yTT2ImngDa+SDT7wCy7bXWeddertb397C2boN0dA1C8JszP6lIwEiS996UtNpjvssENLloojfgYeXtBGB6pO8sErOl/84hc3m5Z02QodKXLQze4FFjqjT3PIge4EUVUwmvEk0Siq9Cvw6AjNAo4CCJwXvvCFaz+u+dGPftRo4Ud0J1kIVuTP5vnAu9/97mZb9Mg+yAHf9MUWFDDsnRz5jXiw6667Njz8RAVvLTod5e+7775NfgoZ/KAbTnPAU1yA/+Uvf7nZMn7ZvGTvS1c64mPkjkZr2BCZ4pmfSKCSH54Eer731re+tRV3ZMu/+IxEoihix4I9P2GrCgTzjJEtu2F3khOb+u53v1v//u//3viWNMlbIrGLVbjhAd/0LW6QI1je7Uj4Ln8Vl+ARD8lPDEOX3+7NP/e5zzW++bXYQecKKXGUbtkEn4KPbLIpWbtTcQaW3Yqk4hzy2WeeqTNOP72uumJcLZo/WPO7e2vFwFA9umhFPdC/sIYmd1XXHffUpFvuqJuvvrauv+qauuOWW+vWm9dcCPX299XAvHk1fsKEGlq4sGZ1zWrZTDUjGzpG8K7i4rx2GAzT8ZoKVhWZjOq3zKqS4FiydrK3ykz1ah3mKEajLIzCAy4FcfyXvvSlTZg5xweHYwkWnFVmJwsyoCzBlCPbuqqmVO0CCeOCRyUkkMCDFwEBPEZFWcngFKGKtoazCKbo9k+V9IIXvKA1yS3n63AJOpwbDfj2Dx7yUWUEjzG6A5Oi4THG8FTW+LEzEYDB+sAHPtD6wVJR2U3o5ygMSr9/5EEu5MNQVUVkDZckwljhUfGRi+MruDgsOXA6xgsOvshKhQgX5wDLfBWUoI9XgVEQMeYfnGgQlDwFD//YDHlLuHBxYnpgz54CIzycym7AfE3CpDfObw75WKNwQTccb37zm5u9oQ2vbJGO4Nluu+2aHShsjAv+1pCDahIsMpX0JGY0cEhHDGyIjOxuJS9jghg47E5AUK2TN7jgwG+NgGXHwMHZEh2RhXUCF9mRrXl4Yj8JNnQnkLM1sMhHsMCPQMd3yMY/gZYOrJHE6Y3+6EPiRjO9CoBoSBP8BCzjfDr/6BVdbEvwwhN+0YgGyUERpNgjO7jYFhsmc0WjuehjC/wKDgGVTeOfHPBEbnzWbix8ok81nsQvMPITfNEJ+7DOU8ICR2wSeBWYeLJDgAcN5IteNChOxCd0+ydwg2WNRCBmwSMWKRytQYeCEZ8ae1REsm8ydSRmHVuRmNkWe1UooAHtCgb6ZsOSJfnQj3hIz8bIWyIiB+vwJZ6wUzrHh/nkozihbzKnh8hAnFEwo1vRIEmJNfxJchVX2bL5cGhksfbrL4wz4OZIzzxTx48cVVdcelktWTBUXZOnVfddk2vRpK7quu726r3p7nqgd0GtHlxcKxcsqj/cv6pWr1hZjzz0UP3hwQfrsisurxPGjK677rm7rvAZ4JVXNoeR+WRvhKsKVEWIE0Qom5E5thJ0NQpTHcmMngKXLaJEQfAyvipBRWEnwOhVZJgWXAmdcm1hU42ByzFf+cpXtoAHJsEIHCpWDsBBHFFQCkenaMmA0FVTqh98MA47IcmAgeFJ9cR5BBUVJOVSjISIb7sCvKJBFaSKEqDAZRwqDoYJH/7xyGnw9qpXvaoZOse39c22PRUxxyBPlahEpopyTCKZosVRAsOAD88cU3IiU3IhZ8EVbWjg0IwVPwxQVY4GY4xSstXAdQwpQHznO99puOGhM2s5IZj0S5ac2S5UtSxQ2t3pJzMVEGOGQwCnA7jIlbM7PoKHc5ovENg10YXdGzx2GODpd0wg+QgQdMQG0cz2NJWqIIRXPKKND6Cdo3FEMhXQJEVBQkUsKUjSjkYkNHKzM4CD3eHDjkSfMZ/hk7dAATZYjhHYksDA5gQ/umAjnvDGTtgpeHaS7EEQEkBVmJ02bIcu2VvnuFKgk+zYt90VPIoifWjzRAu9kquCjD7tyMEV9OjC8RefIzMykrTwY42kKQhKBnzTDpBM2T7/4Y90gQZz+ZHdgp0vu8Yve6RTRz8+kycjts8W6Jz+7LrIJfcAfFSQpAtVvYAmGUhcEjr5OP7hC3hURJKpmIBusQINdlTw8X+0Gcc/3SiY2AvfYqtkhw9ygZ/PC/wSMR7JFC+KZ3pFAxsTgyRvc+wG7ArwhF42zk/I3c49tqDYE1/gUCBYo+gAn0+QN3ieZMAuBX2JRZ/4oACgPzDowW6HPMifzunVLkw8s1sViyUZNmQO2o444ogmA75EfvTCthStdn6S7d8kFRk2HUksjr/sVC6/5NIa6p9XEy6/so796S/rihPPrJ6b765Jl02oK04ZW3dec32tXLC4Vi9bUfN6emvV/StbsDj73HPr+NEn1LEjhtchhx3aEoVzOoYm6wrCjqYc1TAGQdcRkQzMUQUkQY7xqkYEFE8CZBiEz8AFYjAZAsYZVaoJW2vClGHxxREZG6VzegrlZIIEYcnoMrhAokLSp4JWGVCCYM+RJT1BgtEIzsGjYrYtFiwZECOxRtWg4gOLQ3hKJGiWVASW7OCMqx7Rx2E5LsPwj5HAIVhIGioMdKh2VFKqCU5H4YIjPGhgVOiWVMAXmDg+B7JGQhYQwAEP7eZbp7pCg4BNfo4gJCjjZOIf+QisHBHt5kh4+gQlToFmjuKYgtzsPNGBJkFBVU7e9EcfaBCQ6EIwltg4BRolSfKBCwwOTudkIhFzYnYhIZMDXGAIImhXOdMb5xPwwAPLEQQ9mG9cQqY7NsHR4FAYmKPwQBvbQ6sAxH7YL7mhwQ4NT9ZIcDlG5IjgGyMnAY0tos+uRWFBH5oEQUcCFp8gG3yhxRr2jX7y4R/4VT2mMGILkmGOkQU3tm2nw7fIgE9Zg1e6EDTZid0G+fJbNNgNkQ3c/Agu/QItuOjmW3Sk0KNzTUDGqzWCmkALTwoMfg6P4EoP7oIEU2vQKHBLEOhzjCZWoYE9kgk9WKeSVwyggY4EWPTxGTxKnmimo9e85jVtTMwgH7KmP7/JlN3zHXpDm/hDpwK3eGKuOGQdn7czkRDJE13G0Wg+GvDEF/BKDuzefHJQfLBhfiGxORY35pgYL+CxF8UQGWgKOP5tPAWdfjseusM//BIyP6JzOqY/CRzdTgoUTGQnYYFjneJbspEoyYO94UfMIENFHLnzD7FbAedfckjbqXR2CL6tPfvnGjVyZE24Znw9sGJlLe6fX7ePG1+XHH9qTTjtvJoy7vq67uyL6tZx19ZQd1/NmTqjJt99b83r66+pU6bURZdcXPdOuq/GnnN2feGLw+rgjx9cO+60Y+2ww/bN4Nd7ke3Z+i1wCuwqeEpikKpWDHI4zKqMBFYKSVLhJITNYRkg5xFUhg0b1hzdUwXEUFUi4HDCZGWCkRzA1acipniCsgUVKFSfKgOVE6OSCFQu6OBEHB0eZ6JwgSkI2AEJRLK8viRDAVXA2W+//RpNkonzZjwxPoGAoikRz4ydQ6vyjQnsqtQoVuUkAbu7EeAZpyCpEhbs0I0ecsnfBHF2NAgqDI5sVDwSOn44k6AnIUgGnEpixBODtYau7BDQ/y//8i+NNoExcuYYdiuSop2DZIDPFAcqRzT4gAKvdMARBG46cvRkx0THaEcDPsmUjugcX/oFbjSj3Vw7QDokO+fHaBCo6Yju6EN1qqgxxvbIjnwED7KUeCRnMgCP3tkj/PSQna8KjaMJwsbYEPmDF/vFo4qPPMjHDpP9sC12Tk+Oc4yRoSChksSvJIdHtKFdcAaLHtiWwMAu0UDX5IAvgVg1SUf0KtGSK30K0HiiR7tEwdBaSZg+BVw0Oh4lB8WQuXao+EKHolAhwqfAowsFnkAkkFuHBk2RovqVSOgc3+yNLbATicU6d3t4EazoSkDHJ3mjAV7BTkDk02DxTf0qZnyyJXIjU0fXaLNDJVPBL/DsPPgreyFTVTma6QHN+DfGTuBHn2NRdIkZ/JX86ZstSyR8M4WCQM0e8EqvdlkSdGTKVtFMH2zILoGu0Y43cpVAFCoKPzqnQ36Hbndi4p1igrydNKAXHjTaceCHLbBHsoSHvPmPfjarT3xh32ihUzyxQ7hjJ3ZOaM49lV2iMTw4DVLsSuZ/l1RkF52dSWXMCaPb8deqJcvr6Yf/WA8OLvm0pJQAACAASURBVKnJV99YV445s6479by66bzL6t4JN9e8mXNqsLu3FvQN1PIlS6u3p6cpp6+/v44bPry22GLzevWrGdzLa4cdt6+tt9mqdnn5y+qF676gBVMGRwkMRkZUdXMmTi0YSTayrj7BnrMwdEYkwwtanIjwcrYs26veJB4VgO2mikEgYRiqKo7AEFQ6xji56t86QpJcVMTGGBo4gccJVC6CBkdQATlXpHDwVCCCgyo/yS9HD5yB8RpDA77B4vicAE/WGvOkaLsahqmPLMjFsYcqg8OQBXiqIFU5GiQjMsGLChedjNOa3KmoTFQ8ErOqkh5s6/Gi33GoSg8/Eh9dWENOtsUCDFyCEdxoI1u8qvgkULKLHMDGJz0I4CongZ5jgqeiklTIk2PhTaFhJ0MGnI8e9KFRdYoGepKU0CbYos/OQMVnJ8luzEcf/cMjCMMZOyBDwdOOgezYn/kSFFngU1UuUcLDVvHMqQQfjowXtBkT1AQ3/WhRJJlvjJ2oBPHFOdFLRoKTxI9XCZt86M4agdMOUSIIbeQEpuBC3goNOspuJ3YCnqAEB9rBFSjx5DhKwsgaviTACWZ8IHzaOZAP+1FkCFih2xyy5iuOoRUJgjLb5nsKNztVCd/OFs30ZFfL7g455JBm92yVzJ1g4EcAlPDIAO2SteIMP3b5/MgY3YoJ2R05HsInX4ZLwCU3vieRRG5sk42SA1siF3aADjsQvL7tbW9rdEc+bNUugs/ateCVn+JbgZQ4ww7gZ1/gkQE/4oPkLS7gld0a4xf8wxr2ZmcjeaGBjtgTGcAnqCsG2J2dN9oUW+KZRE0O7FihhF42jA62iD6JDJ/sCB1OiqyRQCV3yZA8FUBwo8FHPmKvPklM8pNUwMKf3CGHrN2p/KOkMnLEiLrsoovrwftX1aTb7qwxRxxVF444qd2pLLx7el171gV17XmX1OCsubWwp7/m9/TV4MC8llQg5sgq+XXXfWHt+oqX196v36ve9OY31M4771hbbrV57bjjDq2qIBjCZvSEIzOqLnLExGD8Y4yUQBgSDGEQgKpSMhEgCJsxyMoUYG6OdHKGLWhzXtUwQTAElROc/lEORXAIlRA+wJGhrWOQ5gogHA3NDIDA7SJUC4ydEVijn9NRIKcCj0OZq2qz1vwcGQmSEonAD4aKR+CJsangrUc3xXMEPKpY02+nw3DxytAYYpxSciI//eSELg7gaAJfYMBhzNO4NRyakWZnAXb4Iwe84A//cJungUvW6GPY+NbMsSuStDgneZNNdCOocQJzwJT40I1f8kILvGSAX/10I5AyejrV0K+hDw/WCLx4o1dPlR/nUKCo1MAWlAQgNJmDl+ygyJteJBS7JWvJC4/4xQs8sSPVLRmSL77pWp/fdiLO2sGylv1FPmwHzexHv0Y+qm1BUPCEAzy0wokG69gVmeBFooBHFatCNR9P5Eg25AouXODpI1Myl9ztEuAG246Gf5M12Pwg68lAAFPB06sCARz9GjuzHq10ABf9WQ+WRIU29JMNmZMTWWvoUVSYC5716AKDPcbu0O+4hy5zt8Uu0A0vXq33O3ZKRmRqnWIMLeDSZZ7ky+bNFRvYlN2DhKXIQ5udmzsNtEqOaIFLEM6OGH9skx0p9hQddiV2dehFH7sjWwEen3RDlui13g7LPaDjpxyhsZvsOMGVUMmELeBfrLTzo1O2TNZsTlHIBvmNJKd4U3SxbboJTnShid3wGUWfeKv4/IdJpTOx+Ov4o393VI277PJasWhJ3XTVtXX2yDF17Rnn141nXVQTTj2vxp95fs26895aObioZk+ZVtPum1xLFi2urlmzGpOYQej667+4Ntpow9p2223qdXu/tiWXHXbYrnbddZfaY49Xt3M9labKRuB00UlZnJqwKImyCUImp1SGQcgMTyMcgVcFqFK3g1AtJylQKgdjKJILIXMQwlFlMCQ7JMdPFEjQFCcIejIsBiOBoEPik6VlccYADjpirJIBI+e4aCN4eBjAsGHD2hpBnWIlQmtj4GBoFMxxUymiwxadUWjwcy6BEX6wVLNgZZ1xlYwjGzsxsiE7iQNeTUBkcOQtaVuDRjJ0KWjbKxhoKjtzbZdtm1VUkpUqjSxUdc6rVZN4QDPjZrQcDX0MUEFAj44R6R5t8Kt4yFkSEeCdPauiBCkfI3BEW/MkDEbNuMlIlWSN+ap9zThYaKFTRYhqW1Dwj345vkoRv9bY2dCFNQKBNeggY46juHFMYcfCqe20HTnSMzthc4IZ3GCo5iV14+xB0MUjvQleHFhAQoPdmzXmsyFy0ydZK67QS+8+wVWpOurhG+xZcLXGsZY5fIg/GZN8rBHk4eIn7BwdgpbdhIDGT+gGHJftaHNkYkdlx8CHBFhBBl3WsTXByxhbwK8vCBUF7kDAQgf98hW65ONsiy/pRwu5oYGPsEtryMy5vh2Y4xk7DbQbE3TZop2nnQh/YwOejj4VZSpvuy7+h1d6pXsnAviRsNDMnvgU+8Uve1Tk0gM84hDa+RKa0KwJuPyJ3NgHu3e07M7DTsoxE5vX2IaAb4coEdGLpEJfaFUY45HsUgDTDd2TiYSUmMVW2R79sAO+xc8kBHbO/tiotfyWLZA5etxPOdJmE3wfLsmKb4s54i05OPIiI2P0hGa2SVbkTkdswEcV/OL/TCp/+fNfShtx3PA6d+zZtXhwqFYsWFRLugdqyfS5tWRady2d2l1LZvXU8r4FtbhvfvXM6Kre2d31wKrVNXdOd5115llN+AL9euutWxtv/JLaZZed2y5l991fWbvttmvtscfubYtvK237yfgomJA4iCTnmAlzqh5nlYSuSuNcDJFxexcMJaUYkW0zxarKBFkZXBAT2AVWBsYZBGnbWGe0noKcICUbMwIC54ycm4FZQzEqaDssHxswYEZDqalcOLU+CqUojqSawYegy6gFOzThgcIclTBMQTc7JkYnCNnic2Ay4KhwoxV/gjvnQDMDFWQ4gjUqTE7CwMlZglDxMRTzBWgBkSExWMHZGkcZ8OAPXRIW/TAq8sQfpyNHwc4xCRx445CqbrJQnXM6uNBFJoIWPdObAMUJ0CsYCUwJkHQGt6MROlCZkZPKjwOQlcpbNQUPfvFGPwKns2a7HEHEXHRIcuzErpY+FQn4kBiGDRvW7I2j0ItAgQaFiGAiYfnHLslMIGA/jjM4MNmwAUlZMoKb48GBZ3pEewoBAYlDChDsXFHD3sgEXgGQzsmNzPEneKPTF1qqTrYXW0Uzm6VLQSAygQ+9qmFydL/DL8kdb4o/VTVarMEf3aFLcOFz+BSwwLcOjXScoy480icZ4FHgzS4vlbI18Evc/NQRo6JTgGKHZEY3bJi9+YdvgdP9gaDoSFAwRIM1dOQ3+uAW2OiAb7AXeLxLVlnDduhGcSHOiB3GJQMBFy52xy7wm+pdciNbPslHJRVyYq945geKBMdp6BRT8Ccx4E1CYZ+SExrIS2O/eHTno1ABI7TSKZ9hX2yJj/AViRVf8LBdSYSNo1kR5DfbYEdsD83mO7YTD/AIrsY/6MsacQ5O9iEOkrF7F7SxOTYJJv1ILuKAxPT3x18+sdb856s62sjjRtZF519YSwYX1qrFy2vJwIJaPm9hrRxcXEt7B2v1wmW1Yt7C6p0xu5YtWFzLFy6tnjlza+b0Nf8pjPnz59WRR/661lvvhbXpJhvVTjtuX1tusVltsfmmtflmm9Q2W29Vu+32ylap+nJBJiYAClVt+CcbOz9l2AK5d0KnVHMECU/BG8OCtaAic6t87GYYN6UyUBWH9YIXXITG0ClVYCQoW1xrCZUhCLLeBSFOzSAEOpWzHQ5lCrj6KR4+ivIuUFsHBroYOtrQYk22toyTUgV7RqriYrQqW4ZPaQxX9Sg4qGYEOYEpwQ8docE6zgIHp1PJOZ9FEwODXzDiiJyGkcCnChd8GbGzWfJkRJIHOuASiKxFD3moGjkfHlVUgg0ZqMQlO0aKNmvoS2K2w6EzOMlIRUQHEr7Ehkbj5C4B2KEmseON3sjOOL0L2GhBZ4KABCSggU++Gt3iXT8bQAc6ORG6BdcECvPAwrNARVZwWwcOexUkJHY0sEN8o8tTsBTQ6ROfAgJaFENwkgMcAprkiF7yYrPsFG4y0+iRHZE1XZEFeXvimc7YOP2y2ezO0Au3Pjg01Stdgq8gEcDgoFe47WLRx5bYN92Qs4RDNvDQp4DEX9CGR/JXIKHFWgHMaYFkQj94J2eBVlAnN2MautGjBSYfsAaNdhoCOrjkbA2a2SafsYbNSCpOAKwRvNkx/sChC3bjN/mwAbYmlliLL8mYPsAmI7ZLL37TJ9mDBQfZkj2e0SOxetrFa4oBchOw8cW22DJ4frMRtkA3krPCxZMe+JP59CUuWINP/kPe4hPdkCX/9htudkOueIELv/hGrz6JVIFhd07m5Am+pz542CT90iOc4qMEKfbAjXZ8aeIDG2Tbf7tTed6kMqouPv/iWiphDC2t+b3zanBgsBbMG6pli5fV/J6BGujqqfuHltbvl9xfSxYsroGegZo5Y1ZT2NDCofrWt75RG264fr1kgxfXRhuuX+u+YJ3W1n/RurXZppvUhhts0D55c4mHYUpSdaRyzed1tu220y5Y7VQwwPA5PEfk8NYIdAyfIPVTOGdkCJxFZeAp4KqWBS5zrKVIwUJgNZ/RSDya4MNojFnPieAgeEGG44KNfi1BEx5rjDFSeDxVNQIEZxNc4KB4cNFEsaoOjmwOA8AXfAwR3xJK1gaOJxmYh35z8McABEA0w4FP8mHQGvmlKhMgOQ8HkyQ4oN8MViBjzKpaxuvoQRN4BAqJKBWdIM1RGDHj52icHEzHhypSshAY7IpyKcpA0W2O4wTOaa4KjAFrKlo0cASVEpokJImT/cAJP4fRzFcRCkyc0A7AevSgn8PgF48CElnh1VrObT5+wXWs5SloSXaCqwSjWMlc+OC3hjwEV7iT5OhXoAQ3AUbiogsBEg1ggp/q3VdsCgpyxAP7QB+52EWQhTXkQ8bmqjKjK+PoQ6emKCE7dJlPzo7+HM9EDgIT2OzvrrvW/Fdz4ZAcJCf00zEaHRHii81LKHzajlrwFFjJjazYNBukY35iPn9jf2wBLnyjj+0JZOwdbO9sN4lB0BcQ0YlmQTH2zGatYWPsW4AlK8HVXLTDoR98c+iAjtDIz5K8zEdT5E327EUs4l/W8wF2zn8EZckBnejAN72gkx3SBdtjI/roxS5VfxKJJ3js2e6Zzo3H5tgIfiVBCQ98NsU2Fcj0iUdr0ItPdk1m+BIT0MaeFMloYfNsFg79+CYTSYvsNevIGE/8Bg1i6T+VVI4fcXxdcO4FtWzh0rYL6evuqwXzFtScWd1171331Zzps+uBZavq90tX1mDvvFo6tKRWrVhVc+fMbYqbPHlSnX3O2PrG179ah3zvO3XYId+tHxx+aHt+7zvfrsMPO7S+/vWvte24rTYlCNyqeQFPBcGRGKezVMdHvn4hIFWMICyACuIqCUKgBE5CUbI+pxF4KZcxaQyLQgiUMm3hCJUgBV1JwxzCZXSciDLSGBNcsrQAILmhnQIZAtwUScEJHBRsTXjkRIxBsGRk5sHnSUm2rrbjKhOOB6bdBkPEF2OWNPDNGOBmAPhjXH4LJvAyRoYh0TAGv/GAH4YBHz7JNUEGreZzLoaGTuvgtvUmY7AdJ2oxLs6ENrsxSUFANR88660TjAU7gZbT06GERNf0QV9oc79FLyp/FRPnMk8AlESSEOgBDZw6ARY/cKGDk3nHc2iwXjLBuyDAacjNfIkJv2j3m4Pa+pO/dejhmHajnF3iMw8dYMLFpiQ5ODmz33imH1WxIAAWfulE4IafrNEYWxCwyZHc6dp6+mYfCUr0AGcSJ1mAjSe42W+SIXj4CX/0hrfYP5/gG+wwSdp8fgW+fvoED+2SBVrYsONA8lcwoVeFSyaSAD/xMQa87IN/oJ8toBVdZMn+BGn2ijY2Yi7+zNGn0RHY+gQ5a+B0vKs4hQNs4/DQD7mgiY9KYGgCX+zBH77Mo3cwvEvM/Iidsik4JV1rhg0b1uQh+dg9OV5yXEhGeAKDrtg++JKWnSDa2LLTBrJlI2waj9aREdwSmDV0jnYnOHDjHzxPc/kEGwGLLeGNTThOJQ/HnXxDDLGOPODDL77omw2EN/E3eKJvcgNTUhFL2a+igozFnX96p3LCyBPq3LHn1vLFy2v5omU1r3egli5aWpPvnVLnn3N+Tb13SvV39dSxRx5dPzn8RzXxton16MN/rL7e/jrm6KPr+ONH1eLFC2vG9Kk1NDivFsxf0+YP9NW8/t5atHDNf6VX4BJsVfOqBGf/grvMR1E+43SJ5TNUX4lRisyIQY5mPUYp2iexPq90rk/QPoPT73zdmawmQbkUdRbueM09hzWqNFUNI3AH4n7AsZuzaxeVaHD27d12UJMYVGICYs6JrXEvpIHB0LLGERjHYbjG8erpDsB9iXsJ8/WZaxdELpSIXnSq+DgGJbuA97WYM09fa+DPrg5eOO0AnLkyKMYmAKDPfONg4pV8/EYHmWiOBlTRzl/NR5e5ZAePJzqdQ5Mx52fUDBINLmLDOxk6/wXfWnA4iiSkUhUU6BGvmoAoWDNqQV+whgsd9ECHzobhcemId/MFOUWBQEpXzu3NJQf84RMtaMeXIK54ERgEUfqAw12SNXDSCd26p7PGUaTdp8oSHPZjjjV4RhOcdOD+QOVNNoKQQGYnKtgLwJK6wOYcnp7As16DH4/4Y8sKLrxJUHRoDlmao1nvN/qtVY0qviQsAZ+MyCN3X+jz23x8ShRkb7dAn+yRbVlnLjrgwacxPsb/JBeB0W/6wp/TAdU7vUoydtkSARsAAw3kyYfg8PTRAbsT5OhcUESfPvNduJvny0h+bj19SdbigaTHP+gX/2QEJt70a+5n2aSkJRn5AAB+a8gODrzhWb8jd/xmx0dG5IwOtgQG21GASYrkhFZ0gQGuPjQIzGKFooHfmQM/G4GbPtkP24GTzsjVrtIcdqY/dswmNfTi0xgbow8nBmhEP74ldPDpGl6yQScfUbxKPI7z6diJEN6dEklc7nl8biwWS0JOW8QFhZ8kpbiiY37E3tzJrdPuU57nTmXsGWPr/iUrasXi5bVgYLBWLl9Z3V1z65Ybb6mhgQU1Z3pXffMr36iDP3JQjb9yfD360KPV39tfR/3uqBrtP9ngnPnuu2rWjOnV1zO3lixa2BLM0OD86u/rrYV//T9PQijDUAESqoyOSAHLX4QyWAbh+EtQzu6EAcrmjJsjuGD2/T9FyuAShQt4HwKAIym5l3GHQ+gqEe/6GJvdCqGDY+tuLSMG0/EMeji+v9kgaPAZPwP3nblmZ2XcV02egiDY8IPN4CkabEqnRE5iF4ZOSZSRSB6O1fAq6frwwBp8qp4EOPDNRwse0Knhk2EwJMajElUJwW8eOu384AMTr/gDh5GRHzlLluYbAxcusOnB3xFoHIJzcH7zGWboAJ884LLWfOvxK/nYkdq1CboqLdWZwGn3wtBVVIIi+aIh+g18MsaLMQFIZWj3IQjAYR7+4I4NxA7QZJ7EpnojJ3DQaG50TCa++QfDOHocy9CDOfgzrugBOzjBQZ8CQAKRDCRdR52CmqSkuBAYOvUHj99wgYcWwUYiUnQ5WqITfEW+aAhea+hHdarYIlfBUr91aMpato9OvwV8NiKB0yW7BNN8/KHJXLjMx7uK2s6LH5E/fPhTbLE5OwU6Fnjpkm9biw6w0ER/cODFuwpe8CYXPi+IsxnjsUVr0Y5PvJEl+tHLR9kzW+FT0Rv60U6uik1FCHroTaLjG9Zbp5lrLRh4w4tgnXEFXZIKHiUAiQRtcFiLL3bmN9h2DgJ8/vZM0sEfWeojc+vCq9hhx554Abe4JSmQoxYbgQvNCjdwycyYPgnButixuegxTsa+3LQuCdtTMmEP7NZ6O0EFh8TIjsVetqJQslP5x0kldyt/fdqpnHPWubV04dJ2X+I+RVJxBDZ39ty1/bffdFtNuOramjFlRrtzmT51el128SU1+d772n+Q8uCDDqoPvO+9ddABH6nPfOoT9elPfrw+/7nP1kEHfLQ+/alPtU/5bLkoSICRMRkhIimAMQhaMrU/3JG5VdE5g7X1dDziU9IYAkNJJU7wlKEPDAokTAFXJmYEFCDAEyTBW+M34Qvw1jIMnx2qMvxGV6ofhmAdpwDfWjgZCaPAB1gMV8Bm9Bwkc6y1Dhy0qWxUPgKs3QpnFbA5kPWMU6CN0YCtMWC40c/A4U11IykJtPg1Byz0aowILIHVbobBCSySIdlwYMZnXuSDfzJRsZFLdgHoMgYeHsFHl3X0Q4fkJqA63lNhSkTmCJ4CsGqX40vg5GcNeJE7OjQyS/BDHxswHx9kSw5knSADv/matYoV1ZadAlpjP+SEntBPXnBbI2g5dlD14ZPO4KYz8+jBXPSBZ8dpF0SfkhGdSg4SIFrNQSf5WG+d9WCiA9/kZb2ka5dH7uwy8yMPgQM8a9iyXZAdIbujd7SBizd6IQd91pAZP1ShSlzszBiezec78MWHBD6+IIGALzgqBuy++BaY6Has4gRAUEriBhMsc7yjIz4gwMfH0EDe7I+cQ4u1ZEQ/aFShS0L4tiNADxmBSTb0b541dKYQIkfyhdt7aIts2I93TYFGV2zcevDIyBGQuyE7ZLs0tJMz/6Ef/MGJXn18UT/Y5Kcw5KP0hk4+iR7j+LU2tgivJhGy18jDOnyaa13WeIeT7MRUPFiDJvSbBx590pdxv+FHoyTjyE9spdPEWzsUSUW85sOOv3yZaAf/9zuV5ySVk0af1I65JJGFgwtroHegFgwO1eyu7pp45901c9rMWr54WT38wMP1+COPtfuUoflDNXvm7Lr91ttq4eCC+s0Rv64tNt20Nttk49p9t1fWVltsVi7pt992m9pj91fVdttu24ycUJzxuT/gPJRkS0UYUTrmBRfnzcZc9tnhqObNt2NgZByU8XEahkSQHEmwY6QUbB6hSSqUS9AUECOIk8JN2IwUHBmdMek3X1+UDV+UlfW2ptbYZppvXbareLYGfApGH7rRz3CcuwpAdiq2nf76OI5N6eAxeLgYnj7jGjgCcr6XxxcHZ7zgo9PvrMMf2hi96p0hkpPASVbGrGX06LSWTPFvmy4YwYc3sNGFJw2PGjrBZOwCsGDuDN9aNKHROjsAdmCnSd/kJLHhD168wYF2z8gPrfj1O3qEH90CBtrhBwOdbEPFBx/Y+IxcPPFsPtqNa2iBxw4VHeCHHuORJxrwCAa+yVVR4CjMnZGjKefnnFkgDA60CY7WkbN3MgFbIJRoJXoBM3Zkrjlw49N7ZI0GiRbN7BxfYJKFd/Py1IdOeARyskEX+ZmjsS3rIxe4zAdbNatit9MgFzolUwHbMRi/BV8/OHg1TwObXZifPnLlo3wHv/wMvfhNwzM94o89gs3f4CFXMkRj/N96v+HHL/7wogAlOzSYG/nh3W/2RPdo4nfWoYs+3Rk5/rJToU+7J3PEGmvQAC5fgdsYXvBkdyWpmGNup1zxhg7zE2e8J6l4xzvZoQeN5uvzDic/hgcO8CQ8PNBh4oR51sDhmXjma0zHw64D2BD+HGkqcN0r2qmI1YpAR9j/VFIZffyYOmfsuS2Z+NproH9eTZs2o2668ZYaN+6quu3WO6pr5uy69abb6rrx17UdzGOPPFZdM2bVeeecW3NmddXYM8+qLTbbrHbaYfva/33vrdfssXtt8OL1asvNN6u9XrNnbb/ddi0IYNRZoAQhMEgSzpBdjhJUKllBxtGPL6fsaty9OAdmtCosRkkohENJUQb4jJVSjXMCSlfFWWN+FEr4jJOi9FtjrXWqdxULowYbXPSZ4x1Oa831W7A235konHCZyxDANN96uL0zBnAZuIQnqfiiS2Xr6xpzGQGDMp9jgANXaECzcQZOlgwoBsd4BSi8WZ91+EGDccmZIeIDPk+wwcy7fmvx47iMAaKFA2pgkSMc+IHffL/JRkB0xOEYSDUNtn50OFKRVCSd7KrAwmd0Qn6hBc3w0acihMzN18gK3tBlfRp8gpHKFgw0GIMHX2j2Gx50gQEWp3ZpSs7G9XniE77oEq8c19N6iUjVJ6nYoTmeUtly/NhZbAFt+vAAPhr8Jmd6TbKNbAVQ9JOLeZoxdKmGJTkwQgt68KcPfP3opmdz2auEZFxg1e+dXMC0Fg6JAa30RCZ2JOwW3fCjiz05efAhiMIDHHJBKzhwoyG8oA0+cAV7PLNHuPWZ5z20mKuBZSxJlDzAjjyiF7/zTl/0bZeFXzAiB2vpw3x40eXpOAxuO0HVuuLWaYmdWBJ+dIFXsqBj72Qb/5V8HIVLumCHJzgi3/h2ZEkObJUcxRP95mt+gw0OecYmwJJU9KEjdq4/9ms9HZKjdXjk1wp9tgCm4ktx636MHTv2slOxW5NU/qnjrxHDR9WZZ5xVvT39tXjR0urrG6iJE+9uCeXGG26uO2+fWOOvGl+HH/r9+sTHPlnXXn1tPf3E0zXlvil11G+Pqjtvv6NuuO762mrzLWrrLbesD+2/f31w//1rl513ru233bb9nQrDcl5JcS58BBPKVfHYUtkVUIZ5mMW4pJK/ZXC5y0nNtwUmdFUtARMYAyEQwtRnnEMSLDzgewfXfA7ECODSrDPmCY5tOUNgcH5TDEWgMTj0U4pmniMd2+YYBl70w2uNecbQrU+TCJxXkke+clOlploWWMxh9PCh0Xqw8Og3/myTrTFX1ceoGXB4xqP11niSgZ0DWII03aDRb3LjCGBr3vXlmFF16F1QJxc8MtbIEo/wolHSlFQYqI8QVLdkJMGo4l30OsM2H490EhrAZi9+G48jSWoCimM/881BJ97oxzxPv9GOL0kFv5KcuWSAJ2N+sxlPDf1gsgFVOXh4M8cYvqz3O7Ixn0zJ0s7LzZvEoQAAIABJREFU/Z/CSfB1lEU/6LEGP949wUKr9ZqEJjm4p7CDQGMa2iKb0IN++nDu7/iNXZMV+syPTs2HR78AJmGqnq0jQ/TQo/ne0ZX1ftsV0BtZ4EVxpyCUYPRL2I5KfCHp4wm7GusEOHjDM/z45BvmCPL66Mf9QGQMt/Vp5uDNGr5uniIufm8+/8S7MU+NPtgLuskWDjZJHuxLM4/9wiEJ8h9zohtH8mzXkR/+VPXmWIcvuCMrcNkI32AP4LMRfoxXNJoLdqes4UaDPvP9Zqt06zc8mnVwwE22eLLGb/gUw97JLbDYD5rgJnfvkas56HKk575KLHIUJqk4XZBU3PHxUUlFrE5ScQT2vxf1ncdfVTVqpO/8x1b33N7q65/X2vTpM2v8+Al19VXj67oJN9Q1V46v4ccMrx//4Md10/U31SMPPVpdM7rqtJNPq6mTptSZp51eW262ee243fb1nv32qwM/ekDtvdde9a63v6Pe9IY31tv23bcpgkH7PE1VrjJhnLI/odtm2ma5DBQ0XJQKOqofScW7r0Vc/AoogqkgytAYC0cBx27HGEOlFBlY9ehdn+ClcmQsMruEA4b1gqt3TsRowVOlUR7nEZhUZBKb4yDGp6JgRAzNGngYMnh4FEAFU9W1gAG3NQxe4PJJos+G7ch8uGBXBa7LO2vcBzimQKvGqdHJydCFRrTAZ641YGsMxrgxiQb/cKNPIPDbzkgVxdjQbp41ZCwxMUQGCQb6IwMyBgcOfEg0cEpuZAYWHnzRlONLlTvjpHf80q0LZs5sLZ4EHYGIDODQJ/BxIk6KLrtVOOHXzyE9OaJx+NGBds5GZo4VFQr4NwY2vZGBAM5ujFnjCQfZoE3jzOaRseqOrtkd+oyzRfLx9ZOjAztrdiup0FvgoE0FSjZsCqx81EHG7nHcP3lP4MAnGcBFrhoazWFbLlnhVdiwbzpEawITmyNPdkNfkqXPS93ZoYMMjOMhsmADGhmRnZ0l/shdoPFHkD64oU87bElU4PUxBnukT/is1+KTaILD7pqM0azyJ1d6Mdc6uD018+0YnGjwW3xHn2jXzA8stsgfJT16ols2ztf1kyPfsY4u6FGSRbfYwzf0a/TjCMjRl3sV/JmPVjrRvNMJ2YIDP51qZIpXsQA++scjOaA3c9FoHG34i31ZT+biEhn6DYZmHn6ib3FJv9/kRqf0gA94Ehv1gYc+dNld+hLTxyaO+nxx6+n4yz2LXalPniWU/J3K/5lURo/239o6p7rn9rTEMneu/0Bgf91776Qaf82EuuP2idXb01dzu3vaMVhPd28tX7K8+nv62w5m2eKl5b90vOlGG9cuO7+s9njV7rX3Xq+rnXbYsT764Y/Ur391RH35S19qzKoYJBUGaEvlWAsDDNYRiWqd8hgrQxVkOaY+VYJzPdszVRmD5FC+7lAdungGx2/VPqMTABlFEhVnYji+7rCN9TGA4zgOqaJ2Hg6uRAAe+JKSC2pfjNkKErKE51NfeCmSYjzhsV6CRKesj0cXt/jzpZU16DDfPF9/Ca54t4vzNVRokMBUCb50ghOtqgpKlijJQeATIMDT8O6+RHACG2/eJSu/yR1tfsMj6HMiayQ4Aco9gGMpc+CRZOEhU3Lx1GeuC1yyccwT2ZODu6LgkUwEHH9X40sTvDhOUO263AbLXIGFbOjRJ5mMHB1wopHu6CSwraMfY4oNsrLOGnzTJxkpVsiAPOEhdxfL+PW3F5qvlsyzJvDApHt4OCUe2SA9cES/BTqJHGwN7ar2HGeCK1CB4Um/dMgWwHEByhbJ386BPFSMbFcQRG/smVzZDxho807m5AEvOtBOXnijW429g2EHBD7ZmK/fXLrFN7uC2xhZmAc+PfvNzgRIAUjS9Nk//nyMQJe+GkITOtAEJn2xITj4oqTATsE2x5h55KjSBh+f/FGfdeyUvpz74wEOsjcW+sGyhp4VKmwdL55oABP97EGSF7Stxxe4GhjkhWdwyR5NLq3deSqG2JggzxbpVOLiJ/ghWzTADy4d4Qd+uNm2NfAai3ytD16yA9OT7XnyR/zTIRlKkIonsMUhPOGHvBSg4hFc8PBVjcytZVdsjQ2xR/Adf+mXIOnenYovUX1SzFfxYrfmM+J/KqkcP2r02p1Kb99ATZk6vWbO7Ko5c+ZW9xz/SeXBmj9vQQ30z2/JZub0WbVwwaLq7e6tiy+4uFzau1vZa8/X1Lvf+a566VZb12abbFqbb7JpHXTAgXXNVVfXQQce2LaqKjOG6FiLYTBCzmcXkuMfyUOfRCLwCLiafhUD4Toa45SCLeZzoSTg+ytgApAAzGMEDJADqxoFA9s7jmHnY56gCIaA4aLKOvNUJQKALO24hpDNEQhkcvSr1MCVoGz9KcEctIKvSjfXVhJe7yo9dAqAgrJjEvxKKhKRoOQdLY5S8C/RSkw+9fN5LHrhZvDk4IlHcjHHkRO6jfmiQxPcydpfJ+MbHy5W0SB5awwKfOs5EbrBlhitAx+NZIxmO02Jkx7whkdrvMNPJo4tVe8qJbsQhuw4k/zQDL6GDmsVHdm5oQkt1uOFXOlGo+/I2W4Pb2wGPdagGQ228mi2xQeDfugGf4IhnjU6JmNyQRedmu83+lSqeMEb/nOZ6Z2+wIWPDCRRMteHVnTSF90Yc/ELN/2GXvTxj8jEWb41+KD/4EMLObET8rXGE61owRu5kS9b09g7OeCP7ZmvoRcOuPDPRtDKPuAhR/yya3+4KYmY48JWcFUoqrjhst7fSvEn8KIfstHvk242j07jdML++E+KE33+dICvkZvCQiGC7uf6qqMosMHDQ/6ugr7Qimf9YJqjDx5PtEW2aKEn/eShZa4YQJ90xV7YBB7wSE/w4z36p0Pypgf04o8fww9ncJiDTroDE076pBs+JlHDTQbgaObDC78k6J1NoCN4yASP1qJFM8/uV1EHHl7JRLIKHslQYkOPgh5cMkezYoOs7E462/Mefw0fPrJOOeW0mtvTV/MXDNX06bNq6pTpNXXq9JoxY8373Xf7T6zPbElmxvRZ7ZPiqZOm1pjjx9R999xXE++YWMePGFUnjh5T+7xln3rp1tvUNlttXfu/f/9277LPW9/aqhEECz6+6pJRGaxttCQiKGiSC4fjvHYqgjJlCmB2Nea4wLeOYYOV7Kl6krD8NkfgMk+ff/pVHGCAJwgJ6BzQXH/s5jLKxTm4zhDBkdDMF7DQZp2/t8l8a8zVZ52n7/jhFnQFI+vdncj2yfjW+/6fAhktZZJFYMOtZT3cPj2GA+9w+nYc/vBpTLMO356Z66MIW9is89t6QdwTXrxa591cNPr0Fw791mhw6Iu+8En+1sBnjnFyQL9AxLBVbByQDgRLARUu8Bis9dbQiSCFZ3ILn2RHV/SIN7zAQ2fm0RF8aCUTfXgiZ3DBwRN85sbO8BiawdXohN7CD1zwskn8gGeNuWgIHWDSpcZm0YZHNIHliSYNrWikA/SQo4QaO2e38MKBRrTDqy/JFwxryAV/7Bx/kRkarTXOdskW/MyPniNLsgIbnWg3H21sj74lYO+CoWAk4cBPJmQmabJjdKLbXDTC6R2/cES+3rVOncauyJKNkJXgrsCiV7aGNvP8xiMZg4MWOOjOfDyjwxwyYWf0QF/4RKs5aEMDXNZb4x1fkgR75Kvmko215kTvcJMpnHRPDmgBE73GPNGLdu/Bby166V8f/LEF8+GjJ//wiS7yxD849I2PwPW0JnT6bX5wwAcPeSh+FClg0hM5KyQkFYWknZfkkjibxPK8SWXEiFF10kmnVE9vf81fsLCmt/+m18yaNWt2TZ82syUYX4PNnt3dLvFnz5pTfXP72h9HHnf0cXXc0cNr4u0T213LheddWIcdcnjttututf1Lt6+dd9i53v2ud7fjJJkUgQxE1nX2xzkJXmWCEdW3DC7zq7YYr8RCAARinurKHFWJSkRVRQCEYj3YqTIYvSqEgs0jGI0TeIKlX7JTlaWysYbxeKZqMVcVoU9FkcrBuHUCpHEVgN8aGmV4a/w2V7XBQP0Gw5jqleHBoZqwRmWKT3SlwiQT/aELnFQU3vXDiQ402nGYT27w5UleCXpkHeMxR4MXDd7BQoM5cIBpTapZOjUXbPjxBDe64DaXnuldP1h0zcEUGI4nrJXcGTf6g8M8PMOroQcc/fCaSzZoMeadLOHEA1nDhy62YU50R9ZaqjnVm2rSGvDMN86WyEu1hzdygAd/ZENfcPgd/HYf+DGXDYKneWcf5uMZ/WD7rbK0C5Bw0aviRIvfKld0Wo8mtGrZsaPRHBWsqpVs4NHA8GTz6GfrjkzAt8Z8Y3gHE26y08hcJSuo4B8PbJjeJAS60EcOfJSunApYAyd67VD4mjXG+alqWZXs2E9cUFmjR0MHHu1e0As+/vCqOnd8a0w/evGKJr/htJ48/cYf/E4bwDbfGJmAaT65eqYPn8bQhE5wyEQBjGcnH46I7D7sosxHL1rhC0y6dGzoZMVOi0zwgB42A7515I8fcxzd4U/xhWZ6IiOxBR3REzzsBTxwzUEr3TryQxvZ48OayA9N6CdHR15kwgbZKzsDDx56Yv9sFF8KB/0ScRKK5/MmlVGj/DelzihHX30D/r9LprVdir9TmdvdWz1zHQ/4fwKbXnNmz63u2XNraP7CWjy0uI76zVH19n3fUR8/6BP1w8N/WN/82rfq+4d+v9649xtrnzfvW+96+3613zv3q2FfGNYUgWHHXi7enIUzSkaBYMqgJIwJDLK0CkGlIvEwWgZgnctF54ouoGy9XVb57QLNpaYvJnwF4gI3l3q+bpHICIjhucxy+erjAWPWucBy6eZC0hm6+c4aKUmF7TLORZnzTPNd9rlYs84FHb5cjlEaXp1vO6cEB62+6oATzbmQ5LCqDZUkQ3BE6BLNEZEzUPg6L3UdObikhRsul5zOfZ2bCiqCtEtAc/CALsdOLorBRa9LTefGDBtOd0jodNFIvmgFI5erxpzfMnjGxxncf8DhEjh4vOfSFJ3OhPGnMBDo6cIXO86qVUn6XRbi0z0IecHpAtlZuzsKfegle3w4i+bInIgtwU3u5KahH23k5tLaGBoEBg7oHJnu2Ae9u5j3pBsfCeCJvNmaYOmcnJx9JGCdew/n187lycg6NDsiYCOaRCFpCgZkSwfk4uhPI084yNlav+mTvODkyPQf24Qbjdb6aMJXO74EolN40eoOhYxc7rM3Hyj4+AJ9GrnDRaYCuUBDfvzAmPn8hV2yb3LDX44r2ZWgR3d80q7GnQDa4EyiwS99kSOawQSLvPDHLtDhfkBwJC96ZRtkQGfWoB1/aPPlExjsFR3m8Hm2Q650SFbWoMeRHP3ydUnEnQZYubymZ19JaWTjaygxA73sQ4Bnd36LK2DYxTgxcR+HTl9xoQsu68GHGw1sWQCnB7/5O5mGVvOtwyc6ndqglY+hjTzFFHLKRwBwBpdx/s4f6dwXXmCSe+wMb5EjHVrjniUxyXyNvyi0+BQa3W/Rrx02nfJ3tCnI7MqSVJwYPG9SOeXk0+q0086ortnd1dM3UDNm+r+XXHP8JZn0+yKsb6AdffX09NXsrjnVNWN2zeubV/fdfV+dcuIpdeQRv6nhx4yokceNqpPHnFLnjj2vrh53TTkiu+WmW+rssWc3Q5YZZXlECjIcT6ZU5Wmyo98ypW2jbbcsqkKw5TTGMCmK8Dk5Q/HMl0qMiwAZGkUQtIsvTiPQCIiqDusYPiUIGsYEXe+CNGVxOEGFcFUNLucoWxCwlqGDA4dLVV8ZmaM6UD25OBPEwUajoMvAPBkhZ+LYeJVYVLqcEu0SJFjwoB0cDoZPdKGbwTE8F3MqIslZhcPhjCVxoRNfAhn68SkgSK52ESocTs2oBC3OAJ/f6LVWclVhqWA5mctBQQdv8KAHbDzBh19OL6A7DqBvPOljuLbrdmcuRM33dQ+ZcIDokFOThSBCl8Y5NfzsxUUzeOSJfrJAB3q8C9oueQVp23o7B0E4eouMzMUrXZKNJMf2FDWqxjg4OYRXc+H0JG8FEdj4QRsHtFNzySnx4YH+rMeLd41u/QZHIrHrs0O3jg7wY30CNX3QP9wuXOFSdPEZydgasscjG2Y/dOQ3PtDHj9gamtkE/s2ld3M0eP22TlXsAxv8CdCOgehPkCIvCYNPKQQFU2vyCStfwbsn2sjcZTVbBQcNgimbEOAknciWXtHFr+haEZLAbj7do9088mF7iiw8kZPkye7cFSiYJESX1/DwLcVHvtbCMxvk5woQlTwZgCNmKPrEIj5tLdvEo3V8kg7ZquYSXMCnI/zij02hD63WsAN8slH00YkdBzukXzFIY3OauRp9ooncJAO0iIVo8REE+sgwMiEfjVzsDunROzrxIKEp0MRmPi6OOMWwo2Rbihx65/eO+SSVHOE/b1I544yz6pRTTm93Jo7AZszoaruVSZP8AUxX67d7cXHf1zvQdipTJk+raVOm1/KlK+qpJ56uPzzwUC1dvKwee/TxWr3qgXrowYdb+/3K1fX4H/0H8tx1uDtZVU8+8WT7vWTJ0hoc9H/5ObMFtqGhhTVrlv+3ub72W7Dr7p7b+mROBms7RtAEKKAxOMIjNAFLVaFaTZUsAXEijVFxfgFYpcmw9UsaHIVD6mNk+vKlhTH9lEUpnD0wjMHBWAVpCYFhwkXxEs2wYWt2acZUWeByCP3gUKQg4jyTMgUKBsewGBCaGT9HwBsjkCRVHN7BUb2jm9EJQMbAgVPzVQv6BWSGZ1tuJwU/WN7xhS5GSj4qNg6IPvzjzzjnJXN64DyKBPjtfMDwLpCriNHmyxZOyiAdb6ninRerdO1Ufc2jCOBwZAY2R8OrYIIvuNBDzuDRm3H61ocueI3la5f0OY6xG/MUtPGBZrrJVzb60Uw32SGBhQfyIE8yFNjYBvlxNPx6p1fFgURrnZ22c2+B1ho8Cexkxz7sduAnV/YDP9x4Eoj81q/hW9CBlw7RZ5zOBBZJmzzw6CIcXDttgcw8dq2RD1sgSzbCRumPnRjHCx3ik07w4QkfXtFMP/zMsZizeIGHbhVFkqhEjJ4UL4IX/Uk6bA0v8NGBwhLPZAC3YshOSD+6yA09nooIhQ8Z29lIXHgnS7zSD17pyzgaBE9Jj0z5kHc7ecHTyYMArumzy9OsQR+46NLAlOjxp/DjE0lanuSIPzTQF3uRQBUMEi675k98gb/yZT7In32RJvmwWb4JDpsnZ/CsIUMw0cFGNT4JLt7NT+JAOztnL3THNjU6ZSP4ktCsESP5GZ3YtUpQEocY5HjZzkQx7SnReHYmlL/fqbTrnjX/M2b0SXXyyaeWT4kljnYh393TLuklFruWLruTWXPamLsVX4VNn+b//9nFnP9707k1VeJxPDanp8037k7GMVpb3zWn3ctYn9bd3dM+Vfa5cmtzHbf1tk+YfdacNjh/sCUVjDFOSuOkGoclKELWZHUVBsFROAUwXtUTBQnYDJ0RCkichQI1yraGAigdnlQfArb1niouiqR88yldguEEnJnTUhjcjCDOxIgYCgNhaGg0ZifmEpEy0arSVCUaT1UFHiOFC1y0M2IOyHA4QJyBA8UIPdEmgKKNvKwVYOwI4MKHAI0ncsITB9DwbIxhCUyMkTGDyck1fDFk7xwEfPSgk5MLPio91bGjGhWqJONIU/BSycIDL/icFS90A5agR45gCTycJLziX+BDDx0KqgKn8TgPPjhsqjxjbIe90BVHFywFIO9g0BO4fsOh5RNNehbk0UbWdAk/fjmzXYMgpDAS4ODJ7pKtwoOmJHVwEtzxQI766FciQQvY8LBdyUmgJCsVMns0Fw92c3DgC/9JIHTIllTM3o3Rp6BNtvRAznj0jh/z0YNfNLANOOlRUmG3jk1yPIRfwZmt8h22hl4yZHtskW/RHzthI3yObMkTD/CSizUSLD3F7+zqHP3xcfTEF9kLPiMX+kc3eVkLBnnBA3/8ET3wRzZiAjnzB0UrOSoU7KoUQT5WwIdilizgpUv6hYu9sgf2Q75wohEt9EkW6AFfjMIHHHYzCqvEFWP8nAzEAbsXvGn66AV8v8HQrCcTPoIveqIH9PFXMjUfDrwlnkhmfFJCkWDt6hVDij+7PMdfEp+jXBf12aWsSSodiaTz1SX9mDEn1cwZXa1JKoPzh9pnxIL/5MlT6957/N3IzJIEkhAkIQlEInHvYr0xicRXYzk281tCkliyNs81SaW33d24vwETLH/dn4Sy5rnm+EtwEhxt2xLwGZnfhC9Iercd5MSUzVA4OmUStCclJwgQKkOgEIrk7JzK1loQ4qSMWXLxm1I0io7DMhaBNYGGAWn6VMUCMsW4a1HV6qd4xg23il2QVSWgK3gFfAaBZjgZG5yMl/FzQkkIf34zePyCS04CEicyJ8mNQXIGzpIjGLLT/MY3Q8STIM/pyAjdzorBFnhUl36r7lz+2cWpMlMV4R89qlLGqRKiG+e4ePDFiqQiuTn/dYRAP5wQzwIkGdlxCAYCLdzkqEpPohHw4kh0qB/v+KQjdsJxyRB/bETjWOiAk97xjWdB13pVPzxwwu1YRKNPvxP48Uj2EpWkL1g6JhGEJBe2hCc6ZZMSN3yCEP3hj37YhHf2wF7wDLYASZZw0DuZsFFwwFQkCXBw45PNpDgQvPCYwAIf3YGHR7xI0hIafHRHnpINmdK7tfCyfzKUCPAnqUjU7hGMOepzosAHBF2B0jPryRF/EjXY8PiNJjZCr2wSXfgGm5wkJvDZv+Ij90rkR+Z8nJ7xj072yg7YPl7hIzt6TRL11OAXC8iT7gVadoFPdKOf37Bdd4B2YmDDR8ZsJrJPAhf00Y0u8NBMZhKN+QJ7kgq+YhPe2WrsBH8SgYRoDXj8n0/qp0O6ZVuSClr5Pr7IIHEDP8bYhTsZayRRMQBcsHxI4X4LbDIThxQIjr8kFUeBbPnvdyqdmaTj/bzzfH0wtu06BH/B/f4Vq2rVqtW1bNmKlhwcd/nMWDKwO9EEfknFl2Fau3/pm9d2Jn7nXsYnysb+f5LKjOkzWpWASYJjBByBAgV9CuUcnIRQBRTKYogMjdO6kKM4AcU7ZVEioXNGhsJBKY4hcW5PRsTwOIttt2DK6Bm7Sso6ymE4DJPiBC/GxEAoHVwBFa1wmq+f8Qr6vhRyJORjBTgdNzAq8wUVNEg2+IaXgXkKxIyDTBh5Lg6tY2gSBT41fOpDMydTYXI0xp7jAIFFIAEzVQ5aBQiGSN74wh/Ye+655i98I+ucK5vPcRi3YOkuQ8CBDw0Cv08dJRbyBE+AkJzgSRUOBtmBR86qMbShGRz8kyd5CCp400+fnmQkuEh4EoSgKXipzsmME2n0JomBTWeSHBoEOL8VKeQHPnrI19MYuVvHadkbp3Rs4BNOR0Pshk3ayZG7JIZXNJIbmGSJD3wKmugha8e87JX+zIXXulSy9Mbh4fAFkYoTb+wTDPYlkOFFI0M0K5LIh13jn07BZ5MpLswFw1MfnwFDwBRwBFk2aczTfYcjXH9Iyhfog1w8yYp8yNATPo1P0CE85IIu8NBoLtujFwWNoyr2QYZosCOShNgIGdI1+uDEB19He/zcOLrYF/jwe+pn6+QAjn6yAYuc+Z8TEvrEN/0K2IIz+sC3nm7A0o8Pl+R4YTtJOOZJQvB6F5cULzn6k3jNNU4m9IMmOjefnXsHl9zgQCMa2J4kiSY42RPZaMbJnR7AoRMyQif4Po5S2LpekEAVgY44JRI7GEUOm/b11z+9UznuuBEtCQwMzK/BwaGSRPzHJCdMuKEljgWDC9tOxY7F36nYlcyaObvdufgtGbWjr+6ecmQm+bQk0tXd+tsR2Kw5LeF4T8sfWK7dsTzPTqWvr79dRuZTSZnU9sxZoMs4X2s413Uh7PKXgTMEBk4glCcgdQZbionDCgwEzdkZlODqSyFHF4KeoCSbOysXKOw4BBxGzaEEScFTAoMnDgoupTMGygSbQaocGI1qjcP4vlwVYOuJF080M+j8tbezUjsDCUZA1AQNSUDlBwcnZSTeGS8DE1Q4poQk2aJRxe1yVxCyrfXtunsdx28qcLjtIARDlQy5CFwSLYNnkJyXE3FcDslZOYREgiaykfglesbqbxYYq6MSFZ/jIV+YOBuXWMnc1z3krbrnYGQkgCQgkiW45M258Ag3R0ajwGQuHq1HMzsREOB0bGN35PjN5avkbQ7c+JWA0E5XSbjRWfglUzIgU7ySDxtQOdIN2bo7EmA5piMFH21wTkHRrpLeBTh0oxXt3sEkQ8EBLwIcfpIcVM/GrVFECQQKEnJ1FMX+XbqyKQmUXbATuxtyA4uds0u6o2e4BWDBB2/G2BD8Aqg5bJstSmDs3iff/6+0ewvV/DrrOO6d4kURq8VTqCheVileVomFBCrEpskksWicVKymh9TUGKq10CaZSTLRUCQKiihShBLBnBrFtEnqTTwXvYgVSxi10LSZTA6TzGROe0+WfP7v/u5Z87r3dLcdWLPWf61nPc/vOazj/33f7UM23jWISzj40wcbxKgkdshlT5hhpyP59FEWR3xq8nRiMSZbzMQwLE4sxnnfD/MhGHY0+bE9XGTwhT6w858xiDf/0U8ssYU2csg22RqLfGtc8okNi5hiFwl/vvOOTAyxiTjhc/bs9EE//eRs2SQOkw2F+CCHj/WB1ybV2BCj9LLA2Eyygc0lH8Jl3OILc7HQ3MK2LTTGjXFo8WBn+PhRnU2KuMFHH/a3iRHnPiBl0ydezQE+DGEBtajA5QbCxtB3pPa0qDil3HH7wWWBOHLk6HjwwUfGvquvHT/4A5eMN33v9433ve8Dy7XXl7/sr7z9+7JIyF1rWVxcjzmZeJlvMXri8c8vC89/fvG/xpe+9Mxy8nEdVnKN5vSif8ki5NSzfgXmfY10+PDqi1eO2AatYDLZWDAYkoMdoU16BpJPKVlsBB/HuaKxG2Z8g6kHJ8H8AAAfeUlEQVRdkEmJowWWes4QECYbAWi1d/KwS/OJM8GJB6cIQANBEJjATKACwA6igYMvGRzIufoJKmU6CFA4fbLNJM9xdtKCVkALBpOSz7Zb2EwWJiWy9DXA6S9oTQgmITkZ9BBUeJAniAWrZ/ZiKzthOvaRRAMPnUnbtQHeJlsDyw7YgBPMBiO9+ECwsqG+BjearllMRvD7kIVPmsFlUBgcFjTvWbTDpQ896Whho6fJ3gTL1uzFjiY52EwWeNERpiYHkwY5JiqDkb70MMG1gzPhGGB0w48t2BONwc+n/AAHPfE2GPmVD00KfE1/caKv+HMa8iLY9RCdfaJHLPYdAvFqYhZfFk/92EvOJwa4yZ9smwAbFL4zUYo7kxb/wEd/MQuPxYzP1PGNOthMyHjS1TNZdGQXvoJDG/vhq41c/dmEDflBvThxMmpXa6IVa8YV/zllW7CNN+/4LHpy41F/pye+ksjiO1j5ip/J7STG3tr4G1Z2dwpmg05Z4kTcWSDYiD/QqxP7dOVLfmM/ccRH2sUf24hd7WSwKX1bfMWbydSGxxWQjxTzK5u1ATHu9eMX+sBg3BoLLYpsaRNhDOUf+PSho9OGcWsRMneY6G1a4IeHbdm5eQRmPNmN/8WyeQl/8wY/o2dPdiYHLvqwIwxsoD/sNq0+5IHWqwQYbAhsvGwSjFPx6JbIly/nK7Bvm268Lij+2Z/++bjjjoPLO5RjL786fusjHx0//Ga/cvv94w1v+K7xoz/yY8s37p/72vPj8OH/WSb/5dNfvhC59RLeacUJxZXYM88cXui8U3ESQaO9E47FxafKuhJzyllOPd7pfGGVarPY4OETYnZkrmwYySDgGA5gJA7lGAHOKJIBKdmtCGSGFUgCsMlPnWcDT5mRG0wCg+EFnUDhSM4waZmo0OUotCZFA5Qz5ZyvnbMEBv7KHG+AmSgdWdWbgFx/2bV4FiwwSgYkWYJF4JhA6IEObm0WF3X4ojfRwdNiJkBhJtOAwAM+gQ87m7KnZIDhxRb4wEuWic+A0y4ZsJ7ZrwnMs8kNfycAk7mANAGZNAWt5IQIt9OliZh9LIyC2eA3mNiK3emRjvjCY7FSz77pzeZ0ZCM+gBF+9fyIhz50NanQFe50Yzv9yWB32E2obAQHbHiKJfYkg2z2htkEarH3bOdpR2fnB4/++BdL8nxJ1/xssVQ2WfGV2OZbuMnkbzqRByvsxgIfaBef/EpnffTFy65XDoPrI3LYUR/02vBmczbBTx88+NSkKHlfhKedLdy+c+X7HTYleNgUWYjDKtdfLp7YSyIrndiBb+AQi9krXHQ0SfIDHsaGOljRWuDZSplu+MLGX56N2yZYuZhBy5eNcf6hN/5h4wcYLHBOSq5qndDERacgMQ1HCW98xbM4UdbG355hUUbHJhY7iwW5MMOjjk7K2Yq+nvErlsSpdvZtblLme7GNB77o1cMqZtSxUZszNrLYGJPmIwuUTbeP0vu0m1O2DQLd/dvTonLffX84Dtxx57IY/Pfh/x3X/+L+8cbv9qkg97yXjEt+6M3j9tsPLL8B5krr75/6x+VUsiwSX/i3ZdHwvsWi4nfCvvKVr46jz784Xnrp2HjtNT+JAMgqbW6+PjY2/ETC5jhzemOcPnV2lU77yRF/E9zPgviZj82FDv25zTGOH1/9FIaTiiOhQWHXwbAmSfer7lztIpxO7Hgdy01sjuK+Lave9ZlPcjCYiQmNk4L+rrvQabO7cjKwK7OzdCXl2saiZrfptKSfE5BBpI++dmnkCUI7Vp/v91FICX9yrPiuXtC5B7cj8H7BLwb4OQYvzPTvm87uW13DwUIGLCZiZTtgV3F2kD5PbscBm0nNFaHrJJhd2bEJXdyN4umojaeJwDeN6YvGRGj3Aisd8GVbtBY99iMPTvLZgP7o1NmZs5UEGx1drRlEXtJb6J3+TFCuUJxg7HLt6tnWxMyOeNsp0tVOsY/PaqMnbOxEN0d0/lDPtvSgI0zslI3o5mqxb2KzcX5mKz5xcuIv/Mm3KGZrdqC7q1Cxo0wuvdmd3XyYxAbBp/lc2cDA99rxlPT1TD6cymyAFh58Xe+wAT/R0+BGa+eILj/Qn17sxPaupIoTvqcrXHjSnS35VkyxfeOB3ciAD14yyTKm2JUMWMhwzWahdnr35T1+NWm5zqST5KqRvZwo2JSN4OdHthYXxoeEHj70rq1tQsQqnMYsmXRgdzjEHJvRE70xwQ5izgSoje58Qx4b8KnYgQW/fAwLm8DG39mYH/Aiw9UeX7rCJUOckGmcsY1+cnLoxRd0QGsxZje2p6NYpC97KBs7sNLJ6ZV8/ejOdrDhCY8ktvlEXPKRGIEFVjGElp70I8ccCI8xor8bB7bEBzYLjEXQicmm3ObcpgtW41OswdmHT/a0qNx77yfHxz9+2/A+xUTv02BvectPjO/49u8c3/PGN43rr98/Hn/8yeGLj3K/A9YL+6ee+ofxz//0r8u1lRf7Fp2777pnXH31NeO9v/Jr40M33Tw+8P6bxk0f/PULkvo5fex3/LLobeMTn7h9SbfddseykDlBHThw57j//r9cdvOcavX00b7en9hBMDxDGszulk1OnGWiFnQWIcYwgVuZBbJBb9BoYzw821kbHN6fGGDuUX1xzk7UYHPEN+A53KD0wtKA5CB36YwvQDjQ9Y5gN4GabASnnZ5dPvkWSYPTJOPe364CH/fxdoN2JoKV3vSzuxDI5FgUDR4LkoC1exU4FhNt+Gijh8ChKz1NJnZK2pyQyGQrR1sDwc7KOxb/LNiC0H2rAWOHZ9LyyR+Dk57u0+lvt2hw+NihgLZrNqDdw9JNm52V3ZKFmAyLKEwGORwWOD7kBycX78cMMHjJYE8DxMaCnS1EygYW/1n4vMNhA0d3Gw+DMz84ReDjqtGgcRIRP642yCNLfJkE7Gr5C0Z2Rw8bWWKI3j6xZ9CyKZ5so82kAx8sdrwWY/4nw4DuOx7w0NGJjb8sqP22F/u53+YnE4ZJG07xbTdqMYCNLHzojJeTokkArfjlTzGkjV4w8HufpDQheafHV3a8NgBsYEcrpsQFWU4j/ORLj/R2324nbwduDBUzdBPPTjv6iQc+sFsWXxYFdhcjPiFnDIlzct3l85kk5tkYH/HupkI8mnjJR+sWwvgik/2cltSzEWzGjLiA28TPRt63OsWIQePaQmVMmuTFgjHu1MAmfMie6PE05sl0Xe0fnxgD/GDsuZ7zcVw6i0tt5NlIigNjkF42uGLK7t8cwH/8yNdwsJVFmf7k2+SKPe/OYGVD/nTCM5fAmgy+Frd8Z0yaJ9mIfLELu7nMqVVcwsoGTis+oOKkYv4kz3sVeMSleQftnhYVL+lvvfUjy4nDFZf3Go899rnxwF89tPz8/bPPfm2cOH5ynDhxcjs/efL0OHXSjy+eGqdO+XG+0+Pll19ZPor8Gx/+zfHWt/7kuPwyx8AfH5dd5os+P7ukd7zDZ7kdg/1lxSvGFVdcOd75c+8aV1551bjqXfvG1Vc5vl6zvNPZt+/aUbrvvj9YDCpgTBZWc5OLYDPwGFDw2YWbYK22HCVoDCL3sYzCeH5ewUTJOIzlOMohJnHHbE4UwAagQUaWyctO2+SmbFEyOdpZCSKDinw7PS++OUiAG9gGuCszAcSh7k7x8o/z7BAMMAPZ4BIoXfU5GgtEAeS6wsQrQGAwsZh8BY3JA087EzaBUxCZTAWnqwOYLYgGjOtCgWjAmbxMjJ4NAicJwWRBxsfgYHO62sHQEa1BDBP97Y5cS1jkDEyLFPkmaQPeRASLxZJMvC2qJlOLioHsSsGk45+B4hpCYDdY5ezH1gaEAW9wsTtf4Uku/9lIWKDYE73BasfJv7CygxjgezFlknX9oQ4eennfBLM2cWASsltlR/3EGjuJITLYweaGTLtAfCwG9LAJQW9xNzGxAz5sZNHnb9j4lK342LMJgq0tThYrtkMvtixy4oJ815z0ZU8yJdjs9umFjwnVhGzDYZNgcXXVYsI3Tkx0ZFgsxJRrtmwnLsQ0G/ZDjF5c86EJjH1trvwzrsS1eLCosJ8J00JijOFhc2GnTa5xzJ/GIBtaBMU124s5urEHm8EnXo0rC7gxaKI0qZsDjA96i1H9jD2LHb/yIZ2NTxsGE7V4Envey7CVucRCYaG06Jp0LRSw2xh59+OKiL/EkLmEjfiaj4xXiyQ96G9M2siyrTnJYmvz4SrZGGQLkzZfO32IL3Gmzdix4NCXXsaC8Q0rGWzgSsx1Ln9ZOF1biW++sVm1QFiI6G0xtKGBXfygZbv8ZyPt5ONkYi5iG+PeuDPWzTn+7elFvZftDzzw0HLi8JJd+dOfvn941/KpT/3F+OM/+pNh4ZmTH6G89/c+OfzVyHsO+VTSgeUK7eDBu8Ytt9w6PvrbHxt+/uXQ3Y6bv39B30OHfndId999z3KquevOQ+PggbuW/j4wgJcTypxuvHH1t004w4RjtRb0Fg5ONVgYjEO6DhPYglW7AWi3YXDYVRp0JlcDUjDpjw4PZcErkASDoMdL0l+9nZQ2C5ZnA8ROyOSszilFAJHplOJZH7s//Ex+7qzROqKro5vdP74mNXrAKtjoZSdpIjLgvDw0getncBhQaCQ7IINJGxkGlEXL7mT//v2L7iY2MgSLQNXPAECD1kICG7vhYyIyaJTZBzY6xxM/ttPPLosdXCvokw/wg5sdYeY/vmR3eNXTXX8TnQEs4Q0H2/OXMvuxA93yH0zkszWM2i02fM0m7Mh+Jjjy6cy+2c9gJENM0ctCjR8ZbK2OD9mMXnwLs0lJuzaxIA4kZfJtCuhgsUPLx7CxhxjhB/aFm33pTJaFAHY66+8Uxn76wk0GHPDgJUfL9iZjfenKpnRkHzYIKznsTAcxygd0xgst/PobJzCLP/JMyDY+MNNZ7JmIxZZxM8cfGfSjD8zo2IGubEMHOJ2W4GBvNoEZf/jEFZ3oB6M62LTzIf+LIWWxjAf8NoPsxqdiBk/24zeyyYGLjuICb+18wGf8zm5wNbfoZyFQzxZO72zKfvRgJ/jIdUoig450N+nT27hRjxfZ5HomV1904gS/YsQmxTNdlOnMluj5zJjFy5jjJ/ZhCwuEsYAeT3FBHtniSR+06sSb2wT88eQTdrExsMDZ0Dip7GlROf6qo+y/jIcefGT4cUmT+odvvmW8+92/MK5851Xj8st9e9PHRc+nSy99+/iZS73k9gklL7F9t+Cnxtve9tPLaWO5+vrQzeNX33vjuPbanx/XXedLfqvkWbrmmutWaZ9vf/sDU+9ZpV96z7hh/y+PG244n/btW72As9Oz87PSmoQFt0lLoApe7SYqTrfw2FEKeoNNveMgOsFvV6heXwPHZGZgGBTo0Gsz2ZKjzYRDdm3ae3GqbJcKgzK56JXxxKOFUPA6BZj0BZx6V0vpAhs9w43WcR5/eOxwYYS7UwkedNaPLO3a0MOkzbM2iSwyLXTs5Bl/eAWs3ST+9FbPZgZrPjCQ0XpGg6ddMez6sRP+ZMrxg027ickzOerYiV/0t8OU0wdvbei8rIQRb7l+7JBO5KHXTyKHjPxFf3zyXZOhevLETHzV8Rkd2REGdsKTLmIlXcnSzj5sIC7JQaMPjDDrC0v1+HqWswdb4mNXqg5OfbXh7Rk9+cnh22yivgkffj5DxzfsIsFFDj766U8W27InW5KvnV7ayIZZrKoLJ1o7ajLiAy89yRG7ZGrHh24S3mwPr1MJfPCSDzMZZMKknzay8MQfT+3wa2OX7JxdyIDTM5voQ6Y+ytr01S7HD//4wAmbZ2MVHX+zAzrY6QyrNiemysUzveB1kpbTRRzoS0/P8Eh4qJP0wys6+PRThxZ/uTFLd210EnfGp7ZiJj7sR+c5numoP935nL50Q2PBbnNiEXWCcxrb8/dUjh93P7n6S49PPvl3y0eEvSt54onPL3+r/rOffXz508IPP/yZJX/kYT91/tfj0Uf/ZnzmET/f/uh48MGHlz897Lstj/3t55YX+f7OvY8ZO/1417J8b2XrJ1r6OZflI8Rb36T3bfqS9zfLt+p9s/7pL46nn/6P5X7R0dbR3bFM2eqp7JjomOkI3RWZayB3kl2ROYa7gkLnqkR/70scj92XetbXkdyzekdVPN33OmKSpT8M6B0Z8XfcRev+FA8JvTr8POuHpyuKyo6iyq4ctOGnD9zq5bDI8VOms2MynulAN3zxIw8NTHAKCFcmjuvw4aOfNvxci+jjrpd96IofmeHByzOMbCDVhhf8bAk7nnBoV+eYrh7ecOODLjwwwUM2ftphYAPHd9j1deVFVrqhVVdfumrDB3/y+UcfNsALFvJgRAMfPp7ZAk598ESHl3iR4EFb3LAD+frgpS29sje7aUfHJnTDK3xkaMe7NrKVw4RvPkGHXhs6/OHBG57000YmOeq0h4+fXe+opx8/4GccoRM/cKWnPN7a0MKgH1uhVa4OD7ZGJ2mns3b+yUbwZFN1rlzQw0Xf/Cg+YYA7fPTWH0902vkYH3V0Jze9lfXJr8roG3vZSw4j3nygn7hgGzq5ToZZcp2HT23mCjjIJ1dy7UmGVHzqC3Nxqd4z/sr64enKiR5k+sACH6CR48tW6FzTGR/qYYKXf5W1y/GlL9l4ui7VRl91/AgDfeCXsglfuCab36c4sez6kWLvRF47cWp5Z+IjxcqvHPOC8vg4+Zo/PHVieV/inYl07NirS5t6NHKnHYtTdc8//8LyCTD89PGuRjry3NFVOnJ0+E7MQnf0xfHiiy+PV1/xR51OLe9qlk+FnT67vK+B79Sp83+MqntcSrp/dn/ovlPqJaKJwh2kF3ruZpX18xLU/S86BjKRuvNvBcbDy0N10XlRiYf7a3e3+GgjH39l7Rkdb/3hUtZfm7owc5J6SWCQq939ORn6wSbBRo567yvIl9xhx08ZBvXq0JKvLIdRG908oyXbcRYtu0h2I2RqI1cfesvZK2z41Q/W7JPOcvzgVsYrGcro0xEv+NGxgXZtdIWFTdCTr82zRDf02siBUb0+9MRDjo4M9crq0ZKnHs/sVf0sk43QksMu/iVDXzLkdICZDHX6qSdPghGP4gjP6vWZn8MKl7I2uqJXByf+5LArPSrjhZa8ytrqX1v0MJHBvvkoO6Dxj950I1vCA71/+qSnfto8V64dnmxBH7w9i30Y9FPHPmxp0sKjsjY44SgWjfPsYIxblPTJJmjJ8Ewm7Pih06aOPHEPR/LwpYM6i4QyW0ZHF3iLK9jwsuCqJw9f7frhh5fkWX8x1jPscKnPTnI81cMl0QXubNEch6cynuSzCfowKCcDD/aGCX++hRcP9TDjgS6ZnuHxb0/XXz626+O8Ju+zZzaXj/RaLF5+SQAdXyb5jbPnxnbaOLd8zPf1c/6S4uvLx4Xlmxv+frG/arj1EeJNwXhu4Yk3GZKX+hYPi1fJS/8+Srz9ceKN1xeZns+eXU1yjCkxhJzSFJYEXMHNWZwhiNB5ZjhGYzz0nrUxbDzxqz1HxINRlTP2XE+2ejzR4YePOliV1cUDDm2cri5HodWmHv85iAswTtdXO1p86a0MB92U6d+gxy8MaOjmH55kZEc81eEHi3o5jPppF7D0RNNEpI+XexI88OGL3j906vgBLxj9w19fdRIaONNRmZxZPtn66EsWGXTFU399tSlri06eDmFMV33w0EeberLxlMJMD76qv/pkKccnHfIH+vigUdYPnX50Ymd01cMg4WFC4EPtTaLoko2ntuIg3NrVl8jQHx1dyVaWyOIf7f6lp2fxZCOEHx7koZWzsbJED7LQoMVf8izBpR1dberIhoeubCKpQ4e/XLs6MvGWz3qSL+bwRQdzfkCLtzby1YdTPduiIUcbXtlFe7bS36SOjl1atPBC71mMaAsD/Mr46g97uD2rJ4P88GUjcsVlWPHWV06evvpJZOiPPuzVsYWyvvpkv/RqvsiP+OSz/Kaueap815OKDYeTgVOJCdynvI4efXF89dnnllOFE4iPGm+nMxurBWbr+yYWjmVR2fpOiUWlhWVZpE6vvncSjdwCdXZJAvz/p4XnDotKzmAgDmRMDmGUnM9g1XEGGoZWJxcQjOdZWTtD5zy5OgYnA285erwLEkZW1heu2vT1PLfhiW5O2tH6h5dAgJduydSvvgaMyQUO/NEp60M2jHiGA080ZKjXro1e+MCiv2szuefkoSGjvnK88MQDbfjV64cGlgJVf+V0JtMRXU4mXpI+dk109iyI4SFHfTqHkZ0MWs9NIvyJLv3Dly3oDiOsErrK+OGFhnwxUT90JbLwRUMeGthL6vCgM574oMU7+9BRwlM9OnbCS8IfLv30QeMZz+IWTXbWJzrlsMWHT5RL6YwOD/LrAwdsNgboyMuXaPHKp/qwt2sp11rZDj3dtMvxkeufXbXhExb10dUPXjT6KvvkVzJMqMrwiBV21z87o89ebIIPvuykns7JS5+w6FtZHwk+ffDS5hkuz3JxgQ8d1WnPbjDCmh7q0SRHvb5ScrVJ+LWgw974T04LYfT0l/AiV8JfTq4yGXilW3T6zWPQM7tqx09ffdihBUW+66LSCcFEbuFw9fXCC/5u83Pj+SMG2qnltGGBWFJfTDTpW1C2Tii+pCh5dhqxUC2njrOO1asvNZZv84rn1gmpBSa+q8Xn/EmFggzEkAYAh8kpn1PKMx4nomOknCPP2XhqazfPgPE2wDgTLZk5pTLj48/RjI4Wr5yoHW0Owtc/9eRwpH5o9EkXz9rhhE8iW7s2feisTDZaGGGR9EOPp3KTszp94YHBYNWWPejLDujwzq74S/HGtzIa/cNTnq/gE4ye0ZmMyDX4tBk4ZGYjfNM9HOTNeOigLVnJl9MHL7Yq5X/1+R0/PJpklPMjOnxgkeBjL/xL2QSG8GrDB1680lEOMx74aYdNLmUrbfpLaOOd7dXpRwdtYVPnWT0M6RkPbSW8Z+zxgy8bo8VHjpe4drWSXujUFz/KeKoPq/7kk4c3XtrSlU0kddqyUbrxizrPYoYMPCV49NOmPt7qJHJh1X/dntrwk+vPt2yAj3zmga/+fBnGyurhkPCS6A+f67X6yckLY/5Gqw0GSRkPdCV4xCFM2uMBc3FUf3ZlM898JS/mlNHjjxfZMw6YYaQL3tmX/dDCoT8Ze1pUOjGYyE32rqSWdyPHji/vOSwO2ua0feqwoGysvvW+vahsvr69mGzTWWxckU0p+hYifC6QccHz6shOKYaSKFlioPXECRKj5HQ5A8sZUo6G0dTnTG3qCjTPnKFdn8o5GQ91+ki1o0WjLpkwJ1u9vrA3oSnTD2580re6nrXjVT1aiRx86VMdeXBkj7ken5mH/uhK2pX1keNTXeWwwIPGc4nPLBxNGvhoU9diE565rzq48nGyoy2HITvTc/ZZds72PeuLXzLgSbYcnZQO2WSWpW7mi1f0cNObT4tZbTPNbrYLF9oSWmVtMwZ1fJ1eleVSGOXxmHnOvJKbTuIHj2jIoBc/ppPn+PGT+pK2OeGfnfEKT1jxSbZyfdNBHyl6/dMxXmRI6PTDp35zX7p5lhcv8nTWN15yWPiyeKWH/ibi8HiGQ46Xcj5Ho37G6zlactNdXWX02tKPPsrq8Q6HPspwKidHXZjooVxKv/o1dslQpqsxmh96XnbFW//telLZ2FgtAssp4czmcsJYvRwXPGeW00snDpP+cjLZWkwqzwvETmXvXy6Wlp9x2TrlxPN8bkE7PwFRktIpK19fUKLJcAyVQxiV076ZlEN2yvETAN9I0icnGoz0oJs6bQUYeemwnq/ro08p/tlhzgWTRN5sT3UzXeXkpjveUtiiW8/5wjVFiyZZdBWw6rWHpfxiOqWbgVO5PEywzrqlozwZ5eFNP3k6pes6nuTMOX50kfhxnlzJiH/y5GEon9t2Kkd3sTy+8mSmj+ed+FanfdZJOdulG734sgWzdvUWnOobk7CGI/58t+4/srJ3ONMzfD2XV1+enL34a13PYkiuLRlyuovVFlQ6z/T1mXVIl6+Xh7mcLrPsyuq/UV7xLF/vDze+s8/yY+OTH+nt2Sll/rfrouL0sJwQescxXUltX3d5Ub91Wjk/2W+9nF87qXxLi8p0kplPNZvL+5vVOwcOZugCaTcnzDTrRl0PqL0+rztlfsajwbKXnEP1h59OHJtu8bJANfh2wzgHN5p0lV/MNnOwrttyfp7L8Z71nsu1l+vbgEw/A1LgFrTpHB75rNN6ed0OyZ/1JQNfqclNXp325KVfmHfLZzkzjf54rcukbzqjqU/y6qNfqbbd8uhmWbOO6SdHQ8ZOsnfjv1P9zHMus2cy5E1Gcz359F73mWf2zCbl4YVDeT3N8pVrX8cdv/X6iz3XR46OTiWyxGsnFfXRr8dFz+XRzbLDLU9G+bqOPc8y47mezzJ2Kq/T8wMMxSrf5cfGp7pvalGxULRozPlOC8iOdbssBtsLzPSjkv245AX51vuYbfq1581Ni9pqp0BJBstp5bPB1g1aW7Q7Bfle6uq/U05GgbHXnC4c2i6A89RxdDLwXdenoKw+/TzX9vVytPolp3zmFf85F+QwljzP+pK7Tn+xk0r6znjXMTSwZpnV7ZTDM2PYSzmZ5QbXnJJdvpPc6tA0UNWRH9+w0Dd6+V4wr9t5ttksI1nrebLXc3xm3soztsrRzHLry1YmXc/JFVPJqs/8HL/y7BCtHH38dstnnvWdeYZ/tzzaOZ9p+XN9UUEbvuSHr7E057vNLzONcjz2ku/UNyw75TN/5W91Ufk/r95ZnzwgVEoAAAAASUVORK5CYII=;" vertex="1" parent="1">
          <mxGeometry x="380" y="180" width="300" height="40" as="geometry" />
        </mxCell>
        <mxCell id="jydLiOGZCY1Jxmdr5eNa-5" value="" style="image;html=1;image=img/lib/clip_art/computers/Server_128x128.png" vertex="1" parent="1">
          <mxGeometry x="210" y="30" width="110" height="80" as="geometry" />
        </mxCell>
        <mxCell id="jydLiOGZCY1Jxmdr5eNa-6" value="" style="image;html=1;image=img/lib/clip_art/computers/Server_128x128.png" vertex="1" parent="1">
          <mxGeometry x="400" y="30" width="110" height="80" as="geometry" />
        </mxCell>
        <mxCell id="jydLiOGZCY1Jxmdr5eNa-8" value="" style="endArrow=classic;startArrow=classic;html=1;rounded=0;exitX=0.11;exitY=0.25;exitDx=0;exitDy=0;exitPerimeter=0;entryX=0.133;entryY=0.5;entryDx=0;entryDy=0;entryPerimeter=0;strokeColor=#3333FF;" edge="1" parent="1" source="jydLiOGZCY1Jxmdr5eNa-1" target="jydLiOGZCY1Jxmdr5eNa-3">
          <mxGeometry width="50" height="50" relative="1" as="geometry">
            <mxPoint x="380" y="270" as="sourcePoint" />
            <mxPoint x="430" y="220" as="targetPoint" />
          </mxGeometry>
        </mxCell>
        <mxCell id="jydLiOGZCY1Jxmdr5eNa-9" value="" style="endArrow=classic;startArrow=classic;html=1;rounded=0;exitX=0.11;exitY=0.25;exitDx=0;exitDy=0;exitPerimeter=0;entryX=0.133;entryY=0.5;entryDx=0;entryDy=0;entryPerimeter=0;strokeColor=#3333FF;" edge="1" parent="1">
          <mxGeometry width="50" height="50" relative="1" as="geometry">
            <mxPoint x="260" y="360" as="sourcePoint" />
            <mxPoint x="100" y="200" as="targetPoint" />
          </mxGeometry>
        </mxCell>
        <mxCell id="jydLiOGZCY1Jxmdr5eNa-10" value="" style="endArrow=classic;startArrow=classic;html=1;rounded=0;exitX=0.11;exitY=0.25;exitDx=0;exitDy=0;exitPerimeter=0;entryX=0.133;entryY=0.5;entryDx=0;entryDy=0;entryPerimeter=0;strokeColor=#3333FF;" edge="1" parent="1">
          <mxGeometry width="50" height="50" relative="1" as="geometry">
            <mxPoint x="270" y="360" as="sourcePoint" />
            <mxPoint x="110" y="200" as="targetPoint" />
          </mxGeometry>
        </mxCell>
        <mxCell id="jydLiOGZCY1Jxmdr5eNa-11" value="" style="endArrow=classic;startArrow=classic;html=1;rounded=0;exitX=0.11;exitY=0.25;exitDx=0;exitDy=0;exitPerimeter=0;entryX=0.133;entryY=0.5;entryDx=0;entryDy=0;entryPerimeter=0;strokeColor=#3333FF;" edge="1" parent="1">
          <mxGeometry width="50" height="50" relative="1" as="geometry">
            <mxPoint x="280" y="360" as="sourcePoint" />
            <mxPoint x="120" y="200" as="targetPoint" />
          </mxGeometry>
        </mxCell>
        <mxCell id="jydLiOGZCY1Jxmdr5eNa-12" value="" style="endArrow=classic;startArrow=classic;html=1;rounded=0;strokeColor=#3333FF;exitX=0.466;exitY=0.25;exitDx=0;exitDy=0;exitPerimeter=0;" edge="1" parent="1" source="jydLiOGZCY1Jxmdr5eNa-1" target="jydLiOGZCY1Jxmdr5eNa-4">
          <mxGeometry width="50" height="50" relative="1" as="geometry">
            <mxPoint x="390" y="360" as="sourcePoint" />
            <mxPoint x="230" y="200" as="targetPoint" />
          </mxGeometry>
        </mxCell>
      </root>
    </mxGraphModel>
  </diagram>
</mxfile>
